<svg xmlns="http://www.w3.org/2000/svg" viewBox="1027 308 75 56"><defs><style>.a,.c,.d,.e{fill:none;}.b,.f{fill:#fff;}.c,.d,.e{stroke:#fff;stroke-linecap:round;stroke-linejoin:round;stroke-width:2px;}.c{stroke-miterlimit:10;}.e{stroke-dasharray:3.155 5.259;}.f{font-size:17px;font-family:Roboto-Black, Roboto;font-weight:800;}</style></defs><rect class="a" width="75" height="56" transform="translate(1027 308)"/><g transform="translate(179 -1216)"><g transform="translate(850 1531)"><path class="b" d="M27.366,16.474h-5.3V11.1H16.474v5.374H11.1v5.592h5.374v5.3h5.592v-5.3h5.3Z" transform="translate(-3.766 -3.766)"/><path class="c" d="M32.008,1V16.467A15.5,15.5,0,0,1,1,16.467" transform="translate(-1 -1)"/><path class="c" d="M40.3,3.469,42.769,1l2.469,2.469" transform="translate(-11.761 -1)"/><g transform="translate(0 0)"><path class="d" d="M1,21.889A5.5,5.5,0,0,1,1.073,20.8" transform="translate(-1 -6.422)"/><path class="e" d="M2.1,11.784A15.357,15.357,0,0,1,13.791,1.4" transform="translate(-1.301 -1.11)"/><path class="d" d="M20.8,1.073c.363,0,.726-.073,1.089-.073" transform="translate(-6.422 -1)"/></g></g><g transform="translate(920.42 1572.671) rotate(180)"><path class="c" d="M31.008,0V15.467A15.5,15.5,0,0,1,0,15.467" transform="translate(0)"/><path class="c" d="M0,2.469,2.469,0,4.938,2.469" transform="translate(28.539)"/><g transform="translate(0)"><path class="d" d="M0,1.089A5.5,5.5,0,0,1,.073,0" transform="translate(0 14.378)"/><path class="e" d="M0,10.384A15.357,15.357,0,0,1,11.691,0" transform="translate(0.799 0.29)"/><path class="d" d="M0,.073C.363.073.726,0,1.089,0" transform="translate(14.378)"/></g><text class="f" transform="translate(16.005 9.095) rotate(180)"><tspan x="-4.922" y="0">$</tspan></text></g></g></svg>