<svg xmlns="http://www.w3.org/2000/svg" viewBox="1002 457 123 94"><defs><style>.a,.b,.c{fill:none;}.b{stroke:#0099d8;}.b,.c{stroke-linecap:round;stroke-linejoin:round;stroke-miterlimit:10;stroke-width:2px;}.c{stroke:#404144;}</style></defs><rect class="a" width="123" height="94" transform="translate(1002 457)"/><g transform="translate(1026 463)"><path class="b" d="M35.456,22.474A6.145,6.145,0,0,1,34.1,18.407,6.508,6.508,0,0,1,40.607,11.9a6.6,6.6,0,0,1,6.507,6.507,6.668,6.668,0,0,1-3.8,5.965" transform="translate(11.77 3.876)"/><path class="c" d="M63.628,49.281v-8a1.794,1.794,0,0,0-1.762-1.762H60.375a1.872,1.872,0,0,1-1.762-1.356A24.4,24.4,0,0,0,55.9,31.794a1.841,1.841,0,0,1,.271-2.169l1.084-1.084a1.885,1.885,0,0,0,0-2.576l-5.693-5.693a1.885,1.885,0,0,0-2.576,0L47.9,21.356a1.841,1.841,0,0,1-2.169.271,33.356,33.356,0,0,0-6.371-2.711,1.872,1.872,0,0,1-1.356-1.762V15.662A1.794,1.794,0,0,0,36.245,13.9h-8a1.794,1.794,0,0,0-1.762,1.762v1.491a1.872,1.872,0,0,1-1.356,1.762,24.4,24.4,0,0,0-6.371,2.711,1.841,1.841,0,0,1-2.169-.271L15.5,20.271a1.885,1.885,0,0,0-2.576,0L7.236,25.965a1.885,1.885,0,0,0,0,2.576L8.32,29.625a1.519,1.519,0,0,1,.407,2.033,33.356,33.356,0,0,0-2.711,6.371,1.872,1.872,0,0,1-1.762,1.356H2.762A1.794,1.794,0,0,0,1,41.147v8.134a1.794,1.794,0,0,0,1.762,1.762H4.253A1.872,1.872,0,0,1,6.016,52.4,24.4,24.4,0,0,0,8.727,58.77a1.841,1.841,0,0,1-.271,2.169L7.371,62.023a1.885,1.885,0,0,0,0,2.576l5.693,5.693a1.885,1.885,0,0,0,2.576,0l1.084-1.084a1.841,1.841,0,0,1,2.169-.271,33.355,33.355,0,0,0,6.371,2.711,1.872,1.872,0,0,1,1.356,1.762V74.9a1.794,1.794,0,0,0,1.762,1.762h7.862A1.794,1.794,0,0,0,38.008,74.9V73.41a1.872,1.872,0,0,1,1.356-1.762,24.4,24.4,0,0,0,6.371-2.711,1.841,1.841,0,0,1,2.169.271l1.084,1.084a1.885,1.885,0,0,0,2.576,0L57.257,64.6a1.885,1.885,0,0,0,0-2.576l-1.084-1.084A1.841,1.841,0,0,1,55.9,58.77,33.356,33.356,0,0,0,58.612,52.4a1.872,1.872,0,0,1,1.762-1.356h1.491A1.794,1.794,0,0,0,63.628,49.281Z" transform="translate(0 4.587)"/><circle class="b" cx="9.625" cy="9.625" r="9.625" transform="translate(22.689 40.176)"/><path class="c" d="M49.507,40.041A15.15,15.15,0,0,0,52.9,38.55a1.643,1.643,0,0,1,2.033.271h0a1.885,1.885,0,0,0,2.576,0l2.982-2.982a1.885,1.885,0,0,0,0-2.576h0a1.643,1.643,0,0,1-.271-2.033,13.883,13.883,0,0,0,1.491-3.66,1.75,1.75,0,0,1,1.762-1.22h0a1.794,1.794,0,0,0,1.762-1.762V20.249a1.794,1.794,0,0,0-1.762-1.762h0a1.93,1.93,0,0,1-1.762-1.22,22.863,22.863,0,0,0-1.491-3.66,1.643,1.643,0,0,1,.271-2.033h0a1.885,1.885,0,0,0,0-2.576L57.505,6.016a1.688,1.688,0,0,0-2.576-.271h0a1.643,1.643,0,0,1-2.033.271,13.884,13.884,0,0,0-3.66-1.491,1.75,1.75,0,0,1-1.22-1.762h0A1.794,1.794,0,0,0,46.254,1H41.916a1.794,1.794,0,0,0-1.762,1.762h0a1.93,1.93,0,0,1-1.22,1.762,22.863,22.863,0,0,0-3.66,1.491,1.643,1.643,0,0,1-2.033-.271h0a1.885,1.885,0,0,0-2.576,0L27.682,8.727a1.885,1.885,0,0,0,0,2.576h0a1.643,1.643,0,0,1,.271,2.033A13.884,13.884,0,0,0,26.462,17a1.75,1.75,0,0,1-1.762,1.22h0" transform="translate(8.427)"/></g></svg>