<svg xmlns="http://www.w3.org/2000/svg" viewBox="0 0 19.094 19.093">
  <defs>
    <style>
      .cls-1 {
        fill: #fff;
        opacity: 0.99;
      }
    </style>
  </defs>
  <path id="Subtraction_4" data-name="Subtraction 4" class="cls-1" d="M13.243,20.88H9.424V19.616a8.431,8.431,0,0,1-2.6-1.076l-.895.895-2.7-2.7.895-.895a8.475,8.475,0,0,1-1.076-2.6H1.787V9.424H3.051a8.431,8.431,0,0,1,1.076-2.6l-.895-.895,2.7-2.7.895.895a8.431,8.431,0,0,1,2.6-1.076V1.787h3.819V3.051a8.475,8.475,0,0,1,2.6,1.076l.895-.895,2.7,2.7-.9.9a8.416,8.416,0,0,1,1.076,2.6H20.88v3.819H19.616a8.416,8.416,0,0,1-1.076,2.6l.9.9-2.7,2.7-.895-.895a8.475,8.475,0,0,1-2.6,1.076v1.264ZM11.334,6.8a4.533,4.533,0,1,0,4.533,4.533A4.538,4.538,0,0,0,11.334,6.8Z" transform="translate(-1.786 -1.787)"/>
</svg>
