<svg xmlns="http://www.w3.org/2000/svg" viewBox="1002 570 123 94"><defs><style>.a,.b,.c{fill:none;}.b{stroke:#404144;}.b,.c{stroke-linecap:round;stroke-linejoin:round;stroke-miterlimit:10;stroke-width:2px;}.c{stroke:#0099d8;}</style></defs><rect class="a" width="123" height="94" transform="translate(1002 570)"/><g transform="translate(1020.039 580)"><path class="b" d="M34.932,1C16.223,1,.995,14.053.995,30.151.995,39.9,6.564,48.6,15.179,53.908a.42.42,0,0,1,.087.609,26.339,26.339,0,0,1-14.01,9.746c-.435.087-.348.7,0,.783a38.561,38.561,0,0,0,7.832.783,37.165,37.165,0,0,0,21.581-6.7.32.32,0,0,1,.261-.087c1.218.087,2.524.174,3.829.174,18.709,0,33.937-13.053,33.937-29.151S53.641,1,34.932,1Z"/><path class="b" d="M73.568,26.2c10.529,2.959,18.1,11.487,18.1,21.494,0,7.571-4.351,14.358-11.051,18.448a.3.3,0,0,0-.087.435,20.465,20.465,0,0,0,10.877,7.571.317.317,0,0,1,0,.609,28.37,28.37,0,0,1-6.091.609,28.728,28.728,0,0,1-16.795-5.221.269.269,0,0,0-.174-.087c-.957.087-2,.174-2.959.174A28.53,28.53,0,0,1,45.2,62.226" transform="translate(-5.743 -3.271)"/><line class="c" x2="27.498" transform="translate(21.183 37.374)"/><line class="c" x2="35.156" transform="translate(17.355 30.151)"/><line class="c" x2="27.498" transform="translate(21.183 22.929)"/></g></svg>