<svg xmlns="http://www.w3.org/2000/svg" viewBox="1002 226 123 94"><defs><style>.a,.b,.c{fill:none;}.b,.d{stroke:#0099d8;}.b,.c{stroke-linecap:round;stroke-linejoin:round;stroke-miterlimit:10;}.b,.c,.d{stroke-width:2px;}.c{stroke:#404144;}.d{fill:#fff;}.e{stroke:none;}</style></defs><rect class="a" width="123" height="94" transform="translate(1002 226)"/><g transform="translate(693.336 -5693.869)"><g transform="translate(356.192 5924.869)"><line class="b" y1="11.475" transform="translate(13.609)"/><line class="b" y1="6.239" x2="6.239" transform="translate(20.979 8.389)"/><line class="b" x1="6.271" y1="6.239" transform="translate(0 8.389)"/></g><g transform="translate(311.664 5941.613)"><line class="c" x1="7.259" y2="2.145" transform="translate(93.867 40.042)"/><path class="c" d="M371.313,78.424l14.361,14.361a5.431,5.431,0,0,0,7.677,0h0a5.431,5.431,0,0,0,0-7.677L378.99,70.747l-19.2-9.992a4.884,4.884,0,0,0-4.538.013h0c-.863.458-2.747,3.675-3.2,4.538l-.6,1.125a5.193,5.193,0,0,1-6.474,2.406h0a5.2,5.2,0,0,1-2.851-6.984l3.243-7.089a4.988,4.988,0,0,1,1.962-2.2l9.1-5.388a4.91,4.91,0,0,1,4.29-.34l15.119,6.016a4.865,4.865,0,0,0,3.165.157l7.7-2.223" transform="translate(-297.888 -41.325)"/><path class="c" d="M494.077,267.8l14.361,14.361a5.431,5.431,0,0,1,0,7.677h0a5.431,5.431,0,0,1-7.677,0L486.4,275.464" transform="translate(-423.7 -233.683)"/><path class="c" d="M412.164,303.6l14.374,14.361a5.431,5.431,0,0,1,0,7.677h0a5.431,5.431,0,0,1-7.677,0L404.5,311.277" transform="translate(-352.512 -264.801)"/><path class="c" d="M381.2,339.5l14.361,14.361a5.431,5.431,0,0,1,0,7.677h0a5.431,5.431,0,0,1-7.677,0l-3.636-3.636" transform="translate(-332.259 -296.005)"/><line class="c" x2="7.573" y2="3.139" transform="translate(15.512 40.905)"/><path class="c" d="M243.172,56.185l-5.755-2.04a4.883,4.883,0,0,0-4.251.484l-8.1,5.14a4.845,4.845,0,0,1-4.473.392l-4.2-1.726" transform="translate(-189.013 -47.729)"/><path class="c" d="M709.514,47.638l-6.592,2.59a4.592,4.592,0,0,1-5.951-2.577L684.363,15.8a4.592,4.592,0,0,1,2.577-5.951l6.592-2.59a4.592,4.592,0,0,1,5.951,2.577L712.09,41.687A4.588,4.588,0,0,1,709.514,47.638Z" transform="translate(-595.493 -6.942)"/><path class="c" d="M9.89,47.724l6.592,2.59a4.592,4.592,0,0,0,5.951-2.577L35.04,15.891A4.592,4.592,0,0,0,32.464,9.94L25.872,7.363A4.592,4.592,0,0,0,19.921,9.94L7.326,41.774A4.581,4.581,0,0,0,9.89,47.724Z" transform="translate(-6.999 -7.029)"/><g transform="translate(21.659 42.89)"><path class="c" d="M178.839,344.348l1.779-3.178A4.226,4.226,0,0,0,179,335.415h0a4.226,4.226,0,0,0-5.755,1.622L172.6,338.2" transform="translate(-172.6 -334.876)"/><path class="c" d="M216.8,362.561l3.113-5.624a4.226,4.226,0,0,1,5.755-1.622h0a4.226,4.226,0,0,1,1.622,5.755" transform="translate(-211.019 -352.173)"/><path class="c" d="M273.2,377.993l4.486-8.056a4.226,4.226,0,0,1,5.755-1.622h0a4.226,4.226,0,0,1,1.622,5.755l-3.113,5.624" transform="translate(-260.043 -363.473)"/><path class="c" d="M346.8,425l.641-1.164a4.226,4.226,0,0,1,5.755-1.622h0a4.226,4.226,0,0,1,1.622,5.755l-.641,1.164" transform="translate(-324.017 -410.323)"/></g><g transform="translate(21.119 46.228)"><path class="c" d="M343.215,447.1a4.226,4.226,0,0,0,1.622,5.755h0a4.226,4.226,0,0,0,5.755-1.622" transform="translate(-319.893 -435.761)"/><path class="c" d="M287.492,431.433a4.226,4.226,0,0,1-5.755,1.622h0a4.226,4.226,0,0,1-1.622-5.755" transform="translate(-265.045 -418.55)"/><path class="c" d="M220.592,418.433a4.226,4.226,0,0,1-5.755,1.622h0a4.226,4.226,0,0,1-1.622-5.755" transform="translate(-206.895 -407.251)"/><path class="c" d="M176.392,364.533a4.226,4.226,0,0,1-5.755,1.622h0a4.226,4.226,0,0,1-1.622-5.755" transform="translate(-168.476 -360.4)"/></g></g><g class="d" transform="translate(318.113 5973.813)"><circle class="e" cx="2.764" cy="2.764" r="2.764"/><circle class="a" cx="2.764" cy="2.764" r="1.764"/></g><g class="d" transform="translate(416.682 5973.813)"><circle class="e" cx="2.764" cy="2.764" r="2.764"/><circle class="a" cx="2.764" cy="2.764" r="1.764"/></g></g></svg>