<svg xmlns="http://www.w3.org/2000/svg" viewBox="20 331 153 75"><defs><style>.a{fill:none;}.b{fill:#404144;}</style></defs><rect class="a" width="153" height="75" transform="translate(20 331)"/><g transform="translate(-149 -436)"><g transform="translate(191 777)"><path class="b" d="M610.752,489.165a13.082,13.082,0,0,0,3.163-8.551,13.338,13.338,0,0,0-.367-3.115l-7.736.713c-.559.043-.6.282-.474.6Z" transform="translate(-573.052 -452.077)"/><path class="b" d="M426.24,611.692a.253.253,0,0,0-.213.122l-5.127,7.837a13.141,13.141,0,0,0,10.68,0l-5.122-7.837A.262.262,0,0,0,426.24,611.692Z" transform="translate(-398.49 -579.124)"/><path class="b" d="M915.447,970.474c0-.634-.309-.974-1.23-.974H912.7v3.535h.453v-1.571h.756l1,1.571h.506l-1.049-1.571C914.979,971.411,915.447,971.156,915.447,970.474Zm-1.672.575h0l-.623.005V969.91h.964c.426,0,.841.064.841.559C914.958,971.135,914.271,971.049,913.776,971.049Z" transform="translate(-864.106 -917.882)"/><path class="b" d="M879.293,945a3.088,3.088,0,1,0,3.083,3.093A3.094,3.094,0,0,0,879.293,945Zm2.6,3.088A2.6,2.6,0,1,1,879.3,945.5h.181A2.5,2.5,0,0,1,881.892,948.088Z" transform="translate(-829.549 -894.686)"/><path class="b" d="M283.008,478.213l-7.736-.713a13.156,13.156,0,0,0,2.79,11.665l5.415-10.35C283.6,478.5,283.567,478.256,283.008,478.213Z" transform="translate(-260.263 -452.077)"/><path class="b" d="M39.99,14.1H15.419V29.519H0V54.175H15.419V69.594H39.99V54.175H55.409V29.519H39.99ZM12.517,41.892a15.241,15.241,0,0,1,.974-5.372v.005l10.222.985a2.192,2.192,0,0,1,1.629,3.242l-7,13.151.005-.021A15.218,15.218,0,0,1,12.517,41.892ZM36.125,54.628l-.005-.005a15.23,15.23,0,0,1-16.745,0l-.005.005v-.011a.005.005,0,0,1,.005.005L26.8,43.532a1.089,1.089,0,0,1,1.9,0l7.422,11.09a.005.005,0,0,0,.005-.005Zm5.883-18.1h0a15.264,15.264,0,0,1-4.861,17.352l.011.021-7-13.145a2.192,2.192,0,0,1,1.629-3.242l10.222-.985A.005.005,0,0,0,42,36.52Zm-.453-1.081H30.71c-1.544-.032-2.226-.937-2.257-1.672-.037-.873.1-1.15.82-2.082a1.924,1.924,0,1,0-3.056,0c.719.932.857,1.209.82,2.082-.032.74-.713,1.645-2.257,1.677H13.944A15.237,15.237,0,0,1,27.75,26.66v-.005A15.235,15.235,0,0,1,41.555,35.445Z" transform="translate(0 -13.349)"/><path class="b" d="M340.325,299.3A13.136,13.136,0,0,0,334,303.378h6.852a.178.178,0,0,0,.053-.319A3.367,3.367,0,0,1,340.325,299.3Z" transform="translate(-316.217 -283.365)"/><path class="b" d="M577.928,299.3a3.368,3.368,0,0,1-.586,3.754c-.138.144-.069.288.053.325h6.852A13.135,13.135,0,0,0,577.928,299.3Z" transform="translate(-546.531 -283.365)"/><path class="b" d="M1930.347,970.474c0-.634-.309-.974-1.23-.974H1927.6v3.535h.447v-1.571h.761l1,1.571h.506l-1.049-1.571C1929.879,971.411,1930.347,971.156,1930.347,970.474Zm-1.672.575h0l-.628.005V969.91h.969c.426,0,.841.064.841.559C1929.857,971.135,1929.171,971.049,1928.676,971.049Z" transform="translate(-1824.971 -917.882)"/><path class="b" d="M1894.193,945a3.088,3.088,0,1,0,3.083,3.093A3.094,3.094,0,0,0,1894.193,945Zm.005,5.686a2.507,2.507,0,0,1-2.6-2.6V947.9a2.5,2.5,0,0,1,2.6-2.4h.186a2.5,2.5,0,0,1,2.407,2.588v.186A2.5,2.5,0,0,1,1894.2,950.686Z" transform="translate(-1790.414 -894.686)"/><path class="b" d="M1617.311,937.505l-.005-.005-.005.005Z" transform="translate(-1531.192 -887.586)"/><path class="b" d="M1553.217,284.261c.3.208.234.586.666.516a1.255,1.255,0,0,0,.548-.314.671.671,0,0,1,.309.043A3.106,3.106,0,0,0,1552.7,284C1552.86,284.3,1553.03,284.133,1553.217,284.261Z" transform="translate(-1470.031 -268.879)"/><path class="b" d="M1233.225.032a41.536,41.536,0,0,1-19.263,4.739A41.065,41.065,0,0,1,1194.7,0c-4,7.864-4.621,20.637-1.171,31.306,3.328,10.286,9.786,19.657,20.429,25.54,10.654-5.883,17.107-15.254,20.434-25.54C1237.851,20.637,1237.218,7.9,1233.225.032Zm-2.843,30.055c-2.987,8.78-7.656,16.558-16.42,21.984.005,0,.005.005.011.005h-.021c.005,0,.005-.005.011-.005-8.758-5.431-13.422-13.2-16.415-21.984-2.657-7.8-3.306-16.926-.389-24.044a48.5,48.5,0,0,0,9.333,2.343,49.276,49.276,0,0,0,7.459.6h.027a48.058,48.058,0,0,0,7.459-.6,49.293,49.293,0,0,0,9.328-2.343C1233.682,13.167,1233.033,22.287,1230.381,30.087Z" transform="translate(-1127.853)"/><path class="b" d="M1330.736,166.64a60.757,60.757,0,0,1-7.592.612h-.021a60.306,60.306,0,0,1-7.587-.612,61.379,61.379,0,0,1-7.693-1.64c-1.858,5.266-1.459,11.9-.032,17.809,2.683,11.128,9.4,19.588,15.328,23.32,5.926-3.732,12.645-12.187,15.328-23.32,1.432-5.91,1.826-12.544-.032-17.809A62.059,62.059,0,0,1,1330.736,166.64Zm-9.083,34.3c-.08.57.16.815.1,1.086-.1.447-.378.309-.543-.016a2.972,2.972,0,0,1-.447-1.336,2.071,2.071,0,0,1,.676-1.832h0a2.325,2.325,0,0,1,.516-.394l.085,1.794C1322.037,200.246,1321.739,200.363,1321.653,200.938Zm2.566-3.445h0c-.032,1.592-.133,4.558-.144,5.244-.005.3-.122.532-.682.548-.479.011-.681-.16-.7-.655-.075-2.183-.17-6.288-.17-6.288a6.151,6.151,0,0,1,.905.357,3.622,3.622,0,0,1,.692.543C1324.182,197.345,1324.225,197.355,1324.22,197.494Zm1.645,1.129a3.2,3.2,0,0,1-1.1.554l.064-1.624a.4.4,0,0,0,.133-.362,4.552,4.552,0,0,0-1.858-1.342c-.639-.245-1.475-.49-2.076-.751a2.282,2.282,0,0,1-1.342-3.173h0a2.594,2.594,0,0,1,1.07-1.012,4.455,4.455,0,0,1,.825-.346l.144,1.9a.4.4,0,0,0-.234.234.473.473,0,0,0,.277.554,31.543,31.543,0,0,1,3.221,1.512c1.262.74,1.667,1.272,1.672,2.156A2.033,2.033,0,0,1,1325.865,198.622Zm-3.546-9.019c.916.106,1.256.133,2.034.229l-.075,3.8-1.762-.9Zm5.553.82a2.629,2.629,0,0,1-1.31,1.656,3.575,3.575,0,0,1-1.528.484l.064-2.3a.567.567,0,0,0,.293-.192.462.462,0,0,0,.112-.442.567.567,0,0,0-.33-.4c-.58-.133-1.858-.282-4.014-.591-2.007-.33-3.429-1.485-3.312-3.407.085-1.283,1.432-1.682,2.38-2.092a14.606,14.606,0,0,1,.714,1.448c.181.527.282.857.282.857s-.431.075-.394.431c.032.314.378.447.591.474a28.288,28.288,0,0,1,4.265.772,3.467,3.467,0,0,1,1.682,1.107A2.458,2.458,0,0,1,1327.872,190.423Zm-6.384-9.136s.474.053,1.624.122a4.829,4.829,0,0,1,1.469.309l-.112,4.19h0c-.937-.181-1.549-.282-2.428-.394a8.562,8.562,0,0,0-1.262-3.152.332.332,0,0,1,.016-.415c.085-.149.7-.3.7-.3Zm3.764,4.158s.123-1.991.133-2.95a.814.814,0,0,0,.447-1.15,1.235,1.235,0,0,0-.74-.469,21.589,21.589,0,0,0-3.226-.447,18.553,18.553,0,0,1-2.683-.469,6.034,6.034,0,0,1-4.265-3.024,4.4,4.4,0,0,1,1.9-5.734,5.748,5.748,0,0,1,4.765-.053,2.775,2.775,0,0,1,1.145,1.113c.154.2.373.282.506.506.074.128-.1.192-.17.213a8.726,8.726,0,0,1-1.832.064,6.371,6.371,0,0,0-1.682.064,12.065,12.065,0,0,0,1.475.788,7.244,7.244,0,0,1,.793.245c.112.059.426.149.426.3-.032.144-.3.2-.5.261a3.219,3.219,0,0,1-1.581.016c-.879-.2-1.283-.713-1.832-.394-.357.213-.367.7-.245,1.2.186.777,1.006,1.1,1.693,1.326,2.391.772,4.941.335,7.273,1.533a4.038,4.038,0,0,1,2.114,2.407h0C1329.964,184.955,1325.252,185.445,1325.252,185.445Zm4.169-12.874c-.133.437-.24.431-.527.692-.591.543-1.379,1.1-2.156,1.842a7.183,7.183,0,0,0-1.321,1.315c-.074.133-.261.484-.261.484-1.315-.272-2.662-.288-3.679-.506l-.053-1.118s1.315-.016,1.448-.809a.529.529,0,0,0-.176-.389,3.406,3.406,0,0,0-.66-.314,11.611,11.611,0,0,1,2.9.974c.064-.112-.1-.5-.181-.575a1.09,1.09,0,0,0-.66-.362c-.623-.16-2.124-.346-2.124-.346l1.273-.053a1.35,1.35,0,0,0,.719-.288c.122-.272-.357-.7-.666-1.118a5.358,5.358,0,0,0-.623-.857,4.2,4.2,0,0,0-1.342-.772,2.269,2.269,0,0,1,.085-1.006c.122-.245.66-.272.83-.186a8.134,8.134,0,0,0,2.6,1.065h0c.213.154.213.2.282.506.144.681-.117,1.666.016,2.135a.221.221,0,0,0,.335.085c.937-.506,1.576-1.374,2.518-1.778C1328.442,171.011,1329.709,171.65,1329.421,172.571Z" transform="translate(-1237.025 -156.215)"/></g></g></svg>