<svg xmlns="http://www.w3.org/2000/svg" viewBox="1002 339 123 94"><defs><style>.a,.b,.c{fill:none;}.b{stroke:#40403b;}.b,.c{stroke-linecap:round;stroke-linejoin:round;stroke-miterlimit:10;stroke-width:2px;}.c{stroke:#0099d8;}</style></defs><rect class="a" width="123" height="94" transform="translate(1002 339)"/><g transform="translate(813.801 -5585.871)"><g transform="translate(216.21 5945.77)"><path class="b" d="M70.749,87.241c2.39-5.338,2.231-11.393,2.071-16.89a15.353,15.353,0,0,0-.08-1.912V60.71a7.367,7.367,0,0,0-.319-2.31,6.424,6.424,0,0,0-1.036-2.39,4.561,4.561,0,0,0-1.2-1.275A4.873,4.873,0,0,0,67.084,53.7h-.319a5.551,5.551,0,0,0-4.78,2.231,17.954,17.954,0,0,0,0-2.071,5.361,5.361,0,0,0-1.354-3.585,5.786,5.786,0,0,0-9.481.159v-1.2a5.79,5.79,0,0,0-.319-1.992,5.8,5.8,0,0,0-10.437-2.231c.08-7.33-.08-18.962-.08-19.679a5.736,5.736,0,0,0-11.473,0c0,.478.08,31.391.08,31.391,0,5.019-.4,7.33-.717,8.286a.278.278,0,0,1-.08-.159c-2.629-2.629-4.382-5.418-7.648-9.64a6,6,0,0,0-5.1-2.31C13.7,52.9,9.8,54.177,9.8,58.4v.159a5.137,5.137,0,0,0,.239,1.593c.239,1.2,7.011,14.9,13.066,27.088" transform="translate(-9.8 -19.6)"/></g><line class="b" y2="12.508" transform="translate(246.804 5971.185)"/><line class="b" y2="11.871" transform="translate(257.56 5976.603)"/><line class="b" y2="11.473" transform="translate(268.395 5982.1)"/><path class="c" d="M47.939,32.008a13.41,13.41,0,0,0,3.028-8.525,13.783,13.783,0,1,0-24.618,8.525" transform="translate(203.646 5928.182)"/><path class="c" d="M51.11,35.159a20.733,20.733,0,1,0-26.053,4.382" transform="translate(205.414 5929.971)"/><line class="b" x1="80.229" transform="translate(209.199 6013.411)"/></g></svg>