<svg xmlns="http://www.w3.org/2000/svg" xmlns:xlink="http://www.w3.org/1999/xlink" viewBox="212 331 153.155 75"><defs><style>.a{fill:#fff;stroke:#707070;}.b{fill:none;}.c,.e{fill:#404144;}.c{opacity:0.249;}.d{clip-path:url(#a);}</style><clipPath id="a"><rect class="a" width="153.155" height="23.347"/></clipPath></defs><rect class="b" width="153" height="75" transform="translate(212 331)"/><g transform="translate(-283 -578.077)"><path class="c" d="M0,17.2a36,36,0,0,1,.847-5.176A11,11,0,0,1,3.012,8.494C4.188,7.13,5.082,5.812,4.941,3.93a9.493,9.493,0,0,1,.376-2.541C5.553-.07,5.882-.164,7.106.824c.659.565,1.176,1.506,1.647-.188C9.035-.4,9.929.212,10.541.353c4.565.941,9.129,2.023,13.741,2.965A82.724,82.724,0,0,0,40.61,5.2a13.815,13.815,0,0,1,8.235,2.259,11.149,11.149,0,0,0,2.823.988,31.45,31.45,0,0,1,4.188,1.459c1.506.706,1.553,1.318.847,2.823-.329.706-.706,1.412-.988,2.118a2.554,2.554,0,0,0,0,.847c.282-.094.659-.141.8-.329a20.836,20.836,0,0,0,2.023-2.541c.894-1.318,1.694-1.553,2.776-.376a18.055,18.055,0,0,1,2.118,3.106c1.318,2.071,2.87,2.259,4.565.518.235-.235.329-.612.565-.753C69.645,14.847,71.1,14.8,71.715,14c.659-.847.612-2.212,1.741-2.87a15.19,15.19,0,0,1,3.529-1.694,2,2,0,0,0,1.788-2.071,7.336,7.336,0,0,1,.471-2.494c.471-1.129,1.412-1.412,2.259-.612a30.247,30.247,0,0,1,2.918,3.576c.094.141-.188.659-.376.894-.612.706-1.365,1.318-1.929,2.023-.424.518-1.129,1.365-.941,1.788.753,2.165-1.035,2.729-1.929,4-1.553,2.259-3.106,4.659-3.153,7.67a31.681,31.681,0,0,1-.565,5.129,7.336,7.336,0,0,1-2.447,4.423c-2.729,2.353-3.482,5.459-2.823,8.941.376,1.929.847,3.812,1.129,5.741.282,1.976-.094,2.965-1.082,3.247s-1.976-.376-2.729-2.071a18.481,18.481,0,0,1-1.082-3.576c-.424-2.023-1.6-3.294-3.67-3.153-5.835.424-11.67.941-17.552,1.506a9.247,9.247,0,0,0-2.682.8c-2.118.8-2.165.988-1.929,3.247a3.65,3.65,0,0,1-.141,1.6,1.635,1.635,0,0,1-3.059.329,29.132,29.132,0,0,1-1.412-2.682,18.172,18.172,0,0,0-1.506-2.635c-1.129-1.553-1.976-1.647-3.435-.424a1.229,1.229,0,0,1-2.023-.094c-.471-.518-.753-1.176-1.176-1.741a20.031,20.031,0,0,0-2.353-3.2,3.256,3.256,0,0,0-2.494-.8c-2.306.8-4.376.047-6.353-.8a80.559,80.559,0,0,1-8.988-4.565c-2.87-1.741-5.082-4.047-5.553-7.717C1.929,23.835.941,22.047.424,20.165A21.417,21.417,0,0,1,0,17.2Z" transform="translate(525.452 920.031)"/><g class="d" transform="translate(495 949.564)"><path class="e" d="M0,17.2a36,36,0,0,1,.847-5.176A11,11,0,0,1,3.012,8.494C4.188,7.13,5.082,5.812,4.941,3.93a9.493,9.493,0,0,1,.376-2.541C5.553-.07,5.882-.164,7.106.824c.659.565,1.176,1.506,1.647-.188C9.035-.4,9.929.212,10.541.353c4.565.941,9.129,2.023,13.741,2.965A82.724,82.724,0,0,0,40.61,5.2a13.815,13.815,0,0,1,8.235,2.259,11.149,11.149,0,0,0,2.823.988,31.45,31.45,0,0,1,4.188,1.459c1.506.706,1.553,1.318.847,2.823-.329.706-.706,1.412-.988,2.118a2.554,2.554,0,0,0,0,.847c.282-.094.659-.141.8-.329a20.836,20.836,0,0,0,2.023-2.541c.894-1.318,1.694-1.553,2.776-.376a18.055,18.055,0,0,1,2.118,3.106c1.318,2.071,2.87,2.259,4.565.518.235-.235.329-.612.565-.753C69.645,14.847,71.1,14.8,71.715,14c.659-.847.612-2.212,1.741-2.87a15.19,15.19,0,0,1,3.529-1.694,2,2,0,0,0,1.788-2.071,7.336,7.336,0,0,1,.471-2.494c.471-1.129,1.412-1.412,2.259-.612a30.247,30.247,0,0,1,2.918,3.576c.094.141-.188.659-.376.894-.612.706-1.365,1.318-1.929,2.023-.424.518-1.129,1.365-.941,1.788.753,2.165-1.035,2.729-1.929,4-1.553,2.259-3.106,4.659-3.153,7.67a31.681,31.681,0,0,1-.565,5.129,7.336,7.336,0,0,1-2.447,4.423c-2.729,2.353-3.482,5.459-2.823,8.941.376,1.929.847,3.812,1.129,5.741.282,1.976-.094,2.965-1.082,3.247s-1.976-.376-2.729-2.071a18.481,18.481,0,0,1-1.082-3.576c-.424-2.023-1.6-3.294-3.67-3.153-5.835.424-11.67.941-17.552,1.506a9.247,9.247,0,0,0-2.682.8c-2.118.8-2.165.988-1.929,3.247a3.65,3.65,0,0,1-.141,1.6,1.635,1.635,0,0,1-3.059.329,29.132,29.132,0,0,1-1.412-2.682,18.172,18.172,0,0,0-1.506-2.635c-1.129-1.553-1.976-1.647-3.435-.424a1.229,1.229,0,0,1-2.023-.094c-.471-.518-.753-1.176-1.176-1.741a20.031,20.031,0,0,0-2.353-3.2,3.256,3.256,0,0,0-2.494-.8c-2.306.8-4.376.047-6.353-.8a80.559,80.559,0,0,1-8.988-4.565c-2.87-1.741-5.082-4.047-5.553-7.717C1.929,23.835.941,22.047.424,20.165A21.417,21.417,0,0,1,0,17.2Z" transform="translate(30.452 -29.533)"/></g></g></svg>