<svg xmlns="http://www.w3.org/2000/svg" viewBox="1027 250 75 56"><defs><style>.a,.b{fill:none;}.b{stroke:#fff;stroke-linecap:round;stroke-linejoin:round;stroke-miterlimit:10;stroke-width:2px;}</style></defs><rect class="a" width="75" height="56" transform="translate(1027 250)"/><g transform="translate(1038.55 249.5)"><path class="b" d="M46.959,57.405h0a3.233,3.233,0,0,0-4.327-.234l.491-.491a3.3,3.3,0,0,0,.187-4.514,3.22,3.22,0,0,0-4.444-.351l1.169-1.169a3.3,3.3,0,0,0,.187-4.514,3.22,3.22,0,0,0-4.444-.351l9.636-9.636a3.275,3.275,0,0,0,.164-4.514,3.237,3.237,0,0,0-4.678-.117L24.786,47.629a5.618,5.618,0,0,1-7.952,0l-6.853-6.9a3.247,3.247,0,0,0-4.584,0h0a3.247,3.247,0,0,0,0,4.584l4.7,4.7,5.613,16.208,1.38,1.754a15.071,15.071,0,0,0,22.477,1.357l7.391-7.344A3.247,3.247,0,0,0,46.959,57.405Z" transform="translate(0 -19.974)"/><line class="b" y1="8.303" transform="translate(21.839 2.5)"/><line class="b" y1="4.514" x2="4.514" transform="translate(27.172 8.57)"/><line class="b" x1="4.537" y1="4.514" transform="translate(11.993 8.57)"/><line class="b" x1="4.725" y2="4.701" transform="translate(37.931 37.221)"/><line class="b" x1="3.742" y2="3.742" transform="translate(35.124 31.865)"/><line class="b" x1="3.602" y2="3.602" transform="translate(32.201 25.807)"/></g></svg>