<svg id="Group_1702" data-name="Group 1702" xmlns="http://www.w3.org/2000/svg" viewBox="0 0 13.9 14.2">
  <defs>
    <style>
      .cls-1 {
        fill: #404144;
      }
    </style>
  </defs>
  <g id="Group_1701" data-name="Group 1701">
    <path id="Path_560" data-name="Path 560" class="cls-1" d="M3.8,7.7H2V2.1L0,2.6V1.2L3.6,0h.2Zm-.6,5.2L2,12.2,9,1.1l1.2.7Z"/>
  </g>
  <path id="Path_561" data-name="Path 561" class="cls-1" d="M9.8,9.4h.8c.9,0,1.3-.3,1.3-.9a.864.864,0,0,0-.3-.6,1.222,1.222,0,0,0-.9-.3,1.884,1.884,0,0,0-.8.2.6.6,0,0,0-.3.6H7.8a2.088,2.088,0,0,1,.8-1.6,3.281,3.281,0,0,1,2.1-.6,3.593,3.593,0,0,1,2.2.6,1.943,1.943,0,0,1,.8,1.6c0,.8-.4,1.3-1.3,1.7a1.8,1.8,0,0,1,1.5,1.8,2.091,2.091,0,0,1-.9,1.7,3.31,3.31,0,0,1-2.3.6,3.8,3.8,0,0,1-2.2-.6,1.88,1.88,0,0,1-.8-1.7H9.5a.713.713,0,0,0,.3.6,1.9,1.9,0,0,0,.9.3A1.2,1.2,0,0,0,12,11.7c0-.7-.4-1-1.3-1H9.8Z"/>
</svg>
