<svg xmlns="http://www.w3.org/2000/svg" viewBox="596 331 153 75"><defs><style>.a{fill:none;}.b{fill:#404144;}</style></defs><rect class="a" width="153" height="75" transform="translate(596 331)"/><g transform="translate(112 -710)"><g transform="translate(503 1052)"><path class="b" d="M39.107,19.328V10.534C36.12,7.491,31.142,5.5,25.555,5.5c-5.642,0-10.62,1.991-13.607,5.034v8.795L0,22.481V55.5H18.088V40.182H33.022V55.5H51.11V22.481ZM11.782,50.47H7.191V45.824h4.646V50.47Zm0-8.518H7.191V37.306h4.646v4.646Zm0-8.518H7.191V28.787h4.646v4.646Zm8.021,0H15.156V28.787H19.8Zm8.076,0H23.232V28.787h4.646Zm2.71-10.786h-3.1V19H23.619v3.651H20.466V12.193h3.1v3.651h3.872V12.193h3.1V22.647ZM35.9,33.434H31.252V28.787H35.9ZM43.919,50.47H39.273V45.824h4.646Zm0-8.518H39.273V37.306h4.646Zm0-8.518H39.273V28.787h4.646Z" transform="translate(0 -2.458)"/><circle class="b" cx="11.007" cy="11.007" r="11.007" transform="translate(78.389)"/><path class="b" d="M163.022,67.024c-1-16.7-7.357-22.236-12.169-24.006a62.223,62.223,0,0,1-.443,17.811,2.638,2.638,0,0,1,.94,1.991,2.6,2.6,0,1,1-2.6-2.6.941.941,0,0,1,.387.055,61.107,61.107,0,0,0,.332-17.645,11.336,11.336,0,0,0-4.038-.277c0,6.638-5.587,11.616-5.587,11.616l-1.383-5.753,1.051-1.383-2.379-1.881-2.379,1.881,1.051,1.383-1.493,5.642s-5.587-4.923-5.587-11.616a11.465,11.465,0,0,0-5.255.664,39.9,39.9,0,0,0,.719,6.859,6.286,6.286,0,0,1,6.527,4.149l2.1,5.7a5.08,5.08,0,0,1-.332,4.2,5.173,5.173,0,0,1-3.374,2.489.705.705,0,1,1-.277-1.383,3.9,3.9,0,0,0,2.489-1.77,3.664,3.664,0,0,0,.221-3.042l-2.1-5.7a4.968,4.968,0,0,0-9.625,1.936l.221,6.029a3.727,3.727,0,0,0,1.383,2.71,3.62,3.62,0,0,0,2.987.719.705.705,0,0,1,.277,1.383,6.1,6.1,0,0,1-1,.111,5.031,5.031,0,0,1-4.978-4.868l-.221-6.029a6.376,6.376,0,0,1,4.425-6.306,45.429,45.429,0,0,1-.719-6.582c-4.591,2.213-10.122,8.076-11.007,23.564a4.508,4.508,0,0,0,4.48,4.812h42.868A4.619,4.619,0,0,0,163.022,67.024Z" transform="translate(-47.683 -18.846)"/></g></g></svg>