<svg xmlns="http://www.w3.org/2000/svg" viewBox="0 0 177.47 48.47"><defs><style>.cls-1{fill:#fff;}</style></defs><title>logo_pbc_inverse</title><metadata><?xpacket begin="﻿" id="W5M0MpCehiHzreSzNTczkc9d"?>
<x:xmpmeta xmlns:x="adobe:ns:meta/" x:xmptk="Adobe XMP Core 5.6-c143 79.161356, 2017/09/07-01:11:22        ">
   <rdf:RDF xmlns:rdf="http://www.w3.org/1999/02/22-rdf-syntax-ns#">
      <rdf:Description rdf:about=""
            xmlns:dc="http://purl.org/dc/elements/1.1/">
         <dc:title>
            <rdf:Alt>
               <rdf:li xml:lang="x-default">logo_pbc_inverse</rdf:li>
            </rdf:Alt>
         </dc:title>
      </rdf:Description>
   </rdf:RDF>
</x:xmpmeta>
                                                                                                    
                                                                                                    
                                                                                                    
                                                                                                    
                                                                                                    
                                                                                                    
                                                                                                    
                                                                                                    
                                                                                                    
                                                                                                    
                                                                                                    
                                                                                                    
                                                                                                    
                                                                                                    
                                                                                                    
                                                                                                    
                                                                                                    
                                                                                                    
                                                                                                    
                                                                                                    
                           
<?xpacket end="w"?></metadata>
<g id="Layer_1" data-name="Layer 1"><g id="Layer_2-2" data-name="Layer 2"><g id="Layer_1-2" data-name="Layer 1-2"><path class="cls-1" d="M138.61,24.2V0h1.21V24.2Z" transform="translate(0 0)"/><path class="cls-1" d="M55.21,38.21c-1,0-1.56.72-1.56,2.16s.53,2.16,1.56,2.16,1.55-.72,1.55-2.16S56.24,38.21,55.21,38.21Zm-8,0h-.8v1.62l.76.07c.85,0,1.18-.26,1.18-.87s-.35-.81-1.11-.81ZM7.29,40.92H6.55v1.65h.74c.91,0,1.32-.28,1.32-.85S8.19,40.92,7.29,40.92Zm1.2-2c0-.5-.4-.77-1.2-.77H6.55v1.54h.74c.82,0,1.2-.25,1.2-.75Z" transform="translate(0 0)"/><path class="cls-1" d="M0,32.29V48.47H177.47V32.29ZM7.85,43.84H4.69V36.9h2.6c2.07,0,3.07.55,3.07,1.79,0,.81-.48,1.33-1.48,1.56,1.11.2,1.69.69,1.69,1.69C10.57,43.21,9.66,43.84,7.85,43.84Zm9.19,0H12V36.91h2v5.6h3Zm7.43-2.64c0,1.8-1.28,2.8-3.38,2.8s-3.17-1-3.17-2.83V36.91h2V41c0,1,.47,1.53,1.35,1.53s1.4-.53,1.4-1.53V36.91h1.85Zm7,2.64H26.21V36.91h5.12v1.33H28.08v1.42h3.1V41h-3.1v1.48h3.35ZM43.1,41.7c0,1.39-1.19,2.27-3.19,2.27a3.11,3.11,0,0,1-3.4-2.79,3.53,3.53,0,0,1,0-.65c0-2.41,1.23-3.71,3.53-3.71,1.9,0,2.94.81,3,2.28H41a1,1,0,0,0-1-.94h-.12c-.94,0-1.43.89-1.43,2.31s.45,2.13,1.45,2.13H40a1,1,0,0,0,1-1h2Zm5.36,2.18c-.16-.94-.17-1.46-.27-2s-.37-.72-.94-.72h-.74v2.67h-2V37h3.14c1.72,0,2.59.6,2.59,1.78h0a1.65,1.65,0,0,1-1.64,1.66h0a1.25,1.25,0,0,1,1.39,1c.13.48.14,1.31.45,2.39Zm6.78.06A3.26,3.26,0,0,1,51.69,41a3.42,3.42,0,0,1,0-.64,3.26,3.26,0,0,1,2.92-3.57h0a3.32,3.32,0,0,1,.63,0,3.26,3.26,0,0,1,3.54,3v0a2.81,2.81,0,0,1,0,.58A3.27,3.27,0,0,1,55.87,44a3.42,3.42,0,0,1-.64,0Zm7.68,0C61,44,60,43.14,60,41.62h1.93v.1a.94.94,0,0,0,.88,1h.12c.75,0,1.13-.12,1.13-.75s-.6-.67-1.65-1c-1.58-.42-2.33-1-2.33-2.12s1.09-2.06,2.9-2.06,2.81.66,2.81,2v.1H63.88a.78.78,0,0,0-.67-.88H63c-.57,0-.93.3-.93.71,0,.59.89.65,2.15,1s1.85,1,1.85,2C66.07,43.17,65,44,62.88,44Zm7.36,0c-1.89,0-2.89-.83-2.89-2.35h1.92a.94.94,0,0,0,.88,1h.12c.75,0,1.13-.12,1.13-.75s-.6-.67-1.65-1c-1.58-.42-2.33-1-2.33-2.12s1.07-2,2.88-2,2.81.66,2.81,2v.1H71.23a.78.78,0,0,0-.67-.88h-.21c-.56,0-.92.3-.92.71,0,.59.89.65,2.15,1s1.85,1,1.85,2c0,1.52-1.09,2.35-3.19,2.35Z" transform="translate(0 0)"/><path class="cls-1" d="M78.8,20.79c-.82-.19-1-.59-1.16-2L76.27,6.16c-.1-1.46.18-1.87,1.13-2a.35.35,0,0,0,.28-.32.34.34,0,0,0-.34-.27h-4a.66.66,0,0,0-.7.38c-1,2.33-2.32,5.32-3.32,7.72l-1.32,3h0l-.5,1.11-.11-.25L67,14.71l-1.32-3L62.26,4l-.08-.2a.61.61,0,0,0-.07-.14.3.3,0,0,0-.29-.12H57.2a.41.41,0,0,0-.34.28.32.32,0,0,0,.25.37c.94.16,1.4.59,1.32,2C58.1,10,57.37,16.35,56.92,18.76c-.13,1.24-.52,1.82-1.37,2a.29.29,0,0,0-.25.3h0a.29.29,0,0,0,.32.26h0c.71,0,1.42-.18,2.2-.18s1.5.17,2.26.17h0a.29.29,0,0,0,.29-.27.33.33,0,0,0-.25-.28c-.83-.2-1.24-.71-1.24-2,0-2.53.79-7.67,1.12-10.47V8l.14.27c1.33,3,3.55,7.59,6,12.9.19.42.58.42.77,0,2.13-4.49,4.37-9.52,5.91-12.9L72.94,8l1.11,10.79c.11,1.45-.08,1.83-.89,2a.31.31,0,0,0-.24.3h0a.24.24,0,0,0,.26.22h0c.53,0,1.93-.18,2.82-.18s2.25.18,2.81.18h0a.24.24,0,0,0,.23-.25h0A.31.31,0,0,0,78.8,20.79Z" transform="translate(0 0)"/><path class="cls-1" d="M12.69.21C10.5.21,5.79.52,3.41.3c-.14,0-.28,0-.28.18a.38.38,0,0,0,.24.36c1,.17,1.3.65,1.3,2.26V21.25c0,1.65-.32,2.1-1.27,2.3a.36.36,0,0,0-.27.35V24a.27.27,0,0,0,.29.25h0c.58,0,2.05-.2,3.07-.2s2.51.2,3.09.2h.08a.27.27,0,0,0,.22-.31.41.41,0,0,0-.28-.34c-1-.21-1.35-.68-1.35-2.3L8.32,1.9a14.62,14.62,0,0,1,2.87-.28C14,1.57,16.61,3,16.62,7c0,4.78-3.48,5.88-5.48,5.88a15.32,15.32,0,0,1-1.65-.15l-.49,1a11.25,11.25,0,0,0,3.1.47c3.82,0,8.3-2.18,8.3-7.18S16.47.21,12.69.21Z" transform="translate(0 0)"/><path class="cls-1" d="M42,23.61c-1,0-2.16-.55-3.34-2.17-.21-.32-.79-1.28-1.33-2.26s-1.08-2-1.34-2.45c-.93-1.66-1.92-3.38-3.21-4.2l.14-.06c2.08-.88,3.61-2.72,3.61-4.37,0-2.88-2.59-4.62-5.41-4.62-1.9,0-6.94.27-9,.08a.21.21,0,0,0-.21.21c0,.11.06.38.22.38.85.2,1.19.6,1.19,2V18.7c0,1.44-.18,1.83-1,2a.33.33,0,0,0-.24.32h0a.25.25,0,0,0,.26.24h0c.54,0,1.94-.17,2.83-.17s2.24.17,2.78.17H28a.24.24,0,0,0,.2-.26.38.38,0,0,0-.2-.3c-.82-.2-1.16-.6-1.16-2V5a9.44,9.44,0,0,1,2.43-.16,2.26,2.26,0,0,1,.52,0A3.4,3.4,0,0,1,33,8.43v0c0,2.78-2.44,3.64-4.85,3.64l-.52.73h.14a5.7,5.7,0,0,1,2.2.75,12.13,12.13,0,0,1,2,2.82c.66,1.11,1.27,2.33,1.74,3.11a21.7,21.7,0,0,0,1.51,2.18,5.68,5.68,0,0,0,5.24,2.49H42a.22.22,0,0,0,.19-.25h0a.66.66,0,0,0-.06-.2A.21.21,0,0,0,42,23.61Z" transform="translate(0 0)"/><path class="cls-1" d="M132.72,20.76c-.93-.16-1.39-.85-1.93-2,0,0-6.07-12.24-7.69-15.46a.41.41,0,0,0-.16-.16.52.52,0,0,0-.72.15h0c-1.56,3.12-5,10.87-7.59,16.48A14.22,14.22,0,0,1,113,17.93c-.56-.68-1.3-1.8-1.94-2.68-.16-.22-.35-.48-.56-.74a8.78,8.78,0,0,0-.7-.79,4.4,4.4,0,0,0-1.48-1l-.22-.08.23-.07c2.46-.75,3.87-2.39,3.87-4.47,0-2.88-2.69-4.62-5.51-4.62-1.91,0-6.6.27-8.66.08a.21.21,0,0,0-.21.21c0,.11.06.38.22.38.85.2,1.19.6,1.19,2V18.68c0,1.44-.18,1.83-1,2A.32.32,0,0,0,98,21a.17.17,0,0,0,0,.17.25.25,0,0,0,.31.15h0c.53,0,1.82-.2,2.68-.2s2.32.2,2.86.2H104a.25.25,0,0,0,.19-.28.38.38,0,0,0-.25-.31c-.82-.2-1.16-.6-1.16-2L102.8,5a15.21,15.21,0,0,1,2.43-.19c2,0,3.63,1,3.56,3.54,0,2.77-2.38,3.77-4.79,3.77l-.52.73h.18a3.34,3.34,0,0,1,1.63.49,5.59,5.59,0,0,1,.82.55,7.87,7.87,0,0,1,1,1c.3.38.59.78.94,1.24.48.63,1.17,1.59,1.77,2.42l.79,1.1c.21.3.44.58.5.65a3,3,0,0,0,2.46.94h3a.22.22,0,0,0,.19-.25h0a.66.66,0,0,0-.06-.2.23.23,0,0,0-.18-.13h-.24l2.49-5.46h0l6.58.12.2.36.61,1.15c.42.85.9,1.77,1,2,.55,1.22.59,1.72-.29,1.94-.23,0-.23.15-.23.27a.32.32,0,0,0,.31.23c.54,0,2-.16,2.86-.16s2.37.16,2.91.16c.24,0,.24-.11.24-.21A.34.34,0,0,0,132.72,20.76ZM119.47,13.7l2.62-5.64.07.16c.43,1,2.43,5.49,2.43,5.49Z" transform="translate(0 0)"/><path class="cls-1" d="M95.27,17.56a.42.42,0,0,0-.5.12,3.42,3.42,0,0,1-2.33,2.14,31.51,31.51,0,0,1-4.76,0c-1.07-.13-1.21-.45-1.21-1.52V12.57h5.67L93,11.1H86.47V5h5.09c1.34,0,1.56.1,1.94.35a2.17,2.17,0,0,1,.77,1c0,.17.3.25.43.25a.35.35,0,0,0,.3-.38l-.24-2h0a.75.75,0,0,0-.84-.65H82a.24.24,0,0,0-.22.25.31.31,0,0,0,.24.3c.79.19,1,.58,1,2V18.64c0,1.44-.18,1.83-1,2a.33.33,0,0,0-.24.32h0a.24.24,0,0,0,.24.24h3.77c2.31,0,6.2.16,8.11.16.53,0,.75-.15.89-.61s.52-2.07.7-2.87a.24.24,0,0,0-.06-.23A.51.51,0,0,0,95.27,17.56Z" transform="translate(0 0)"/><path class="cls-1" d="M53.59,17.56a.42.42,0,0,0-.5.12,3.42,3.42,0,0,1-2.33,2.14,31.51,31.51,0,0,1-4.76,0c-1.07-.13-1.21-.45-1.21-1.52V12.57h5.73l.86-1.47H44.79V5H49.9c1.34,0,1.56.1,1.94.35a2.17,2.17,0,0,1,.77,1c0,.17.31.25.44.25a.35.35,0,0,0,.27-.33l-.24-2h0a.75.75,0,0,0-.84-.65H40.33a.24.24,0,0,0-.23.25h0a.31.31,0,0,0,.24.3c.79.19,1,.58,1,2V18.68c0,1.44-.18,1.83-1,2a.33.33,0,0,0-.24.32.25.25,0,0,0,.26.24h3.75c2.31,0,6.2.16,8.11.16.53,0,.75-.15.89-.61s.52-2.07.7-2.87a.24.24,0,0,0-.06-.23A.65.65,0,0,0,53.59,17.56Z" transform="translate(0 0)"/><path class="cls-1" d="M168.93,23.94a1.34,1.34,0,1,0-1.29-1.39,1.29,1.29,0,0,0,1.24,1.34h0Zm-1.61-1.34a1.61,1.61,0,1,1,1.61,1.61,1.59,1.59,0,0,1-1.61-1.57h0Z" transform="translate(0 0)"/><path class="cls-1" d="M168.92,22.48c.24,0,.44,0,.44-.3s-.21-.27-.4-.27h-.38v.57Zm-.33,1h-.28V21.67h.7c.43,0,.64.16.64.53a.48.48,0,0,1-.45.51h0l.52.82h-.31l-.48-.8h-.32v.75Z" transform="translate(0 0)"/></g></g><path class="cls-1" d="M159.26,8.15a1.69,1.69,0,0,1-.11-1.59,5.8,5.8,0,0,0-2.89,1.89h2.89c.12,0,.18-.08.12-.3Z" transform="translate(0 0)"/><path class="cls-1" d="M162.18,8.45h3a5.76,5.76,0,0,0-3-1.88,1.71,1.71,0,0,1,.16.71,2,2,0,0,1-.33,1A.18.18,0,0,0,162.18,8.45Z" transform="translate(0 0)"/><path class="cls-1" d="M166,6.76V0H155.33V6.76h-6.76v10.7h6.76v6.76H166V17.46h6.78V6.76Zm-8.13-.66a6.63,6.63,0,0,1,8.82,3.18H161.9a.84.84,0,0,1-.6-.25h0a.86.86,0,0,1,0-1.22.87.87,0,0,0,.24-.59.84.84,0,0,0-.25-.6.86.86,0,0,0-1.22,1.22.84.84,0,0,1,.26.58.88.88,0,0,1-.86.86h-4.78A6.64,6.64,0,0,1,157.87,6.1Zm-3.4,3.74,4.48.5a.78.78,0,0,1,.37.09.81.81,0,0,1,.35,1.09l0,.06-3.06,5.76A6.64,6.64,0,0,1,154.47,9.84Zm2.63,7.85,3.26-4.88,0,0a.44.44,0,0,1,.62,0v0l3.29,4.91A6.64,6.64,0,0,1,157.1,17.69Zm7.69-.41-3.11-5.84a.86.86,0,0,1-.1-.38h0a.82.82,0,0,1,.88-.76l4.48-.49h0A6.64,6.64,0,0,1,164.79,17.28Z" transform="translate(0 0)"/><path class="cls-1" d="M162.74,11.11a.16.16,0,0,0-.16.16h0v.1L165,15.9a5.77,5.77,0,0,0,1.26-5.18Z" transform="translate(0 0)"/><path class="cls-1" d="M158.74,11.12l-3.57-.4a5.84,5.84,0,0,0,1.24,5.2l2.42-4.55h.07v-.09A.16.16,0,0,0,158.74,11.12Z" transform="translate(0 0)"/><path class="cls-1" d="M160.83,14a.19.19,0,0,0-.18-.11.18.18,0,0,0-.16.1l-2.27,3.4a5.76,5.76,0,0,0,4.87,0l-2.26-3.4Z" transform="translate(0 0)"/></g></svg>