<svg id="Layer_1" data-name="Layer 1" xmlns="http://www.w3.org/2000/svg" viewBox="0 0 540.38 100"><defs><style>.cls-1{fill:#fff;}</style></defs><title>premera-wordmark-white</title><path class="cls-1" d="M321.69,85.53c-3.42-.73-4.4-2.38-4.85-8.27l-5.7-52.57c-.44-5.94.75-7.67,4.69-8.19A1.53,1.53,0,0,0,317,15.16a1.46,1.46,0,0,0-1.32-.95H298.93A2.8,2.8,0,0,0,296,15.79c-4.08,9.69-9.46,22.14-13.82,32.1l-5.48,12.45L274.63,65l-.45-1-1.59-3.58L267.1,48,252.82,16.11l-.35-.83a3,3,0,0,0-.3-.59,1.31,1.31,0,0,0-1.2-.48H231.74a1.71,1.71,0,0,0-1.4,1.16,1.36,1.36,0,0,0,1,1.35c3.9.52,5.8,2.32,5.48,8.2-1.4,15.75-4.41,42.07-6.3,52.12-.56,5.31-2.17,7.75-5.72,8.49a1.22,1.22,0,0,0-1.05,1.23,1.2,1.2,0,0,0,1.31,1.08c3,0,5.92-.76,9.16-.76s6.22.72,9.39.72A1.17,1.17,0,0,0,245,86.68a1.35,1.35,0,0,0-1-1.15c-3.46-.74-5.29-2.89-5.18-8.23.1-10.53,3.27-31.9,4.65-43.55l.15-1.21.49,1.11C249.52,46,258.82,65,269,87.3c.81,1.75,2.42,1.75,3.22,0,8.87-18.69,18.17-39.62,24.6-53.67l.51-1.12,4.52,44.81c.44,5.89-.35,7.48-3.73,8.2a1.27,1.27,0,0,0-1,1.23,1,1,0,0,0,1.1,1c2.23,0,8.17-.74,11.74-.74s9.34.74,11.68.74a1,1,0,0,0,1.09-1A1.25,1.25,0,0,0,321.69,85.53Z" transform="translate(-6.81 0)"/><path class="cls-1" d="M168.62,97.54c-4,0-9-2.31-13.87-9-.95-1.3-3.15-5.21-5.39-9.27S144.87,71,143.79,69c-3.88-6.91-8-14.08-13.35-17.48l.59-.25c8.67-3.68,15-11.34,15-18.19,0-12-10.79-19.24-22.53-19.24-7.92,0-28.89,1.12-37.48.34a.89.89,0,0,0-1.05.87c0,.44.27,1.41.92,1.58,3.56.73,5,2.41,5,8.23V77.12c0,5.89-.88,7.51-4.28,8.23a1.39,1.39,0,0,0-1,1.32,1,1,0,0,0,1.09,1.13c2.23,0,8.19-.69,11.77-.69s9.32.69,11.56.69c.9,0,1.21-.56,1.13-1.16a1.58,1.58,0,0,0-1.06-1.29c-3.44-.73-4.84-2.4-4.84-8.23l.27-57c1.14-.24,2.9-.8,10.13-.8C124,19.34,131,24,131,34.61c0,11.57-10.16,15.12-20.21,15.16l-2.15,3h.74c2.77,0,8.32,2.49,9.06,3.14,2.78,2.47,5.73,7,8.47,11.73s5.28,9.66,7.26,12.93a90.32,90.32,0,0,0,6.28,9c7,8.83,12.79,10.36,21.82,10.36h6.43a.91.91,0,0,0,.91-1,2.18,2.18,0,0,0-.27-.85A.9.9,0,0,0,168.62,97.54Z" transform="translate(-6.81 0)"/><path class="cls-1" d="M46.59,0C37.45,0,17.87,1.29,8,.39a.91.91,0,0,0-1.15.75,1.64,1.64,0,0,0,1,1.51C12,3.5,13.3,5.5,13.3,12.2V87.72c0,6.82-1.33,8.71-5.28,9.55A1.51,1.51,0,0,0,6.9,98.72,1.13,1.13,0,0,0,8.1,100c2.58,0,8.63-1,12.75-1s10.29,1,12.87,1c1,0,1.32-.62,1.24-1.27a1.7,1.7,0,0,0-1.17-1.43c-4-.85-5.62-2.82-5.62-9.55L28.44,7.1A60.51,60.51,0,0,1,40.36,5.8c11.54,0,22.6,6,22.6,22.61,0,19.94-14.69,24.5-22.82,24.5a58.24,58.24,0,0,1-6.86-.6l-2.13,3.86a46.38,46.38,0,0,0,13,1.79C60,58,78.65,48,78.65,28.08,78.65,7.58,62.31,0,46.59,0Z" transform="translate(-6.81 0)"/><path class="cls-1" d="M546.09,85.7c-3.88-.75-5.8-3.59-8-8.39,0,0-25.25-50.91-32-64.32a2.2,2.2,0,0,0-3.71,0c-6.47,13-20.9,45.07-31.49,68.37a65.46,65.46,0,0,1-6.35-7.29c-2.31-3-5.39-7.5-8.06-11.17-.67-.91-1.45-2-2.32-3.08a37,37,0,0,0-2.94-3.3A17.77,17.77,0,0,0,445,52.35L444.1,52l1-.29c10.25-3.14,16.11-9.95,16.11-18.6,0-12-11.19-19.24-22.93-19.24-7.92,0-27.43,1.12-36,.34a.89.89,0,0,0-1.05.87c0,.44.28,1.41.92,1.58,3.56.73,5,2.41,5,8.23V77.12c0,5.89-.88,7.51-4.28,8.23a1.4,1.4,0,0,0-1,1.32,1,1,0,0,0,1.09,1.13c2.23,0,7.6-.83,11.17-.83s9.66.83,11.89.83c.91,0,1.22-.56,1.13-1.16A1.59,1.59,0,0,0,426,85.35c-3.44-.73-4.84-2.4-4.84-8.23l.29-57a61,61,0,0,1,10.11-.8c8.33,0,15.11,4.17,15.11,14.75,0,11.59-9.9,15.63-19.92,15.68l-2.15,3h.73a14.44,14.44,0,0,1,6.79,2.06,23.11,23.11,0,0,1,3.41,2.3,31.21,31.21,0,0,1,4.06,4.33c1.23,1.56,2.44,3.25,3.89,5.14,2,2.62,4.88,6.59,7.36,10.05l3.3,4.58c.91,1.24,1.85,2.41,2.1,2.69,2.78,3.18,6.43,3.92,10.22,3.92h12.32a.92.92,0,0,0,.9-1.05,2.32,2.32,0,0,0-.26-.85.92.92,0,0,0-.76-.56,7.44,7.44,0,0,1-1-.09L488,62.46l27.4.47.83,1.52,2.56,4.8c1.88,3.59,3.86,7.43,4.28,8.37,2.28,5.08,2.46,7.17-1.21,8.07-.77.09-1.08.61-1,1.13a1.29,1.29,0,0,0,1.28,1c2.23,0,7.63-.69,11.87-.69,3.69,0,9.88.69,12.11.69.82,0,1.05-.45,1-.87A1.4,1.4,0,0,0,546.09,85.7ZM490.78,56.34l11-23.54.31.66c2,4.38,10.12,22.86,10.12,22.86Z" transform="translate(-6.81 0)"/><path class="cls-1" d="M390.06,72.32a1.72,1.72,0,0,0-2.09.51c-1.85,3.94-5.22,8.39-9.7,8.92-4.76.66-16.59.41-19.81.07-4.44-.52-5-1.87-5-6.32V51.64H377.3l3.57-6.12H353.44V20.05h21.33c5.58,0,6.49.39,8.07,1.44a9,9,0,0,1,3.21,4.16c.14.71,1.28,1.14,1.81,1s1.26-.66,1.11-1.37l-1-8.17a3.12,3.12,0,0,0-3.5-2.89H335a1,1,0,0,0-1.09,1.05,1.26,1.26,0,0,0,1,1.23c3.39.72,4.27,2.35,4.27,8.23V77.12c0,5.89-.88,7.5-4.27,8.23a1.33,1.33,0,0,0-1,1.34A1.06,1.06,0,0,0,335,87.84c2.34,0,11-.23,15.59-.23,9.61,0,25.83.68,33.76.68,2.23,0,3.33-.61,3.72-2.53.56-1.9,2.15-8.6,2.9-11.94a1.14,1.14,0,0,0-.23-1A2.82,2.82,0,0,0,390.06,72.32Z" transform="translate(-6.81 0)"/><path class="cls-1" d="M216.79,72.32a1.73,1.73,0,0,0-2.1.51c-1.84,3.94-5.21,8.39-9.69,8.92-4.76.66-16.59.41-19.81.07-4.44-.52-5-1.87-5-6.32V51.64H204l3.58-6.12H180.16V20.05H201.5c5.58,0,6.49.39,8.06,1.44a9,9,0,0,1,3.21,4.16c.15.71,1.3,1.14,1.82,1s1.26-.66,1.11-1.37l-1-8.17a3.13,3.13,0,0,0-3.5-2.89H161.73a1,1,0,0,0-1.09,1.05,1.28,1.28,0,0,0,1,1.23c3.4.72,4.28,2.35,4.28,8.23V77.12c0,5.89-.88,7.5-4.28,8.23a1.35,1.35,0,0,0-1,1.34,1.07,1.07,0,0,0,1.09,1.15c2.35,0,11-.23,15.6-.23,9.6,0,25.83.68,33.76.68,2.23,0,3.33-.61,3.72-2.53.55-1.9,2.15-8.6,2.89-11.94a1.08,1.08,0,0,0-.23-1A2.61,2.61,0,0,0,216.79,72.32Z" transform="translate(-6.81 0)"/></svg>