<svg id="Layer_1" data-name="Layer 1" xmlns="http://www.w3.org/2000/svg" viewBox="0 0 135.18 84.19"><defs><style>.cls-1{fill:#fff;}.cls-2{fill:#0099d8;}</style></defs><title>urgent</title><rect class="cls-1" width="135" height="84.19"/><g id="Group_830" data-name="Group 830"><circle id="Ellipse_26" data-name="Ellipse 26" class="cls-2" cx="37.49" cy="71.65" r="12.52"/><circle id="Ellipse_27" data-name="Ellipse 27" class="cls-2" cx="104.05" cy="71.65" r="12.52"/><path id="Path_260" data-name="Path 260" class="cls-2" d="M770,387.53H642.22v20.75h-3.58v7.52h20c0-.72-.36-1.08-.36-1.79a17.18,17.18,0,0,1,17.18-17.18,17,17,0,0,1,17.17,16.73V414a2.68,2.68,0,0,1-.36,1.79h32.92c0-.72-.36-1.08-.36-1.79a17.18,17.18,0,1,1,34.35,0,2.67,2.67,0,0,1-.35,1.79h14.31v-7.52H769.6V387.53Z" transform="translate(-638 -342)"/><path id="Path_261" data-name="Path 261" class="cls-2" d="M675.5,356.4,663,389.68H769.6V356.4ZM692,381.45H674.78l6.8-17.18h10.73v17.18Zm53.67,0H712.71V364.27h32.92Z" transform="translate(-638 -342)"/></g></svg>