<svg id="Layer_1" data-name="Layer 1" xmlns="http://www.w3.org/2000/svg" xmlns:xlink="http://www.w3.org/1999/xlink" viewBox="0 0 641.2 308.81"><defs><style>.cls-1{fill:url(#linear-gradient);}.cls-2{fill:url(#linear-gradient-2);}.cls-10,.cls-11,.cls-3,.cls-8{fill:none;}.cls-3{stroke:#fff;stroke-width:4px;}.cls-4{fill:url(#linear-gradient-3);}.cls-5{isolation:isolate;}.cls-6{fill:#fff;}.cls-7{fill:#484c56;}.cls-9{fill:#4d4d4f;}.cls-10,.cls-11{stroke:#484c56;}.cls-10{stroke-width:0.5px;}</style><linearGradient id="linear-gradient" x1="-360.43" y1="534.59" x2="-359.43" y2="534.59" gradientTransform="matrix(633.1, 0, 0, -38.4, 228188.09, 20786.2)" gradientUnits="userSpaceOnUse"><stop offset="0" stop-color="#c8c9c9"/><stop offset="1" stop-color="#f2f4f4"/></linearGradient><linearGradient id="linear-gradient-2" x1="-360.44" y1="538.62" x2="-359.44" y2="538.62" gradientTransform="matrix(641.2, 0, 0, -120.9, 231112.2, 65179.9)" xlink:href="#linear-gradient"/><linearGradient id="linear-gradient-3" x1="-360.44" y1="538.87" x2="-359.44" y2="538.87" gradientTransform="matrix(641.2, 0, 0, -139.5, 231112.2, 75341.8)" gradientUnits="userSpaceOnUse"><stop offset="0" stop-color="#0099d8"/><stop offset="1" stop-color="#04b6c8"/></linearGradient></defs><title>who-pays-md</title><g id="Group_1913" data-name="Group 1913"><path id="Path_570" data-name="Path 570" class="cls-1" d="M633.1,258l-14.3-19.2v7.4H0v23.9H618.8v7.1Z"/><path id="Path_571" data-name="Path 571" class="cls-2" d="M567.9,0V11.5H.1L0,111.8H567.9v9.1l73.3-60Z"/><path id="Path_721" data-name="Path 721" class="cls-3" d="M0,110.6H592.9"/><path id="Path_572" data-name="Path 572" class="cls-4" d="M567.9,99.3v13.15H.1L0,228.3H567.9v10.5l73.3-69.23Z"/><line id="Line_252" data-name="Line 252" class="cls-3" x1="201.2" y1="232.31" x2="201.2" y2="110.3"/><line id="Line_253" data-name="Line 253" class="cls-3" x1="418" y1="232.31" x2="418" y2="110.3"/><g id="Start_plan_year" data-name="Start plan year" class="cls-5"><g class="cls-5"><path class="cls-6" d="M42.13,261a1.11,1.11,0,0,0-.44-1,5.92,5.92,0,0,0-1.58-.7,11.77,11.77,0,0,1-1.81-.73A3,3,0,0,1,36.49,256a2.64,2.64,0,0,1,.48-1.55,3.23,3.23,0,0,1,1.4-1,5.17,5.17,0,0,1,2.05-.39,4.77,4.77,0,0,1,2,.42,3.17,3.17,0,0,1,1.38,1.17,3,3,0,0,1,.5,1.71h-2.2a1.43,1.43,0,0,0-.46-1.14,1.91,1.91,0,0,0-1.3-.41,2,2,0,0,0-1.25.35,1.05,1.05,0,0,0-.45.89,1,1,0,0,0,.53.87,5.55,5.55,0,0,0,1.54.66,6.77,6.77,0,0,1,2.73,1.4,2.8,2.8,0,0,1,.86,2.08,2.55,2.55,0,0,1-1.05,2.17,4.56,4.56,0,0,1-2.82.79,5.43,5.43,0,0,1-2.24-.45,3.55,3.55,0,0,1-1.54-1.23,3.14,3.14,0,0,1-.53-1.82h2.2c0,1.18.71,1.77,2.11,1.77a2.06,2.06,0,0,0,1.22-.32A1,1,0,0,0,42.13,261Z"/><path class="cls-6" d="M48.22,254v2h1.36v1.55H48.22v4a1,1,0,0,0,.17.63.83.83,0,0,0,.64.19,3.83,3.83,0,0,0,.63-.05v1.6a4.33,4.33,0,0,1-1.29.19,2,2,0,0,1-2.27-2.25v-4.27H45V255.9H46.1v-2Z"/><path class="cls-6" d="M55.35,263.83a2.55,2.55,0,0,1-.22-.72,2.51,2.51,0,0,1-2,.86,2.8,2.8,0,0,1-1.93-.67,2.15,2.15,0,0,1-.77-1.7,2.22,2.22,0,0,1,.93-1.93,4.67,4.67,0,0,1,2.7-.69h1v-.45a1.34,1.34,0,0,0-.28-.88,1.12,1.12,0,0,0-.89-.33,1.26,1.26,0,0,0-.84.26.84.84,0,0,0-.31.7H50.62A2.13,2.13,0,0,1,51,257a2.76,2.76,0,0,1,1.2-.92,4.43,4.43,0,0,1,1.74-.34,3.46,3.46,0,0,1,2.33.74,2.59,2.59,0,0,1,.86,2.07V262a3.76,3.76,0,0,0,.32,1.71v.13Zm-1.75-1.48a1.79,1.79,0,0,0,.86-.21,1.39,1.39,0,0,0,.59-.56v-1.36h-.79c-1.06,0-1.63.37-1.7,1.1v.12a.87.87,0,0,0,.27.66A1.1,1.1,0,0,0,53.6,262.35Z"/><path class="cls-6" d="M63.25,257.89a5.61,5.61,0,0,0-.76-.06,1.56,1.56,0,0,0-1.58.81v5.19H58.8V255.9h2l.05.94a2,2,0,0,1,1.77-1.09,2.39,2.39,0,0,1,.66.1Z"/><path class="cls-6" d="M67.17,254v2h1.35v1.55H67.17v4a.91.91,0,0,0,.17.63.82.82,0,0,0,.64.19,3.7,3.7,0,0,0,.62-.05v1.6a4.22,4.22,0,0,1-1.28.19,2,2,0,0,1-2.27-2.25v-4.27H63.89V255.9h1.16v-2Z"/><path class="cls-6" d="M80.57,259.94a4.78,4.78,0,0,1-.83,2.93A2.66,2.66,0,0,1,77.5,264a2.5,2.5,0,0,1-2-.83v3.73H73.44v-11h2l.07.78a2.5,2.5,0,0,1,2-.93,2.69,2.69,0,0,1,2.28,1.09,4.89,4.89,0,0,1,.81,3Zm-2.11-.16a3.09,3.09,0,0,0-.4-1.7,1.27,1.27,0,0,0-1.14-.6,1.39,1.39,0,0,0-1.37.76v3.24a1.41,1.41,0,0,0,1.39.78C78,262.26,78.46,261.44,78.46,259.78Z"/><path class="cls-6" d="M84.12,263.83H82V252.58h2.13Z"/><path class="cls-6" d="M90.45,263.83a2.27,2.27,0,0,1-.21-.72,2.53,2.53,0,0,1-2,.86,2.8,2.8,0,0,1-1.93-.67,2.18,2.18,0,0,1-.77-1.7,2.23,2.23,0,0,1,.94-1.93,4.63,4.63,0,0,1,2.7-.69h1v-.45a1.29,1.29,0,0,0-.28-.88,1.11,1.11,0,0,0-.89-.33,1.26,1.26,0,0,0-.84.26.87.87,0,0,0-.3.7H85.72a2.07,2.07,0,0,1,.43-1.27,2.76,2.76,0,0,1,1.2-.92,4.39,4.39,0,0,1,1.74-.34,3.48,3.48,0,0,1,2.33.74,2.59,2.59,0,0,1,.86,2.07V262a3.78,3.78,0,0,0,.31,1.71v.13Zm-1.75-1.48a1.86,1.86,0,0,0,.87-.21,1.37,1.37,0,0,0,.58-.56v-1.36h-.79c-1.06,0-1.62.37-1.69,1.1v.12a.84.84,0,0,0,.28.66A1.09,1.09,0,0,0,88.7,262.35Z"/><path class="cls-6" d="M95.85,255.9l.07.92a2.75,2.75,0,0,1,2.27-1.07,2.32,2.32,0,0,1,1.88.74,3.48,3.48,0,0,1,.63,2.22v5.12H98.58v-5.07a1.4,1.4,0,0,0-.29-1,1.34,1.34,0,0,0-1-.3,1.46,1.46,0,0,0-1.34.76v5.59H93.86V255.9Z"/><path class="cls-6" d="M109,260.83l1.46-4.93h2.27l-3.18,9.16-.18.41A2.41,2.41,0,0,1,107,267a3.45,3.45,0,0,1-.94-.14v-1.61h.32a1.78,1.78,0,0,0,.9-.18,1.23,1.23,0,0,0,.46-.61l.25-.65-2.77-8h2.27Z"/><path class="cls-6" d="M117.12,264a3.87,3.87,0,0,1-2.84-1.07,3.79,3.79,0,0,1-1.09-2.85v-.2a4.77,4.77,0,0,1,.46-2.14,3.41,3.41,0,0,1,1.31-1.45,3.64,3.64,0,0,1,1.93-.51,3.32,3.32,0,0,1,2.56,1,4.17,4.17,0,0,1,.93,2.91v.86h-5a2,2,0,0,0,.62,1.25,1.89,1.89,0,0,0,1.31.46,2.29,2.29,0,0,0,1.91-.88l1,1.16a3.19,3.19,0,0,1-1.29,1A4.09,4.09,0,0,1,117.12,264Zm-.24-6.51a1.3,1.3,0,0,0-1,.43,2.18,2.18,0,0,0-.51,1.22h3v-.17a1.58,1.58,0,0,0-.38-1.09A1.36,1.36,0,0,0,116.88,257.46Z"/><path class="cls-6" d="M126.17,263.83a2.27,2.27,0,0,1-.21-.72,2.53,2.53,0,0,1-2,.86,2.8,2.8,0,0,1-1.93-.67,2.17,2.17,0,0,1-.76-1.7,2.22,2.22,0,0,1,.93-1.93,4.63,4.63,0,0,1,2.7-.69h1v-.45a1.29,1.29,0,0,0-.28-.88,1.11,1.11,0,0,0-.89-.33,1.26,1.26,0,0,0-.84.26.87.87,0,0,0-.3.7h-2.12a2.07,2.07,0,0,1,.43-1.27,2.76,2.76,0,0,1,1.2-.92,4.39,4.39,0,0,1,1.74-.34,3.48,3.48,0,0,1,2.33.74,2.59,2.59,0,0,1,.86,2.07V262a3.78,3.78,0,0,0,.31,1.71v.13Zm-1.75-1.48a1.86,1.86,0,0,0,.87-.21,1.31,1.31,0,0,0,.58-.56v-1.36h-.79c-1.06,0-1.62.37-1.69,1.1v.12a.84.84,0,0,0,.28.66A1.09,1.09,0,0,0,124.42,262.35Z"/><path class="cls-6" d="M134.08,257.89a5.75,5.75,0,0,0-.77-.06,1.55,1.55,0,0,0-1.57.81v5.19h-2.12V255.9h2l.06.94a2,2,0,0,1,1.77-1.09,2.27,2.27,0,0,1,.65.1Z"/></g></g><g id="Group_1725" data-name="Group 1725"><g id="WE_PAY" data-name="WE PAY" class="cls-5"><g class="cls-5"><path class="cls-6" d="M39.48,68.45l1.21,6.07,1.47-5.81L50.65,39.9h3L62,68.71l1.45,5.86,1.29-6.12L71.81,39.9H75.2L65.18,79H62L53.15,48.41l-1-3.87-1,3.87L42.11,79H38.94L29,39.9h3.38Z"/><path class="cls-6" d="M103.15,60.25H84.86v16h21V79H81.56V39.9h24.2v2.79H84.86V57.46h18.29Z"/><path class="cls-6" d="M129.52,63.07V79h-3.3V39.9h13.32q6.09,0,9.63,3.11a10.86,10.86,0,0,1,3.53,8.57q0,5.51-3.4,8.5t-9.84,3Zm0-2.79h10q4.82,0,7.33-2.28a8.16,8.16,0,0,0,2.53-6.38,8.56,8.56,0,0,0-2.51-6.47q-2.52-2.4-7.13-2.46H129.52Z"/><path class="cls-6" d="M177.49,68H159.74l-4,11h-3.47L167,39.9h3.14L185,79h-3.44Zm-16.73-2.8h15.68L168.6,43.93Z"/><path class="cls-6" d="M199.67,61.22l12-21.32h3.81L201.31,64.28V79H198V64.28L183.91,39.9h3.92Z"/></g></g></g><g id="_100_preventive_exams_screenings_specialty_Rx_covered_in_full" data-name=" 100 preventive exams screenings specialty Rx covered in full" class="cls-5"><g class="cls-5"><path class="cls-7" d="M271.79,56h-2V46.29l-3,1V45.61l4.72-1.74h.26Z"/><path class="cls-7" d="M283.86,50.91a6.58,6.58,0,0,1-1,3.93,3.46,3.46,0,0,1-3,1.33A3.5,3.5,0,0,1,277,54.88a6.38,6.38,0,0,1-1-3.83V49a6.49,6.49,0,0,1,1-3.91,4.06,4.06,0,0,1,5.93,0,6.25,6.25,0,0,1,1,3.8Zm-2-2.26a5.1,5.1,0,0,0-.47-2.49,1.78,1.78,0,0,0-2.93,0,4.75,4.75,0,0,0-.49,2.34V51.2a5.23,5.23,0,0,0,.48,2.53,1.73,1.73,0,0,0,2.92.06,5,5,0,0,0,.49-2.41Z"/><path class="cls-7" d="M293.53,50.91a6.58,6.58,0,0,1-1,3.93,3.46,3.46,0,0,1-3,1.33,3.5,3.5,0,0,1-2.95-1.29,6.32,6.32,0,0,1-1-3.83V49a6.49,6.49,0,0,1,1-3.91,4.07,4.07,0,0,1,5.94,0,6.32,6.32,0,0,1,1,3.8Zm-2-2.26a5.1,5.1,0,0,0-.47-2.49,1.58,1.58,0,0,0-1.47-.79,1.6,1.6,0,0,0-1.46.75,4.75,4.75,0,0,0-.49,2.34V51.2a5.23,5.23,0,0,0,.48,2.53,1.73,1.73,0,0,0,2.92.06,5,5,0,0,0,.49-2.41Z"/><path class="cls-7" d="M295.23,46.24a2.43,2.43,0,0,1,.7-1.8,2.56,2.56,0,0,1,4.42,1.84v.6a2.39,2.39,0,0,1-.7,1.78,2.5,2.5,0,0,1-1.85.7,2.59,2.59,0,0,1-1.85-.69,2.41,2.41,0,0,1-.72-1.84Zm1.41.63a1.33,1.33,0,0,0,.32.93,1.15,1.15,0,0,0,1.67,0,1.37,1.37,0,0,0,.32-1v-.61a1.36,1.36,0,0,0-.32-.93,1.1,1.1,0,0,0-.85-.36,1,1,0,0,0-.83.37,1.38,1.38,0,0,0-.31.95Zm1.58,8.23-1-.6,5.9-9.45,1,.6ZM301,53a2.35,2.35,0,0,1,.72-1.8,2.81,2.81,0,0,1,3.69,0,2.42,2.42,0,0,1,.72,1.85v.59a2.42,2.42,0,0,1-.69,1.78,2.5,2.5,0,0,1-1.86.71,2.58,2.58,0,0,1-1.87-.7,2.45,2.45,0,0,1-.71-1.83Zm1.41.64a1.31,1.31,0,0,0,.33.92,1.09,1.09,0,0,0,.84.36,1,1,0,0,0,.83-.34,1.38,1.38,0,0,0,.31-1V53a1.29,1.29,0,0,0-.33-.93,1.16,1.16,0,0,0-1.66,0,1.37,1.37,0,0,0-.32,1Z"/><path class="cls-7" d="M320,51.6a5.32,5.32,0,0,1-.94,3.32,3,3,0,0,1-2.54,1.25,3.07,3.07,0,0,1-2.37-1v4.25h-2V47H314l.09.91a3,3,0,0,1,2.41-1.08,3.05,3.05,0,0,1,2.58,1.23,5.5,5.5,0,0,1,.93,3.4Zm-2-.17a3.83,3.83,0,0,0-.53-2.14A1.76,1.76,0,0,0,316,48.5a1.85,1.85,0,0,0-1.78,1v4A1.87,1.87,0,0,0,316,54.56a1.73,1.73,0,0,0,1.51-.78A4.14,4.14,0,0,0,318,51.43Z"/><path class="cls-7" d="M326.43,48.86a5.44,5.44,0,0,0-.82-.07,1.85,1.85,0,0,0-1.87,1.07V56h-2V47h1.93l.05,1a2.27,2.27,0,0,1,2-1.17,1.87,1.87,0,0,1,.72.12Z"/><path class="cls-7" d="M331.5,56.17A4.2,4.2,0,0,1,328.39,55a4.41,4.41,0,0,1-1.19-3.22v-.25a5.46,5.46,0,0,1,.52-2.4,3.91,3.91,0,0,1,1.46-1.65,3.86,3.86,0,0,1,2.09-.59A3.51,3.51,0,0,1,334.1,48a4.94,4.94,0,0,1,1,3.31v.82h-5.87a2.66,2.66,0,0,0,.74,1.76,2.23,2.23,0,0,0,1.64.65,2.77,2.77,0,0,0,2.26-1.12l1.08,1a3.57,3.57,0,0,1-1.44,1.25A4.44,4.44,0,0,1,331.5,56.17Zm-.24-7.7a1.72,1.72,0,0,0-1.34.58,3,3,0,0,0-.65,1.62h3.84v-.15a2.42,2.42,0,0,0-.54-1.53A1.66,1.66,0,0,0,331.26,48.47Z"/><path class="cls-7" d="M339.73,53.44l1.9-6.42h2.08l-3.11,9h-1.75l-3.14-9h2.09Z"/><path class="cls-7" d="M348.82,56.17A4.19,4.19,0,0,1,345.71,55a4.41,4.41,0,0,1-1.19-3.22v-.25a5.32,5.32,0,0,1,.52-2.4,3.85,3.85,0,0,1,3.55-2.24A3.52,3.52,0,0,1,351.42,48a4.94,4.94,0,0,1,1,3.31v.82h-5.87a2.71,2.71,0,0,0,.74,1.76,2.26,2.26,0,0,0,1.64.65,2.74,2.74,0,0,0,2.26-1.12l1.09,1a3.57,3.57,0,0,1-1.44,1.25A4.47,4.47,0,0,1,348.82,56.17Zm-.24-7.7a1.71,1.71,0,0,0-1.34.58,3.08,3.08,0,0,0-.66,1.62h3.85v-.15a2.54,2.54,0,0,0-.54-1.53A1.67,1.67,0,0,0,348.58,48.47Z"/><path class="cls-7" d="M355.86,47l.06,1a3.2,3.2,0,0,1,2.61-1.21q2.81,0,2.85,3.21V56h-2V50.18a1.81,1.81,0,0,0-.37-1.26,1.54,1.54,0,0,0-1.21-.42A2,2,0,0,0,356,49.61V56h-2V47Z"/><path class="cls-7" d="M366,44.84V47h1.58v1.49H366v5a1.13,1.13,0,0,0,.2.74,1,1,0,0,0,.73.23,2.8,2.8,0,0,0,.7-.09V56a4.88,4.88,0,0,1-1.33.2c-1.55,0-2.32-.86-2.32-2.57V48.51h-1.48V47H364V44.84Z"/><path class="cls-7" d="M369.1,44.69a1.12,1.12,0,0,1,.29-.78,1.34,1.34,0,0,1,1.69,0,1.09,1.09,0,0,1,.3.78,1.06,1.06,0,0,1-.3.76,1.34,1.34,0,0,1-1.69,0A1.09,1.09,0,0,1,369.1,44.69ZM371.24,56h-2V47h2Z"/><path class="cls-7" d="M376.6,53.44,378.5,47h2.08l-3.11,9h-1.75l-3.14-9h2.09Z"/><path class="cls-7" d="M385.69,56.17A4.2,4.2,0,0,1,382.58,55a4.41,4.41,0,0,1-1.19-3.22v-.25a5.32,5.32,0,0,1,.52-2.4,3.88,3.88,0,0,1,3.55-2.24A3.52,3.52,0,0,1,388.29,48a4.94,4.94,0,0,1,1,3.31v.82h-5.87a2.67,2.67,0,0,0,.75,1.76,2.23,2.23,0,0,0,1.64.65,2.74,2.74,0,0,0,2.25-1.12l1.09,1a3.57,3.57,0,0,1-1.44,1.25A4.44,4.44,0,0,1,385.69,56.17Zm-.24-7.7a1.72,1.72,0,0,0-1.34.58,3,3,0,0,0-.65,1.62h3.84v-.15a2.42,2.42,0,0,0-.54-1.53A1.66,1.66,0,0,0,385.45,48.47Z"/><path class="cls-7" d="M399.05,56.17A4.19,4.19,0,0,1,395.94,55a4.37,4.37,0,0,1-1.19-3.22v-.25a5.32,5.32,0,0,1,.52-2.4,3.85,3.85,0,0,1,3.54-2.24A3.53,3.53,0,0,1,401.65,48a5,5,0,0,1,1,3.31v.82h-5.87a2.71,2.71,0,0,0,.74,1.76,2.25,2.25,0,0,0,1.64.65,2.74,2.74,0,0,0,2.26-1.12l1.09,1a3.57,3.57,0,0,1-1.44,1.25A4.47,4.47,0,0,1,399.05,56.17Zm-.25-7.7a1.72,1.72,0,0,0-1.34.58,3.08,3.08,0,0,0-.65,1.62h3.85v-.15a2.54,2.54,0,0,0-.54-1.53A1.7,1.7,0,0,0,398.8,48.47Z"/><path class="cls-7" d="M407.44,50,409.15,47h2.24l-2.75,4.42L411.48,56h-2.22l-1.8-3.07L405.68,56h-2.24l2.84-4.56L403.54,47h2.22Z"/><path class="cls-7" d="M418.13,56a2.83,2.83,0,0,1-.23-.84,3.38,3.38,0,0,1-4.57.23,2.46,2.46,0,0,1-.85-1.91,2.55,2.55,0,0,1,1.06-2.2,5.18,5.18,0,0,1,3-.77h1.24v-.59a1.57,1.57,0,0,0-.39-1.11,1.54,1.54,0,0,0-1.19-.42,1.79,1.79,0,0,0-1.13.34,1.08,1.08,0,0,0-.44.88h-2a2.22,2.22,0,0,1,.49-1.38,3.19,3.19,0,0,1,1.33-1,4.57,4.57,0,0,1,1.88-.37,3.74,3.74,0,0,1,2.51.8,2.81,2.81,0,0,1,1,2.22v4.05a4.56,4.56,0,0,0,.34,1.94V56Zm-2.22-1.45a2.35,2.35,0,0,0,1.13-.29,2,2,0,0,0,.79-.78v-1.7h-1.09a3,3,0,0,0-1.68.39,1.27,1.27,0,0,0-.57,1.11,1.16,1.16,0,0,0,.39.92A1.49,1.49,0,0,0,415.91,54.55Z"/><path class="cls-7" d="M423.86,47l.06.94a3.21,3.21,0,0,1,2.58-1.11A2.48,2.48,0,0,1,429,48.23a3.18,3.18,0,0,1,2.76-1.38,2.83,2.83,0,0,1,2.21.82,3.65,3.65,0,0,1,.74,2.43V56h-2V50.16a1.81,1.81,0,0,0-.37-1.26,1.66,1.66,0,0,0-1.24-.4,1.7,1.7,0,0,0-1.12.37,2,2,0,0,0-.61,1V56h-2V50.09a1.44,1.44,0,0,0-1.62-1.59,1.78,1.78,0,0,0-1.72,1V56h-2V47Z"/><path class="cls-7" d="M441.79,53.56a.91.91,0,0,0-.45-.82,4.55,4.55,0,0,0-1.47-.5,7.41,7.41,0,0,1-1.72-.55,2.28,2.28,0,0,1-1.51-2.11,2.41,2.41,0,0,1,1-1.95,3.86,3.86,0,0,1,2.49-.78,4,4,0,0,1,2.6.8,2.53,2.53,0,0,1,1,2.07h-2a1.27,1.27,0,0,0-.43-1,1.65,1.65,0,0,0-1.15-.39,1.82,1.82,0,0,0-1.08.31,1,1,0,0,0-.42.82.81.81,0,0,0,.39.72,5,5,0,0,0,1.57.52,7.62,7.62,0,0,1,1.87.63,2.69,2.69,0,0,1,1,.86,2.22,2.22,0,0,1,.33,1.23,2.36,2.36,0,0,1-1,2,4.3,4.3,0,0,1-2.64.75,4.7,4.7,0,0,1-2-.4,3.22,3.22,0,0,1-1.35-1.1,2.57,2.57,0,0,1-.48-1.5h2a1.43,1.43,0,0,0,.54,1.1,2.47,2.47,0,0,0,2.53.08A.92.92,0,0,0,441.79,53.56Z"/><path class="cls-7" d="M445.81,58.72l-1.09-.64a5.37,5.37,0,0,0,.66-1.32,3.68,3.68,0,0,0,.19-1.14V54.05h1.82V55.5a4,4,0,0,1-.44,1.77A4.33,4.33,0,0,1,445.81,58.72Z"/><path class="cls-7" d="M458.53,53.56a.92.92,0,0,0-.44-.82,4.62,4.62,0,0,0-1.48-.5,7.57,7.57,0,0,1-1.72-.55,2.29,2.29,0,0,1-1.51-2.11,2.41,2.41,0,0,1,1-1.95,3.9,3.9,0,0,1,2.49-.78,4.06,4.06,0,0,1,2.61.8,2.53,2.53,0,0,1,1,2.07h-2a1.24,1.24,0,0,0-.43-1,1.65,1.65,0,0,0-1.15-.39,1.82,1.82,0,0,0-1.08.31,1,1,0,0,0-.42.82.81.81,0,0,0,.39.72,5,5,0,0,0,1.58.52,7.68,7.68,0,0,1,1.86.63,2.72,2.72,0,0,1,1,.86,2.3,2.3,0,0,1,.32,1.23,2.36,2.36,0,0,1-1,2,4.29,4.29,0,0,1-2.63.75,4.75,4.75,0,0,1-2-.4,3.19,3.19,0,0,1-1.34-1.1,2.51,2.51,0,0,1-.49-1.5h2a1.43,1.43,0,0,0,.54,1.1,2.07,2.07,0,0,0,1.32.39,2,2,0,0,0,1.21-.31A.92.92,0,0,0,458.53,53.56Z"/><path class="cls-7" d="M466,54.56a1.83,1.83,0,0,0,1.25-.44,1.52,1.52,0,0,0,.53-1.09h1.9a2.88,2.88,0,0,1-.52,1.56,3.39,3.39,0,0,1-1.33,1.15,3.86,3.86,0,0,1-1.81.43A3.82,3.82,0,0,1,463,55a4.84,4.84,0,0,1-1.11-3.37v-.21a4.79,4.79,0,0,1,1.1-3.29,3.78,3.78,0,0,1,3-1.23,3.69,3.69,0,0,1,2.62.94,3.33,3.33,0,0,1,1.05,2.45h-1.9a1.86,1.86,0,0,0-.52-1.27,1.71,1.71,0,0,0-1.26-.5,1.78,1.78,0,0,0-1.51.71,3.53,3.53,0,0,0-.54,2.15v.33a3.63,3.63,0,0,0,.53,2.18A1.76,1.76,0,0,0,466,54.56Z"/><path class="cls-7" d="M475.87,48.86a5.55,5.55,0,0,0-.82-.07,1.85,1.85,0,0,0-1.87,1.07V56h-2V47h1.93l.05,1a2.26,2.26,0,0,1,2-1.17,1.87,1.87,0,0,1,.72.12Z"/><path class="cls-7" d="M480.94,56.17A4.2,4.2,0,0,1,477.83,55a4.41,4.41,0,0,1-1.19-3.22v-.25a5.32,5.32,0,0,1,.52-2.4,3.91,3.91,0,0,1,1.46-1.65,3.86,3.86,0,0,1,2.09-.59A3.51,3.51,0,0,1,483.54,48a4.94,4.94,0,0,1,1,3.31v.82h-5.86a2.66,2.66,0,0,0,.74,1.76,2.23,2.23,0,0,0,1.64.65,2.77,2.77,0,0,0,2.26-1.12l1.08,1A3.57,3.57,0,0,1,483,55.72,4.44,4.44,0,0,1,480.94,56.17Zm-.24-7.7a1.72,1.72,0,0,0-1.34.58,3,3,0,0,0-.65,1.62h3.84v-.15A2.42,2.42,0,0,0,482,49,1.66,1.66,0,0,0,480.7,48.47Z"/><path class="cls-7" d="M490.06,56.17A4.18,4.18,0,0,1,487,55a4.38,4.38,0,0,1-1.2-3.22v-.25a5.46,5.46,0,0,1,.52-2.4,3.88,3.88,0,0,1,3.55-2.24A3.55,3.55,0,0,1,492.67,48a5,5,0,0,1,1,3.31v.82H487.8a2.71,2.71,0,0,0,.74,1.76,2.23,2.23,0,0,0,1.64.65,2.76,2.76,0,0,0,2.26-1.12l1.09,1a3.53,3.53,0,0,1-1.45,1.25A4.44,4.44,0,0,1,490.06,56.17Zm-.24-7.7a1.72,1.72,0,0,0-1.34.58,3.08,3.08,0,0,0-.65,1.62h3.84v-.15a2.42,2.42,0,0,0-.54-1.53A1.66,1.66,0,0,0,489.82,48.47Z"/><path class="cls-7" d="M497.1,47l.06,1a3.23,3.23,0,0,1,2.62-1.21q2.81,0,2.85,3.21V56h-2V50.18a1.81,1.81,0,0,0-.37-1.26,1.51,1.51,0,0,0-1.2-.42,1.94,1.94,0,0,0-1.82,1.11V56h-2V47Z"/><path class="cls-7" d="M504.69,44.69a1.12,1.12,0,0,1,.29-.78,1.34,1.34,0,0,1,1.69,0,1.09,1.09,0,0,1,.3.78,1.06,1.06,0,0,1-.3.76,1.34,1.34,0,0,1-1.69,0A1.09,1.09,0,0,1,504.69,44.69ZM506.83,56h-2V47h2Z"/><path class="cls-7" d="M510.9,47l.06,1a3.2,3.2,0,0,1,2.61-1.21q2.8,0,2.86,3.21V56h-2V50.18a1.81,1.81,0,0,0-.37-1.26,1.54,1.54,0,0,0-1.21-.42A1.93,1.93,0,0,0,511,49.61V56h-2V47Z"/><path class="cls-7" d="M518.13,51.44a5.29,5.29,0,0,1,1-3.34,3.18,3.18,0,0,1,2.61-1.25,3,3,0,0,1,2.42,1.07l.09-.9h1.82v8.71a3.66,3.66,0,0,1-1.1,2.79,4.2,4.2,0,0,1-3,1,4.7,4.7,0,0,1-1.93-.42,3.41,3.41,0,0,1-1.43-1.07l1-1.21a2.91,2.91,0,0,0,2.29,1.1,2.25,2.25,0,0,0,1.59-.54,2.08,2.08,0,0,0,.58-1.6v-.6a3,3,0,0,1-2.32,1,3.15,3.15,0,0,1-2.58-1.26A5.39,5.39,0,0,1,518.13,51.44Zm2,.18a3.61,3.61,0,0,0,.55,2.13,1.79,1.79,0,0,0,1.53.77,1.94,1.94,0,0,0,1.81-1V49.53a1.9,1.9,0,0,0-1.79-1,1.79,1.79,0,0,0-1.55.79A4.05,4.05,0,0,0,520.14,51.62Z"/><path class="cls-7" d="M533.15,53.56a.9.9,0,0,0-.44-.82,4.64,4.64,0,0,0-1.47-.5,7.41,7.41,0,0,1-1.72-.55A2.28,2.28,0,0,1,528,49.58a2.38,2.38,0,0,1,1-1.95,3.86,3.86,0,0,1,2.49-.78,4,4,0,0,1,2.6.8,2.53,2.53,0,0,1,1,2.07h-2a1.24,1.24,0,0,0-.43-1,1.64,1.64,0,0,0-1.14-.39,1.83,1.83,0,0,0-1.09.31,1,1,0,0,0-.42.82.81.81,0,0,0,.39.72,5,5,0,0,0,1.58.52,7.68,7.68,0,0,1,1.86.63,2.65,2.65,0,0,1,1,.86,2.22,2.22,0,0,1,.33,1.23,2.37,2.37,0,0,1-1,2,4.27,4.27,0,0,1-2.63.75,4.78,4.78,0,0,1-2-.4,3.25,3.25,0,0,1-1.34-1.1,2.57,2.57,0,0,1-.48-1.5h2a1.43,1.43,0,0,0,.54,1.1,2.47,2.47,0,0,0,2.53.08A.91.91,0,0,0,533.15,53.56Z"/><path class="cls-7" d="M537.18,58.72l-1.09-.64a6.19,6.19,0,0,0,.66-1.32,4,4,0,0,0,.19-1.14V54.05h1.82V55.5a4.14,4.14,0,0,1-.45,1.77A4.3,4.3,0,0,1,537.18,58.72Z"/></g><g class="cls-5"><path class="cls-7" d="M271.49,73.56a.91.91,0,0,0-.45-.82,4.46,4.46,0,0,0-1.47-.5,7.41,7.41,0,0,1-1.72-.55,2.28,2.28,0,0,1-1.51-2.11,2.41,2.41,0,0,1,1-2,3.86,3.86,0,0,1,2.49-.78,4,4,0,0,1,2.6.8,2.54,2.54,0,0,1,1,2.07h-2a1.27,1.27,0,0,0-.43-1,1.65,1.65,0,0,0-1.15-.39,1.82,1.82,0,0,0-1.08.31,1,1,0,0,0-.42.82.81.81,0,0,0,.39.72,4.94,4.94,0,0,0,1.58.52,7.68,7.68,0,0,1,1.86.63,2.61,2.61,0,0,1,1,.86,2.22,2.22,0,0,1,.33,1.23,2.36,2.36,0,0,1-1,2,4.29,4.29,0,0,1-2.63.75,4.71,4.71,0,0,1-2-.4,3.22,3.22,0,0,1-1.35-1.1,2.57,2.57,0,0,1-.48-1.5h2a1.43,1.43,0,0,0,.54,1.1,2.07,2.07,0,0,0,1.32.39,2,2,0,0,0,1.21-.31A.92.92,0,0,0,271.49,73.56Z"/><path class="cls-7" d="M283.09,71.6a5.32,5.32,0,0,1-.94,3.32,3,3,0,0,1-2.54,1.25,3.07,3.07,0,0,1-2.37-1v4.25h-2V67h1.86l.09.91a3,3,0,0,1,2.41-1.08,3.05,3.05,0,0,1,2.58,1.23,5.5,5.5,0,0,1,.93,3.4Zm-2-.17a3.83,3.83,0,0,0-.53-2.14A1.76,1.76,0,0,0,279,68.5a1.85,1.85,0,0,0-1.78,1v4a1.87,1.87,0,0,0,1.79,1,1.73,1.73,0,0,0,1.51-.78A4.14,4.14,0,0,0,281.08,71.43Z"/><path class="cls-7" d="M288.75,76.17A4.22,4.22,0,0,1,285.64,75a4.41,4.41,0,0,1-1.19-3.22v-.25a5.46,5.46,0,0,1,.52-2.4,3.91,3.91,0,0,1,1.46-1.65,3.86,3.86,0,0,1,2.09-.59A3.55,3.55,0,0,1,291.36,68a5,5,0,0,1,1,3.31v.82h-5.87a2.71,2.71,0,0,0,.74,1.76,2.23,2.23,0,0,0,1.64.65,2.76,2.76,0,0,0,2.26-1.12l1.08,1a3.5,3.5,0,0,1-1.44,1.25A4.44,4.44,0,0,1,288.75,76.17Zm-.24-7.7a1.72,1.72,0,0,0-1.34.58,3,3,0,0,0-.65,1.62h3.84v-.15a2.42,2.42,0,0,0-.54-1.53A1.66,1.66,0,0,0,288.51,68.47Z"/><path class="cls-7" d="M297.61,74.56a1.83,1.83,0,0,0,1.25-.44A1.53,1.53,0,0,0,299.4,73h1.9a3,3,0,0,1-.53,1.56,3.32,3.32,0,0,1-1.33,1.15,4.17,4.17,0,0,1-4.79-.79,4.84,4.84,0,0,1-1.11-3.37v-.21a4.79,4.79,0,0,1,1.1-3.29,3.8,3.8,0,0,1,3-1.23,3.69,3.69,0,0,1,2.61.94,3.38,3.38,0,0,1,1.06,2.45h-1.9a1.87,1.87,0,0,0-.53-1.27,1.71,1.71,0,0,0-1.26-.5,1.78,1.78,0,0,0-1.51.71,3.67,3.67,0,0,0-.54,2.15v.33a3.71,3.71,0,0,0,.53,2.18A1.77,1.77,0,0,0,297.61,74.56Z"/><path class="cls-7" d="M302.82,64.69a1.09,1.09,0,0,1,.3-.78,1.12,1.12,0,0,1,.84-.3,1.14,1.14,0,0,1,.85.3,1.09,1.09,0,0,1,.3.78,1.06,1.06,0,0,1-.3.76,1.14,1.14,0,0,1-.85.3,1.12,1.12,0,0,1-.84-.3A1.06,1.06,0,0,1,302.82,64.69ZM305,76h-2V67h2Z"/><path class="cls-7" d="M312.53,76a3.11,3.11,0,0,1-.24-.84,3.12,3.12,0,0,1-2.35,1,3.16,3.16,0,0,1-2.21-.78,2.47,2.47,0,0,1-.86-1.91,2.56,2.56,0,0,1,1.07-2.2,5.18,5.18,0,0,1,3.05-.77h1.24v-.59a1.41,1.41,0,0,0-1.58-1.53,1.79,1.79,0,0,0-1.13.34,1.08,1.08,0,0,0-.44.88h-2a2.28,2.28,0,0,1,.49-1.38,3.29,3.29,0,0,1,1.34-1,4.57,4.57,0,0,1,1.88-.37,3.74,3.74,0,0,1,2.51.8,2.81,2.81,0,0,1,1,2.22v4a4.56,4.56,0,0,0,.34,1.94V76Zm-2.22-1.45a2.38,2.38,0,0,0,1.13-.29,2,2,0,0,0,.79-.78v-1.7h-1.09a2.94,2.94,0,0,0-1.68.39,1.27,1.27,0,0,0-.57,1.11,1.16,1.16,0,0,0,.39.92A1.48,1.48,0,0,0,310.31,74.55Z"/><path class="cls-7" d="M318.5,76h-2V63.25h2Z"/><path class="cls-7" d="M323.23,64.84V67h1.58v1.49h-1.58v5a1.07,1.07,0,0,0,.2.74,1,1,0,0,0,.73.23,2.86,2.86,0,0,0,.7-.09V76a4.88,4.88,0,0,1-1.33.2c-1.55,0-2.32-.86-2.32-2.57V68.51h-1.48V67h1.48V64.84Z"/><path class="cls-7" d="M329.49,73.11,331.32,67h2.15L329.9,77.36a2.91,2.91,0,0,1-2.79,2.27,3.59,3.59,0,0,1-1-.15V77.91l.38,0a2,2,0,0,0,1.15-.27,1.86,1.86,0,0,0,.61-.94l.29-.77L325.42,67h2.17Z"/><path class="cls-7" d="M343.5,71.35h-2.34V76h-2.1V63.91h4.25a5,5,0,0,1,3.23.94,3.35,3.35,0,0,1,1.13,2.72,3.38,3.38,0,0,1-.58,2,3.71,3.71,0,0,1-1.63,1.26l2.71,5V76h-2.25Zm-2.34-1.69h2.15a2.37,2.37,0,0,0,1.66-.54,1.84,1.84,0,0,0,.6-1.46,2,2,0,0,0-.55-1.5,2.32,2.32,0,0,0-1.65-.55h-2.21Z"/><path class="cls-7" d="M352.69,70l1.71-3h2.25l-2.75,4.42L356.74,76h-2.23l-1.79-3.07L350.93,76h-2.24l2.84-4.56L348.79,67H351Z"/><path class="cls-7" d="M365.94,74.56a1.86,1.86,0,0,0,1.26-.44,1.52,1.52,0,0,0,.53-1.09h1.9a3,3,0,0,1-.52,1.56,3.39,3.39,0,0,1-1.33,1.15A4.18,4.18,0,0,1,363,75a4.84,4.84,0,0,1-1.1-3.37v-.21A4.79,4.79,0,0,1,363,68.08a3.8,3.8,0,0,1,3-1.23,3.65,3.65,0,0,1,2.61.94,3.38,3.38,0,0,1,1.06,2.45h-1.9A1.82,1.82,0,0,0,367.2,69a1.71,1.71,0,0,0-1.26-.5,1.79,1.79,0,0,0-1.51.71,3.67,3.67,0,0,0-.54,2.15v.33a3.71,3.71,0,0,0,.53,2.18A1.77,1.77,0,0,0,365.94,74.56Z"/><path class="cls-7" d="M370.77,71.43a5.27,5.27,0,0,1,.53-2.38,3.7,3.7,0,0,1,1.47-1.63,4.11,4.11,0,0,1,2.17-.57A3.92,3.92,0,0,1,377.89,68a4.64,4.64,0,0,1,1.23,3.11v.47a5.29,5.29,0,0,1-.51,2.37,3.71,3.71,0,0,1-1.46,1.62,4.16,4.16,0,0,1-2.19.58,3.94,3.94,0,0,1-3-1.27,4.84,4.84,0,0,1-1.14-3.37Zm2,.17a3.63,3.63,0,0,0,.57,2.17,1.9,1.9,0,0,0,1.6.79,1.85,1.85,0,0,0,1.59-.8,4,4,0,0,0,.57-2.33,3.57,3.57,0,0,0-.59-2.16,1.87,1.87,0,0,0-1.59-.8,1.84,1.84,0,0,0-1.57.79A3.88,3.88,0,0,0,372.79,71.6Z"/><path class="cls-7" d="M383.87,73.44l1.9-6.42h2.09l-3.12,9H383l-3.14-9H382Z"/><path class="cls-7" d="M393,76.17A4.2,4.2,0,0,1,389.85,75a4.41,4.41,0,0,1-1.19-3.22v-.25a5.32,5.32,0,0,1,.52-2.4,3.91,3.91,0,0,1,1.46-1.65,3.86,3.86,0,0,1,2.09-.59A3.51,3.51,0,0,1,395.56,68a4.94,4.94,0,0,1,1,3.31v.82H390.7a2.66,2.66,0,0,0,.74,1.76,2.23,2.23,0,0,0,1.64.65,2.77,2.77,0,0,0,2.26-1.12l1.08,1A3.57,3.57,0,0,1,395,75.72,4.44,4.44,0,0,1,393,76.17Zm-.24-7.7a1.72,1.72,0,0,0-1.34.58,3,3,0,0,0-.65,1.62h3.84v-.15A2.42,2.42,0,0,0,394,69,1.66,1.66,0,0,0,392.72,68.47Z"/><path class="cls-7" d="M402.83,68.86a5.44,5.44,0,0,0-.82-.07,1.85,1.85,0,0,0-1.87,1.07V76h-2V67h1.93l.05,1a2.27,2.27,0,0,1,2-1.17,1.87,1.87,0,0,1,.72.12Z"/><path class="cls-7" d="M407.9,76.17A4.2,4.2,0,0,1,404.79,75a4.41,4.41,0,0,1-1.19-3.22v-.25a5.46,5.46,0,0,1,.52-2.4,3.91,3.91,0,0,1,1.46-1.65,3.86,3.86,0,0,1,2.09-.59A3.51,3.51,0,0,1,410.5,68a4.94,4.94,0,0,1,1,3.31v.82h-5.87a2.71,2.71,0,0,0,.74,1.76,2.23,2.23,0,0,0,1.64.65,2.76,2.76,0,0,0,2.26-1.12l1.08,1a3.57,3.57,0,0,1-1.44,1.25A4.44,4.44,0,0,1,407.9,76.17Zm-.24-7.7a1.72,1.72,0,0,0-1.34.58,3,3,0,0,0-.65,1.62h3.84v-.15A2.42,2.42,0,0,0,409,69,1.66,1.66,0,0,0,407.66,68.47Z"/><path class="cls-7" d="M412.69,71.44a5.29,5.29,0,0,1,1-3.33,3.08,3.08,0,0,1,2.58-1.26,2.89,2.89,0,0,1,2.3,1v-4.6h2V76h-1.82l-.1-.93a3,3,0,0,1-2.42,1.1,3.08,3.08,0,0,1-2.55-1.27A5.56,5.56,0,0,1,412.69,71.44Zm2,.18a3.65,3.65,0,0,0,.53,2.13,1.69,1.69,0,0,0,1.49.77,1.9,1.9,0,0,0,1.81-1.1V69.58a1.87,1.87,0,0,0-1.79-1.08,1.72,1.72,0,0,0-1.51.78A4.22,4.22,0,0,0,414.71,71.62Z"/><path class="cls-7" d="M426.9,64.69a1.09,1.09,0,0,1,.3-.78,1.12,1.12,0,0,1,.84-.3,1.14,1.14,0,0,1,.85.3,1.09,1.09,0,0,1,.3.78,1.06,1.06,0,0,1-.3.76,1.14,1.14,0,0,1-.85.3,1.12,1.12,0,0,1-.84-.3A1.06,1.06,0,0,1,426.9,64.69ZM429,76h-2V67h2Z"/><path class="cls-7" d="M433.11,67l.06,1a3.22,3.22,0,0,1,2.62-1.21q2.81,0,2.85,3.21V76h-2V70.18a1.81,1.81,0,0,0-.37-1.26,1.51,1.51,0,0,0-1.2-.42,1.94,1.94,0,0,0-1.82,1.11V76h-2V67Z"/><path class="cls-7" d="M445.64,76V68.51h-1.37V67h1.37V66.2a3.09,3.09,0,0,1,.83-2.31,3.18,3.18,0,0,1,2.32-.81,4.59,4.59,0,0,1,1.13.14l-.05,1.58a4.38,4.38,0,0,0-.77-.06,1.29,1.29,0,0,0-1.44,1.48V67h1.82v1.49h-1.82V76Z"/><path class="cls-7" d="M456.4,75.12a3.15,3.15,0,0,1-2.53,1,2.79,2.79,0,0,1-2.21-.86,3.63,3.63,0,0,1-.75-2.47V67h2v5.79c0,1.14.47,1.71,1.42,1.71a2,2,0,0,0,2-1V67h2v9h-1.9Z"/><path class="cls-7" d="M462.55,76h-2V63.25h2Z"/><path class="cls-7" d="M466.89,76h-2V63.25h2Z"/></g></g><g id="Group_1727" data-name="Group 1727"><g id="Group_1726" data-name="Group 1726"><rect id="Rectangle_929" data-name="Rectangle 929" class="cls-8" x="31.39" y="126.08" width="104" height="31.27"/><g id="YOU_PAY" data-name="YOU PAY" class="cls-5"><g class="cls-5"><path class="cls-6" d="M39.44,140.39l5.86-10.46h1.88l-6.94,12v7.22H38.62V141.9l-6.92-12h1.92Z"/><path class="cls-6" d="M63.77,140.56a11.14,11.14,0,0,1-.91,4.66,7,7,0,0,1-2.62,3.08,7.15,7.15,0,0,1-3.93,1.08,6.82,6.82,0,0,1-5.43-2.4,9.61,9.61,0,0,1-2.07-6.49v-2a11,11,0,0,1,.93-4.65,6.91,6.91,0,0,1,6.55-4.2,7.21,7.21,0,0,1,3.91,1.07,7,7,0,0,1,2.61,3,10.7,10.7,0,0,1,1,4.52Zm-1.62-2.08a8.46,8.46,0,0,0-1.57-5.43,5.64,5.64,0,0,0-8.56,0,8.54,8.54,0,0,0-1.59,5.5v2A8.47,8.47,0,0,0,52,146a5.65,5.65,0,0,0,8.59,0,8.68,8.68,0,0,0,1.54-5.49Z"/><path class="cls-6" d="M81.08,129.93V143a6.6,6.6,0,0,1-.85,3.38,5.63,5.63,0,0,1-2.38,2.2,7.7,7.7,0,0,1-3.53.77,7,7,0,0,1-4.86-1.65,6.11,6.11,0,0,1-1.89-4.58V129.93h1.61v13a5,5,0,0,0,1.38,3.77A5.2,5.2,0,0,0,74.32,148a5.13,5.13,0,0,0,3.75-1.34,5,5,0,0,0,1.38-3.75v-13Z"/><path class="cls-6" d="M93.79,141.3v7.82H92.17V129.93h6.54a6.9,6.9,0,0,1,4.73,1.53,5.31,5.31,0,0,1,1.73,4.2,5.24,5.24,0,0,1-1.67,4.17,7.08,7.08,0,0,1-4.83,1.47Zm0-1.37h4.92a5.19,5.19,0,0,0,3.6-1.12,4,4,0,0,0,1.24-3.13,4.21,4.21,0,0,0-1.23-3.18,4.94,4.94,0,0,0-3.5-1.2h-5Z"/><path class="cls-6" d="M117.34,143.73h-8.71l-2,5.39H105l7.26-19.19h1.54L121,149.12h-1.69Zm-8.21-1.37h7.7L113,131.9Z"/><path class="cls-6" d="M128.23,140.39l5.87-10.46H136l-6.94,12v7.22h-1.62V141.9l-6.92-12h1.93Z"/></g></g></g></g><rect id="Rectangle_930" data-name="Rectangle 930" class="cls-8" x="35.4" y="164.8" width="274.8" height="37.2"/><g id="non-preventive_care_and_prescriptions_until_you_reach_deductible" data-name="non-preventive care and prescriptions until you reach deductible" class="cls-5"><g class="cls-5"><path class="cls-6" d="M33.78,168.4l0,.86a2.68,2.68,0,0,1,2.16-1c1.54,0,2.32.88,2.35,2.64v4.89H36.67V171a1.47,1.47,0,0,0-.31-1,1.25,1.25,0,0,0-1-.34,1.6,1.6,0,0,0-1.5.91v5.26H32.21v-7.4Z"/><path class="cls-6" d="M39.71,172a4.3,4.3,0,0,1,.43-1.95,3.1,3.1,0,0,1,1.21-1.34,3.35,3.35,0,0,1,1.79-.47,3.23,3.23,0,0,1,2.43,1,3.81,3.81,0,0,1,1,2.56v.39a4.37,4.37,0,0,1-.42,1.95A3.07,3.07,0,0,1,45,175.46a3.37,3.37,0,0,1-1.81.48,3.2,3.2,0,0,1-2.5-1.05,4,4,0,0,1-.94-2.77Zm1.66.15a3,3,0,0,0,.47,1.78,1.64,1.64,0,0,0,2.62,0,3.2,3.2,0,0,0,.47-1.92,2.93,2.93,0,0,0-.48-1.77,1.62,1.62,0,0,0-2.6,0A3.21,3.21,0,0,0,41.37,172.18Z"/><path class="cls-6" d="M49.53,168.4l0,.86a2.66,2.66,0,0,1,2.15-1c1.54,0,2.33.88,2.35,2.64v4.89H52.42V171a1.52,1.52,0,0,0-.3-1,1.26,1.26,0,0,0-1-.34,1.6,1.6,0,0,0-1.49.91v5.26H48v-7.4Z"/><path class="cls-6" d="M59,172.24H55.41V170.9H59Z"/><path class="cls-6" d="M66.85,172.18a4.43,4.43,0,0,1-.78,2.74,2.5,2.5,0,0,1-2.09,1,2.53,2.53,0,0,1-1.95-.8v3.5H60.37V168.4H61.9l.07.76a2.41,2.41,0,0,1,2-.89,2.52,2.52,0,0,1,2.12,1,4.56,4.56,0,0,1,.77,2.8ZM65.19,172a3,3,0,0,0-.44-1.75,1.41,1.41,0,0,0-1.26-.65,1.52,1.52,0,0,0-1.46.84v3.28a1.54,1.54,0,0,0,1.47.86,1.44,1.44,0,0,0,1.25-.64A3.48,3.48,0,0,0,65.19,172Z"/><path class="cls-6" d="M72.12,169.92a3.64,3.64,0,0,0-.67,0,1.52,1.52,0,0,0-1.54.87v5.06H68.25v-7.4h1.58l0,.83a1.86,1.86,0,0,1,1.66-1,1.63,1.63,0,0,1,.59.09Z"/><path class="cls-6" d="M76.3,175.94a3.47,3.47,0,0,1-2.56-1,3.61,3.61,0,0,1-1-2.65v-.2a4.37,4.37,0,0,1,.43-2,3.24,3.24,0,0,1,1.2-1.36,3.19,3.19,0,0,1,1.72-.48,2.88,2.88,0,0,1,2.33,1,4.07,4.07,0,0,1,.83,2.73v.67H74.44a2.22,2.22,0,0,0,.61,1.45,1.85,1.85,0,0,0,1.35.53,2.27,2.27,0,0,0,1.86-.92l.89.85a3,3,0,0,1-1.18,1A3.79,3.79,0,0,1,76.3,175.94Zm-.2-6.34a1.4,1.4,0,0,0-1.1.48,2.5,2.5,0,0,0-.54,1.33h3.17v-.12a2,2,0,0,0-.45-1.26A1.37,1.37,0,0,0,76.1,169.6Z"/><path class="cls-6" d="M83.08,173.69l1.56-5.29h1.72l-2.57,7.4H82.35l-2.58-7.4h1.72Z"/><path class="cls-6" d="M90.56,175.94a3.47,3.47,0,0,1-2.56-1,3.61,3.61,0,0,1-1-2.65v-.2a4.37,4.37,0,0,1,.43-2,3.24,3.24,0,0,1,1.2-1.36,3.19,3.19,0,0,1,1.72-.48,2.88,2.88,0,0,1,2.33,1,4.07,4.07,0,0,1,.83,2.73v.67H88.7a2.22,2.22,0,0,0,.61,1.45,1.85,1.85,0,0,0,1.35.53,2.27,2.27,0,0,0,1.86-.92l.89.85a3,3,0,0,1-1.18,1A3.79,3.79,0,0,1,90.56,175.94Zm-.2-6.34a1.4,1.4,0,0,0-1.1.48,2.5,2.5,0,0,0-.54,1.33h3.17v-.12a2,2,0,0,0-.45-1.26A1.37,1.37,0,0,0,90.36,169.6Z"/><path class="cls-6" d="M96.36,168.4l0,.86a2.64,2.64,0,0,1,2.15-1c1.54,0,2.32.88,2.35,2.64v4.89H99.25V171a1.52,1.52,0,0,0-.3-1,1.29,1.29,0,0,0-1-.34,1.6,1.6,0,0,0-1.5.91v5.26H94.79v-7.4Z"/><path class="cls-6" d="M104.68,166.61v1.79H106v1.23h-1.31v4.13a.91.91,0,0,0,.17.61.76.76,0,0,0,.6.19,2.3,2.3,0,0,0,.58-.07v1.29a4.29,4.29,0,0,1-1.09.16c-1.28,0-1.92-.71-1.92-2.12v-4.19h-1.21V168.4H103v-1.79Z"/><path class="cls-6" d="M107.26,166.48a.88.88,0,0,1,.24-.63,1.07,1.07,0,0,1,1.4,0,.95.95,0,0,1,0,1.26,1.11,1.11,0,0,1-1.4,0A.88.88,0,0,1,107.26,166.48ZM109,175.8h-1.67v-7.4H109Z"/><path class="cls-6" d="M113.44,173.69,115,168.4h1.71l-2.56,7.4h-1.44l-2.59-7.4h1.73Z"/><path class="cls-6" d="M120.93,175.94a3.43,3.43,0,0,1-2.56-1,3.57,3.57,0,0,1-1-2.65v-.2a4.5,4.5,0,0,1,.42-2,3.38,3.38,0,0,1,1.2-1.36,3.22,3.22,0,0,1,1.73-.48,2.91,2.91,0,0,1,2.33,1,4.07,4.07,0,0,1,.82,2.73v.67h-4.83a2.22,2.22,0,0,0,.61,1.45,1.86,1.86,0,0,0,1.35.53,2.27,2.27,0,0,0,1.86-.92l.9.85a3,3,0,0,1-1.19,1A3.75,3.75,0,0,1,120.93,175.94Zm-.2-6.34a1.4,1.4,0,0,0-1.11.48,2.49,2.49,0,0,0-.53,1.33h3.16v-.12a2,2,0,0,0-.44-1.26A1.37,1.37,0,0,0,120.73,169.6Z"/><path class="cls-6" d="M131.71,174.61a1.5,1.5,0,0,0,1-.36,1.26,1.26,0,0,0,.44-.9h1.56a2.45,2.45,0,0,1-.43,1.29,2.8,2.8,0,0,1-1.09,1,3.3,3.3,0,0,1-1.49.35,3.14,3.14,0,0,1-2.46-1,4,4,0,0,1-.91-2.77V172a3.94,3.94,0,0,1,.9-2.71,3.11,3.11,0,0,1,2.46-1,3,3,0,0,1,2.15.77,2.76,2.76,0,0,1,.87,2h-1.56a1.53,1.53,0,0,0-.44-1.05,1.39,1.39,0,0,0-1-.41,1.46,1.46,0,0,0-1.25.58A3,3,0,0,0,130,172v.26a3,3,0,0,0,.43,1.8A1.48,1.48,0,0,0,131.71,174.61Z"/><path class="cls-6" d="M140.42,175.8a2.42,2.42,0,0,1-.2-.69,2.57,2.57,0,0,1-1.94.83,2.64,2.64,0,0,1-1.82-.64,2.06,2.06,0,0,1-.7-1.57,2.1,2.1,0,0,1,.88-1.82,4.25,4.25,0,0,1,2.51-.63h1v-.48a1.3,1.3,0,0,0-.32-.92,1.29,1.29,0,0,0-1-.35,1.46,1.46,0,0,0-.93.29.86.86,0,0,0-.36.72h-1.66a1.82,1.82,0,0,1,.4-1.14,2.66,2.66,0,0,1,1.1-.83,3.86,3.86,0,0,1,1.55-.3,3.09,3.09,0,0,1,2.07.65,2.32,2.32,0,0,1,.79,1.83v3.34a3.68,3.68,0,0,0,.28,1.59v.12Zm-1.83-1.2a1.9,1.9,0,0,0,.93-.24,1.54,1.54,0,0,0,.65-.64v-1.39h-.9a2.39,2.39,0,0,0-1.38.32,1,1,0,0,0-.47.91,1,1,0,0,0,.32.76A1.23,1.23,0,0,0,138.59,174.6Z"/><path class="cls-6" d="M147.44,169.92a3.71,3.71,0,0,0-.67,0,1.52,1.52,0,0,0-1.54.87v5.06h-1.66v-7.4h1.58l0,.83a1.89,1.89,0,0,1,1.67-1,1.63,1.63,0,0,1,.59.09Z"/><path class="cls-6" d="M151.62,175.94a3.45,3.45,0,0,1-2.56-1,3.61,3.61,0,0,1-1-2.65v-.2a4.37,4.37,0,0,1,.43-2,3.24,3.24,0,0,1,1.2-1.36,3.19,3.19,0,0,1,1.72-.48,2.9,2.9,0,0,1,2.33,1,4.07,4.07,0,0,1,.83,2.73v.67h-4.84a2.23,2.23,0,0,0,.62,1.45,1.83,1.83,0,0,0,1.35.53,2.27,2.27,0,0,0,1.86-.92l.89.85a3,3,0,0,1-1.19,1A3.72,3.72,0,0,1,151.62,175.94Zm-.2-6.34a1.4,1.4,0,0,0-1.1.48,2.5,2.5,0,0,0-.54,1.33H153v-.12a2,2,0,0,0-.45-1.26A1.37,1.37,0,0,0,151.42,169.6Z"/></g><g class="cls-5"><path class="cls-6" d="M36.65,192.8a2.89,2.89,0,0,1-.19-.69,2.59,2.59,0,0,1-1.94.83,2.64,2.64,0,0,1-1.82-.64,2,2,0,0,1-.7-1.57,2.1,2.1,0,0,1,.88-1.82,4.25,4.25,0,0,1,2.51-.63h1v-.48a1.3,1.3,0,0,0-.32-.92,1.29,1.29,0,0,0-1-.35,1.46,1.46,0,0,0-.93.29.86.86,0,0,0-.36.72H32.16a1.82,1.82,0,0,1,.4-1.14,2.59,2.59,0,0,1,1.1-.83,3.81,3.81,0,0,1,1.54-.3,3.1,3.1,0,0,1,2.08.65,2.36,2.36,0,0,1,.79,1.83v3.34a3.68,3.68,0,0,0,.28,1.59v.12Zm-1.82-1.2a1.86,1.86,0,0,0,.92-.24,1.57,1.57,0,0,0,.66-.64v-1.39h-.9a2.42,2.42,0,0,0-1.39.32,1,1,0,0,0-.46.91,1,1,0,0,0,.32.76A1.21,1.21,0,0,0,34.83,191.6Z"/><path class="cls-6" d="M41.35,185.4l0,.86a2.64,2.64,0,0,1,2.15-1c1.54,0,2.33.88,2.35,2.64v4.89H44.24V188a1.52,1.52,0,0,0-.3-1,1.29,1.29,0,0,0-1-.34,1.58,1.58,0,0,0-1.49.91v5.26H39.78v-7.4Z"/><path class="cls-6" d="M47.28,189.05a4.4,4.4,0,0,1,.8-2.75,2.51,2.51,0,0,1,2.12-1,2.39,2.39,0,0,1,1.9.82V182.3h1.66v10.5h-1.5l-.08-.77a2.44,2.44,0,0,1-2,.91,2.51,2.51,0,0,1-2.1-1.05A4.52,4.52,0,0,1,47.28,189.05Zm1.66.14a3.07,3.07,0,0,0,.44,1.76,1.41,1.41,0,0,0,1.23.63,1.56,1.56,0,0,0,1.49-.91v-3.15a1.52,1.52,0,0,0-1.47-.89,1.42,1.42,0,0,0-1.25.64A3.4,3.4,0,0,0,48.94,189.19Z"/><path class="cls-6" d="M65.46,189.18a4.43,4.43,0,0,1-.78,2.74,2.5,2.5,0,0,1-2.09,1,2.53,2.53,0,0,1-2-.8v3.5H59V185.4h1.53l.07.76a2.42,2.42,0,0,1,2-.89,2.52,2.52,0,0,1,2.12,1,4.56,4.56,0,0,1,.77,2.8ZM63.81,189a3,3,0,0,0-.45-1.75,1.41,1.41,0,0,0-1.26-.65,1.53,1.53,0,0,0-1.46.84v3.28a1.55,1.55,0,0,0,1.48.86,1.42,1.42,0,0,0,1.24-.64A3.39,3.39,0,0,0,63.81,189Z"/><path class="cls-6" d="M70.74,186.92a3.82,3.82,0,0,0-.68,0,1.53,1.53,0,0,0-1.54.87v5.06H66.86v-7.4h1.59l0,.83a1.88,1.88,0,0,1,1.67-1,1.61,1.61,0,0,1,.58.09Z"/><path class="cls-6" d="M74.91,192.94a3.47,3.47,0,0,1-2.56-1,3.61,3.61,0,0,1-1-2.65v-.2a4.5,4.5,0,0,1,.43-2,3.17,3.17,0,0,1,2.92-1.84,2.92,2.92,0,0,1,2.34,1,4.07,4.07,0,0,1,.82,2.73v.67H73.05a2.22,2.22,0,0,0,.61,1.45,1.86,1.86,0,0,0,1.35.53,2.27,2.27,0,0,0,1.86-.92l.89.85a3,3,0,0,1-1.18,1A3.79,3.79,0,0,1,74.91,192.94Zm-.19-6.34a1.4,1.4,0,0,0-1.11.48,2.41,2.41,0,0,0-.53,1.33h3.16v-.12A2,2,0,0,0,75.8,187,1.37,1.37,0,0,0,74.72,186.6Z"/><path class="cls-6" d="M83.32,190.79a.77.77,0,0,0-.37-.68,4.05,4.05,0,0,0-1.21-.41,6.43,6.43,0,0,1-1.42-.45,1.88,1.88,0,0,1-1.24-1.74,2,2,0,0,1,.8-1.6,3.18,3.18,0,0,1,2.05-.64,3.38,3.38,0,0,1,2.15.65,2.1,2.1,0,0,1,.81,1.7H83.23a1,1,0,0,0-.35-.79,1.38,1.38,0,0,0-.95-.32,1.46,1.46,0,0,0-.89.25.8.8,0,0,0-.34.68.67.67,0,0,0,.32.6,4.38,4.38,0,0,0,1.3.42,6.27,6.27,0,0,1,1.53.52,2.1,2.1,0,0,1,.83.71,1.81,1.81,0,0,1,.27,1,1.93,1.93,0,0,1-.83,1.62,3.53,3.53,0,0,1-2.16.62,3.86,3.86,0,0,1-1.63-.33,2.67,2.67,0,0,1-1.1-.9,2.13,2.13,0,0,1-.4-1.24h1.61a1.2,1.2,0,0,0,.45.9,1.67,1.67,0,0,0,1.09.32,1.63,1.63,0,0,0,1-.25A.76.76,0,0,0,83.32,190.79Z"/><path class="cls-6" d="M89.43,191.61a1.53,1.53,0,0,0,1-.36,1.21,1.21,0,0,0,.43-.9h1.57a2.45,2.45,0,0,1-.43,1.29,2.83,2.83,0,0,1-1.1,1,3.27,3.27,0,0,1-1.49.35,3.17,3.17,0,0,1-2.46-1,4,4,0,0,1-.91-2.77V189a3.9,3.9,0,0,1,.91-2.71,3.11,3.11,0,0,1,2.46-1,3,3,0,0,1,2.15.77,2.76,2.76,0,0,1,.87,2H90.9a1.48,1.48,0,0,0-.43-1.05,1.42,1.42,0,0,0-1-.41,1.46,1.46,0,0,0-1.24.58,3,3,0,0,0-.44,1.78v.26a3,3,0,0,0,.43,1.8A1.47,1.47,0,0,0,89.43,191.61Z"/><path class="cls-6" d="M97.6,186.92a3.82,3.82,0,0,0-.68,0,1.53,1.53,0,0,0-1.54.87v5.06H93.72v-7.4h1.59l0,.83a1.86,1.86,0,0,1,1.66-1,1.63,1.63,0,0,1,.59.09Z"/><path class="cls-6" d="M98.65,183.48a.88.88,0,0,1,.24-.63,1.06,1.06,0,0,1,1.39,0,.92.92,0,0,1,0,1.26,1.09,1.09,0,0,1-1.39,0A.88.88,0,0,1,98.65,183.48Zm1.76,9.32H98.75v-7.4h1.66Z"/><path class="cls-6" d="M108.7,189.18a4.43,4.43,0,0,1-.78,2.74,2.5,2.5,0,0,1-2.09,1,2.53,2.53,0,0,1-2-.8v3.5h-1.66V185.4h1.53l.07.76a2.41,2.41,0,0,1,2-.89,2.52,2.52,0,0,1,2.12,1,4.56,4.56,0,0,1,.77,2.8ZM107,189a3,3,0,0,0-.44-1.75,1.41,1.41,0,0,0-1.26-.65,1.52,1.52,0,0,0-1.46.84v3.28a1.54,1.54,0,0,0,1.47.86,1.44,1.44,0,0,0,1.25-.64A3.48,3.48,0,0,0,107,189Z"/><path class="cls-6" d="M112.18,183.61v1.79h1.31v1.23h-1.31v4.13a.91.91,0,0,0,.17.61.76.76,0,0,0,.6.19,2.36,2.36,0,0,0,.58-.07v1.29a4.29,4.29,0,0,1-1.09.16c-1.28,0-1.92-.71-1.92-2.12v-4.19h-1.21V185.4h1.21v-1.79Z"/><path class="cls-6" d="M114.76,183.48a.88.88,0,0,1,.24-.63.94.94,0,0,1,.7-.26.9.9,0,0,1,.69.26.92.92,0,0,1,0,1.26.94.94,0,0,1-.69.25,1,1,0,0,1-.7-.25A.88.88,0,0,1,114.76,183.48Zm1.76,9.32h-1.66v-7.4h1.66Z"/><path class="cls-6" d="M118,189a4.43,4.43,0,0,1,.43-1.95,3.1,3.1,0,0,1,1.21-1.34,3.35,3.35,0,0,1,1.79-.47,3.23,3.23,0,0,1,2.43,1,3.76,3.76,0,0,1,1,2.56v.39a4.37,4.37,0,0,1-.42,1.95,3,3,0,0,1-1.21,1.33,3.36,3.36,0,0,1-1.8.48,3.2,3.2,0,0,1-2.51-1.05,4,4,0,0,1-.94-2.77Zm1.66.15a3,3,0,0,0,.47,1.78,1.65,1.65,0,0,0,2.63,0,3.28,3.28,0,0,0,.46-1.92,2.93,2.93,0,0,0-.48-1.77,1.62,1.62,0,0,0-2.6,0A3.21,3.21,0,0,0,119.68,189.18Z"/><path class="cls-6" d="M127.84,185.4l0,.86a2.68,2.68,0,0,1,2.16-1c1.54,0,2.32.88,2.35,2.64v4.89h-1.66V188a1.52,1.52,0,0,0-.31-1,1.25,1.25,0,0,0-1-.34,1.6,1.6,0,0,0-1.5.91v5.26h-1.66v-7.4Z"/><path class="cls-6" d="M138.24,190.79a.77.77,0,0,0-.37-.68,4.05,4.05,0,0,0-1.21-.41,6.43,6.43,0,0,1-1.42-.45,1.88,1.88,0,0,1-1.24-1.74,2,2,0,0,1,.8-1.6,3.18,3.18,0,0,1,2-.64,3.38,3.38,0,0,1,2.15.65,2.1,2.1,0,0,1,.81,1.7h-1.66a1,1,0,0,0-.35-.79,1.38,1.38,0,0,0-1-.32,1.46,1.46,0,0,0-.89.25.8.8,0,0,0-.34.68.67.67,0,0,0,.32.6,4.38,4.38,0,0,0,1.3.42,6.27,6.27,0,0,1,1.53.52,2.1,2.1,0,0,1,.83.71,1.81,1.81,0,0,1,.27,1,1.93,1.93,0,0,1-.83,1.62,3.53,3.53,0,0,1-2.16.62,3.86,3.86,0,0,1-1.63-.33,2.67,2.67,0,0,1-1.1-.9,2.13,2.13,0,0,1-.4-1.24h1.61a1.2,1.2,0,0,0,.45.9,1.67,1.67,0,0,0,1.09.32,1.63,1.63,0,0,0,1-.25A.76.76,0,0,0,138.24,190.79Z"/><path class="cls-6" d="M149.28,192.08a2.59,2.59,0,0,1-2.08.86,2.29,2.29,0,0,1-1.82-.71,3,3,0,0,1-.62-2v-4.8h1.66v4.77q0,1.41,1.17,1.41a1.65,1.65,0,0,0,1.64-.87V185.4h1.66v7.4h-1.57Z"/><path class="cls-6" d="M154.12,185.4l0,.86a2.66,2.66,0,0,1,2.15-1c1.54,0,2.33.88,2.35,2.64v4.89H157V188a1.52,1.52,0,0,0-.3-1,1.26,1.26,0,0,0-1-.34,1.59,1.59,0,0,0-1.49.91v5.26h-1.66v-7.4Z"/><path class="cls-6" d="M162.45,183.61v1.79h1.3v1.23h-1.3v4.13a.86.86,0,0,0,.17.61.75.75,0,0,0,.59.19,2.25,2.25,0,0,0,.58-.07v1.29a4.23,4.23,0,0,1-1.09.16c-1.27,0-1.91-.71-1.91-2.12v-4.19h-1.22V185.4h1.22v-1.79Z"/><path class="cls-6" d="M165,183.48a.88.88,0,0,1,.24-.63.9.9,0,0,1,.69-.26.93.93,0,0,1,.7.26.92.92,0,0,1,0,1.26,1,1,0,0,1-.7.25.94.94,0,0,1-.69-.25A.88.88,0,0,1,165,183.48Zm1.76,9.32h-1.66v-7.4h1.66Z"/><path class="cls-6" d="M170.36,192.8H168.7V182.3h1.66Z"/></g><g class="cls-5"><path class="cls-6" d="M34.82,207.42l1.51-5H38.1l-2.94,8.52a2.39,2.39,0,0,1-2.3,1.87,2.72,2.72,0,0,1-.8-.13v-1.29l.31,0a1.57,1.57,0,0,0,1-.23,1.51,1.51,0,0,0,.5-.76l.24-.64-2.6-7.36h1.8Z"/><path class="cls-6" d="M38.64,206a4.3,4.3,0,0,1,.43-1.95,3,3,0,0,1,1.21-1.34,3.32,3.32,0,0,1,1.79-.47,3.23,3.23,0,0,1,2.43,1,3.81,3.81,0,0,1,1,2.56v.39a4.37,4.37,0,0,1-.42,1.95,3,3,0,0,1-1.2,1.33,3.4,3.4,0,0,1-1.81.48,3.18,3.18,0,0,1-2.5-1.05,4,4,0,0,1-.94-2.77Zm1.66.15a2.92,2.92,0,0,0,.47,1.78,1.64,1.64,0,0,0,2.62,0,3.27,3.27,0,0,0,.47-1.92,2.93,2.93,0,0,0-.48-1.77,1.54,1.54,0,0,0-1.31-.66,1.51,1.51,0,0,0-1.29.65A3.21,3.21,0,0,0,40.3,206.18Z"/><path class="cls-6" d="M51.4,209.08a2.59,2.59,0,0,1-2.08.86,2.29,2.29,0,0,1-1.82-.71,3,3,0,0,1-.62-2v-4.8h1.66v4.77q0,1.41,1.17,1.41a1.63,1.63,0,0,0,1.63-.87V202.4H53v7.4H51.44Z"/><path class="cls-6" d="M62.06,203.92a3.82,3.82,0,0,0-.68,0,1.52,1.52,0,0,0-1.54.87v5.06H58.18v-7.4h1.59l0,.83a1.86,1.86,0,0,1,1.66-1,1.63,1.63,0,0,1,.59.09Z"/><path class="cls-6" d="M66.23,209.94a3.47,3.47,0,0,1-2.56-1,3.61,3.61,0,0,1-1-2.65v-.2a4.37,4.37,0,0,1,.43-2,3.24,3.24,0,0,1,1.2-1.36,3.19,3.19,0,0,1,1.72-.48,2.92,2.92,0,0,1,2.34,1A4.12,4.12,0,0,1,69.2,206v.67H64.37a2.22,2.22,0,0,0,.61,1.45,1.86,1.86,0,0,0,1.35.53,2.27,2.27,0,0,0,1.86-.92l.89.85a3,3,0,0,1-1.18,1A3.79,3.79,0,0,1,66.23,209.94ZM66,203.6a1.4,1.4,0,0,0-1.1.48,2.5,2.5,0,0,0-.54,1.33h3.17v-.12a2,2,0,0,0-.45-1.26A1.37,1.37,0,0,0,66,203.6Z"/><path class="cls-6" d="M74.91,209.8a2.17,2.17,0,0,1-.19-.69,2.78,2.78,0,0,1-3.76.19,2,2,0,0,1-.71-1.57,2.1,2.1,0,0,1,.88-1.82,4.27,4.27,0,0,1,2.51-.63h1v-.48a1.3,1.3,0,0,0-.32-.92,1.27,1.27,0,0,0-1-.35,1.46,1.46,0,0,0-.93.29.86.86,0,0,0-.36.72H70.41a1.82,1.82,0,0,1,.4-1.14,2.66,2.66,0,0,1,1.1-.83,3.86,3.86,0,0,1,1.55-.3,3.09,3.09,0,0,1,2.07.65,2.32,2.32,0,0,1,.79,1.83v3.34a3.84,3.84,0,0,0,.28,1.59v.12Zm-1.83-1.2a1.9,1.9,0,0,0,.93-.24,1.49,1.49,0,0,0,.65-.64v-1.39h-.89a2.4,2.4,0,0,0-1.39.32,1,1,0,0,0-.47.91,1,1,0,0,0,.32.76A1.23,1.23,0,0,0,73.08,208.6Z"/><path class="cls-6" d="M81.1,208.61a1.49,1.49,0,0,0,1-.36,1.22,1.22,0,0,0,.44-.9h1.57a2.54,2.54,0,0,1-.43,1.29,2.83,2.83,0,0,1-1.1,1,3.3,3.3,0,0,1-1.49.35,3.17,3.17,0,0,1-2.46-1,4,4,0,0,1-.91-2.77V206a3.94,3.94,0,0,1,.9-2.71,3.12,3.12,0,0,1,2.46-1,3,3,0,0,1,2.15.77,2.73,2.73,0,0,1,.88,2H82.57a1.52,1.52,0,0,0-.43-1.05,1.42,1.42,0,0,0-1-.41,1.45,1.45,0,0,0-1.24.58,3,3,0,0,0-.45,1.78v.26a3,3,0,0,0,.44,1.8A1.46,1.46,0,0,0,81.1,208.61Z"/><path class="cls-6" d="M87,203.21a2.59,2.59,0,0,1,2-.94q2.37,0,2.4,2.7v4.83H89.82V205a1.5,1.5,0,0,0-.33-1.09,1.35,1.35,0,0,0-1-.31,1.59,1.59,0,0,0-1.49.89v5.28H85.37V199.3H87Z"/><path class="cls-6" d="M96.34,206.05a4.4,4.4,0,0,1,.79-2.75,2.54,2.54,0,0,1,2.13-1,2.42,2.42,0,0,1,1.9.82V199.3h1.66v10.5h-1.51l-.08-.77a2.42,2.42,0,0,1-2,.91,2.53,2.53,0,0,1-2.1-1.05A4.58,4.58,0,0,1,96.34,206.05Zm1.66.14a3.08,3.08,0,0,0,.43,1.76,1.41,1.41,0,0,0,1.24.63,1.57,1.57,0,0,0,1.49-.91v-3.15a1.54,1.54,0,0,0-1.48-.89,1.4,1.4,0,0,0-1.24.64A3.4,3.4,0,0,0,98,206.19Z"/><path class="cls-6" d="M107.81,209.94a3.45,3.45,0,0,1-2.56-1,3.57,3.57,0,0,1-1-2.65v-.2a4.5,4.5,0,0,1,.42-2,3.38,3.38,0,0,1,1.2-1.36,3.22,3.22,0,0,1,1.73-.48,2.91,2.91,0,0,1,2.33,1,4.07,4.07,0,0,1,.83,2.73v.67h-4.84a2.27,2.27,0,0,0,.61,1.45,1.86,1.86,0,0,0,1.35.53,2.24,2.24,0,0,0,1.86-.92l.9.85a3,3,0,0,1-1.19,1A3.75,3.75,0,0,1,107.81,209.94Zm-.2-6.34a1.38,1.38,0,0,0-1.1.48,2.5,2.5,0,0,0-.54,1.33h3.16v-.12a2,2,0,0,0-.44-1.26A1.37,1.37,0,0,0,107.61,203.6Z"/><path class="cls-6" d="M111.75,206.05a4.4,4.4,0,0,1,.8-2.75,2.51,2.51,0,0,1,2.12-1,2.39,2.39,0,0,1,1.9.82V199.3h1.66v10.5h-1.5l-.08-.77a2.44,2.44,0,0,1-2,.91,2.51,2.51,0,0,1-2.1-1.05A4.52,4.52,0,0,1,111.75,206.05Zm1.66.14a3.07,3.07,0,0,0,.44,1.76,1.41,1.41,0,0,0,1.23.63,1.56,1.56,0,0,0,1.49-.91v-3.15a1.53,1.53,0,0,0-1.47-.89,1.42,1.42,0,0,0-1.25.64A3.4,3.4,0,0,0,113.41,206.19Z"/><path class="cls-6" d="M124.45,209.08a2.59,2.59,0,0,1-2.08.86,2.29,2.29,0,0,1-1.82-.71,3,3,0,0,1-.62-2v-4.8h1.66v4.77q0,1.41,1.17,1.41a1.63,1.63,0,0,0,1.63-.87V202.4h1.66v7.4h-1.56Z"/><path class="cls-6" d="M130.78,208.61a1.53,1.53,0,0,0,1-.36,1.21,1.21,0,0,0,.43-.9h1.57a2.45,2.45,0,0,1-.43,1.29,2.76,2.76,0,0,1-1.1,1,3.27,3.27,0,0,1-1.49.35,3.17,3.17,0,0,1-2.46-1,4,4,0,0,1-.91-2.77V206a4,4,0,0,1,.91-2.71,3.11,3.11,0,0,1,2.46-1A3,3,0,0,1,133,203a2.76,2.76,0,0,1,.87,2h-1.57a1.48,1.48,0,0,0-.43-1.05,1.42,1.42,0,0,0-1-.41,1.46,1.46,0,0,0-1.24.58,3,3,0,0,0-.44,1.78v.26a3,3,0,0,0,.43,1.8A1.47,1.47,0,0,0,130.78,208.61Z"/><path class="cls-6" d="M137.16,200.61v1.79h1.3v1.23h-1.3v4.13a.91.91,0,0,0,.16.61.76.76,0,0,0,.6.19,2.3,2.3,0,0,0,.58-.07v1.29a4.29,4.29,0,0,1-1.09.16c-1.28,0-1.92-.71-1.92-2.12v-4.19h-1.21V202.4h1.21v-1.79Z"/><path class="cls-6" d="M139.73,200.48a.85.85,0,0,1,.25-.63.9.9,0,0,1,.69-.26.94.94,0,0,1,.7.26.95.95,0,0,1,0,1.26,1,1,0,0,1-.7.25.94.94,0,0,1-.69-.25A.85.85,0,0,1,139.73,200.48Zm1.77,9.32h-1.67v-7.4h1.67Z"/><path class="cls-6" d="M149.79,206.18a4.45,4.45,0,0,1-.76,2.74,2.52,2.52,0,0,1-2.12,1,2.41,2.41,0,0,1-2-.94l-.09.8h-1.5V199.3H145v3.81a2.43,2.43,0,0,1,1.94-.84,2.52,2.52,0,0,1,2.12,1,4.49,4.49,0,0,1,.77,2.81Zm-1.66-.15a3.15,3.15,0,0,0-.42-1.8,1.41,1.41,0,0,0-1.23-.6,1.54,1.54,0,0,0-1.52.94v3.05a1.56,1.56,0,0,0,1.53,1,1.41,1.41,0,0,0,1.21-.58,3.06,3.06,0,0,0,.43-1.75Z"/><path class="cls-6" d="M153,209.8h-1.66V199.3H153Z"/><path class="cls-6" d="M158,209.94a3.45,3.45,0,0,1-2.56-1,3.57,3.57,0,0,1-1-2.65v-.2a4.5,4.5,0,0,1,.42-2,3.38,3.38,0,0,1,1.2-1.36,3.22,3.22,0,0,1,1.73-.48,2.91,2.91,0,0,1,2.33,1A4.07,4.07,0,0,1,161,206v.67h-4.84a2.27,2.27,0,0,0,.61,1.45,1.86,1.86,0,0,0,1.35.53,2.24,2.24,0,0,0,1.86-.92l.9.85a3,3,0,0,1-1.19,1A3.75,3.75,0,0,1,158,209.94Zm-.2-6.34a1.38,1.38,0,0,0-1.1.48,2.5,2.5,0,0,0-.54,1.33h3.16v-.12a2,2,0,0,0-.44-1.26A1.37,1.37,0,0,0,157.82,203.6Z"/></g></g><g id="Group_1729" data-name="Group 1729"><g id="Group_1728" data-name="Group 1728"><g id="WE_BOTH_PAY" data-name="WE BOTH PAY" class="cls-5"><g class="cls-5"><path class="cls-6" d="M229.15,143.94l.59,3,.72-2.85,4.17-14.14h1.46l4.12,14.14.71,2.88.63-3,3.47-14h1.66l-4.92,19.19h-1.55l-4.35-15-.49-1.9-.48,1.9-4.45,15h-1.56L224,129.93h1.66Z"/><path class="cls-6" d="M260.4,139.92h-9v7.83h10.32v1.37H249.8V129.93h11.88v1.37H251.43v7.25h9Z"/><path class="cls-6" d="M271.73,149.12V129.93h5.67a7.39,7.39,0,0,1,4.68,1.27,4.52,4.52,0,0,1,1.59,3.75,4.23,4.23,0,0,1-.81,2.59,4.42,4.42,0,0,1-2.22,1.58,4.64,4.64,0,0,1,2.7,1.65,4.58,4.58,0,0,1,1,2.95,5,5,0,0,1-1.64,4,6.76,6.76,0,0,1-4.57,1.43Zm1.62-10.58h4.43a5,5,0,0,0,3.14-1,3.79,3.79,0,0,0,0-5.41,5.79,5.79,0,0,0-3.49-.87h-4Zm0,1.37v7.84h4.87a4.86,4.86,0,0,0,3.3-1.06,3.71,3.71,0,0,0,1.22-2.94,3.55,3.55,0,0,0-1.17-2.81,4.68,4.68,0,0,0-3.22-1Z"/><path class="cls-6" d="M302.46,140.56a11.13,11.13,0,0,1-.92,4.66,7,7,0,0,1-2.61,3.08,7.2,7.2,0,0,1-3.93,1.08,6.82,6.82,0,0,1-5.43-2.4,9.61,9.61,0,0,1-2.07-6.49v-2a11,11,0,0,1,.93-4.65,6.91,6.91,0,0,1,6.54-4.2,7.19,7.19,0,0,1,3.91,1.07,7,7,0,0,1,2.62,3,11,11,0,0,1,1,4.52Zm-1.62-2.08a8.46,8.46,0,0,0-1.57-5.43,5.64,5.64,0,0,0-8.56,0,8.54,8.54,0,0,0-1.59,5.5v2A8.53,8.53,0,0,0,290.7,146a5.66,5.66,0,0,0,8.6,0,8.74,8.74,0,0,0,1.54-5.49Z"/><path class="cls-6" d="M319.22,131.3h-6.58v17.82H311V131.3h-6.57v-1.37h14.77Z"/><path class="cls-6" d="M336.54,149.12H334.9v-9.2h-11v9.2h-1.63V129.93h1.63v8.62h11v-8.62h1.64Z"/><path class="cls-6" d="M349.6,141.3v7.82H348V129.93h6.54a6.9,6.9,0,0,1,4.73,1.53,5.31,5.31,0,0,1,1.73,4.2,5.24,5.24,0,0,1-1.67,4.17,7.08,7.08,0,0,1-4.83,1.47Zm0-1.37h4.92a5.18,5.18,0,0,0,3.6-1.12,4,4,0,0,0,1.24-3.13,4.21,4.21,0,0,0-1.23-3.18,4.94,4.94,0,0,0-3.5-1.2h-5Z"/><path class="cls-6" d="M373.15,143.73h-8.71l-2,5.39h-1.7L368,129.93h1.54l7.27,19.19h-1.69Zm-8.21-1.37h7.7l-3.85-10.46Z"/><path class="cls-6" d="M384,140.39l5.87-10.46h1.87l-6.94,12v7.22h-1.62V141.9l-6.92-12h1.93Z"/></g></g></g></g><g id="coinsurance_for_covered_services" data-name="coinsurance for covered services" class="cls-5"><g class="cls-5"><path class="cls-6" d="M226.84,174.61a1.53,1.53,0,0,0,1-.36,1.21,1.21,0,0,0,.43-.9h1.57a2.45,2.45,0,0,1-.43,1.29,2.8,2.8,0,0,1-1.09,1,3.3,3.3,0,0,1-1.49.35,3.17,3.17,0,0,1-2.47-1,4,4,0,0,1-.9-2.77V172a3.94,3.94,0,0,1,.9-2.71,3.11,3.11,0,0,1,2.46-1A3,3,0,0,1,229,169a2.76,2.76,0,0,1,.87,2h-1.57a1.48,1.48,0,0,0-.43-1.05,1.42,1.42,0,0,0-1-.41,1.46,1.46,0,0,0-1.24.58,3,3,0,0,0-.44,1.78v.26a3,3,0,0,0,.43,1.8A1.47,1.47,0,0,0,226.84,174.61Z"/><path class="cls-6" d="M230.82,172a4.43,4.43,0,0,1,.43-1.95,3.1,3.1,0,0,1,1.21-1.34,3.35,3.35,0,0,1,1.79-.47,3.27,3.27,0,0,1,2.44,1,3.8,3.8,0,0,1,1,2.56v.39a4.37,4.37,0,0,1-.42,1.95,3,3,0,0,1-1.2,1.33,3.42,3.42,0,0,1-1.81.48,3.22,3.22,0,0,1-2.51-1.05,4,4,0,0,1-.94-2.77Zm1.66.15A2.92,2.92,0,0,0,233,174a1.64,1.64,0,0,0,2.62,0,3.27,3.27,0,0,0,.47-1.92,2.86,2.86,0,0,0-.49-1.77,1.62,1.62,0,0,0-2.6,0A3.21,3.21,0,0,0,232.48,172.18Z"/><path class="cls-6" d="M239.11,166.48a.88.88,0,0,1,.24-.63,1.06,1.06,0,0,1,1.39,0,.92.92,0,0,1,0,1.26,1.09,1.09,0,0,1-1.39,0A.88.88,0,0,1,239.11,166.48Zm1.76,9.32h-1.66v-7.4h1.66Z"/><path class="cls-6" d="M244.22,168.4l.05.86a2.66,2.66,0,0,1,2.15-1c1.54,0,2.33.88,2.35,2.64v4.89h-1.66V171a1.52,1.52,0,0,0-.3-1,1.27,1.27,0,0,0-1-.34,1.59,1.59,0,0,0-1.49.91v5.26h-1.66v-7.4Z"/><path class="cls-6" d="M254.61,173.79a.76.76,0,0,0-.36-.68,4.14,4.14,0,0,0-1.22-.41,6.51,6.51,0,0,1-1.41-.45,1.89,1.89,0,0,1-1.25-1.74,2,2,0,0,1,.81-1.6,3.18,3.18,0,0,1,2-.64,3.33,3.33,0,0,1,2.14.65,2.08,2.08,0,0,1,.82,1.7h-1.66a1,1,0,0,0-.36-.79,1.35,1.35,0,0,0-.94-.32,1.46,1.46,0,0,0-.89.25.81.81,0,0,0-.35.68.68.68,0,0,0,.33.6,4.29,4.29,0,0,0,1.29.42,6.22,6.22,0,0,1,1.54.52,2.1,2.1,0,0,1,.83.71,1.81,1.81,0,0,1,.27,1,1.93,1.93,0,0,1-.83,1.62,3.54,3.54,0,0,1-2.17.62,3.84,3.84,0,0,1-1.62-.33,2.76,2.76,0,0,1-1.11-.9,2.19,2.19,0,0,1-.39-1.24h1.61a1.14,1.14,0,0,0,.45.9,2,2,0,0,0,2.08.07A.75.75,0,0,0,254.61,173.79Z"/><path class="cls-6" d="M262.17,175.08a2.58,2.58,0,0,1-2.08.86,2.31,2.31,0,0,1-1.82-.71,3,3,0,0,1-.62-2v-4.8h1.67v4.77c0,.94.39,1.41,1.16,1.41a1.64,1.64,0,0,0,1.64-.87V168.4h1.66v7.4h-1.57Z"/><path class="cls-6" d="M269.34,169.92a3.71,3.71,0,0,0-.67,0,1.52,1.52,0,0,0-1.54.87v5.06h-1.66v-7.4h1.58l0,.83a1.89,1.89,0,0,1,1.67-1,1.63,1.63,0,0,1,.59.09Z"/><path class="cls-6" d="M274.61,175.8a2.17,2.17,0,0,1-.19-.69,2.78,2.78,0,0,1-3.76.19,2,2,0,0,1-.71-1.57,2.12,2.12,0,0,1,.88-1.82,4.27,4.27,0,0,1,2.51-.63h1v-.48a1.3,1.3,0,0,0-.32-.92,1.27,1.27,0,0,0-1-.35,1.46,1.46,0,0,0-.93.29.86.86,0,0,0-.36.72h-1.66a1.82,1.82,0,0,1,.4-1.14,2.66,2.66,0,0,1,1.1-.83,3.86,3.86,0,0,1,1.55-.3,3.09,3.09,0,0,1,2.07.65,2.32,2.32,0,0,1,.79,1.83v3.34a3.84,3.84,0,0,0,.28,1.59v.12Zm-1.83-1.2a1.9,1.9,0,0,0,.93-.24,1.49,1.49,0,0,0,.65-.64v-1.39h-.89a2.4,2.4,0,0,0-1.39.32,1,1,0,0,0-.47.91,1,1,0,0,0,.32.76A1.23,1.23,0,0,0,272.78,174.6Z"/><path class="cls-6" d="M279.3,168.4l.05.86a2.67,2.67,0,0,1,2.15-1c1.55,0,2.33.88,2.36,2.64v4.89H282.2V171a1.52,1.52,0,0,0-.31-1,1.25,1.25,0,0,0-1-.34,1.6,1.6,0,0,0-1.5.91v5.26h-1.66v-7.4Z"/><path class="cls-6" d="M288.59,174.61a1.5,1.5,0,0,0,1-.36,1.26,1.26,0,0,0,.44-.9h1.56a2.45,2.45,0,0,1-.43,1.29,2.8,2.8,0,0,1-1.09,1,3.3,3.3,0,0,1-1.49.35,3.14,3.14,0,0,1-2.46-1,4,4,0,0,1-.91-2.77V172a3.94,3.94,0,0,1,.9-2.71,3.11,3.11,0,0,1,2.46-1,3,3,0,0,1,2.15.77,2.76,2.76,0,0,1,.87,2h-1.56a1.53,1.53,0,0,0-.44-1.05,1.39,1.39,0,0,0-1-.41,1.46,1.46,0,0,0-1.25.58,3,3,0,0,0-.44,1.78v.26a3,3,0,0,0,.43,1.8A1.48,1.48,0,0,0,288.59,174.61Z"/><path class="cls-6" d="M296.13,175.94a3.47,3.47,0,0,1-2.56-1,3.61,3.61,0,0,1-1-2.65v-.2a4.5,4.5,0,0,1,.43-2,3.24,3.24,0,0,1,1.2-1.36,3.19,3.19,0,0,1,1.72-.48,2.92,2.92,0,0,1,2.34,1,4.07,4.07,0,0,1,.82,2.73v.67h-4.83a2.22,2.22,0,0,0,.61,1.45,1.86,1.86,0,0,0,1.35.53,2.27,2.27,0,0,0,1.86-.92l.89.85a3,3,0,0,1-1.18,1A3.79,3.79,0,0,1,296.13,175.94Zm-.19-6.34a1.4,1.4,0,0,0-1.11.48,2.5,2.5,0,0,0-.54,1.33h3.17v-.12A2,2,0,0,0,297,170,1.37,1.37,0,0,0,295.94,169.6Z"/><path class="cls-6" d="M304.46,175.8v-6.17h-1.13V168.4h1.13v-.67a2.55,2.55,0,0,1,.68-1.9,2.63,2.63,0,0,1,1.92-.67,4,4,0,0,1,.93.12l0,1.3a3.1,3.1,0,0,0-.64-.06,1.07,1.07,0,0,0-1.19,1.23v.65h1.5v1.23h-1.5v6.17Z"/><path class="cls-6" d="M308.53,172a4.3,4.3,0,0,1,.43-1.95,3.1,3.1,0,0,1,1.21-1.34,3.32,3.32,0,0,1,1.79-.47,3.23,3.23,0,0,1,2.43,1,3.81,3.81,0,0,1,1,2.56v.39a4.37,4.37,0,0,1-.42,1.95,3,3,0,0,1-1.2,1.33,3.37,3.37,0,0,1-1.81.48,3.18,3.18,0,0,1-2.5-1.05,4,4,0,0,1-.94-2.77Zm1.66.15a3,3,0,0,0,.47,1.78,1.64,1.64,0,0,0,2.62,0,3.27,3.27,0,0,0,.47-1.92,2.93,2.93,0,0,0-.48-1.77,1.62,1.62,0,0,0-2.6,0A3.21,3.21,0,0,0,310.19,172.18Z"/><path class="cls-6" d="M320.68,169.92a3.75,3.75,0,0,0-.68,0,1.51,1.51,0,0,0-1.53.87v5.06h-1.66v-7.4h1.58l0,.83a1.88,1.88,0,0,1,1.67-1,1.66,1.66,0,0,1,.59.09Z"/></g><g class="cls-5"><path class="cls-6" d="M226.84,190.61a1.53,1.53,0,0,0,1-.36,1.21,1.21,0,0,0,.43-.9h1.57a2.45,2.45,0,0,1-.43,1.29,2.8,2.8,0,0,1-1.09,1,3.3,3.3,0,0,1-1.49.35,3.17,3.17,0,0,1-2.47-1,4,4,0,0,1-.9-2.77V188a3.94,3.94,0,0,1,.9-2.71,3.11,3.11,0,0,1,2.46-1A3,3,0,0,1,229,185a2.76,2.76,0,0,1,.87,2h-1.57a1.48,1.48,0,0,0-.43-1.05,1.42,1.42,0,0,0-1-.41,1.46,1.46,0,0,0-1.24.58,3,3,0,0,0-.44,1.78v.26a3,3,0,0,0,.43,1.8A1.47,1.47,0,0,0,226.84,190.61Z"/><path class="cls-6" d="M230.82,188a4.43,4.43,0,0,1,.43-1.95,3.1,3.1,0,0,1,1.21-1.34,3.35,3.35,0,0,1,1.79-.47,3.27,3.27,0,0,1,2.44,1,3.8,3.8,0,0,1,1,2.56v.39a4.37,4.37,0,0,1-.42,1.95,3,3,0,0,1-1.2,1.33,3.42,3.42,0,0,1-1.81.48,3.22,3.22,0,0,1-2.51-1.05,4,4,0,0,1-.94-2.77Zm1.66.15A2.92,2.92,0,0,0,233,190a1.64,1.64,0,0,0,2.62,0,3.27,3.27,0,0,0,.47-1.92,2.86,2.86,0,0,0-.49-1.77,1.62,1.62,0,0,0-2.6,0A3.21,3.21,0,0,0,232.48,188.18Z"/><path class="cls-6" d="M241.61,189.69l1.57-5.29h1.71l-2.56,7.4h-1.44l-2.59-7.4H240Z"/><path class="cls-6" d="M249.1,191.94a3.43,3.43,0,0,1-2.56-1,3.58,3.58,0,0,1-1-2.65v-.2a4.5,4.5,0,0,1,.43-2,3.38,3.38,0,0,1,1.2-1.36,3.21,3.21,0,0,1,1.72-.48,2.92,2.92,0,0,1,2.34,1,4.07,4.07,0,0,1,.82,2.73v.67h-4.83a2.22,2.22,0,0,0,.61,1.45,1.86,1.86,0,0,0,1.35.53,2.27,2.27,0,0,0,1.86-.92l.9.85a3,3,0,0,1-1.19,1A3.75,3.75,0,0,1,249.1,191.94Zm-.2-6.34a1.4,1.4,0,0,0-1.11.48,2.41,2.41,0,0,0-.53,1.33h3.16v-.12A2,2,0,0,0,250,186,1.37,1.37,0,0,0,248.9,185.6Z"/><path class="cls-6" d="M257.22,185.92a3.71,3.71,0,0,0-.67,0,1.52,1.52,0,0,0-1.54.87v5.06h-1.66v-7.4h1.58l0,.83a1.89,1.89,0,0,1,1.67-1,1.63,1.63,0,0,1,.59.09Z"/><path class="cls-6" d="M261.4,191.94a3.45,3.45,0,0,1-2.56-1,3.61,3.61,0,0,1-1-2.65v-.2a4.37,4.37,0,0,1,.43-2,3.24,3.24,0,0,1,1.2-1.36,3.19,3.19,0,0,1,1.72-.48,2.9,2.9,0,0,1,2.33,1,4.07,4.07,0,0,1,.83,2.73v.67h-4.84a2.23,2.23,0,0,0,.62,1.45,1.83,1.83,0,0,0,1.35.53,2.27,2.27,0,0,0,1.86-.92l.89.85a3,3,0,0,1-1.19,1A3.72,3.72,0,0,1,261.4,191.94Zm-.2-6.34a1.4,1.4,0,0,0-1.1.48,2.5,2.5,0,0,0-.54,1.33h3.17v-.12a2,2,0,0,0-.45-1.26A1.37,1.37,0,0,0,261.2,185.6Z"/><path class="cls-6" d="M265.34,188.05a4.4,4.4,0,0,1,.8-2.75,2.54,2.54,0,0,1,2.12-1,2.39,2.39,0,0,1,1.9.82V181.3h1.67v10.5h-1.51l-.08-.77a2.44,2.44,0,0,1-2,.91,2.51,2.51,0,0,1-2.1-1.05A4.52,4.52,0,0,1,265.34,188.05Zm1.67.14a3.08,3.08,0,0,0,.43,1.76,1.41,1.41,0,0,0,1.23.63,1.56,1.56,0,0,0,1.49-.91v-3.15a1.52,1.52,0,0,0-1.47-.89,1.42,1.42,0,0,0-1.25.64A3.41,3.41,0,0,0,267,188.19Z"/><path class="cls-6" d="M281.19,189.79a.75.75,0,0,0-.37-.68,4,4,0,0,0-1.21-.41,6.33,6.33,0,0,1-1.41-.45,1.89,1.89,0,0,1-1.25-1.74,2,2,0,0,1,.81-1.6,3.18,3.18,0,0,1,2.05-.64,3.35,3.35,0,0,1,2.14.65,2.08,2.08,0,0,1,.82,1.7h-1.66a1,1,0,0,0-.36-.79,1.35,1.35,0,0,0-.94-.32,1.44,1.44,0,0,0-.89.25.81.81,0,0,0-.35.68.69.69,0,0,0,.32.6,4.5,4.5,0,0,0,1.3.42,6.37,6.37,0,0,1,1.54.52,2.07,2.07,0,0,1,.82.71,1.81,1.81,0,0,1,.27,1,1.92,1.92,0,0,1-.82,1.62,3.56,3.56,0,0,1-2.17.62,3.78,3.78,0,0,1-1.62-.33,2.76,2.76,0,0,1-1.11-.9,2.19,2.19,0,0,1-.39-1.24h1.61a1.16,1.16,0,0,0,.44.9,1.7,1.7,0,0,0,1.09.32,1.66,1.66,0,0,0,1-.25A.75.75,0,0,0,281.19,189.79Z"/><path class="cls-6" d="M287.53,191.94a3.43,3.43,0,0,1-2.56-1,3.57,3.57,0,0,1-1-2.65v-.2a4.5,4.5,0,0,1,.42-2,3.38,3.38,0,0,1,1.2-1.36,3.22,3.22,0,0,1,1.73-.48,2.91,2.91,0,0,1,2.33,1,4.07,4.07,0,0,1,.82,2.73v.67h-4.83a2.27,2.27,0,0,0,.61,1.45,1.86,1.86,0,0,0,1.35.53,2.27,2.27,0,0,0,1.86-.92l.9.85a3,3,0,0,1-1.19,1A3.75,3.75,0,0,1,287.53,191.94Zm-.2-6.34a1.38,1.38,0,0,0-1.1.48,2.42,2.42,0,0,0-.54,1.33h3.16v-.12a2,2,0,0,0-.44-1.26A1.37,1.37,0,0,0,287.33,185.6Z"/><path class="cls-6" d="M295.66,185.92a3.82,3.82,0,0,0-.68,0,1.52,1.52,0,0,0-1.54.87v5.06h-1.66v-7.4h1.59l0,.83a1.86,1.86,0,0,1,1.66-1,1.63,1.63,0,0,1,.59.09Z"/><path class="cls-6" d="M299.44,189.69,301,184.4h1.72l-2.57,7.4h-1.44l-2.58-7.4h1.72Z"/><path class="cls-6" d="M303.76,182.48a.88.88,0,0,1,.24-.63.9.9,0,0,1,.69-.26.93.93,0,0,1,.7.26.92.92,0,0,1,0,1.26,1,1,0,0,1-.7.25.94.94,0,0,1-.69-.25A.88.88,0,0,1,303.76,182.48Zm1.76,9.32h-1.66v-7.4h1.66Z"/><path class="cls-6" d="M310.37,190.61a1.52,1.52,0,0,0,1-.36,1.26,1.26,0,0,0,.44-.9h1.56a2.45,2.45,0,0,1-.43,1.29,2.8,2.8,0,0,1-1.09,1,3.3,3.3,0,0,1-1.49.35,3.14,3.14,0,0,1-2.46-1,4,4,0,0,1-.91-2.77V188a3.94,3.94,0,0,1,.9-2.71,3.11,3.11,0,0,1,2.46-1,3,3,0,0,1,2.15.77,2.76,2.76,0,0,1,.87,2h-1.56a1.53,1.53,0,0,0-.44-1.05,1.39,1.39,0,0,0-1-.41,1.46,1.46,0,0,0-1.25.58,3,3,0,0,0-.44,1.78v.26a3,3,0,0,0,.43,1.8A1.48,1.48,0,0,0,310.37,190.61Z"/><path class="cls-6" d="M317.91,191.94a3.47,3.47,0,0,1-2.56-1,3.61,3.61,0,0,1-1-2.65v-.2a4.37,4.37,0,0,1,.43-2,3.24,3.24,0,0,1,1.2-1.36,3.19,3.19,0,0,1,1.72-.48,2.92,2.92,0,0,1,2.34,1,4.07,4.07,0,0,1,.82,2.73v.67h-4.83a2.22,2.22,0,0,0,.61,1.45,1.86,1.86,0,0,0,1.35.53,2.27,2.27,0,0,0,1.86-.92l.89.85a3,3,0,0,1-1.18,1A3.79,3.79,0,0,1,317.91,191.94Zm-.2-6.34a1.4,1.4,0,0,0-1.1.48,2.5,2.5,0,0,0-.54,1.33h3.17v-.12a2,2,0,0,0-.45-1.26A1.35,1.35,0,0,0,317.71,185.6Z"/><path class="cls-6" d="M326.31,189.79a.76.76,0,0,0-.36-.68,4.05,4.05,0,0,0-1.21-.41,6.43,6.43,0,0,1-1.42-.45,1.88,1.88,0,0,1-1.24-1.74,2,2,0,0,1,.8-1.6,3.18,3.18,0,0,1,2.05-.64,3.38,3.38,0,0,1,2.15.65,2.1,2.1,0,0,1,.81,1.7h-1.66a1,1,0,0,0-.35-.79,1.38,1.38,0,0,0-.95-.32,1.46,1.46,0,0,0-.89.25.8.8,0,0,0-.34.68.67.67,0,0,0,.32.6,4.28,4.28,0,0,0,1.3.42,6.27,6.27,0,0,1,1.53.52,2.1,2.1,0,0,1,.83.71,1.81,1.81,0,0,1,.27,1,1.93,1.93,0,0,1-.83,1.62,3.54,3.54,0,0,1-2.17.62,3.84,3.84,0,0,1-1.62-.33,2.67,2.67,0,0,1-1.1-.9,2.13,2.13,0,0,1-.4-1.24h1.61a1.17,1.17,0,0,0,.45.9,2,2,0,0,0,2.08.07A.75.75,0,0,0,326.31,189.79Z"/></g></g><g id="Group_1731" data-name="Group 1731"><g id="Group_1730" data-name="Group 1730"><g id="WE_PAY-2" data-name="WE PAY-2" class="cls-5"><g class="cls-5"><path class="cls-6" d="M446.4,143.94l.59,3,.73-2.85,4.16-14.14h1.47l4.11,14.14.71,2.88.63-3,3.47-14h1.66L459,149.12h-1.55l-4.35-15-.49-1.9-.47,1.9-4.46,15h-1.56l-4.9-19.19h1.66Z"/><path class="cls-6" d="M477.66,139.92h-9v7.83H479v1.37H467.06V129.93h11.88v1.37H468.68v7.25h9Z"/><path class="cls-6" d="M490.6,141.3v7.82H489V129.93h6.54a6.9,6.9,0,0,1,4.73,1.53,6,6,0,0,1,.06,8.37,7.08,7.08,0,0,1-4.83,1.47Zm0-1.37h4.92a5.19,5.19,0,0,0,3.6-1.12,4,4,0,0,0,1.24-3.13,4.18,4.18,0,0,0-1.24-3.18,4.92,4.92,0,0,0-3.5-1.2h-5Z"/><path class="cls-6" d="M514.15,143.73h-8.72l-2,5.39h-1.7L509,129.93h1.54l7.27,19.19h-1.69Zm-8.21-1.37h7.69l-3.84-10.46Z"/><path class="cls-6" d="M525,140.39l5.86-10.46h1.88l-6.94,12v7.22h-1.62V141.9l-6.92-12h1.92Z"/></g></g></g></g><g id="_100_covered_services" data-name=" 100 covered services" class="cls-5"><g class="cls-5"><path class="cls-6" d="M446,175.8h-1.66v-8l-2.44.84v-1.4l3.88-1.43H446Z"/><path class="cls-6" d="M455.92,171.61a5.49,5.49,0,0,1-.8,3.24,3.3,3.3,0,0,1-4.88,0,5.16,5.16,0,0,1-.83-3.14V170a5.33,5.33,0,0,1,.8-3.22,3.35,3.35,0,0,1,4.89,0,5.18,5.18,0,0,1,.82,3.13Zm-1.66-1.86a4.26,4.26,0,0,0-.38-2.05,1.31,1.31,0,0,0-1.22-.66,1.33,1.33,0,0,0-1.2.62,4,4,0,0,0-.4,1.93v2.26a4.34,4.34,0,0,0,.39,2.08,1.32,1.32,0,0,0,1.22.68,1.3,1.3,0,0,0,1.19-.63,4.08,4.08,0,0,0,.4-2Z"/><path class="cls-6" d="M463.88,171.61a5.49,5.49,0,0,1-.8,3.24,3.3,3.3,0,0,1-4.88,0,5.23,5.23,0,0,1-.84-3.14V170a5.32,5.32,0,0,1,.81-3.22,3.34,3.34,0,0,1,4.88,0,5.11,5.11,0,0,1,.83,3.13Zm-1.66-1.86a4.12,4.12,0,0,0-.39-2.05,1.29,1.29,0,0,0-1.21-.66,1.33,1.33,0,0,0-1.2.62,3.92,3.92,0,0,0-.4,1.93v2.26a4.34,4.34,0,0,0,.39,2.08,1.32,1.32,0,0,0,1.22.68,1.27,1.27,0,0,0,1.18-.63,4.07,4.07,0,0,0,.41-2Z"/><path class="cls-6" d="M465.28,167.76a2,2,0,0,1,.58-1.48,2.31,2.31,0,0,1,3.06,0,2,2,0,0,1,.58,1.51v.5a2,2,0,0,1-.58,1.47,2.06,2.06,0,0,1-1.52.57,2.14,2.14,0,0,1-1.52-.56,2,2,0,0,1-.6-1.52Zm1.16.52a1.1,1.1,0,0,0,.27.77,1,1,0,0,0,1.37,0,1.13,1.13,0,0,0,.26-.79v-.5a1.14,1.14,0,0,0-.26-.77.89.89,0,0,0-.69-.3.86.86,0,0,0-.69.3,1.17,1.17,0,0,0-.26.79Zm1.3,6.77-.85-.49,4.86-7.78.85.5Zm2.33-1.69a1.92,1.92,0,0,1,.59-1.48,2.31,2.31,0,0,1,3,0,2,2,0,0,1,.59,1.53v.48a2,2,0,0,1-.57,1.47,2.07,2.07,0,0,1-1.53.58,2.11,2.11,0,0,1-1.54-.57,2,2,0,0,1-.58-1.51Zm1.16.53a1.09,1.09,0,0,0,.27.76,1,1,0,0,0,1.38,0,1.19,1.19,0,0,0,.25-.79v-.52a1.05,1.05,0,0,0-.27-.76,1,1,0,0,0-1.37,0,1.14,1.14,0,0,0-.26.79Z"/><path class="cls-6" d="M482.26,174.61a1.49,1.49,0,0,0,1-.36,1.22,1.22,0,0,0,.44-.9h1.57a2.54,2.54,0,0,1-.43,1.29,2.83,2.83,0,0,1-1.1,1,3.3,3.3,0,0,1-1.49.35,3.17,3.17,0,0,1-2.46-1,4,4,0,0,1-.91-2.77V172a3.94,3.94,0,0,1,.9-2.71,3.13,3.13,0,0,1,2.46-1,3,3,0,0,1,2.15.77,2.73,2.73,0,0,1,.88,2h-1.57a1.52,1.52,0,0,0-.43-1.05,1.42,1.42,0,0,0-1-.41,1.45,1.45,0,0,0-1.24.58,3,3,0,0,0-.45,1.78v.26A3,3,0,0,0,481,174,1.46,1.46,0,0,0,482.26,174.61Z"/><path class="cls-6" d="M486.24,172a4.3,4.3,0,0,1,.43-1.95,3.1,3.1,0,0,1,1.21-1.34,3.35,3.35,0,0,1,1.79-.47,3.23,3.23,0,0,1,2.43,1,3.81,3.81,0,0,1,1,2.56v.39a4.37,4.37,0,0,1-.42,1.95,3.07,3.07,0,0,1-1.21,1.33,3.37,3.37,0,0,1-1.81.48,3.2,3.2,0,0,1-2.5-1.05,4,4,0,0,1-.94-2.77Zm1.66.15a3,3,0,0,0,.47,1.78,1.52,1.52,0,0,0,1.31.65A1.5,1.5,0,0,0,491,174a3.2,3.2,0,0,0,.47-1.92,2.93,2.93,0,0,0-.48-1.77,1.62,1.62,0,0,0-2.6,0A3.21,3.21,0,0,0,487.9,172.18Z"/><path class="cls-6" d="M497,173.69l1.56-5.29h1.72l-2.57,7.4H496.3l-2.58-7.4h1.72Z"/><path class="cls-6" d="M504.51,175.94a3.47,3.47,0,0,1-2.56-1,3.61,3.61,0,0,1-1-2.65v-.2a4.37,4.37,0,0,1,.43-2,3.24,3.24,0,0,1,1.2-1.36,3.19,3.19,0,0,1,1.72-.48,2.88,2.88,0,0,1,2.33,1,4.07,4.07,0,0,1,.83,2.73v.67h-4.83a2.22,2.22,0,0,0,.61,1.45,1.85,1.85,0,0,0,1.35.53,2.27,2.27,0,0,0,1.86-.92l.89.85a3,3,0,0,1-1.18,1A3.79,3.79,0,0,1,504.51,175.94Zm-.2-6.34a1.4,1.4,0,0,0-1.1.48,2.5,2.5,0,0,0-.54,1.33h3.17v-.12a2,2,0,0,0-.45-1.26A1.37,1.37,0,0,0,504.31,169.6Z"/><path class="cls-6" d="M512.64,169.92a3.75,3.75,0,0,0-.68,0,1.53,1.53,0,0,0-1.54.87v5.06h-1.66v-7.4h1.59l0,.83a1.88,1.88,0,0,1,1.67-1,1.7,1.7,0,0,1,.59.09Z"/><path class="cls-6" d="M516.82,175.94a3.43,3.43,0,0,1-2.56-1,3.57,3.57,0,0,1-1-2.65v-.2a4.5,4.5,0,0,1,.42-2,3.38,3.38,0,0,1,1.2-1.36,3.21,3.21,0,0,1,1.72-.48,2.92,2.92,0,0,1,2.34,1,4.07,4.07,0,0,1,.82,2.73v.67H515a2.22,2.22,0,0,0,.61,1.45,1.86,1.86,0,0,0,1.35.53,2.27,2.27,0,0,0,1.86-.92l.9.85a3,3,0,0,1-1.19,1A3.75,3.75,0,0,1,516.82,175.94Zm-.2-6.34a1.4,1.4,0,0,0-1.11.48,2.41,2.41,0,0,0-.53,1.33h3.16v-.12a2,2,0,0,0-.44-1.26A1.37,1.37,0,0,0,516.62,169.6Z"/><path class="cls-6" d="M520.76,172.05a4.47,4.47,0,0,1,.79-2.75,2.54,2.54,0,0,1,2.13-1,2.4,2.4,0,0,1,1.9.82V165.3h1.66v10.5h-1.5l-.08-.77a2.44,2.44,0,0,1-2,.91,2.54,2.54,0,0,1-2.11-1.05A4.58,4.58,0,0,1,520.76,172.05Zm1.66.14a3.07,3.07,0,0,0,.44,1.76,1.41,1.41,0,0,0,1.23.63,1.56,1.56,0,0,0,1.49-.91v-3.15a1.53,1.53,0,0,0-1.48-.89,1.41,1.41,0,0,0-1.24.64A3.4,3.4,0,0,0,522.42,172.19Z"/></g><g class="cls-5"><path class="cls-6" d="M445.73,189.79a.75.75,0,0,0-.37-.68,4.05,4.05,0,0,0-1.21-.41,6.33,6.33,0,0,1-1.41-.45,1.89,1.89,0,0,1-1.25-1.74,2,2,0,0,1,.81-1.6,3.18,3.18,0,0,1,2.05-.64,3.35,3.35,0,0,1,2.14.65,2.08,2.08,0,0,1,.82,1.7h-1.66a1,1,0,0,0-.36-.79,1.37,1.37,0,0,0-.94-.32,1.44,1.44,0,0,0-.89.25.81.81,0,0,0-.35.68.69.69,0,0,0,.32.6,4.5,4.5,0,0,0,1.3.42,6.53,6.53,0,0,1,1.54.52,2.07,2.07,0,0,1,.82.71,1.81,1.81,0,0,1,.27,1,1.92,1.92,0,0,1-.82,1.62,3.58,3.58,0,0,1-2.17.62,3.78,3.78,0,0,1-1.62-.33,2.76,2.76,0,0,1-1.11-.9,2.19,2.19,0,0,1-.39-1.24h1.61a1.16,1.16,0,0,0,.44.9,1.7,1.7,0,0,0,1.09.32,1.66,1.66,0,0,0,1-.25A.75.75,0,0,0,445.73,189.79Z"/><path class="cls-6" d="M452.07,191.94a3.43,3.43,0,0,1-2.56-1,3.57,3.57,0,0,1-1-2.65v-.2a4.5,4.5,0,0,1,.42-2,3.38,3.38,0,0,1,1.2-1.36,3.22,3.22,0,0,1,1.73-.48,2.91,2.91,0,0,1,2.33,1A4.07,4.07,0,0,1,455,188v.67H450.2a2.22,2.22,0,0,0,.61,1.45,1.86,1.86,0,0,0,1.35.53,2.27,2.27,0,0,0,1.86-.92l.9.85a3,3,0,0,1-1.19,1A3.75,3.75,0,0,1,452.07,191.94Zm-.2-6.34a1.4,1.4,0,0,0-1.11.48,2.41,2.41,0,0,0-.53,1.33h3.16v-.12A2,2,0,0,0,453,186,1.37,1.37,0,0,0,451.87,185.6Z"/><path class="cls-6" d="M460.19,185.92a3.64,3.64,0,0,0-.67,0,1.52,1.52,0,0,0-1.54.87v5.06h-1.66v-7.4h1.58l.05.83a1.86,1.86,0,0,1,1.66-1,1.63,1.63,0,0,1,.59.09Z"/><path class="cls-6" d="M464,189.69l1.57-5.29h1.72l-2.57,7.4h-1.44l-2.58-7.4h1.72Z"/><path class="cls-6" d="M468.29,182.48a.89.89,0,0,1,.25-.63.9.9,0,0,1,.69-.26.94.94,0,0,1,.7.26.95.95,0,0,1,0,1.26,1,1,0,0,1-.7.25.94.94,0,0,1-.69-.25A.89.89,0,0,1,468.29,182.48Zm1.77,9.32H468.4v-7.4h1.66Z"/><path class="cls-6" d="M474.91,190.61a1.52,1.52,0,0,0,1-.36,1.26,1.26,0,0,0,.44-.9h1.56a2.45,2.45,0,0,1-.43,1.29,2.8,2.8,0,0,1-1.09,1,3.3,3.3,0,0,1-1.49.35,3.17,3.17,0,0,1-2.47-1,4,4,0,0,1-.9-2.77V188a3.94,3.94,0,0,1,.9-2.71,3.11,3.11,0,0,1,2.46-1,3,3,0,0,1,2.15.77,2.76,2.76,0,0,1,.87,2h-1.56a1.53,1.53,0,0,0-.44-1.05,1.41,1.41,0,0,0-1-.41,1.46,1.46,0,0,0-1.25.58,3,3,0,0,0-.44,1.78v.26a3,3,0,0,0,.43,1.8A1.48,1.48,0,0,0,474.91,190.61Z"/><path class="cls-6" d="M482.45,191.94a3.47,3.47,0,0,1-2.56-1,3.61,3.61,0,0,1-1-2.65v-.2a4.37,4.37,0,0,1,.43-2,3.24,3.24,0,0,1,1.2-1.36,3.19,3.19,0,0,1,1.72-.48,2.92,2.92,0,0,1,2.34,1,4.12,4.12,0,0,1,.82,2.73v.67h-4.83a2.22,2.22,0,0,0,.61,1.45,1.86,1.86,0,0,0,1.35.53,2.27,2.27,0,0,0,1.86-.92l.89.85a3,3,0,0,1-1.18,1A3.79,3.79,0,0,1,482.45,191.94Zm-.2-6.34a1.4,1.4,0,0,0-1.1.48,2.5,2.5,0,0,0-.54,1.33h3.17v-.12a2,2,0,0,0-.45-1.26A1.37,1.37,0,0,0,482.25,185.6Z"/><path class="cls-6" d="M490.85,189.79a.76.76,0,0,0-.36-.68,4.14,4.14,0,0,0-1.22-.41,6.51,6.51,0,0,1-1.41-.45,1.88,1.88,0,0,1-1.24-1.74,2,2,0,0,1,.8-1.6,3.18,3.18,0,0,1,2.05-.64,3.38,3.38,0,0,1,2.15.65,2.1,2.1,0,0,1,.81,1.7h-1.66a1,1,0,0,0-.35-.79,1.38,1.38,0,0,0-.95-.32,1.46,1.46,0,0,0-.89.25.8.8,0,0,0-.34.68.67.67,0,0,0,.32.6,4.28,4.28,0,0,0,1.3.42,6.27,6.27,0,0,1,1.53.52,2.1,2.1,0,0,1,.83.71,1.81,1.81,0,0,1,.27,1,1.93,1.93,0,0,1-.83,1.62,3.54,3.54,0,0,1-2.17.62,3.84,3.84,0,0,1-1.62-.33,2.67,2.67,0,0,1-1.1-.9,2.13,2.13,0,0,1-.4-1.24H488a1.17,1.17,0,0,0,.45.9,2,2,0,0,0,2.08.07A.75.75,0,0,0,490.85,189.79Z"/></g></g><g id="DEDUCTIBLE_MET" data-name="DEDUCTIBLE MET" class="cls-5"><g class="cls-5"><path class="cls-9" d="M141.14,308.66V298h3a4.83,4.83,0,0,1,2.46.61,4.22,4.22,0,0,1,1.65,1.75,5.64,5.64,0,0,1,.59,2.61v.68a5.65,5.65,0,0,1-.58,2.64,4.13,4.13,0,0,1-1.66,1.75,5.22,5.22,0,0,1-2.52.62Zm1.4-9.51v8.36H144a3.22,3.22,0,0,0,2.53-1,4.16,4.16,0,0,0,.91-2.88V303a4.28,4.28,0,0,0-.85-2.82,3,3,0,0,0-2.42-1Z"/><path class="cls-9" d="M157,303.73h-4.62v3.78h5.37v1.15H151V298h6.71v1.15h-5.3v3.43H157Z"/><path class="cls-9" d="M159.5,308.66V298h3a4.83,4.83,0,0,1,2.46.61,4.22,4.22,0,0,1,1.65,1.75,5.64,5.64,0,0,1,.59,2.61v.68a5.65,5.65,0,0,1-.58,2.64A4.13,4.13,0,0,1,165,308a5.22,5.22,0,0,1-2.52.62Zm1.41-9.51v8.36h1.48a3.25,3.25,0,0,0,2.53-1,4.21,4.21,0,0,0,.9-2.88V303a4.22,4.22,0,0,0-.85-2.82,3,3,0,0,0-2.42-1Z"/><path class="cls-9" d="M176.84,298v7.25a3.38,3.38,0,0,1-.94,2.46,3.8,3.8,0,0,1-2.56,1.08l-.37,0a4,4,0,0,1-2.79-.95,3.39,3.39,0,0,1-1.06-2.6V298h1.4v7.22a2.21,2.21,0,0,0,2.45,2.44,2.5,2.5,0,0,0,1.83-.64,2.45,2.45,0,0,0,.63-1.8V298Z"/><path class="cls-9" d="M186.91,305.28a4,4,0,0,1-1.25,2.61,4.11,4.11,0,0,1-2.8.92,3.71,3.71,0,0,1-3-1.36,5.43,5.43,0,0,1-1.14-3.62v-1a6,6,0,0,1,.53-2.61,3.94,3.94,0,0,1,1.5-1.74,4.22,4.22,0,0,1,2.26-.6,3.85,3.85,0,0,1,2.72.95,4,4,0,0,1,1.2,2.62h-1.42a3,3,0,0,0-.79-1.85A2.42,2.42,0,0,0,183,299a2.5,2.5,0,0,0-2.11,1,4.56,4.56,0,0,0-.77,2.83v1a4.63,4.63,0,0,0,.73,2.76,2.35,2.35,0,0,0,2,1,2.7,2.7,0,0,0,1.8-.53,2.91,2.91,0,0,0,.83-1.85Z"/><path class="cls-9" d="M196,299.15h-3.43v9.51h-1.39v-9.51h-3.43V298H196Z"/><path class="cls-9" d="M199.07,308.66h-1.4V298h1.4Z"/><path class="cls-9" d="M201.64,308.66V298h3.49a4.08,4.08,0,0,1,2.61.71,2.61,2.61,0,0,1,.88,2.13,2.17,2.17,0,0,1-.43,1.32,2.76,2.76,0,0,1-1.16.89,2.46,2.46,0,0,1,1.37.92,2.66,2.66,0,0,1,.5,1.61,2.86,2.86,0,0,1-.93,2.26,3.82,3.82,0,0,1-2.63.82Zm1.41-6.12h2.12a2.22,2.22,0,0,0,1.48-.46,1.53,1.53,0,0,0,.55-1.25,1.51,1.51,0,0,0-.51-1.28,2.49,2.49,0,0,0-1.56-.4h-2.08Zm0,1.13v3.84h2.32a2.23,2.23,0,0,0,1.55-.51,1.79,1.79,0,0,0,.57-1.4c0-1.29-.7-1.93-2.1-1.93Z"/><path class="cls-9" d="M212.4,307.51h5v1.15H211V298h1.42Z"/><path class="cls-9" d="M225.08,303.73h-4.62v3.78h5.37v1.15h-6.78V298h6.7v1.15h-5.29v3.43h4.62Z"/><path class="cls-9" d="M233.11,298l3.48,8.7,3.49-8.7h1.82v10.66h-1.4v-4.15l.13-4.48-3.5,8.63h-1.08l-3.49-8.61.14,4.46v4.15h-1.41V298Z"/><path class="cls-9" d="M250.42,303.73h-4.63v3.78h5.37v1.15h-6.77V298h6.7v1.15h-5.3v3.43h4.63Z"/><path class="cls-9" d="M260.43,299.15H257v9.51h-1.4v-9.51h-3.42V298h8.25Z"/></g></g><g id="OUT-OF-POCKET_MAXIMUM_MET" data-name="OUT-OF-POCKET MAXIMUM MET" class="cls-5"><g class="cls-5"><path class="cls-9" d="M316.69,303.67a6.63,6.63,0,0,1-.53,2.74,4,4,0,0,1-1.49,1.78,4.14,4.14,0,0,1-2.26.62,4.09,4.09,0,0,1-2.23-.62,4,4,0,0,1-1.51-1.77,6.3,6.3,0,0,1-.56-2.65V303a6.47,6.47,0,0,1,.54-2.72,4,4,0,0,1,3.75-2.43,4.19,4.19,0,0,1,2.26.62,4,4,0,0,1,1.5,1.79,6.7,6.7,0,0,1,.53,2.74Zm-1.4-.69a4.78,4.78,0,0,0-.76-2.91,2.53,2.53,0,0,0-2.13-1,2.5,2.5,0,0,0-2.1,1,4.75,4.75,0,0,0-.79,2.82v.78a4.82,4.82,0,0,0,.77,2.89,2.71,2.71,0,0,0,4.24.06,4.71,4.71,0,0,0,.77-2.84Z"/><path class="cls-9" d="M326.31,298v7.25a3.43,3.43,0,0,1-.95,2.46,3.8,3.8,0,0,1-2.56,1.08l-.37,0a4,4,0,0,1-2.79-.95,3.38,3.38,0,0,1-1.05-2.6V298H320v7.22a2.47,2.47,0,0,0,.63,1.8,2.92,2.92,0,0,0,3.65,0,2.45,2.45,0,0,0,.63-1.8V298Z"/><path class="cls-9" d="M335.89,299.15h-3.43v9.51h-1.39v-9.51h-3.42V298h8.24Z"/><path class="cls-9" d="M338.38,304.68h-3.57v-1.1h3.57Z"/><path class="cls-9" d="M348.12,303.67a6.63,6.63,0,0,1-.53,2.74,4,4,0,0,1-1.49,1.78,4.14,4.14,0,0,1-2.26.62,4,4,0,0,1-3.75-2.39,6.3,6.3,0,0,1-.55-2.65V303a6.47,6.47,0,0,1,.54-2.72,4,4,0,0,1,3.75-2.43,4.13,4.13,0,0,1,2.25.62,3.93,3.93,0,0,1,1.51,1.79,6.7,6.7,0,0,1,.53,2.74Zm-1.4-.69a4.85,4.85,0,0,0-.76-2.91,2.53,2.53,0,0,0-2.13-1,2.5,2.5,0,0,0-2.1,1,4.68,4.68,0,0,0-.79,2.82v.78a4.82,4.82,0,0,0,.77,2.89,2.71,2.71,0,0,0,4.24.06,4.77,4.77,0,0,0,.77-2.84Z"/><path class="cls-9" d="M356.11,304h-4.48v4.71h-1.4V298h6.6v1.15h-5.2v3.65h4.48Z"/><path class="cls-9" d="M361.12,304.68h-3.57v-1.1h3.57Z"/><path class="cls-9" d="M364.06,304.49v4.17h-1.4V298h3.93a3.91,3.91,0,0,1,2.74.89,3,3,0,0,1,1,2.37,3,3,0,0,1-1,2.39,4.11,4.11,0,0,1-2.78.84Zm0-1.15h2.53a2.51,2.51,0,0,0,1.73-.54,1.92,1.92,0,0,0,.6-1.53,2,2,0,0,0-.6-1.53,2.35,2.35,0,0,0-1.65-.59h-2.61Z"/><path class="cls-9" d="M380.32,303.67a6.47,6.47,0,0,1-.53,2.74,3.93,3.93,0,0,1-1.49,1.78,4.37,4.37,0,0,1-4.49,0,4.05,4.05,0,0,1-1.51-1.77,6.15,6.15,0,0,1-.55-2.65V303a6.47,6.47,0,0,1,.53-2.72,4,4,0,0,1,3.75-2.43,4.16,4.16,0,0,1,2.26.62,4,4,0,0,1,1.5,1.79,6.54,6.54,0,0,1,.53,2.74Zm-1.4-.69a4.78,4.78,0,0,0-.76-2.91,2.53,2.53,0,0,0-2.13-1,2.5,2.5,0,0,0-2.1,1,4.75,4.75,0,0,0-.79,2.82v.78a4.75,4.75,0,0,0,.78,2.89,2.7,2.7,0,0,0,4.23.06,4.71,4.71,0,0,0,.77-2.84Z"/><path class="cls-9" d="M390.28,305.28a4,4,0,0,1-1.25,2.61,4.13,4.13,0,0,1-2.8.92,3.75,3.75,0,0,1-3-1.36,5.43,5.43,0,0,1-1.14-3.62v-1a6,6,0,0,1,.54-2.61,3.94,3.94,0,0,1,1.5-1.74,4.22,4.22,0,0,1,2.26-.6,3.85,3.85,0,0,1,2.72.95,4,4,0,0,1,1.2,2.62h-1.42a3.09,3.09,0,0,0-.79-1.85,2.42,2.42,0,0,0-1.71-.57,2.52,2.52,0,0,0-2.12,1,4.56,4.56,0,0,0-.76,2.83v1a4.7,4.7,0,0,0,.72,2.76,2.36,2.36,0,0,0,2,1,2.74,2.74,0,0,0,1.8-.53,3,3,0,0,0,.83-1.85Z"/><path class="cls-9" d="M394.9,303.7l-1.3,1.36v3.6h-1.41V298h1.41v5.27l4.74-5.27H400l-4.2,4.71,4.53,6h-1.69Z"/><path class="cls-9" d="M407.63,303.73H403v3.78h5.37v1.15H401.6V298h6.7v1.15H403v3.43h4.63Z"/><path class="cls-9" d="M417.64,299.15h-3.43v9.51h-1.4v-9.51h-3.42V298h8.25Z"/><path class="cls-9" d="M424.46,298l3.48,8.7,3.49-8.7h1.82v10.66h-1.4v-4.15L432,300l-3.5,8.63H427.4l-3.49-8.61.14,4.46v4.15h-1.41V298Z"/><path class="cls-9" d="M441.76,305.87h-4.47l-1,2.79h-1.45L438.91,298h1.23l4.08,10.66h-1.44Zm-4.05-1.15h3.63l-1.82-5Z"/><path class="cls-9" d="M449.13,302.08l2.56-4.08h1.65L450,303.28l3.45,5.38h-1.67l-2.62-4.16-2.63,4.16h-1.67l3.46-5.38L444.91,298h1.65Z"/><path class="cls-9" d="M456.57,308.66h-1.41V298h1.41Z"/><path class="cls-9" d="M461,298l3.49,8.7,3.49-8.7h1.82v10.66h-1.41v-4.15l.14-4.48L465,308.66H463.9l-3.5-8.61.14,4.46v4.15h-1.4V298Z"/><path class="cls-9" d="M479.74,298v7.25a3.35,3.35,0,0,1-.95,2.46,3.79,3.79,0,0,1-2.55,1.08l-.37,0a4,4,0,0,1-2.79-.95,3.35,3.35,0,0,1-1.06-2.6V298h1.39v7.22a2.43,2.43,0,0,0,.64,1.8,2.91,2.91,0,0,0,3.64,0,2.42,2.42,0,0,0,.64-1.8V298Z"/><path class="cls-9" d="M483.78,298l3.48,8.7,3.49-8.7h1.82v10.66h-1.4v-4.15l.13-4.48-3.5,8.63h-1.08l-3.49-8.61.14,4.46v4.15H482V298Z"/><path class="cls-9" d="M500.59,298l3.48,8.7,3.49-8.7h1.82v10.66H508v-4.15l.13-4.48-3.5,8.63h-1.08L500,300.05l.14,4.46v4.15h-1.41V298Z"/><path class="cls-9" d="M517.89,303.73h-4.62v3.78h5.37v1.15h-6.77V298h6.7v1.15h-5.3v3.43h4.62Z"/><path class="cls-9" d="M527.9,299.15h-3.42v9.51h-1.4v-9.51h-3.42V298h8.24Z"/></g></g><g id="YOU_PAY_0" data-name="YOU PAY 0" class="cls-5"><g class="cls-5"><path class="cls-9" d="M445.8,258l2.22-4.81h2.4l-3.5,6.8v3.87h-2.24V260l-3.5-6.8h2.41Z"/><path class="cls-9" d="M459.94,258.74a6.44,6.44,0,0,1-.56,2.76,4.19,4.19,0,0,1-1.59,1.83,4.71,4.71,0,0,1-4.74,0,4.15,4.15,0,0,1-1.61-1.82,6.15,6.15,0,0,1-.58-2.72v-.52a6.42,6.42,0,0,1,.57-2.78,4.15,4.15,0,0,1,1.6-1.83,4.65,4.65,0,0,1,4.74,0,4.22,4.22,0,0,1,1.6,1.83,6.38,6.38,0,0,1,.57,2.77Zm-2.23-.49a4.49,4.49,0,0,0-.6-2.55,2.12,2.12,0,0,0-3.42,0,4.5,4.5,0,0,0-.61,2.52v.53a4.55,4.55,0,0,0,.61,2.53,2.09,2.09,0,0,0,3.42,0,4.44,4.44,0,0,0,.6-2.53Z"/><path class="cls-9" d="M469.61,253.16v7a3.59,3.59,0,0,1-1.1,2.77,4.2,4.2,0,0,1-3,1,4.3,4.3,0,0,1-3-1,3.55,3.55,0,0,1-1.12-2.71v-7.11h2.2v7a2.05,2.05,0,0,0,.5,1.53,1.94,1.94,0,0,0,1.39.48c1.24,0,1.86-.65,1.88-1.95v-7.1Z"/><path class="cls-9" d="M477.34,260.07v3.76h-2.2V253.16h4.16a4.86,4.86,0,0,1,2.12.44,3.22,3.22,0,0,1,1.4,1.25,3.45,3.45,0,0,1,.49,1.84,3.06,3.06,0,0,1-1.07,2.47,4.45,4.45,0,0,1-3,.91Zm0-1.78h2a1.92,1.92,0,0,0,1.33-.41,1.49,1.49,0,0,0,.46-1.17,1.65,1.65,0,0,0-1.73-1.77h-2Z"/><path class="cls-9" d="M489.54,261.63h-3.86l-.73,2.2h-2.33l4-10.67h2l4,10.67h-2.33Zm-3.26-1.78h2.66l-1.34-4Z"/><path class="cls-9" d="M496.19,258l2.22-4.81h2.4l-3.5,6.8v3.87h-2.24V260l-3.5-6.8H494Z"/><path class="cls-9" d="M510.35,261a1.37,1.37,0,0,0-.33-1,3.11,3.11,0,0,0-1.13-.65,13.48,13.48,0,0,1-1.38-.6,4.11,4.11,0,0,1-1-.68,2.88,2.88,0,0,1-.65-.9,3.12,3.12,0,0,1-.23-1.24,2.77,2.77,0,0,1,.79-2,3.29,3.29,0,0,1,2.11-.92v-1.57h1.17v1.59a3.06,3.06,0,0,1,2,1.08,3.6,3.6,0,0,1,.73,2.32h-2.12a2,2,0,0,0-.36-1.31,1.21,1.21,0,0,0-1-.44,1.26,1.26,0,0,0-.93.34,1.32,1.32,0,0,0-.33.95,1.24,1.24,0,0,0,.32.89,3.85,3.85,0,0,0,1.2.69,12.75,12.75,0,0,1,1.44.66,4.41,4.41,0,0,1,.95.7,2.65,2.65,0,0,1,.59.9,3,3,0,0,1,.21,1.16,2.74,2.74,0,0,1-.78,2,3.41,3.41,0,0,1-2.14.91v1.46h-1.16V264a3.52,3.52,0,0,1-2.33-1.07,3.41,3.41,0,0,1-.82-2.4h2.12a1.91,1.91,0,0,0,.41,1.33,1.51,1.51,0,0,0,1.19.47,1.45,1.45,0,0,0,1-.34A1.18,1.18,0,0,0,510.35,261Z"/><path class="cls-9" d="M521.08,259.42a5.4,5.4,0,0,1-.92,3.38,3.19,3.19,0,0,1-2.68,1.17,3.23,3.23,0,0,1-2.67-1.15,5.22,5.22,0,0,1-.94-3.29v-2a5.37,5.37,0,0,1,.92-3.39,3.66,3.66,0,0,1,5.34,0,5.22,5.22,0,0,1,1,3.29ZM519,257.26a3.9,3.9,0,0,0-.36-1.93,1.23,1.23,0,0,0-1.14-.61,1.2,1.2,0,0,0-1.1.58,3.65,3.65,0,0,0-.38,1.8v2.59a4,4,0,0,0,.36,1.94,1.22,1.22,0,0,0,1.14.63,1.19,1.19,0,0,0,1.12-.6,4,4,0,0,0,.36-1.87Z"/></g></g><line id="Line_254" data-name="Line 254" class="cls-10" x1="200.5" y1="237.5" x2="200.6" y2="289.3"/><line id="Line_255" data-name="Line 255" class="cls-10" x1="418" y1="238.5" x2="418" y2="289.3"/><path id="Path_573" data-name="Path 573" class="cls-7" d="M200.6,240.8a2.4,2.4,0,1,0-2.4-2.4h0a2.43,2.43,0,0,0,2.4,2.4"/><path id="Path_574" data-name="Path 574" class="cls-11" d="M200.6,240.8a2.4,2.4,0,1,0-2.4-2.4h0A2.43,2.43,0,0,0,200.6,240.8Z"/><path id="Path_575" data-name="Path 575" class="cls-7" d="M418,240.8a2.4,2.4,0,1,0-2.4-2.4,2.43,2.43,0,0,0,2.4,2.4"/><path id="Path_576" data-name="Path 576" class="cls-11" d="M418,240.8a2.4,2.4,0,1,0-2.4-2.4A2.43,2.43,0,0,0,418,240.8Z"/></g></svg>