<svg id="Group_1725" data-name="Group 1725" xmlns="http://www.w3.org/2000/svg" xmlns:xlink="http://www.w3.org/1999/xlink" viewBox="0 0 1011.2 308.81"><defs><style>.cls-1{fill:url(#linear-gradient);}.cls-2{fill:url(#linear-gradient-2);}.cls-3{fill:url(#linear-gradient-3);}.cls-10,.cls-11,.cls-4,.cls-7{fill:none;}.cls-4{stroke:#fff;stroke-width:4px;}.cls-5{isolation:isolate;}.cls-6{fill:#fff;}.cls-8{fill:#484c56;}.cls-9{fill:#4d4d4f;}.cls-10,.cls-11{stroke:#484c56;}.cls-10{stroke-width:0.5px;}</style><linearGradient id="linear-gradient" x1="-175.81" y1="534.59" x2="-174.81" y2="534.59" gradientTransform="matrix(933.1, 0, 0, -38.4, 164049.6, 20786.2)" gradientUnits="userSpaceOnUse"><stop offset="0" stop-color="#c8c9c9"/><stop offset="1" stop-color="#f2f4f4"/></linearGradient><linearGradient id="linear-gradient-2" x1="-175.83" y1="538.62" x2="-174.83" y2="538.62" gradientTransform="matrix(1011.2, 0, 0, -120.9, 177795.2, 65179.9)" xlink:href="#linear-gradient"/><linearGradient id="linear-gradient-3" x1="-175.83" y1="538.62" x2="-174.83" y2="538.62" gradientTransform="matrix(1011.2, 0, 0, -120.9, 177795.2, 65281.2)" gradientUnits="userSpaceOnUse"><stop offset="0" stop-color="#0099d8"/><stop offset="1" stop-color="#04b6c8"/></linearGradient></defs><title>who-pays-lg</title><path id="Path_570" data-name="Path 570" class="cls-1" d="M933.1,258l-14.3-19.2v7.4H0v23.9H918.8v7.1Z"/><path id="Path_571" data-name="Path 571" class="cls-2" d="M937.9,0V11.5H.1L0,111.8H937.9v9.1l73.3-60Z"/><path id="Path_572" data-name="Path 572" class="cls-3" d="M937.9,101.3v11.4H.1L0,213.1H937.9v9.1l73.3-60Z"/><line id="Line_252" data-name="Line 252" class="cls-4" x1="335.2" y1="213.1" x2="335.2" y2="110.3"/><line id="Line_253" data-name="Line 253" class="cls-4" x1="671" y1="213.1" x2="671" y2="110.3"/><g id="START_PLAN_YEAR" data-name="START PLAN YEAR" class="cls-5"><g class="cls-5"><path class="cls-6" d="M23.13,261a1.11,1.11,0,0,0-.44-1,5.92,5.92,0,0,0-1.58-.7,11.77,11.77,0,0,1-1.81-.73A3,3,0,0,1,17.49,256a2.64,2.64,0,0,1,.48-1.55,3.23,3.23,0,0,1,1.4-1,5.17,5.17,0,0,1,2.05-.39,4.77,4.77,0,0,1,2,.42,3.17,3.17,0,0,1,1.38,1.17,3,3,0,0,1,.5,1.71h-2.2a1.43,1.43,0,0,0-.46-1.14,1.91,1.91,0,0,0-1.3-.41,2,2,0,0,0-1.25.35,1.05,1.05,0,0,0-.45.89,1,1,0,0,0,.53.87,5.55,5.55,0,0,0,1.54.66,6.77,6.77,0,0,1,2.73,1.4,2.8,2.8,0,0,1,.86,2.08,2.55,2.55,0,0,1-1.05,2.17,4.56,4.56,0,0,1-2.82.79,5.43,5.43,0,0,1-2.24-.45,3.55,3.55,0,0,1-1.54-1.23,3.14,3.14,0,0,1-.53-1.82h2.2c0,1.18.7,1.77,2.11,1.77a2.06,2.06,0,0,0,1.22-.32A1,1,0,0,0,23.13,261Z"/><path class="cls-6" d="M34.85,254.94H31.59v8.89h-2.2v-8.89H26.17v-1.78h8.68Z"/><path class="cls-6" d="M41.25,261.63H37.39l-.73,2.2H34.33l4-10.67h2l4,10.67H42ZM38,259.85h2.66l-1.34-4Z"/><path class="cls-6" d="M49.27,259.92H47.52v3.91h-2.2V253.16h4a4.51,4.51,0,0,1,2.92.84,2.93,2.93,0,0,1,1,2.38,3.3,3.3,0,0,1-.47,1.82,3.16,3.16,0,0,1-1.43,1.16l2.3,4.36v.11H51.27Zm-1.75-1.78h1.77a1.81,1.81,0,0,0,1.28-.42,1.51,1.51,0,0,0,.45-1.16,1.65,1.65,0,0,0-.42-1.19,1.79,1.79,0,0,0-1.32-.43H47.52Z"/><path class="cls-6" d="M62.55,254.94H59.29v8.89h-2.2v-8.89H53.87v-1.78h8.68Z"/><path class="cls-6" d="M69.3,260.07v3.76H67.1V253.16h4.16a4.82,4.82,0,0,1,2.11.44,3.24,3.24,0,0,1,1.41,1.25,3.54,3.54,0,0,1,.49,1.84,3,3,0,0,1-1.08,2.47,4.41,4.41,0,0,1-3,.91Zm0-1.78h2a1.94,1.94,0,0,0,1.33-.41,1.49,1.49,0,0,0,.46-1.17,1.78,1.78,0,0,0-.46-1.27,1.76,1.76,0,0,0-1.28-.5h-2Z"/><path class="cls-6" d="M79,262.06h4.67v1.77H76.78V253.16H79Z"/><path class="cls-6" d="M91.06,261.63H87.21l-.74,2.2H84.14l4-10.67h2l4,10.67H91.8Zm-3.26-1.78h2.67l-1.35-4Z"/><path class="cls-6" d="M103.8,263.83h-2.19l-4.28-7v7h-2.2V253.16h2.2l4.28,7v-7h2.19Z"/><path class="cls-6" d="M113.13,258l2.22-4.81h2.41l-3.51,6.8v3.87H112V260l-3.5-6.8h2.41Z"/><path class="cls-6" d="M125.15,259.2h-4.22v2.86h4.95v1.77h-7.15V253.16h7.13v1.78h-4.93v2.54h4.22Z"/><path class="cls-6" d="M133.19,261.63h-3.86l-.73,2.2h-2.33l4-10.67h2l4,10.67h-2.33Zm-3.26-1.78h2.66l-1.34-4Z"/><path class="cls-6" d="M141.21,259.92h-1.75v3.91h-2.2V253.16h4a4.51,4.51,0,0,1,2.92.84,2.93,2.93,0,0,1,1,2.38,3.3,3.3,0,0,1-.47,1.82,3.11,3.11,0,0,1-1.43,1.16l2.31,4.36v.11h-2.36Zm-1.75-1.78h1.77a1.81,1.81,0,0,0,1.28-.42,1.52,1.52,0,0,0,.46-1.16,1.65,1.65,0,0,0-.43-1.19,1.79,1.79,0,0,0-1.32-.43h-1.76Z"/></g></g><g id="Group_1725-2" data-name="Group 1725-2"><g id="WE_PAY" data-name="WE PAY" class="cls-5"><g class="cls-5"><path class="cls-6" d="M50.11,76.39,52,85.76l2.28-9L67.38,32.27H72l13,44.53,2.24,9,2-9.46,10.91-44.12h5.23L89.83,92.7H84.94L71.24,45.42l-1.54-6-1.49,6-14,47.28h-4.9L33.84,32.27h5.23Z"/><path class="cls-6" d="M148.52,63.73H120.25V88.38h32.5V92.7h-37.6V32.27h37.39v4.31H120.25V59.41h28.27Z"/><path class="cls-6" d="M189.28,68.08V92.7h-5.11V32.27h20.59q9.42,0,14.88,4.81t5.45,13.24q0,8.51-5.25,13.14t-15.21,4.62Zm0-4.31h15.48q7.43,0,11.33-3.54t3.9-9.85a13.22,13.22,0,0,0-3.88-10q-3.88-3.72-11-3.81H189.28Z"/><path class="cls-6" d="M263.4,75.72H236l-6.23,17h-5.35l22.87-60.43h4.85L275,92.7h-5.31ZM237.54,71.4h24.24L249.66,38.49Z"/><path class="cls-6" d="M297.68,65.22l18.47-32.95h5.9L300.22,70V92.7h-5.11V70L273.32,32.27h6.06Z"/></g></g></g><rect id="Rectangle_928" data-name="Rectangle 928" class="cls-7" x="378.4" y="53.5" width="548.9" height="61.5"/><g id="_100_preventive_exams_screenings_specialty_Rx_covered_in_full" data-name=" 100 preventive exams screenings specialty Rx covered in full" class="cls-5"><g class="cls-5"><path class="cls-8" d="M384.79,68.44h-2V58.73l-3,1V58l4.72-1.73h.26Z"/><path class="cls-8" d="M396.86,63.35a6.58,6.58,0,0,1-1,3.93,3.45,3.45,0,0,1-3,1.32A3.5,3.5,0,0,1,390,67.31a6.33,6.33,0,0,1-1-3.82V61.4a6.49,6.49,0,0,1,1-3.91,3.46,3.46,0,0,1,3-1.3,3.5,3.5,0,0,1,3,1.26,6.28,6.28,0,0,1,1,3.81Zm-2-2.26a5.07,5.07,0,0,0-.47-2.49,1.77,1.77,0,0,0-2.93,0A4.75,4.75,0,0,0,391,60.9v2.74a5.15,5.15,0,0,0,.48,2.52,1.74,1.74,0,0,0,2.92.07,5,5,0,0,0,.49-2.41Z"/><path class="cls-8" d="M406.53,63.35a6.58,6.58,0,0,1-1,3.93,3.45,3.45,0,0,1-3,1.32,3.5,3.5,0,0,1-2.95-1.29,6.26,6.26,0,0,1-1-3.82V61.4a6.49,6.49,0,0,1,1-3.91,3.47,3.47,0,0,1,3-1.3,3.51,3.51,0,0,1,3,1.26,6.35,6.35,0,0,1,1,3.81Zm-2-2.26A5.07,5.07,0,0,0,404,58.6a1.77,1.77,0,0,0-2.93,0,4.75,4.75,0,0,0-.49,2.34v2.74a5.15,5.15,0,0,0,.48,2.52,1.74,1.74,0,0,0,2.92.07,5,5,0,0,0,.49-2.41Z"/><path class="cls-8" d="M408.23,58.68a2.42,2.42,0,0,1,.7-1.8,2.56,2.56,0,0,1,4.42,1.84v.59a2.41,2.41,0,0,1-.7,1.79,2.54,2.54,0,0,1-1.85.7,2.59,2.59,0,0,1-1.85-.69,2.43,2.43,0,0,1-.72-1.84Zm1.41.63a1.36,1.36,0,0,0,.32.93,1.17,1.17,0,0,0,1.67,0,1.41,1.41,0,0,0,.32-1v-.61a1.36,1.36,0,0,0-.32-.93,1.1,1.1,0,0,0-.85-.36,1.05,1.05,0,0,0-.83.36,1.39,1.39,0,0,0-.31.95Zm1.58,8.22-1-.59,5.9-9.45,1,.6ZM414,65.47a2.38,2.38,0,0,1,.72-1.8,2.81,2.81,0,0,1,3.69,0,2.46,2.46,0,0,1,.72,1.86v.59a2.44,2.44,0,0,1-.69,1.78,2.5,2.5,0,0,1-1.86.7,2.57,2.57,0,0,1-1.87-.69,2.45,2.45,0,0,1-.71-1.83Zm1.41.64a1.32,1.32,0,0,0,.33.93,1.09,1.09,0,0,0,.84.36,1.08,1.08,0,0,0,.83-.34,1.4,1.4,0,0,0,.31-1v-.62a1.29,1.29,0,0,0-.33-.93,1.16,1.16,0,0,0-1.66,0,1.37,1.37,0,0,0-.32,1Z"/><path class="cls-8" d="M433,64a5.34,5.34,0,0,1-.94,3.32,3.29,3.29,0,0,1-4.91.27v4.26h-2V59.46H427l.09.91a3,3,0,0,1,2.41-1.08,3.07,3.07,0,0,1,2.58,1.22,5.52,5.52,0,0,1,.93,3.4Zm-2-.18a3.82,3.82,0,0,0-.53-2.13,1.74,1.74,0,0,0-1.53-.79,1.86,1.86,0,0,0-1.78,1v4A1.88,1.88,0,0,0,429,67a1.74,1.74,0,0,0,1.51-.77A4.18,4.18,0,0,0,431,63.86Z"/><path class="cls-8" d="M439.43,61.3a4.39,4.39,0,0,0-.82-.07,1.86,1.86,0,0,0-1.87,1.06v6.15h-2v-9h1.93l.05,1a2.28,2.28,0,0,1,2-1.17,1.85,1.85,0,0,1,.71.12Z"/><path class="cls-8" d="M444.5,68.6a4.2,4.2,0,0,1-3.11-1.2,4.41,4.41,0,0,1-1.19-3.22v-.25a5.43,5.43,0,0,1,.52-2.4,3.91,3.91,0,0,1,1.46-1.65,3.86,3.86,0,0,1,2.09-.59,3.51,3.51,0,0,1,2.83,1.17,4.92,4.92,0,0,1,1,3.31v.82h-5.86a2.69,2.69,0,0,0,.74,1.76,2.22,2.22,0,0,0,1.64.64,2.73,2.73,0,0,0,2.26-1.12l1.08,1a3.64,3.64,0,0,1-1.44,1.25A4.57,4.57,0,0,1,444.5,68.6Zm-.24-7.69a1.69,1.69,0,0,0-1.34.58,3,3,0,0,0-.65,1.62h3.84V63a2.37,2.37,0,0,0-.54-1.53A1.66,1.66,0,0,0,444.26,60.91Z"/><path class="cls-8" d="M452.73,65.88l1.9-6.42h2.08l-3.11,9h-1.75l-3.14-9h2.09Z"/><path class="cls-8" d="M461.82,68.6a4.18,4.18,0,0,1-3.11-1.2,4.41,4.41,0,0,1-1.19-3.22v-.25a5.29,5.29,0,0,1,.52-2.4,3.85,3.85,0,0,1,3.55-2.24,3.52,3.52,0,0,1,2.83,1.17,4.92,4.92,0,0,1,1,3.31v.82h-5.87a2.74,2.74,0,0,0,.74,1.76,2.25,2.25,0,0,0,1.64.64,2.72,2.72,0,0,0,2.26-1.12l1.09,1a3.64,3.64,0,0,1-1.44,1.25A4.6,4.6,0,0,1,461.82,68.6Zm-.24-7.69a1.68,1.68,0,0,0-1.34.58,3.08,3.08,0,0,0-.66,1.62h3.85V63a2.49,2.49,0,0,0-.54-1.53A1.67,1.67,0,0,0,461.58,60.91Z"/><path class="cls-8" d="M468.86,59.46l.06,1a3.22,3.22,0,0,1,2.61-1.2q2.81,0,2.86,3.21v5.94h-2V62.62a1.85,1.85,0,0,0-.37-1.27,1.58,1.58,0,0,0-1.21-.41A2,2,0,0,0,469,62.05v6.39h-2v-9Z"/><path class="cls-8" d="M479,57.27v2.19h1.58V61H479v5a1.16,1.16,0,0,0,.2.75,1,1,0,0,0,.73.23,2.86,2.86,0,0,0,.7-.09v1.56a4.85,4.85,0,0,1-1.33.19c-1.54,0-2.32-.85-2.32-2.56V61h-1.48V59.46H477V57.27Z"/><path class="cls-8" d="M482.1,57.12a1.06,1.06,0,0,1,.29-.77,1.31,1.31,0,0,1,1.69,0,1.06,1.06,0,0,1,.3.77,1,1,0,0,1-.3.76,1.31,1.31,0,0,1-1.69,0A1,1,0,0,1,482.1,57.12Zm2.14,11.32h-2v-9h2Z"/><path class="cls-8" d="M489.6,65.88l1.9-6.42h2.08l-3.11,9h-1.75l-3.14-9h2.09Z"/><path class="cls-8" d="M498.69,68.6a4.2,4.2,0,0,1-3.11-1.2,4.41,4.41,0,0,1-1.19-3.22v-.25a5.29,5.29,0,0,1,.52-2.4,3.88,3.88,0,0,1,3.55-2.24,3.51,3.51,0,0,1,2.83,1.17,4.92,4.92,0,0,1,1,3.31v.82h-5.87a2.69,2.69,0,0,0,.75,1.76,2.22,2.22,0,0,0,1.64.64,2.71,2.71,0,0,0,2.25-1.12l1.09,1a3.64,3.64,0,0,1-1.44,1.25A4.57,4.57,0,0,1,498.69,68.6Zm-.24-7.69a1.69,1.69,0,0,0-1.34.58,3,3,0,0,0-.65,1.62h3.84V63a2.37,2.37,0,0,0-.54-1.53A1.66,1.66,0,0,0,498.45,60.91Z"/><path class="cls-8" d="M512.05,68.6a4.18,4.18,0,0,1-3.11-1.2,4.37,4.37,0,0,1-1.19-3.22v-.25a5.29,5.29,0,0,1,.52-2.4,3.85,3.85,0,0,1,3.54-2.24,3.53,3.53,0,0,1,2.84,1.17,4.92,4.92,0,0,1,1,3.31v.82h-5.87a2.74,2.74,0,0,0,.74,1.76,2.24,2.24,0,0,0,1.64.64,2.72,2.72,0,0,0,2.26-1.12l1.09,1a3.64,3.64,0,0,1-1.44,1.25A4.6,4.6,0,0,1,512.05,68.6Zm-.24-7.69a1.71,1.71,0,0,0-1.35.58,3.08,3.08,0,0,0-.65,1.62h3.85V63a2.49,2.49,0,0,0-.54-1.53A1.69,1.69,0,0,0,511.81,60.91Z"/><path class="cls-8" d="M520.44,62.41l1.71-2.95h2.24l-2.75,4.42,2.84,4.56h-2.22l-1.8-3.07-1.78,3.07h-2.24l2.84-4.56-2.74-4.42h2.22Z"/><path class="cls-8" d="M531.13,68.44a2.83,2.83,0,0,1-.23-.84,3.41,3.41,0,0,1-4.57.23,2.46,2.46,0,0,1-.85-1.91,2.54,2.54,0,0,1,1.06-2.2,5.18,5.18,0,0,1,3.05-.77h1.24v-.59a1.59,1.59,0,0,0-.39-1.12,1.57,1.57,0,0,0-1.19-.41,1.79,1.79,0,0,0-1.13.34,1.08,1.08,0,0,0-.44.88h-2a2.23,2.23,0,0,1,.49-1.39,3.27,3.27,0,0,1,1.33-1,4.74,4.74,0,0,1,1.88-.36,3.74,3.74,0,0,1,2.51.79,2.83,2.83,0,0,1,1,2.23v4a4.59,4.59,0,0,0,.34,1.94v.14ZM528.91,67a2.24,2.24,0,0,0,1.13-.29,1.92,1.92,0,0,0,.79-.78V64.22h-1.09a3,3,0,0,0-1.68.39,1.26,1.26,0,0,0-.57,1.1,1.18,1.18,0,0,0,.39.93A1.49,1.49,0,0,0,528.91,67Z"/><path class="cls-8" d="M536.86,59.46l.06.93a3.23,3.23,0,0,1,2.58-1.1A2.48,2.48,0,0,1,542,60.67a3.18,3.18,0,0,1,2.76-1.38,2.8,2.8,0,0,1,2.21.82,3.64,3.64,0,0,1,.74,2.42v5.91h-2V62.59a1.76,1.76,0,0,0-.37-1.25,1.62,1.62,0,0,0-1.24-.4,1.65,1.65,0,0,0-1.12.37,2,2,0,0,0-.61,1v6.16h-2V62.53a1.44,1.44,0,0,0-1.62-1.59,1.78,1.78,0,0,0-1.72,1v6.51h-2v-9Z"/><path class="cls-8" d="M554.79,66a.9.9,0,0,0-.45-.82,4.46,4.46,0,0,0-1.47-.5,7.92,7.92,0,0,1-1.72-.55A2.29,2.29,0,0,1,549.64,62a2.4,2.4,0,0,1,1-1.94,3.86,3.86,0,0,1,2.49-.78,4,4,0,0,1,2.6.8,2.52,2.52,0,0,1,1,2.06h-2a1.25,1.25,0,0,0-.43-1,1.65,1.65,0,0,0-1.15-.39,1.75,1.75,0,0,0-1.08.31,1,1,0,0,0-.42.82.81.81,0,0,0,.39.72,5.21,5.21,0,0,0,1.58.52,7.3,7.3,0,0,1,1.86.62,2.62,2.62,0,0,1,1,.87,2.22,2.22,0,0,1,.33,1.23,2.33,2.33,0,0,1-1,2,4.3,4.3,0,0,1-2.64.75,4.55,4.55,0,0,1-2-.4,3.2,3.2,0,0,1-1.35-1.09,2.62,2.62,0,0,1-.48-1.5h2a1.45,1.45,0,0,0,.54,1.1,2.13,2.13,0,0,0,1.32.38,2.06,2.06,0,0,0,1.21-.3A.94.94,0,0,0,554.79,66Z"/><path class="cls-8" d="M558.81,71.16l-1.08-.65a5.93,5.93,0,0,0,.66-1.31,4.11,4.11,0,0,0,.18-1.14V66.49h1.82v1.45a4,4,0,0,1-.44,1.76A4.37,4.37,0,0,1,558.81,71.16Z"/><path class="cls-8" d="M571.53,66a.91.91,0,0,0-.44-.82,4.62,4.62,0,0,0-1.48-.5,8.11,8.11,0,0,1-1.72-.55A2.3,2.3,0,0,1,566.38,62a2.4,2.4,0,0,1,1-1.94,3.9,3.9,0,0,1,2.49-.78,4.06,4.06,0,0,1,2.61.8,2.52,2.52,0,0,1,1,2.06h-2a1.22,1.22,0,0,0-.43-1,1.65,1.65,0,0,0-1.15-.39,1.75,1.75,0,0,0-1.08.31,1,1,0,0,0-.42.82.81.81,0,0,0,.39.72,5.31,5.31,0,0,0,1.58.52,7.3,7.3,0,0,1,1.86.62,2.66,2.66,0,0,1,1,.87,2.3,2.3,0,0,1,.32,1.23,2.33,2.33,0,0,1-1,2,4.29,4.29,0,0,1-2.63.75,4.59,4.59,0,0,1-2-.4,3.17,3.17,0,0,1-1.34-1.09,2.63,2.63,0,0,1-.49-1.5h2a1.45,1.45,0,0,0,.54,1.1,2.15,2.15,0,0,0,1.32.38,2,2,0,0,0,1.21-.3A.94.94,0,0,0,571.53,66Z"/><path class="cls-8" d="M579,67a1.79,1.79,0,0,0,1.25-.44,1.48,1.48,0,0,0,.53-1.08h1.9a2.91,2.91,0,0,1-.52,1.56,3.47,3.47,0,0,1-1.33,1.15,4,4,0,0,1-1.81.42,3.79,3.79,0,0,1-3-1.22A4.81,4.81,0,0,1,574.89,64v-.2a4.77,4.77,0,0,1,1.1-3.29,3.79,3.79,0,0,1,3-1.23,3.72,3.72,0,0,1,2.61.93,3.35,3.35,0,0,1,1,2.46h-1.9a1.81,1.81,0,0,0-.52-1.27,1.67,1.67,0,0,0-1.26-.5,1.78,1.78,0,0,0-1.51.71,3.53,3.53,0,0,0-.54,2.15v.33a3.58,3.58,0,0,0,.53,2.17A1.76,1.76,0,0,0,579,67Z"/><path class="cls-8" d="M588.87,61.3a4.47,4.47,0,0,0-.82-.07,1.86,1.86,0,0,0-1.87,1.06v6.15h-2v-9h1.93l0,1a2.27,2.27,0,0,1,2-1.17,1.87,1.87,0,0,1,.72.12Z"/><path class="cls-8" d="M593.94,68.6a4.2,4.2,0,0,1-3.11-1.2,4.41,4.41,0,0,1-1.19-3.22v-.25a5.29,5.29,0,0,1,.52-2.4,3.91,3.91,0,0,1,1.46-1.65,3.86,3.86,0,0,1,2.09-.59,3.51,3.51,0,0,1,2.83,1.17,4.92,4.92,0,0,1,1,3.31v.82h-5.86a2.69,2.69,0,0,0,.74,1.76,2.22,2.22,0,0,0,1.64.64,2.74,2.74,0,0,0,2.26-1.12l1.08,1A3.64,3.64,0,0,1,596,68.16,4.57,4.57,0,0,1,593.94,68.6Zm-.24-7.69a1.69,1.69,0,0,0-1.34.58,3,3,0,0,0-.65,1.62h3.84V63a2.37,2.37,0,0,0-.54-1.53A1.66,1.66,0,0,0,593.7,60.91Z"/><path class="cls-8" d="M603.06,68.6a4.17,4.17,0,0,1-3.1-1.2,4.38,4.38,0,0,1-1.2-3.22v-.25a5.43,5.43,0,0,1,.52-2.4,3.88,3.88,0,0,1,3.55-2.24,3.55,3.55,0,0,1,2.84,1.17,5,5,0,0,1,1,3.31v.82H600.8a2.74,2.74,0,0,0,.74,1.76,2.24,2.24,0,0,0,1.64.64,2.73,2.73,0,0,0,2.26-1.12l1.09,1a3.61,3.61,0,0,1-1.45,1.25A4.54,4.54,0,0,1,603.06,68.6Zm-.24-7.69a1.69,1.69,0,0,0-1.34.58,3.08,3.08,0,0,0-.65,1.62h3.84V63a2.37,2.37,0,0,0-.54-1.53A1.66,1.66,0,0,0,602.82,60.91Z"/><path class="cls-8" d="M610.1,59.46l.06,1a3.25,3.25,0,0,1,2.62-1.2q2.81,0,2.85,3.21v5.94h-2V62.62a1.91,1.91,0,0,0-.36-1.27,1.58,1.58,0,0,0-1.21-.41,1.94,1.94,0,0,0-1.82,1.11v6.39h-2v-9Z"/><path class="cls-8" d="M617.69,57.12a1.1,1.1,0,0,1,.29-.77,1.31,1.31,0,0,1,1.69,0,1.06,1.06,0,0,1,.3.77,1,1,0,0,1-.3.76,1.31,1.31,0,0,1-1.69,0A1.06,1.06,0,0,1,617.69,57.12Zm2.14,11.32h-2v-9h2Z"/><path class="cls-8" d="M623.9,59.46l.06,1a3.22,3.22,0,0,1,2.61-1.2q2.8,0,2.86,3.21v5.94h-2V62.62a1.85,1.85,0,0,0-.37-1.27,1.58,1.58,0,0,0-1.21-.41A1.93,1.93,0,0,0,624,62.05v6.39h-2v-9Z"/><path class="cls-8" d="M631.13,63.88a5.29,5.29,0,0,1,1-3.34,3.18,3.18,0,0,1,2.61-1.25,3,3,0,0,1,2.42,1.07l.09-.9h1.82v8.7A3.63,3.63,0,0,1,638,71a4.2,4.2,0,0,1-3,1,4.68,4.68,0,0,1-1.93-.41,3.41,3.41,0,0,1-1.43-1.07l1-1.22a2.89,2.89,0,0,0,2.29,1.11,2.25,2.25,0,0,0,1.59-.54,2.09,2.09,0,0,0,.58-1.6v-.61a3,3,0,0,1-2.32,1,3.15,3.15,0,0,1-2.58-1.25A5.41,5.41,0,0,1,631.13,63.88Zm2,.17a3.57,3.57,0,0,0,.55,2.13,1.78,1.78,0,0,0,1.53.78,1.93,1.93,0,0,0,1.81-1V62a1.91,1.91,0,0,0-1.79-1,1.77,1.77,0,0,0-1.55.79A4,4,0,0,0,633.14,64.05Z"/><path class="cls-8" d="M646.15,66a.89.89,0,0,0-.44-.82,4.64,4.64,0,0,0-1.47-.5,7.92,7.92,0,0,1-1.72-.55A2.29,2.29,0,0,1,641,62a2.37,2.37,0,0,1,1-1.94,3.86,3.86,0,0,1,2.49-.78,4,4,0,0,1,2.6.8,2.52,2.52,0,0,1,1,2.06h-2a1.22,1.22,0,0,0-.43-1,1.64,1.64,0,0,0-1.14-.39,1.76,1.76,0,0,0-1.09.31,1,1,0,0,0-.42.82.81.81,0,0,0,.39.72,5.31,5.31,0,0,0,1.58.52,7.54,7.54,0,0,1,1.87.62,2.62,2.62,0,0,1,1,.87,2.22,2.22,0,0,1,.33,1.23,2.34,2.34,0,0,1-1,2,4.27,4.27,0,0,1-2.63.75,4.62,4.62,0,0,1-2-.4,3.23,3.23,0,0,1-1.34-1.09,2.62,2.62,0,0,1-.48-1.5h2a1.45,1.45,0,0,0,.54,1.1,2.13,2.13,0,0,0,1.32.38,2.06,2.06,0,0,0,1.21-.3A.93.93,0,0,0,646.15,66Z"/><path class="cls-8" d="M650.18,71.16l-1.09-.65a5.93,5.93,0,0,0,.66-1.31,4.12,4.12,0,0,0,.19-1.14V66.49h1.82v1.45a4.1,4.1,0,0,1-.45,1.76A4.34,4.34,0,0,1,650.18,71.16Z"/><path class="cls-8" d="M662.9,66a.9.9,0,0,0-.45-.82,4.46,4.46,0,0,0-1.47-.5,7.92,7.92,0,0,1-1.72-.55A2.29,2.29,0,0,1,657.75,62a2.4,2.4,0,0,1,1-1.94,3.86,3.86,0,0,1,2.49-.78,4,4,0,0,1,2.6.8,2.52,2.52,0,0,1,1,2.06h-2a1.25,1.25,0,0,0-.43-1,1.65,1.65,0,0,0-1.15-.39,1.75,1.75,0,0,0-1.08.31,1,1,0,0,0-.42.82.81.81,0,0,0,.39.72,5.22,5.22,0,0,0,1.57.52,7.26,7.26,0,0,1,1.87.62,2.62,2.62,0,0,1,1,.87,2.22,2.22,0,0,1,.33,1.23,2.35,2.35,0,0,1-1,2,4.3,4.3,0,0,1-2.64.75,4.55,4.55,0,0,1-2-.4,3.2,3.2,0,0,1-1.35-1.09,2.62,2.62,0,0,1-.48-1.5h2a1.45,1.45,0,0,0,.54,1.1,2.13,2.13,0,0,0,1.32.38,2.06,2.06,0,0,0,1.21-.3A.94.94,0,0,0,662.9,66Z"/><path class="cls-8" d="M674.5,64a5.28,5.28,0,0,1-1,3.32,3.28,3.28,0,0,1-4.9.27v4.26h-2V59.46h1.86l.08.91A3,3,0,0,1,671,59.29a3.1,3.1,0,0,1,2.58,1.22,5.52,5.52,0,0,1,.93,3.4Zm-2-.18a3.82,3.82,0,0,0-.53-2.13,1.74,1.74,0,0,0-1.54-.79,1.85,1.85,0,0,0-1.77,1v4a1.87,1.87,0,0,0,1.79,1,1.76,1.76,0,0,0,1.51-.77A4.18,4.18,0,0,0,672.49,63.86Z"/><path class="cls-8" d="M680.16,68.6a4.2,4.2,0,0,1-3.11-1.2,4.41,4.41,0,0,1-1.19-3.22v-.25a5.43,5.43,0,0,1,.52-2.4,3.91,3.91,0,0,1,1.46-1.65,3.86,3.86,0,0,1,2.09-.59,3.51,3.51,0,0,1,2.83,1.17,4.92,4.92,0,0,1,1,3.31v.82H677.9a2.69,2.69,0,0,0,.74,1.76,2.22,2.22,0,0,0,1.64.64,2.73,2.73,0,0,0,2.26-1.12l1.08,1a3.64,3.64,0,0,1-1.44,1.25A4.57,4.57,0,0,1,680.16,68.6Zm-.24-7.69a1.69,1.69,0,0,0-1.34.58,3,3,0,0,0-.65,1.62h3.84V63a2.37,2.37,0,0,0-.54-1.53A1.66,1.66,0,0,0,679.92,60.91Z"/><path class="cls-8" d="M689,67a1.79,1.79,0,0,0,1.25-.44,1.48,1.48,0,0,0,.53-1.08h1.9a2.91,2.91,0,0,1-.52,1.56,3.47,3.47,0,0,1-1.33,1.15,4,4,0,0,1-1.81.42,3.79,3.79,0,0,1-3-1.22A4.81,4.81,0,0,1,685,64v-.2a4.77,4.77,0,0,1,1.1-3.29,3.79,3.79,0,0,1,3-1.23,3.72,3.72,0,0,1,2.61.93,3.35,3.35,0,0,1,1.05,2.46h-1.9a1.81,1.81,0,0,0-.52-1.27,1.67,1.67,0,0,0-1.26-.5,1.78,1.78,0,0,0-1.51.71,3.53,3.53,0,0,0-.54,2.15v.33a3.58,3.58,0,0,0,.53,2.17A1.76,1.76,0,0,0,689,67Z"/><path class="cls-8" d="M694.23,57.12a1.06,1.06,0,0,1,.3-.77,1.11,1.11,0,0,1,.84-.31,1.16,1.16,0,0,1,.85.31,1.06,1.06,0,0,1,.29.77,1,1,0,0,1-.29.76,1.16,1.16,0,0,1-.85.31,1.11,1.11,0,0,1-.84-.31A1,1,0,0,1,694.23,57.12Zm2.14,11.32h-2v-9h2Z"/><path class="cls-8" d="M703.94,68.44a3.11,3.11,0,0,1-.24-.84,3.39,3.39,0,0,1-4.56.23,2.47,2.47,0,0,1-.86-1.91,2.54,2.54,0,0,1,1.07-2.2,5.18,5.18,0,0,1,3-.77h1.24v-.59a1.4,1.4,0,0,0-1.58-1.53,1.77,1.77,0,0,0-1.13.34,1.08,1.08,0,0,0-.44.88h-2a2.29,2.29,0,0,1,.49-1.39,3.34,3.34,0,0,1,1.33-1,4.79,4.79,0,0,1,1.89-.36,3.74,3.74,0,0,1,2.51.79,2.79,2.79,0,0,1,1,2.23v4A4.75,4.75,0,0,0,706,68.3v.14ZM701.72,67a2.2,2.2,0,0,0,1.12-.29,1.88,1.88,0,0,0,.8-.78V64.22h-1.09a3,3,0,0,0-1.69.39,1.27,1.27,0,0,0-.56,1.1,1.18,1.18,0,0,0,.39.93A1.47,1.47,0,0,0,701.72,67Z"/><path class="cls-8" d="M709.91,68.44h-2V55.69h2Z"/><path class="cls-8" d="M714.63,57.27v2.19h1.59V61h-1.59v5a1.1,1.1,0,0,0,.21.75.94.94,0,0,0,.72.23,2.88,2.88,0,0,0,.71-.09v1.56a4.85,4.85,0,0,1-1.33.19c-1.55,0-2.32-.85-2.32-2.56V61h-1.48V59.46h1.48V57.27Z"/><path class="cls-8" d="M720.9,65.55l1.83-6.09h2.15L721.31,69.8a2.9,2.9,0,0,1-2.79,2.26,3.59,3.59,0,0,1-1-.15V70.35l.38,0a1.93,1.93,0,0,0,1.15-.28,1.78,1.78,0,0,0,.61-.93l.29-.77-3.15-8.93H719Z"/><path class="cls-8" d="M734.91,63.79h-2.35v4.65h-2.1V56.35h4.25a4.9,4.9,0,0,1,3.23.94A3.32,3.32,0,0,1,739.08,60a3.42,3.42,0,0,1-.58,2,3.83,3.83,0,0,1-1.64,1.26l2.72,5v.11h-2.25Zm-2.35-1.69h2.16a2.39,2.39,0,0,0,1.66-.54,1.87,1.87,0,0,0,.6-1.46,2,2,0,0,0-.55-1.51,2.42,2.42,0,0,0-1.65-.55h-2.22Z"/><path class="cls-8" d="M744.1,62.41l1.71-2.95h2.24l-2.74,4.42,2.84,4.56h-2.23l-1.79-3.07-1.79,3.07H740.1l2.84-4.56-2.74-4.42h2.23Z"/><path class="cls-8" d="M757.35,67a1.79,1.79,0,0,0,1.25-.44,1.49,1.49,0,0,0,.54-1.08H761a3,3,0,0,1-.53,1.56,3.44,3.44,0,0,1-1.32,1.15,4,4,0,0,1-1.81.42,3.8,3.8,0,0,1-3-1.22A4.81,4.81,0,0,1,753.28,64v-.2a4.77,4.77,0,0,1,1.1-3.29,3.8,3.8,0,0,1,3-1.23,3.69,3.69,0,0,1,2.61.93A3.4,3.4,0,0,1,761,62.68h-1.9a1.87,1.87,0,0,0-.53-1.27,1.67,1.67,0,0,0-1.26-.5,1.78,1.78,0,0,0-1.51.71,3.67,3.67,0,0,0-.54,2.15v.33a3.65,3.65,0,0,0,.53,2.17A1.77,1.77,0,0,0,757.35,67Z"/><path class="cls-8" d="M762.18,63.86a5.3,5.3,0,0,1,.53-2.38,3.77,3.77,0,0,1,1.46-1.62,4.15,4.15,0,0,1,2.18-.57,3.93,3.93,0,0,1,2.95,1.17,4.56,4.56,0,0,1,1.22,3.1V64a5.35,5.35,0,0,1-.51,2.37A3.77,3.77,0,0,1,768.56,68a4.16,4.16,0,0,1-2.19.57,3.92,3.92,0,0,1-3-1.26A4.87,4.87,0,0,1,762.18,64Zm2,.18a3.63,3.63,0,0,0,.57,2.17,1.86,1.86,0,0,0,1.6.78A1.84,1.84,0,0,0,768,66.2a4.1,4.1,0,0,0,.56-2.34,3.61,3.61,0,0,0-.58-2.16,2,2,0,0,0-3.16,0A3.94,3.94,0,0,0,764.2,64Z"/><path class="cls-8" d="M775.28,65.88l1.9-6.42h2.08l-3.11,9H774.4l-3.14-9h2.09Z"/><path class="cls-8" d="M784.37,68.6a4.2,4.2,0,0,1-3.11-1.2,4.41,4.41,0,0,1-1.19-3.22v-.25a5.29,5.29,0,0,1,.52-2.4,3.88,3.88,0,0,1,3.55-2.24A3.51,3.51,0,0,1,787,60.46a4.92,4.92,0,0,1,1,3.31v.82H782.1a2.74,2.74,0,0,0,.75,1.76,2.22,2.22,0,0,0,1.64.64,2.71,2.71,0,0,0,2.25-1.12l1.09,1a3.64,3.64,0,0,1-1.44,1.25A4.57,4.57,0,0,1,784.37,68.6Zm-.24-7.69a1.69,1.69,0,0,0-1.34.58,3,3,0,0,0-.65,1.62H786V63a2.37,2.37,0,0,0-.54-1.53A1.67,1.67,0,0,0,784.13,60.91Z"/><path class="cls-8" d="M794.24,61.3a4.47,4.47,0,0,0-.82-.07,1.86,1.86,0,0,0-1.87,1.06v6.15h-2v-9h1.93l0,1a2.27,2.27,0,0,1,2-1.17,1.87,1.87,0,0,1,.72.12Z"/><path class="cls-8" d="M799.31,68.6a4.2,4.2,0,0,1-3.11-1.2A4.41,4.41,0,0,1,795,64.18v-.25a5.29,5.29,0,0,1,.52-2.4A3.91,3.91,0,0,1,797,59.88a3.86,3.86,0,0,1,2.09-.59,3.51,3.51,0,0,1,2.83,1.17,4.92,4.92,0,0,1,1,3.31v.82H797a2.74,2.74,0,0,0,.75,1.76,2.22,2.22,0,0,0,1.64.64,2.74,2.74,0,0,0,2.26-1.12l1.08,1a3.64,3.64,0,0,1-1.44,1.25A4.57,4.57,0,0,1,799.31,68.6Zm-.24-7.69a1.69,1.69,0,0,0-1.34.58,3,3,0,0,0-.65,1.62h3.84V63a2.37,2.37,0,0,0-.54-1.53A1.66,1.66,0,0,0,799.07,60.91Z"/><path class="cls-8" d="M804.1,63.88a5.35,5.35,0,0,1,1-3.33,3.11,3.11,0,0,1,2.59-1.26,2.89,2.89,0,0,1,2.3,1v-4.6h2V68.44h-1.83l-.1-.93a3,3,0,0,1-2.41,1.09,3.06,3.06,0,0,1-2.55-1.27A5.51,5.51,0,0,1,804.1,63.88Zm2,.17a3.66,3.66,0,0,0,.53,2.14,1.71,1.71,0,0,0,1.49.77A1.9,1.9,0,0,0,810,65.85V62a1.88,1.88,0,0,0-1.79-1.08,1.72,1.72,0,0,0-1.51.78A4.08,4.08,0,0,0,806.12,64.05Z"/><path class="cls-8" d="M818.31,57.12a1.06,1.06,0,0,1,.3-.77,1.11,1.11,0,0,1,.84-.31,1.16,1.16,0,0,1,.85.31,1.06,1.06,0,0,1,.29.77,1,1,0,0,1-.29.76,1.16,1.16,0,0,1-.85.31,1.11,1.11,0,0,1-.84-.31A1,1,0,0,1,818.31,57.12Zm2.14,11.32h-2v-9h2Z"/><path class="cls-8" d="M824.52,59.46l.06,1a3.22,3.22,0,0,1,2.61-1.2c1.87,0,2.83,1.07,2.86,3.21v5.94h-2V62.62a1.85,1.85,0,0,0-.37-1.27,1.55,1.55,0,0,0-1.2-.41,1.94,1.94,0,0,0-1.82,1.11v6.39h-2v-9Z"/><path class="cls-8" d="M837.05,68.44V61h-1.37V59.46h1.37v-.83a3,3,0,0,1,.83-2.3,3.14,3.14,0,0,1,2.32-.82,4.69,4.69,0,0,1,1.13.15l-.05,1.58a3.55,3.55,0,0,0-.77-.07,1.3,1.3,0,0,0-1.45,1.49v.8h1.83V61h-1.83v7.49Z"/><path class="cls-8" d="M847.8,67.56a3.14,3.14,0,0,1-2.52,1,2.79,2.79,0,0,1-2.21-.85,3.66,3.66,0,0,1-.75-2.48V59.46h2v5.79c0,1.14.48,1.71,1.42,1.71a2,2,0,0,0,2-1V59.46h2v9h-1.9Z"/><path class="cls-8" d="M854,68.44h-2V55.69h2Z"/><path class="cls-8" d="M858.3,68.44h-2V55.69h2Z"/></g></g><g id="Group_1727" data-name="Group 1727"><g id="Group_1726" data-name="Group 1726"><rect id="Rectangle_929" data-name="Rectangle 929" class="cls-7" x="35.4" y="121.6" width="150" height="45.1"/><g id="YOU_PAY" data-name="YOU PAY" class="cls-5"><g class="cls-5"><path class="cls-6" d="M47.32,142.84,56,127.33h2.77L48.51,145.07v10.7h-2.4v-10.7L35.85,127.33H38.7Z"/><path class="cls-6" d="M83.37,143.1A16.36,16.36,0,0,1,82,150a10.32,10.32,0,0,1-3.87,4.57,10.6,10.6,0,0,1-5.82,1.6,10.12,10.12,0,0,1-8-3.56Q61.21,149,61.2,143v-2.93a16.33,16.33,0,0,1,1.38-6.89,10.87,10.87,0,0,1,15.49-4.63A10.42,10.42,0,0,1,82,133a16.15,16.15,0,0,1,1.42,6.7ZM81,140c0-3.42-.78-6.11-2.33-8A8.35,8.35,0,0,0,66,132q-2.35,2.92-2.35,8.16v3a12.56,12.56,0,0,0,2.34,8,8.36,8.36,0,0,0,12.73,0C80.21,149.21,81,146.49,81,143Z"/><path class="cls-6" d="M109,127.33v19.42a10,10,0,0,1-1.27,5,8.33,8.33,0,0,1-3.53,3.27A11.52,11.52,0,0,1,99,156.16a10.27,10.27,0,0,1-7.2-2.45,9,9,0,0,1-2.8-6.79V127.33h2.38v19.24a7.38,7.38,0,0,0,2.05,5.58,7.68,7.68,0,0,0,5.57,2,7.59,7.59,0,0,0,5.55-2,7.41,7.41,0,0,0,2-5.55V127.33Z"/><path class="cls-6" d="M127.84,144.19v11.58h-2.4V127.33h9.69a10.22,10.22,0,0,1,7,2.27,7.89,7.89,0,0,1,2.57,6.23,7.79,7.79,0,0,1-2.47,6.18c-1.65,1.45-4,2.18-7.16,2.18Zm0-2h7.29a7.72,7.72,0,0,0,5.33-1.66,6,6,0,0,0,1.84-4.64,6.18,6.18,0,0,0-1.83-4.7,7.29,7.29,0,0,0-5.18-1.79h-7.45Z"/><path class="cls-6" d="M162.73,147.78H149.82l-2.93,8h-2.52l10.76-28.44h2.28l10.77,28.44h-2.5Zm-12.17-2H162l-5.7-15.49Z"/><path class="cls-6" d="M178.86,142.84l8.69-15.51h2.77l-10.27,17.74v10.7h-2.4v-10.7l-10.26-17.74h2.86Z"/></g></g></g></g><rect id="Rectangle_930" data-name="Rectangle 930" class="cls-7" x="35.4" y="164.8" width="274.8" height="37.2"/><g id="non-preventive_care_and_prescriptions_until_you_reach_deductible" data-name="non-preventive care and prescriptions until you reach deductible" class="cls-5"><g class="cls-5"><path class="cls-6" d="M38.12,170l.05,1a3,3,0,0,1,2.46-1.14c1.76,0,2.66,1,2.69,3v5.58h-1.9V173a1.68,1.68,0,0,0-.35-1.19,1.45,1.45,0,0,0-1.13-.39,1.82,1.82,0,0,0-1.71,1v6h-1.9V170Z"/><path class="cls-6" d="M44.9,174.14a5,5,0,0,1,.49-2.24,3.66,3.66,0,0,1,1.38-1.53,3.9,3.9,0,0,1,2-.54,3.68,3.68,0,0,1,2.78,1.11,4.32,4.32,0,0,1,1.15,2.92v.44a5,5,0,0,1-.48,2.24,3.57,3.57,0,0,1-1.38,1.52,3.88,3.88,0,0,1-2.06.54A3.69,3.69,0,0,1,46,177.41a4.6,4.6,0,0,1-1.07-3.18Zm1.9.16a3.44,3.44,0,0,0,.54,2,1.75,1.75,0,0,0,1.5.73,1.72,1.72,0,0,0,1.49-.75,3.73,3.73,0,0,0,.54-2.19,3.4,3.4,0,0,0-.55-2,1.77,1.77,0,0,0-1.5-.75,1.74,1.74,0,0,0-1.48.74A3.7,3.7,0,0,0,46.8,174.3Z"/><path class="cls-6" d="M56.12,170l.06,1a3,3,0,0,1,2.46-1.14c1.76,0,2.66,1,2.69,3v5.58h-1.9V173a1.73,1.73,0,0,0-.35-1.19,1.45,1.45,0,0,0-1.13-.39,1.85,1.85,0,0,0-1.72,1v6H54.34V170Z"/><path class="cls-6" d="M67,174.37H62.84v-1.53H67Z"/><path class="cls-6" d="M75.91,174.3a5,5,0,0,1-.89,3.13,2.84,2.84,0,0,1-2.39,1.17,2.89,2.89,0,0,1-2.22-.91v4h-1.9V170h1.75l.08.86a2.76,2.76,0,0,1,2.27-1A2.9,2.9,0,0,1,75,171a5.18,5.18,0,0,1,.87,3.2ZM74,174.14a3.5,3.5,0,0,0-.5-2,1.66,1.66,0,0,0-1.44-.74,1.73,1.73,0,0,0-1.67,1v3.75a1.74,1.74,0,0,0,1.68,1,1.62,1.62,0,0,0,1.42-.73A3.86,3.86,0,0,0,74,174.14Z"/><path class="cls-6" d="M82,171.72a4.93,4.93,0,0,0-.78-.06,1.76,1.76,0,0,0-1.76,1v5.78H77.52V170h1.81l0,.95a2.12,2.12,0,0,1,1.9-1.11,1.8,1.8,0,0,1,.67.11Z"/><path class="cls-6" d="M86.72,178.6a3.94,3.94,0,0,1-2.93-1.14,4.12,4.12,0,0,1-1.12-3v-.24a5,5,0,0,1,.49-2.26,3.76,3.76,0,0,1,1.37-1.55,3.64,3.64,0,0,1,2-.56,3.31,3.31,0,0,1,2.67,1.11,4.62,4.62,0,0,1,.94,3.11v.77H84.59a2.46,2.46,0,0,0,.7,1.65,2.06,2.06,0,0,0,1.54.61A2.56,2.56,0,0,0,89,176l1,1a3.45,3.45,0,0,1-1.36,1.17A4.21,4.21,0,0,1,86.72,178.6Zm-.23-7.24a1.61,1.61,0,0,0-1.26.54,2.89,2.89,0,0,0-.61,1.53h3.61v-.14a2.31,2.31,0,0,0-.5-1.44A1.58,1.58,0,0,0,86.49,171.36Z"/><path class="cls-6" d="M94.46,176l1.79-6h2l-2.93,8.45H93.63L90.68,170h2Z"/><path class="cls-6" d="M103,178.6a3.92,3.92,0,0,1-2.93-1.14,4.08,4.08,0,0,1-1.12-3v-.24a5,5,0,0,1,.49-2.26,3.69,3.69,0,0,1,1.37-1.55,3.62,3.62,0,0,1,2-.56,3.28,3.28,0,0,1,2.66,1.11,4.63,4.63,0,0,1,1,3.11v.77h-5.53a2.51,2.51,0,0,0,.7,1.65,2.08,2.08,0,0,0,1.54.61,2.59,2.59,0,0,0,2.13-1.05l1,1a3.49,3.49,0,0,1-1.35,1.17A4.24,4.24,0,0,1,103,178.6Zm-.23-7.24a1.61,1.61,0,0,0-1.26.54,2.9,2.9,0,0,0-.62,1.53h3.62v-.14a2.25,2.25,0,0,0-.51-1.44A1.56,1.56,0,0,0,102.79,171.36Z"/><path class="cls-6" d="M109.64,170l.06,1a3,3,0,0,1,2.46-1.14c1.76,0,2.65,1,2.68,3v5.58H113V173a1.73,1.73,0,0,0-.35-1.19,1.45,1.45,0,0,0-1.14-.39,1.83,1.83,0,0,0-1.71,1v6h-1.9V170Z"/><path class="cls-6" d="M119.16,167.94V170h1.49v1.41h-1.49v4.72a1,1,0,0,0,.19.69.85.85,0,0,0,.68.22,3.14,3.14,0,0,0,.67-.08v1.47a4.72,4.72,0,0,1-1.25.18c-1.46,0-2.19-.81-2.19-2.41V171.4h-1.39V170h1.39v-2.05Z"/><path class="cls-6" d="M122.1,167.79a1,1,0,0,1,.28-.72,1,1,0,0,1,.79-.29,1.07,1.07,0,0,1,.8.29,1.07,1.07,0,0,1,0,1.44,1.07,1.07,0,0,1-.8.28,1,1,0,0,1-.79-.28A1,1,0,0,1,122.1,167.79Zm2,10.65h-1.9V170h1.9Z"/><path class="cls-6" d="M129.16,176l1.79-6h2L130,178.44h-1.64l-3-8.45h2Z"/><path class="cls-6" d="M137.72,178.6a3.94,3.94,0,0,1-2.93-1.14,4.12,4.12,0,0,1-1.12-3v-.24a5,5,0,0,1,.49-2.26,3.76,3.76,0,0,1,1.37-1.55,3.64,3.64,0,0,1,2-.56,3.31,3.31,0,0,1,2.67,1.11,4.62,4.62,0,0,1,.94,3.11v.77h-5.52a2.46,2.46,0,0,0,.7,1.65,2.06,2.06,0,0,0,1.54.61A2.56,2.56,0,0,0,140,176l1,1a3.45,3.45,0,0,1-1.36,1.17A4.21,4.21,0,0,1,137.72,178.6Zm-.23-7.24a1.61,1.61,0,0,0-1.26.54,2.89,2.89,0,0,0-.61,1.53h3.61v-.14a2.31,2.31,0,0,0-.5-1.44A1.58,1.58,0,0,0,137.49,171.36Z"/><path class="cls-6" d="M150,177.08a1.7,1.7,0,0,0,1.18-.41,1.43,1.43,0,0,0,.5-1h1.79a2.86,2.86,0,0,1-.49,1.47,3.21,3.21,0,0,1-1.25,1.08,3.71,3.71,0,0,1-1.71.4,3.58,3.58,0,0,1-2.81-1.15,4.55,4.55,0,0,1-1-3.17v-.2a4.49,4.49,0,0,1,1-3.09,3.59,3.59,0,0,1,2.81-1.16,3.49,3.49,0,0,1,2.46.88,3.17,3.17,0,0,1,1,2.31h-1.79a1.73,1.73,0,0,0-.5-1.19,1.56,1.56,0,0,0-1.18-.47,1.65,1.65,0,0,0-1.42.67,3.3,3.3,0,0,0-.51,2v.31a3.41,3.41,0,0,0,.5,2A1.65,1.65,0,0,0,150,177.08Z"/><path class="cls-6" d="M160,178.44a3.3,3.3,0,0,1-.22-.79,3.17,3.17,0,0,1-4.29.22,2.3,2.3,0,0,1-.81-1.79,2.4,2.4,0,0,1,1-2.08,4.84,4.84,0,0,1,2.87-.72h1.16v-.56a1.48,1.48,0,0,0-.37-1.05,1.44,1.44,0,0,0-1.11-.39,1.72,1.72,0,0,0-1.07.32,1,1,0,0,0-.41.83h-1.9a2.07,2.07,0,0,1,.46-1.3,3.05,3.05,0,0,1,1.26-.95,4.33,4.33,0,0,1,1.77-.35,3.52,3.52,0,0,1,2.36.75,2.68,2.68,0,0,1,.91,2.1v3.81a4.37,4.37,0,0,0,.32,1.82v.13Zm-2.08-1.36a2.07,2.07,0,0,0,1.05-.28,1.76,1.76,0,0,0,.75-.73v-1.6h-1a2.85,2.85,0,0,0-1.59.37,1.2,1.2,0,0,0-.53,1,1.1,1.1,0,0,0,.36.87A1.42,1.42,0,0,0,157.91,177.08Z"/><path class="cls-6" d="M168,171.72a4.81,4.81,0,0,0-.77-.06,1.75,1.75,0,0,0-1.76,1v5.78h-1.9V170h1.82l0,.95a2.15,2.15,0,0,1,1.91-1.11,1.84,1.84,0,0,1,.67.11Z"/><path class="cls-6" d="M172.8,178.6a3.92,3.92,0,0,1-2.93-1.14,4.08,4.08,0,0,1-1.12-3v-.24a5,5,0,0,1,.49-2.26,3.69,3.69,0,0,1,1.37-1.55,3.62,3.62,0,0,1,2-.56,3.31,3.31,0,0,1,2.67,1.11,4.68,4.68,0,0,1,.94,3.11v.77h-5.53a2.51,2.51,0,0,0,.7,1.65,2.1,2.1,0,0,0,1.55.61A2.57,2.57,0,0,0,175,176l1,1a3.42,3.42,0,0,1-1.35,1.17A4.24,4.24,0,0,1,172.8,178.6Zm-.23-7.24a1.61,1.61,0,0,0-1.26.54,2.81,2.81,0,0,0-.61,1.53h3.61v-.14a2.25,2.25,0,0,0-.51-1.44A1.55,1.55,0,0,0,172.57,171.36Z"/><path class="cls-6" d="M186.7,178.44a2.56,2.56,0,0,1-.22-.79,3.19,3.19,0,0,1-4.3.22,2.29,2.29,0,0,1-.8-1.79,2.39,2.39,0,0,1,1-2.08,4.87,4.87,0,0,1,2.87-.72h1.16v-.56a1.52,1.52,0,0,0-.36-1.05,1.48,1.48,0,0,0-1.12-.39,1.69,1.69,0,0,0-1.06.32,1,1,0,0,0-.42.83h-1.9a2.08,2.08,0,0,1,.47-1.3,3,3,0,0,1,1.25-.95,4.4,4.4,0,0,1,1.77-.35,3.54,3.54,0,0,1,2.37.75,2.68,2.68,0,0,1,.9,2.1v3.81a4.37,4.37,0,0,0,.32,1.82v.13Zm-2.09-1.36a2.1,2.1,0,0,0,1.06-.28,1.74,1.74,0,0,0,.74-.73v-1.6h-1a2.87,2.87,0,0,0-1.59.37,1.2,1.2,0,0,0-.53,1,1.07,1.07,0,0,0,.37.87A1.37,1.37,0,0,0,184.61,177.08Z"/><path class="cls-6" d="M192.06,170l.06,1a3,3,0,0,1,2.46-1.14c1.76,0,2.65,1,2.69,3v5.58h-1.9V173a1.73,1.73,0,0,0-.35-1.19,1.45,1.45,0,0,0-1.14-.39,1.84,1.84,0,0,0-1.71,1v6h-1.9V170Z"/><path class="cls-6" d="M198.84,174.15a5,5,0,0,1,.91-3.13,2.9,2.9,0,0,1,2.43-1.19,2.76,2.76,0,0,1,2.17.94v-4.33h1.9v12h-1.72l-.09-.87a2.8,2.8,0,0,1-2.28,1,2.88,2.88,0,0,1-2.4-1.2A5.21,5.21,0,0,1,198.84,174.15Zm1.9.17a3.51,3.51,0,0,0,.5,2,1.61,1.61,0,0,0,1.41.72,1.78,1.78,0,0,0,1.7-1V172.4a1.77,1.77,0,0,0-1.69-1,1.62,1.62,0,0,0-1.42.73A4,4,0,0,0,200.74,174.32Z"/><path class="cls-6" d="M219.62,174.3a5.06,5.06,0,0,1-.89,3.13,2.86,2.86,0,0,1-2.39,1.17,2.91,2.91,0,0,1-2.23-.91v4h-1.9V170H214l.08.86a2.78,2.78,0,0,1,2.27-1,2.9,2.9,0,0,1,2.43,1.16,5.18,5.18,0,0,1,.88,3.2Zm-1.89-.16a3.5,3.5,0,0,0-.51-2,1.63,1.63,0,0,0-1.44-.74,1.74,1.74,0,0,0-1.67,1v3.75a1.75,1.75,0,0,0,1.69,1,1.62,1.62,0,0,0,1.41-.73A3.77,3.77,0,0,0,217.73,174.14Z"/><path class="cls-6" d="M225.65,171.72a4.9,4.9,0,0,0-.77-.06,1.74,1.74,0,0,0-1.76,1v5.78h-1.9V170H223l.05.95a2.13,2.13,0,0,1,1.9-1.11,1.9,1.9,0,0,1,.68.11Z"/><path class="cls-6" d="M230.42,178.6a3.9,3.9,0,0,1-2.92-1.14,4.08,4.08,0,0,1-1.12-3v-.24a5.14,5.14,0,0,1,.48-2.26,3.83,3.83,0,0,1,1.37-1.55,3.64,3.64,0,0,1,2-.56,3.31,3.31,0,0,1,2.67,1.11,4.62,4.62,0,0,1,.94,3.11v.77h-5.52a2.51,2.51,0,0,0,.7,1.65,2.08,2.08,0,0,0,1.54.61,2.59,2.59,0,0,0,2.13-1.05l1,1a3.45,3.45,0,0,1-1.36,1.17A4.21,4.21,0,0,1,230.42,178.6Zm-.22-7.24a1.61,1.61,0,0,0-1.27.54,2.89,2.89,0,0,0-.61,1.53h3.62v-.14a2.25,2.25,0,0,0-.51-1.44A1.58,1.58,0,0,0,230.2,171.36Z"/><path class="cls-6" d="M240,176.15a.88.88,0,0,0-.41-.78,4.88,4.88,0,0,0-1.39-.47,6.74,6.74,0,0,1-1.62-.51,2.15,2.15,0,0,1-1.42-2,2.26,2.26,0,0,1,.92-1.83,3.67,3.67,0,0,1,2.35-.74,3.76,3.76,0,0,1,2.44.75,2.37,2.37,0,0,1,.94,1.95h-1.9a1.18,1.18,0,0,0-.41-.91,1.56,1.56,0,0,0-1.07-.36,1.69,1.69,0,0,0-1,.28.92.92,0,0,0-.4.78.76.76,0,0,0,.37.68,5.23,5.23,0,0,0,1.48.49,7.22,7.22,0,0,1,1.76.58,2.47,2.47,0,0,1,.94.82,2,2,0,0,1,.31,1.15,2.19,2.19,0,0,1-.94,1.85,4.07,4.07,0,0,1-2.48.71,4.37,4.37,0,0,1-1.85-.38,3,3,0,0,1-1.27-1,2.44,2.44,0,0,1-.45-1.41h1.84a1.34,1.34,0,0,0,.51,1,2.32,2.32,0,0,0,2.38.08A.88.88,0,0,0,240,176.15Z"/><path class="cls-6" d="M247,177.08a1.72,1.72,0,0,0,1.18-.41,1.47,1.47,0,0,0,.5-1h1.78a2.78,2.78,0,0,1-.49,1.47,3.14,3.14,0,0,1-1.25,1.08,3.64,3.64,0,0,1-1.7.4,3.58,3.58,0,0,1-2.81-1.15,4.5,4.5,0,0,1-1-3.17v-.2a4.49,4.49,0,0,1,1-3.09,3.58,3.58,0,0,1,2.81-1.16,3.49,3.49,0,0,1,2.46.88,3.16,3.16,0,0,1,1,2.31H248.7a1.77,1.77,0,0,0-.5-1.19,1.57,1.57,0,0,0-1.18-.47,1.68,1.68,0,0,0-1.43.67,3.38,3.38,0,0,0-.5,2v.31a3.48,3.48,0,0,0,.49,2A1.67,1.67,0,0,0,247,177.08Z"/><path class="cls-6" d="M256.34,171.72a4.81,4.81,0,0,0-.77-.06,1.75,1.75,0,0,0-1.76,1v5.78h-1.9V170h1.82l0,.95a2.15,2.15,0,0,1,1.91-1.11,1.84,1.84,0,0,1,.67.11Z"/><path class="cls-6" d="M257.55,167.79a1,1,0,0,1,.27-.72,1.07,1.07,0,0,1,.8-.29,1,1,0,0,1,.79.29,1,1,0,0,1,0,1.44,1,1,0,0,1-.79.28,1.07,1.07,0,0,1-.8-.28A1,1,0,0,1,257.55,167.79Zm2,10.65h-1.9V170h1.9Z"/><path class="cls-6" d="M269,174.3a5.06,5.06,0,0,1-.89,3.13,2.84,2.84,0,0,1-2.39,1.17,2.91,2.91,0,0,1-2.23-.91v4h-1.9V170h1.76l.07.86a2.8,2.8,0,0,1,2.28-1,2.87,2.87,0,0,1,2.42,1.16,5.12,5.12,0,0,1,.88,3.2Zm-1.89-.16a3.58,3.58,0,0,0-.5-2,1.66,1.66,0,0,0-1.44-.74,1.76,1.76,0,0,0-1.68,1v3.75a1.76,1.76,0,0,0,1.69,1,1.64,1.64,0,0,0,1.42-.73A3.86,3.86,0,0,0,267.14,174.14Z"/><path class="cls-6" d="M273,167.94V170h1.49v1.41H273v4.72a1,1,0,0,0,.19.69.84.84,0,0,0,.68.22,3,3,0,0,0,.66-.08v1.47a4.61,4.61,0,0,1-1.25.18c-1.45,0-2.18-.81-2.18-2.41V171.4h-1.39V170h1.39v-2.05Z"/><path class="cls-6" d="M276,167.79a1,1,0,0,1,.28-.72,1,1,0,0,1,.79-.29,1.07,1.07,0,0,1,.8.29,1.07,1.07,0,0,1,0,1.44,1.07,1.07,0,0,1-.8.28,1,1,0,0,1-.79-.28A1,1,0,0,1,276,167.79Zm2,10.65h-1.9V170H278Z"/><path class="cls-6" d="M279.69,174.14a5,5,0,0,1,.49-2.24,3.66,3.66,0,0,1,1.38-1.53,3.9,3.9,0,0,1,2.05-.54,3.68,3.68,0,0,1,2.78,1.11,4.32,4.32,0,0,1,1.15,2.92v.44a5,5,0,0,1-.48,2.24,3.57,3.57,0,0,1-1.38,1.52,3.92,3.92,0,0,1-2.07.54,3.68,3.68,0,0,1-2.86-1.19,4.6,4.6,0,0,1-1.07-3.18Zm1.9.16a3.51,3.51,0,0,0,.53,2,1.75,1.75,0,0,0,1.5.73,1.73,1.73,0,0,0,1.5-.75,3.73,3.73,0,0,0,.54-2.19,3.4,3.4,0,0,0-.55-2,1.77,1.77,0,0,0-1.5-.75,1.74,1.74,0,0,0-1.48.74A3.7,3.7,0,0,0,281.59,174.3Z"/><path class="cls-6" d="M290.91,170l.06,1a3,3,0,0,1,2.46-1.14c1.76,0,2.66,1,2.69,3v5.58h-1.9V173a1.73,1.73,0,0,0-.35-1.19,1.45,1.45,0,0,0-1.14-.39,1.84,1.84,0,0,0-1.71,1v6h-1.9V170Z"/><path class="cls-6" d="M302.79,176.15a.87.87,0,0,0-.42-.78,4.77,4.77,0,0,0-1.39-.47,6.79,6.79,0,0,1-1.61-.51,2.15,2.15,0,0,1-1.42-2,2.24,2.24,0,0,1,.92-1.83,3.62,3.62,0,0,1,2.34-.74,3.79,3.79,0,0,1,2.45.75,2.39,2.39,0,0,1,.93,1.95H302.7a1.18,1.18,0,0,0-.41-.91,1.57,1.57,0,0,0-1.08-.36,1.69,1.69,0,0,0-1,.28.94.94,0,0,0-.39.78.77.77,0,0,0,.36.68,5.33,5.33,0,0,0,1.49.49,7.12,7.12,0,0,1,1.75.58,2.51,2.51,0,0,1,1,.82,2.12,2.12,0,0,1,.31,1.15,2.2,2.2,0,0,1-1,1.85,4.05,4.05,0,0,1-2.48.71,4.37,4.37,0,0,1-1.85-.38,3,3,0,0,1-1.26-1,2.38,2.38,0,0,1-.46-1.41h1.85a1.28,1.28,0,0,0,.51,1,2.32,2.32,0,0,0,2.38.08A.88.88,0,0,0,302.79,176.15Z"/></g><g class="cls-5"><path class="cls-6" d="M41.48,196.81a3,3,0,0,1-2.38,1A2.6,2.6,0,0,1,37,197a3.41,3.41,0,0,1-.71-2.32v-5.48h1.9v5.45c0,1.08.45,1.61,1.34,1.61a1.87,1.87,0,0,0,1.86-1v-6.07h1.9v8.45H41.52Z"/><path class="cls-6" d="M47,189.19l.05,1A3,3,0,0,1,49.52,189c1.76,0,2.66,1,2.69,3v5.58h-1.9v-5.47A1.72,1.72,0,0,0,50,191a1.48,1.48,0,0,0-1.13-.38,1.81,1.81,0,0,0-1.71,1v6h-1.9v-8.45Z"/><path class="cls-6" d="M56.52,187.13v2.06H58v1.41h-1.5v4.71a1.07,1.07,0,0,0,.19.7.88.88,0,0,0,.69.22,3,3,0,0,0,.66-.08v1.47a4.66,4.66,0,0,1-1.25.18c-1.46,0-2.19-.81-2.19-2.42V190.6H53.23v-1.41h1.39v-2.06Z"/><path class="cls-6" d="M59.47,187a1,1,0,0,1,.28-.72,1,1,0,0,1,.79-.29,1.09,1.09,0,0,1,.8.29,1.07,1.07,0,0,1,0,1.44,1.08,1.08,0,0,1-.8.28,1,1,0,0,1-.79-.28A1,1,0,0,1,59.47,187Zm2,10.65H59.59v-8.45h1.89Z"/><path class="cls-6" d="M65.57,197.64h-1.9v-12h1.9Z"/><path class="cls-6" d="M74.58,194.92l1.72-5.73h2L75,198.92a2.72,2.72,0,0,1-2.62,2.14,3.55,3.55,0,0,1-.92-.14v-1.48l.36,0a1.79,1.79,0,0,0,1.08-.26,1.68,1.68,0,0,0,.58-.88l.27-.72-3-8.41h2.05Z"/><path class="cls-6" d="M78.94,193.34a5,5,0,0,1,.49-2.24,3.61,3.61,0,0,1,1.38-1.53,3.9,3.9,0,0,1,2-.54,3.71,3.71,0,0,1,2.78,1.1,4.37,4.37,0,0,1,1.15,2.93v.44a5.08,5.08,0,0,1-.48,2.24,3.57,3.57,0,0,1-1.38,1.52,3.91,3.91,0,0,1-2.06.54A3.69,3.69,0,0,1,80,196.61a4.62,4.62,0,0,1-1.07-3.18Zm1.9.16a3.39,3.39,0,0,0,.54,2,1.87,1.87,0,0,0,3,0,3.73,3.73,0,0,0,.54-2.19,3.4,3.4,0,0,0-.55-2,1.87,1.87,0,0,0-3,0A3.75,3.75,0,0,0,80.84,193.5Z"/><path class="cls-6" d="M93.52,196.81a2.92,2.92,0,0,1-2.37,1,2.6,2.6,0,0,1-2.08-.81,3.36,3.36,0,0,1-.71-2.32v-5.48h1.9v5.45c0,1.08.44,1.61,1.33,1.61a1.87,1.87,0,0,0,1.87-1v-6.07h1.9v8.45H93.57Z"/><path class="cls-6" d="M105.7,190.92a4.81,4.81,0,0,0-.77-.06,1.74,1.74,0,0,0-1.76,1v5.78h-1.9v-8.45h1.82l0,.94A2.16,2.16,0,0,1,105,189a1.84,1.84,0,0,1,.67.11Z"/><path class="cls-6" d="M110.48,197.8a3.92,3.92,0,0,1-2.93-1.14,4.11,4.11,0,0,1-1.12-3v-.23a5,5,0,0,1,.49-2.26,3.66,3.66,0,0,1,3.34-2.11,3.34,3.34,0,0,1,2.67,1.1,4.72,4.72,0,0,1,.94,3.12V194h-5.53a2.51,2.51,0,0,0,.7,1.65,2.1,2.1,0,0,0,1.55.61,2.57,2.57,0,0,0,2.12-1.05l1,1a3.42,3.42,0,0,1-1.35,1.17A4.24,4.24,0,0,1,110.48,197.8Zm-.23-7.24a1.61,1.61,0,0,0-1.26.54,2.81,2.81,0,0,0-.61,1.53H112v-.14a2.31,2.31,0,0,0-.51-1.45A1.58,1.58,0,0,0,110.25,190.56Z"/><path class="cls-6" d="M120.39,197.64a2.88,2.88,0,0,1-.22-.79,3.17,3.17,0,0,1-4.29.22,2.3,2.3,0,0,1-.81-1.79,2.39,2.39,0,0,1,1-2.08,4.9,4.9,0,0,1,2.88-.72h1.16v-.56a1.48,1.48,0,0,0-.37-1,1.47,1.47,0,0,0-1.12-.39,1.71,1.71,0,0,0-1.06.32,1,1,0,0,0-.41.83h-1.9a2.07,2.07,0,0,1,.46-1.3,3.09,3.09,0,0,1,1.25-1,4.4,4.4,0,0,1,1.77-.35,3.54,3.54,0,0,1,2.37.75,2.68,2.68,0,0,1,.91,2.1v3.81a4.21,4.21,0,0,0,.32,1.82v.13Zm-2.09-1.36a2.18,2.18,0,0,0,1.06-.28,1.82,1.82,0,0,0,.75-.73v-1.6h-1a2.83,2.83,0,0,0-1.59.37,1.2,1.2,0,0,0-.53,1,1.11,1.11,0,0,0,.36.87A1.39,1.39,0,0,0,118.3,196.28Z"/><path class="cls-6" d="M127.47,196.28a1.7,1.7,0,0,0,1.18-.41,1.43,1.43,0,0,0,.5-1h1.79a2.86,2.86,0,0,1-.49,1.47,3.38,3.38,0,0,1-1.25,1.08,3.71,3.71,0,0,1-1.71.4,3.58,3.58,0,0,1-2.81-1.15,4.57,4.57,0,0,1-1-3.17v-.2a4.49,4.49,0,0,1,1-3.09,3.59,3.59,0,0,1,2.81-1.16,3.49,3.49,0,0,1,2.46.88,3.17,3.17,0,0,1,1,2.31h-1.79a1.73,1.73,0,0,0-.5-1.19,1.56,1.56,0,0,0-1.18-.47,1.66,1.66,0,0,0-1.42.66,3.36,3.36,0,0,0-.51,2v.31a3.41,3.41,0,0,0,.5,2.05A1.65,1.65,0,0,0,127.47,196.28Z"/><path class="cls-6" d="M134.24,190.11a3,3,0,0,1,2.35-1.08c1.81,0,2.72,1,2.75,3.09v5.52h-1.9v-5.45a1.69,1.69,0,0,0-.38-1.24,1.56,1.56,0,0,0-1.11-.36,1.84,1.84,0,0,0-1.71,1v6h-1.9v-12h1.9Z"/><path class="cls-6" d="M144.88,193.35a5,5,0,0,1,.91-3.13,2.9,2.9,0,0,1,2.43-1.19,2.78,2.78,0,0,1,2.17.94v-4.33h1.9v12h-1.72l-.09-.87a2.8,2.8,0,0,1-2.28,1,2.88,2.88,0,0,1-2.4-1.2A5.21,5.21,0,0,1,144.88,193.35Zm1.9.17a3.51,3.51,0,0,0,.5,2,1.61,1.61,0,0,0,1.41.72,1.78,1.78,0,0,0,1.7-1V191.6a1.77,1.77,0,0,0-1.69-1,1.61,1.61,0,0,0-1.42.73A4,4,0,0,0,146.78,193.52Z"/><path class="cls-6" d="M158,197.8a3.9,3.9,0,0,1-2.92-1.14,4.11,4.11,0,0,1-1.12-3v-.23a5.14,5.14,0,0,1,.48-2.26,3.77,3.77,0,0,1,1.37-1.55,3.64,3.64,0,0,1,2-.56,3.34,3.34,0,0,1,2.67,1.1,4.67,4.67,0,0,1,.94,3.12V194h-5.52a2.51,2.51,0,0,0,.7,1.65,2.08,2.08,0,0,0,1.54.61,2.59,2.59,0,0,0,2.13-1.05l1,1a3.45,3.45,0,0,1-1.36,1.17A4.18,4.18,0,0,1,158,197.8Zm-.22-7.24a1.61,1.61,0,0,0-1.27.54,2.89,2.89,0,0,0-.61,1.53h3.62v-.14A2.31,2.31,0,0,0,159,191,1.6,1.6,0,0,0,157.77,190.56Z"/><path class="cls-6" d="M162.5,193.35a5,5,0,0,1,.91-3.13,2.9,2.9,0,0,1,2.43-1.19A2.78,2.78,0,0,1,168,190v-4.33h1.9v12h-1.72l-.1-.87a2.77,2.77,0,0,1-2.27,1,2.88,2.88,0,0,1-2.4-1.2A5.21,5.21,0,0,1,162.5,193.35Zm1.9.17a3.51,3.51,0,0,0,.49,2,1.63,1.63,0,0,0,1.41.72,1.79,1.79,0,0,0,1.71-1V191.6a1.77,1.77,0,0,0-1.69-1,1.61,1.61,0,0,0-1.42.73A3.87,3.87,0,0,0,164.4,193.52Z"/><path class="cls-6" d="M177,196.81a3,3,0,0,1-2.38,1,2.62,2.62,0,0,1-2.08-.81,3.41,3.41,0,0,1-.71-2.32v-5.48h1.9v5.45c0,1.08.45,1.61,1.34,1.61a1.89,1.89,0,0,0,1.87-1v-6.07h1.89v8.45h-1.79Z"/><path class="cls-6" d="M184.25,196.28a1.7,1.7,0,0,0,1.18-.41,1.43,1.43,0,0,0,.5-1h1.79a2.86,2.86,0,0,1-.49,1.47A3.38,3.38,0,0,1,186,197.4a3.71,3.71,0,0,1-1.71.4,3.58,3.58,0,0,1-2.81-1.15,4.57,4.57,0,0,1-1-3.17v-.2a4.54,4.54,0,0,1,1-3.09,3.6,3.6,0,0,1,2.82-1.16,3.49,3.49,0,0,1,2.45.88,3.13,3.13,0,0,1,1,2.31h-1.79a1.73,1.73,0,0,0-.5-1.19,1.56,1.56,0,0,0-1.18-.47,1.68,1.68,0,0,0-1.42.66,3.43,3.43,0,0,0-.51,2v.31a3.48,3.48,0,0,0,.5,2.05A1.65,1.65,0,0,0,184.25,196.28Z"/><path class="cls-6" d="M191.53,187.13v2.06H193v1.41h-1.49v4.71a1,1,0,0,0,.19.7.88.88,0,0,0,.69.22,3.05,3.05,0,0,0,.66-.08v1.47a4.66,4.66,0,0,1-1.25.18c-1.46,0-2.19-.81-2.19-2.42V190.6h-1.39v-1.41h1.39v-2.06Z"/><path class="cls-6" d="M194.48,187a1,1,0,0,1,.27-.72,1.07,1.07,0,0,1,.8-.29,1,1,0,0,1,.79.29,1.07,1.07,0,0,1,0,1.44,1,1,0,0,1-.79.28,1.07,1.07,0,0,1-.8-.28A1,1,0,0,1,194.48,187Zm2,10.65h-1.9v-8.45h1.9Z"/><path class="cls-6" d="M206,193.5a5.1,5.1,0,0,1-.88,3.13,2.86,2.86,0,0,1-2.42,1.17,2.76,2.76,0,0,1-2.31-1.07l-.1.91h-1.72v-12h1.9V190a2.78,2.78,0,0,1,2.21-1,2.9,2.9,0,0,1,2.43,1.15,5.17,5.17,0,0,1,.89,3.21Zm-1.9-.16a3.5,3.5,0,0,0-.49-2.06,1.6,1.6,0,0,0-1.4-.69,1.77,1.77,0,0,0-1.74,1.08v3.48a1.79,1.79,0,0,0,1.75,1.1,1.61,1.61,0,0,0,1.38-.66,3.49,3.49,0,0,0,.5-2Z"/><path class="cls-6" d="M209.59,197.64h-1.9v-12h1.9Z"/><path class="cls-6" d="M215.38,197.8a3.92,3.92,0,0,1-2.93-1.14,4.11,4.11,0,0,1-1.12-3v-.23a5,5,0,0,1,.49-2.26,3.66,3.66,0,0,1,3.34-2.11,3.3,3.3,0,0,1,2.66,1.1,4.67,4.67,0,0,1,1,3.12V194h-5.53a2.51,2.51,0,0,0,.7,1.65,2.08,2.08,0,0,0,1.54.61,2.59,2.59,0,0,0,2.13-1.05l1,1a3.49,3.49,0,0,1-1.35,1.17A4.24,4.24,0,0,1,215.38,197.8Zm-.23-7.24a1.61,1.61,0,0,0-1.26.54,2.9,2.9,0,0,0-.62,1.53h3.62v-.14a2.31,2.31,0,0,0-.51-1.45A1.59,1.59,0,0,0,215.15,190.56Z"/></g></g><g id="Group_1729" data-name="Group 1729"><g id="Group_1728" data-name="Group 1728"><g id="WE_BOTH_PAY" data-name="WE BOTH PAY" class="cls-5"><g class="cls-5"><path class="cls-6" d="M364.13,148.1l.88,4.41,1.08-4.22,6.17-21h2.17l6.09,21,1.05,4.26.94-4.45,5.14-20.77h2.46l-7.29,28.44h-2.3l-6.45-22.24-.72-2.82-.7,2.82-6.6,22.24h-2.31l-7.26-28.44h2.46Z"/><path class="cls-6" d="M410.44,142.14h-13.3v11.6h15.29v2H394.74V127.33h17.6v2h-15.2v10.74h13.3Z"/><path class="cls-6" d="M427.22,155.77V127.33h8.4c3,0,5.36.63,6.93,1.89a6.68,6.68,0,0,1,2.36,5.56,6.31,6.31,0,0,1-1.2,3.84,6.57,6.57,0,0,1-3.29,2.34,6.77,6.77,0,0,1,4,2.44,6.84,6.84,0,0,1,1.51,4.37,7.38,7.38,0,0,1-2.43,5.88,9.93,9.93,0,0,1-6.77,2.12Zm2.4-15.68h6.56a7.35,7.35,0,0,0,4.66-1.42,4.85,4.85,0,0,0,1.65-4,4.74,4.74,0,0,0-1.71-4,8.45,8.45,0,0,0-5.16-1.3h-6Zm0,2v11.62h7.21a7.17,7.17,0,0,0,4.89-1.57,5.49,5.49,0,0,0,1.81-4.36,5.29,5.29,0,0,0-1.73-4.16,7,7,0,0,0-4.78-1.53Z"/><path class="cls-6" d="M472.75,143.1a16.51,16.51,0,0,1-1.36,6.89,10.4,10.4,0,0,1-3.88,4.57,10.6,10.6,0,0,1-5.82,1.6,10.13,10.13,0,0,1-8.05-3.56q-3.06-3.57-3.06-9.62v-2.93a16.33,16.33,0,0,1,1.38-6.89,10.25,10.25,0,0,1,9.69-6.22,10.57,10.57,0,0,1,5.79,1.59,10.3,10.3,0,0,1,3.88,4.47,16.15,16.15,0,0,1,1.43,6.7ZM470.34,140c0-3.42-.77-6.11-2.32-8a8.36,8.36,0,0,0-12.69,0q-2.35,2.92-2.35,8.16v3a12.56,12.56,0,0,0,2.34,8,8.37,8.37,0,0,0,12.74,0c1.52-1.94,2.28-4.66,2.28-8.13Z"/><path class="cls-6" d="M497.57,129.37h-9.75v26.4h-2.4v-26.4H475.7v-2h21.87Z"/><path class="cls-6" d="M523.23,155.77h-2.42V142.14H504.56v13.63h-2.4V127.33h2.4v12.78h16.25V127.33h2.42Z"/><path class="cls-6" d="M542.59,144.19v11.58h-2.4V127.33h9.69a10.23,10.23,0,0,1,7,2.27,7.89,7.89,0,0,1,2.57,6.23A7.79,7.79,0,0,1,557,142c-1.64,1.45-4,2.18-7.15,2.18Zm0-2h7.29a7.73,7.73,0,0,0,5.33-1.66,6,6,0,0,0,1.83-4.64,6.21,6.21,0,0,0-1.82-4.7,7.3,7.3,0,0,0-5.19-1.79h-7.44Z"/><path class="cls-6" d="M577.47,147.78H564.56l-2.93,8h-2.52l10.77-28.44h2.28l10.76,28.44h-2.5Zm-12.17-2h11.41L571,130.26Z"/><path class="cls-6" d="M593.61,142.84l8.69-15.51h2.77L594.8,145.07v10.7h-2.41v-10.7l-10.25-17.74H585Z"/></g></g></g></g><g id="coinsurance_for_covered_services" data-name="coinsurance for covered services" class="cls-5"><g class="cls-5"><path class="cls-6" d="M358.85,177.08a1.68,1.68,0,0,0,1.18-.41,1.43,1.43,0,0,0,.5-1h1.79a2.78,2.78,0,0,1-.49,1.47,3.21,3.21,0,0,1-1.25,1.08,3.67,3.67,0,0,1-1.7.4,3.61,3.61,0,0,1-2.82-1.15,4.55,4.55,0,0,1-1-3.17v-.2a4.49,4.49,0,0,1,1-3.09,3.93,3.93,0,0,1,5.27-.28,3.16,3.16,0,0,1,1,2.31h-1.79a1.72,1.72,0,0,0-.49-1.19,1.58,1.58,0,0,0-1.19-.47,1.66,1.66,0,0,0-1.42.67,3.44,3.44,0,0,0-.51,2v.31a3.48,3.48,0,0,0,.5,2A1.66,1.66,0,0,0,358.85,177.08Z"/><path class="cls-6" d="M363.4,174.14a5,5,0,0,1,.49-2.24,3.66,3.66,0,0,1,1.38-1.53,3.9,3.9,0,0,1,2.05-.54,3.68,3.68,0,0,1,2.78,1.11,4.32,4.32,0,0,1,1.15,2.92v.44a5,5,0,0,1-.48,2.24,3.57,3.57,0,0,1-1.38,1.52,3.88,3.88,0,0,1-2.06.54,3.69,3.69,0,0,1-2.87-1.19,4.6,4.6,0,0,1-1.07-3.18Zm1.9.16a3.44,3.44,0,0,0,.54,2,1.75,1.75,0,0,0,1.5.73,1.72,1.72,0,0,0,1.49-.75,3.73,3.73,0,0,0,.54-2.19,3.4,3.4,0,0,0-.55-2,1.77,1.77,0,0,0-1.5-.75,1.74,1.74,0,0,0-1.48.74A3.7,3.7,0,0,0,365.3,174.3Z"/><path class="cls-6" d="M372.87,167.79a1,1,0,0,1,.28-.72,1,1,0,0,1,.79-.29,1.09,1.09,0,0,1,.8.29,1.07,1.07,0,0,1,0,1.44,1.08,1.08,0,0,1-.8.28,1,1,0,0,1-.79-.28A1,1,0,0,1,372.87,167.79Zm2,10.65H373V170h1.89Z"/><path class="cls-6" d="M378.71,170l.06,1a3,3,0,0,1,2.46-1.14c1.76,0,2.65,1,2.69,3v5.58H382V173a1.73,1.73,0,0,0-.35-1.19,1.45,1.45,0,0,0-1.14-.39,1.84,1.84,0,0,0-1.71,1v6h-1.9V170Z"/><path class="cls-6" d="M390.59,176.15a.87.87,0,0,0-.42-.78,4.77,4.77,0,0,0-1.39-.47,6.79,6.79,0,0,1-1.61-.51,2.16,2.16,0,0,1-1.43-2,2.25,2.25,0,0,1,.93-1.83,3.62,3.62,0,0,1,2.34-.74,3.81,3.81,0,0,1,2.45.75,2.39,2.39,0,0,1,.93,1.95h-1.9a1.17,1.17,0,0,0-.4-.91,1.57,1.57,0,0,0-1.08-.36,1.69,1.69,0,0,0-1,.28,1,1,0,0,0-.4.78.78.78,0,0,0,.37.68,5.33,5.33,0,0,0,1.49.49,7.12,7.12,0,0,1,1.75.58,2.59,2.59,0,0,1,.95.82,2.12,2.12,0,0,1,.3,1.15,2.19,2.19,0,0,1-.94,1.85,4.05,4.05,0,0,1-2.48.71,4.37,4.37,0,0,1-1.85-.38,3,3,0,0,1-1.26-1,2.38,2.38,0,0,1-.46-1.41h1.85a1.3,1.3,0,0,0,.5,1,2,2,0,0,0,1.25.37,1.92,1.92,0,0,0,1.14-.29A.88.88,0,0,0,390.59,176.15Z"/><path class="cls-6" d="M399.23,177.62a3,3,0,0,1-2.38,1,2.62,2.62,0,0,1-2.08-.81,3.41,3.41,0,0,1-.71-2.32V170H396v5.45c0,1.08.45,1.61,1.34,1.61a1.89,1.89,0,0,0,1.87-1V170h1.89v8.45h-1.79Z"/><path class="cls-6" d="M407.42,171.72a4.81,4.81,0,0,0-.77-.06,1.75,1.75,0,0,0-1.76,1v5.78H403V170h1.82l0,.95a2.15,2.15,0,0,1,1.91-1.11,1.84,1.84,0,0,1,.67.11Z"/><path class="cls-6" d="M413.44,178.44a2.56,2.56,0,0,1-.22-.79,3.19,3.19,0,0,1-4.3.22,2.33,2.33,0,0,1-.8-1.79,2.39,2.39,0,0,1,1-2.08,4.89,4.89,0,0,1,2.87-.72h1.17v-.56a1.53,1.53,0,0,0-.37-1.05,1.48,1.48,0,0,0-1.12-.39,1.71,1.71,0,0,0-1.06.32,1,1,0,0,0-.41.83h-1.9a2.07,2.07,0,0,1,.46-1.3,3,3,0,0,1,1.25-.95,4.4,4.4,0,0,1,1.77-.35,3.54,3.54,0,0,1,2.37.75,2.68,2.68,0,0,1,.91,2.1v3.81a4.21,4.21,0,0,0,.32,1.82v.13Zm-2.09-1.36a2.08,2.08,0,0,0,1.06-.28,1.82,1.82,0,0,0,.75-.73v-1.6h-1a2.81,2.81,0,0,0-1.58.37,1.18,1.18,0,0,0-.53,1,1.1,1.1,0,0,0,.36.87A1.39,1.39,0,0,0,411.35,177.08Z"/><path class="cls-6" d="M418.81,170l.05,1a3,3,0,0,1,2.46-1.14c1.76,0,2.66,1,2.69,3v5.58h-1.9V173a1.73,1.73,0,0,0-.35-1.19,1.45,1.45,0,0,0-1.13-.39,1.82,1.82,0,0,0-1.71,1v6H417V170Z"/><path class="cls-6" d="M429.42,177.08a1.67,1.67,0,0,0,1.17-.41,1.4,1.4,0,0,0,.5-1h1.79a2.78,2.78,0,0,1-.49,1.47,3.14,3.14,0,0,1-1.25,1.08,3.64,3.64,0,0,1-1.7.4,3.58,3.58,0,0,1-2.81-1.15,4.5,4.5,0,0,1-1-3.17v-.2a4.49,4.49,0,0,1,1-3.09,3.58,3.58,0,0,1,2.81-1.16,3.51,3.51,0,0,1,2.46.88,3.16,3.16,0,0,1,1,2.31h-1.79a1.72,1.72,0,0,0-.49-1.19,1.57,1.57,0,0,0-1.18-.47A1.68,1.68,0,0,0,428,172a3.38,3.38,0,0,0-.5,2v.31a3.48,3.48,0,0,0,.49,2A1.67,1.67,0,0,0,429.42,177.08Z"/><path class="cls-6" d="M438,178.6a3.94,3.94,0,0,1-2.93-1.14,4.12,4.12,0,0,1-1.12-3v-.24a5.14,5.14,0,0,1,.49-2.26,3.76,3.76,0,0,1,1.37-1.55,3.64,3.64,0,0,1,2-.56,3.31,3.31,0,0,1,2.67,1.11,4.62,4.62,0,0,1,.94,3.11v.77h-5.52a2.46,2.46,0,0,0,.7,1.65,2.06,2.06,0,0,0,1.54.61,2.56,2.56,0,0,0,2.12-1.05l1,1a3.45,3.45,0,0,1-1.36,1.17A4.21,4.21,0,0,1,438,178.6Zm-.23-7.24a1.61,1.61,0,0,0-1.26.54,2.89,2.89,0,0,0-.61,1.53h3.62v-.14a2.37,2.37,0,0,0-.51-1.44A1.58,1.58,0,0,0,437.81,171.36Z"/><path class="cls-6" d="M447.56,178.44v-7h-1.29V170h1.29v-.77a2.94,2.94,0,0,1,.78-2.18,3,3,0,0,1,2.18-.76,4.63,4.63,0,0,1,1.07.14l0,1.48a3.91,3.91,0,0,0-.73-.06,1.22,1.22,0,0,0-1.36,1.4V170h1.72v1.41h-1.72v7Z"/><path class="cls-6" d="M452.2,174.14a5,5,0,0,1,.5-2.24,3.6,3.6,0,0,1,1.38-1.53,3.85,3.85,0,0,1,2.05-.54,3.66,3.66,0,0,1,2.77,1.11,4.33,4.33,0,0,1,1.16,2.92v.44a5,5,0,0,1-.48,2.24,3.61,3.61,0,0,1-1.37,1.52,3.94,3.94,0,0,1-2.07.54,3.67,3.67,0,0,1-2.86-1.19,4.56,4.56,0,0,1-1.08-3.18Zm1.9.16a3.44,3.44,0,0,0,.54,2,1.89,1.89,0,0,0,3,0,3.81,3.81,0,0,0,.53-2.19,3.33,3.33,0,0,0-.55-2,1.75,1.75,0,0,0-1.49-.75,1.73,1.73,0,0,0-1.48.74A3.62,3.62,0,0,0,454.1,174.3Z"/><path class="cls-6" d="M466.09,171.72a4.81,4.81,0,0,0-.77-.06,1.76,1.76,0,0,0-1.76,1v5.78h-1.89V170h1.81l0,.95a2.15,2.15,0,0,1,1.91-1.11,1.84,1.84,0,0,1,.67.11Z"/><path class="cls-6" d="M474.75,177.08a1.7,1.7,0,0,0,1.18-.41,1.43,1.43,0,0,0,.5-1h1.79a2.86,2.86,0,0,1-.49,1.47,3.21,3.21,0,0,1-1.25,1.08,3.71,3.71,0,0,1-1.71.4,3.58,3.58,0,0,1-2.81-1.15,4.55,4.55,0,0,1-1-3.17v-.2a4.54,4.54,0,0,1,1-3.09,3.6,3.6,0,0,1,2.82-1.16,3.49,3.49,0,0,1,2.45.88,3.13,3.13,0,0,1,1,2.31h-1.79a1.73,1.73,0,0,0-.5-1.19,1.56,1.56,0,0,0-1.18-.47,1.66,1.66,0,0,0-1.42.67,3.44,3.44,0,0,0-.51,2v.31a3.48,3.48,0,0,0,.5,2A1.66,1.66,0,0,0,474.75,177.08Z"/><path class="cls-6" d="M479.3,174.14a5,5,0,0,1,.49-2.24,3.66,3.66,0,0,1,1.38-1.53,3.9,3.9,0,0,1,2.05-.54,3.68,3.68,0,0,1,2.78,1.11,4.32,4.32,0,0,1,1.15,2.92v.44a5,5,0,0,1-.48,2.24,3.57,3.57,0,0,1-1.38,1.52,3.88,3.88,0,0,1-2.06.54,3.69,3.69,0,0,1-2.87-1.19,4.6,4.6,0,0,1-1.07-3.18Zm1.9.16a3.44,3.44,0,0,0,.54,2,1.88,1.88,0,0,0,3,0,3.73,3.73,0,0,0,.54-2.19,3.4,3.4,0,0,0-.55-2,1.77,1.77,0,0,0-1.5-.75,1.74,1.74,0,0,0-1.48.74A3.7,3.7,0,0,0,481.2,174.3Z"/><path class="cls-6" d="M491.63,176l1.79-6h2l-2.93,8.45H490.8l-3-8.45h2Z"/><path class="cls-6" d="M500.18,178.6a3.94,3.94,0,0,1-2.93-1.14,4.12,4.12,0,0,1-1.12-3v-.24a5.14,5.14,0,0,1,.49-2.26,3.76,3.76,0,0,1,1.37-1.55,3.64,3.64,0,0,1,2-.56,3.31,3.31,0,0,1,2.67,1.11,4.62,4.62,0,0,1,.94,3.11v.77h-5.52a2.46,2.46,0,0,0,.7,1.65,2.08,2.08,0,0,0,1.54.61,2.59,2.59,0,0,0,2.13-1.05l1,1a3.45,3.45,0,0,1-1.36,1.17A4.21,4.21,0,0,1,500.18,178.6Zm-.23-7.24a1.61,1.61,0,0,0-1.26.54,2.89,2.89,0,0,0-.61,1.53h3.62v-.14a2.31,2.31,0,0,0-.51-1.44A1.58,1.58,0,0,0,500,171.36Z"/><path class="cls-6" d="M509.47,171.72a4.9,4.9,0,0,0-.77-.06,1.75,1.75,0,0,0-1.76,1v5.78H505V170h1.81l0,.95a2.14,2.14,0,0,1,1.91-1.11,1.84,1.84,0,0,1,.67.11Z"/><path class="cls-6" d="M514.24,178.6a3.9,3.9,0,0,1-2.92-1.14,4.08,4.08,0,0,1-1.12-3v-.24a5.14,5.14,0,0,1,.48-2.26,3.78,3.78,0,0,1,1.38-1.55,3.59,3.59,0,0,1,2-.56,3.31,3.31,0,0,1,2.67,1.11,4.62,4.62,0,0,1,.94,3.11v.77h-5.52a2.51,2.51,0,0,0,.7,1.65,2.08,2.08,0,0,0,1.54.61,2.59,2.59,0,0,0,2.13-1.05l1,1a3.49,3.49,0,0,1-1.35,1.17A4.25,4.25,0,0,1,514.24,178.6Zm-.22-7.24a1.64,1.64,0,0,0-1.27.54,2.89,2.89,0,0,0-.61,1.53h3.62v-.14a2.25,2.25,0,0,0-.51-1.44A1.58,1.58,0,0,0,514,171.36Z"/><path class="cls-6" d="M518.75,174.15a5,5,0,0,1,.91-3.13,2.9,2.9,0,0,1,2.43-1.19,2.78,2.78,0,0,1,2.17.94v-4.33h1.9v12h-1.72l-.1-.87a2.77,2.77,0,0,1-2.27,1,2.88,2.88,0,0,1-2.4-1.2A5.21,5.21,0,0,1,518.75,174.15Zm1.9.17a3.44,3.44,0,0,0,.5,2,1.61,1.61,0,0,0,1.41.72,1.78,1.78,0,0,0,1.7-1V172.4a1.77,1.77,0,0,0-1.69-1,1.61,1.61,0,0,0-1.42.73A4,4,0,0,0,520.65,174.32Z"/><path class="cls-6" d="M536.86,176.15a.87.87,0,0,0-.42-.78,4.79,4.79,0,0,0-1.38-.47,6.74,6.74,0,0,1-1.62-.51,2.15,2.15,0,0,1-1.42-2,2.24,2.24,0,0,1,.92-1.83,3.62,3.62,0,0,1,2.34-.74,3.79,3.79,0,0,1,2.45.75,2.4,2.4,0,0,1,.94,1.95h-1.9a1.18,1.18,0,0,0-.41-.91,1.57,1.57,0,0,0-1.08-.36,1.73,1.73,0,0,0-1,.28.94.94,0,0,0-.39.78.76.76,0,0,0,.37.68,5.11,5.11,0,0,0,1.48.49,7.12,7.12,0,0,1,1.75.58,2.51,2.51,0,0,1,.95.82,2.12,2.12,0,0,1,.31,1.15,2.2,2.2,0,0,1-1,1.85,4,4,0,0,1-2.47.71,4.41,4.41,0,0,1-1.86-.38,3,3,0,0,1-1.26-1,2.44,2.44,0,0,1-.45-1.41h1.84a1.28,1.28,0,0,0,.51,1,2.32,2.32,0,0,0,2.38.08A.88.88,0,0,0,536.86,176.15Z"/><path class="cls-6" d="M544.1,178.6a3.9,3.9,0,0,1-2.92-1.14,4.08,4.08,0,0,1-1.12-3v-.24a5.14,5.14,0,0,1,.48-2.26,3.78,3.78,0,0,1,1.38-1.55,3.59,3.59,0,0,1,2-.56,3.31,3.31,0,0,1,2.67,1.11,4.62,4.62,0,0,1,.94,3.11v.77H542a2.51,2.51,0,0,0,.7,1.65,2.08,2.08,0,0,0,1.54.61,2.59,2.59,0,0,0,2.13-1.05l1,1a3.45,3.45,0,0,1-1.36,1.17A4.18,4.18,0,0,1,544.1,178.6Zm-.22-7.24a1.61,1.61,0,0,0-1.27.54,2.89,2.89,0,0,0-.61,1.53h3.62v-.14a2.25,2.25,0,0,0-.51-1.44A1.58,1.58,0,0,0,543.88,171.36Z"/><path class="cls-6" d="M553.39,171.72a4.9,4.9,0,0,0-.77-.06,1.75,1.75,0,0,0-1.76,1v5.78H549V170h1.81l.05.95a2.15,2.15,0,0,1,1.91-1.11,1.84,1.84,0,0,1,.67.11Z"/><path class="cls-6" d="M557.71,176l1.79-6h2l-2.93,8.45h-1.65l-3-8.45h2Z"/><path class="cls-6" d="M562.65,167.79a1,1,0,0,1,.28-.72,1,1,0,0,1,.79-.29,1.09,1.09,0,0,1,.8.29,1.07,1.07,0,0,1,0,1.44,1.08,1.08,0,0,1-.8.28,1,1,0,0,1-.79-.28A1,1,0,0,1,562.65,167.79Zm2,10.65h-1.9V170h1.9Z"/><path class="cls-6" d="M570.2,177.08a1.68,1.68,0,0,0,1.18-.41,1.4,1.4,0,0,0,.5-1h1.79a2.78,2.78,0,0,1-.49,1.47,3.14,3.14,0,0,1-1.25,1.08,3.67,3.67,0,0,1-1.7.4,3.57,3.57,0,0,1-2.81-1.15,4.5,4.5,0,0,1-1-3.17v-.2a4.49,4.49,0,0,1,1-3.09,3.93,3.93,0,0,1,5.27-.28,3.16,3.16,0,0,1,1,2.31h-1.79a1.72,1.72,0,0,0-.49-1.19,1.58,1.58,0,0,0-1.19-.47,1.67,1.67,0,0,0-1.42.67,3.44,3.44,0,0,0-.51,2v.31a3.48,3.48,0,0,0,.5,2A1.66,1.66,0,0,0,570.2,177.08Z"/><path class="cls-6" d="M578.83,178.6a3.94,3.94,0,0,1-2.93-1.14,4.12,4.12,0,0,1-1.12-3v-.24a5,5,0,0,1,.49-2.26,3.76,3.76,0,0,1,1.37-1.55,3.64,3.64,0,0,1,2-.56,3.31,3.31,0,0,1,2.67,1.11,4.62,4.62,0,0,1,.94,3.11v.77H576.7a2.46,2.46,0,0,0,.7,1.65,2.06,2.06,0,0,0,1.54.61,2.56,2.56,0,0,0,2.12-1.05l1,1a3.45,3.45,0,0,1-1.36,1.17A4.21,4.21,0,0,1,578.83,178.6Zm-.23-7.24a1.61,1.61,0,0,0-1.26.54,2.89,2.89,0,0,0-.61,1.53h3.61v-.14a2.31,2.31,0,0,0-.5-1.44A1.58,1.58,0,0,0,578.6,171.36Z"/><path class="cls-6" d="M588.43,176.15a.87.87,0,0,0-.42-.78,4.79,4.79,0,0,0-1.38-.47,6.74,6.74,0,0,1-1.62-.51,2.15,2.15,0,0,1-1.42-2,2.24,2.24,0,0,1,.92-1.83,3.62,3.62,0,0,1,2.34-.74,3.79,3.79,0,0,1,2.45.75,2.4,2.4,0,0,1,.94,1.95h-1.9a1.18,1.18,0,0,0-.41-.91,1.57,1.57,0,0,0-1.08-.36,1.73,1.73,0,0,0-1,.28.94.94,0,0,0-.39.78.76.76,0,0,0,.37.68,5.11,5.11,0,0,0,1.48.49,7.12,7.12,0,0,1,1.75.58,2.51,2.51,0,0,1,1,.82,2.12,2.12,0,0,1,.31,1.15,2.2,2.2,0,0,1-.95,1.85,4,4,0,0,1-2.47.71,4.41,4.41,0,0,1-1.86-.38,3,3,0,0,1-1.26-1,2.44,2.44,0,0,1-.45-1.41h1.84a1.28,1.28,0,0,0,.51,1,2.32,2.32,0,0,0,2.38.08A.88.88,0,0,0,588.43,176.15Z"/></g></g><g id="Group_1731" data-name="Group 1731"><g id="Group_1730" data-name="Group 1730"><g id="WE_PAY-2" data-name="WE PAY-2" class="cls-5"><g class="cls-5"><path class="cls-6" d="M709.22,148.1l.88,4.41,1.07-4.22,6.17-21h2.17l6.1,21,1,4.26.94-4.45,5.13-20.77h2.47l-7.29,28.44h-2.3l-6.45-22.24-.72-2.82-.71,2.82-6.6,22.24h-2.3l-7.27-28.44H704Z"/><path class="cls-6" d="M755.53,142.14h-13.3v11.6h15.29v2h-17.7V127.33h17.6v2H742.23v10.74h13.3Z"/><path class="cls-6" d="M774.71,144.19v11.58H772.3V127.33H782a10.2,10.2,0,0,1,7,2.27,8.9,8.9,0,0,1,.1,12.41c-1.65,1.45-4,2.18-7.16,2.18Zm0-2H782a7.72,7.72,0,0,0,5.33-1.66,5.93,5.93,0,0,0,1.84-4.64,6.18,6.18,0,0,0-1.83-4.7,7.26,7.26,0,0,0-5.18-1.79h-7.44Z"/><path class="cls-6" d="M809.59,147.78H796.68l-2.93,8h-2.52L802,127.33h2.29L815,155.77h-2.5Zm-12.17-2h11.41l-5.71-15.49Z"/><path class="cls-6" d="M825.72,142.84l8.69-15.51h2.78l-10.28,17.74v10.7h-2.4v-10.7l-10.25-17.74h2.85Z"/></g></g></g></g><g id="_100_covered_services" data-name=" 100 covered services" class="cls-5"><g class="cls-5"><path class="cls-6" d="M705.48,178.44h-1.89V169.3l-2.79,1v-1.6l4.44-1.63h.24Z"/><path class="cls-6" d="M716.85,173.65a6.21,6.21,0,0,1-.92,3.7,3.24,3.24,0,0,1-2.79,1.25,3.3,3.3,0,0,1-2.78-1.22,5.87,5.87,0,0,1-1-3.59v-2a6.12,6.12,0,0,1,.91-3.68,3.82,3.82,0,0,1,5.59,0,5.89,5.89,0,0,1,.94,3.58Zm-1.9-2.12a4.86,4.86,0,0,0-.43-2.35,1.5,1.5,0,0,0-1.4-.74,1.48,1.48,0,0,0-1.36.7,4.42,4.42,0,0,0-.46,2.21v2.58a5,5,0,0,0,.44,2.37,1.5,1.5,0,0,0,1.4.78,1.47,1.47,0,0,0,1.35-.72,4.58,4.58,0,0,0,.46-2.26Z"/><path class="cls-6" d="M726,173.65a6.21,6.21,0,0,1-.92,3.7,3.76,3.76,0,0,1-5.57,0,5.87,5.87,0,0,1-1-3.59v-2a6.12,6.12,0,0,1,.92-3.68,3.81,3.81,0,0,1,5.58,0,5.88,5.88,0,0,1,1,3.58Zm-1.9-2.12a4.84,4.84,0,0,0-.44-2.35,1.68,1.68,0,0,0-2.76,0,4.53,4.53,0,0,0-.46,2.21v2.58a4.88,4.88,0,0,0,.45,2.37,1.64,1.64,0,0,0,2.75.06,4.69,4.69,0,0,0,.46-2.26Z"/><path class="cls-6" d="M727.55,169.26a2.31,2.31,0,0,1,.66-1.7,2.35,2.35,0,0,1,1.74-.66,2.38,2.38,0,0,1,1.76.66,2.34,2.34,0,0,1,.66,1.73v.57a2.28,2.28,0,0,1-.66,1.68,2.39,2.39,0,0,1-1.74.65,2.44,2.44,0,0,1-1.74-.64,2.26,2.26,0,0,1-.68-1.74Zm1.33.59a1.22,1.22,0,0,0,.3.88,1.1,1.1,0,0,0,1.57,0,1.31,1.31,0,0,0,.3-.91v-.57a1.29,1.29,0,0,0-.3-.88,1,1,0,0,0-.8-.33,1,1,0,0,0-.78.34,1.29,1.29,0,0,0-.29.89Zm1.48,7.74-1-.56,5.56-8.89,1,.56Zm2.66-1.94a2.21,2.21,0,0,1,.68-1.69,2.64,2.64,0,0,1,3.47,0,2.3,2.3,0,0,1,.67,1.75v.55a2.27,2.27,0,0,1-.65,1.68,2.34,2.34,0,0,1-1.74.66,2.46,2.46,0,0,1-1.77-.65,2.33,2.33,0,0,1-.66-1.73Zm1.32.61a1.28,1.28,0,0,0,.31.87,1.06,1.06,0,0,0,.8.34,1,1,0,0,0,.78-.33,1.32,1.32,0,0,0,.29-.91v-.58a1.26,1.26,0,0,0-.31-.88,1,1,0,0,0-.78-.33,1,1,0,0,0-.79.33,1.3,1.3,0,0,0-.3.91Z"/><path class="cls-6" d="M747,177.08a1.68,1.68,0,0,0,1.18-.41,1.4,1.4,0,0,0,.5-1h1.79a2.78,2.78,0,0,1-.49,1.47,3.14,3.14,0,0,1-1.25,1.08,3.67,3.67,0,0,1-1.7.4,3.61,3.61,0,0,1-2.82-1.15,4.55,4.55,0,0,1-1-3.17v-.2a4.49,4.49,0,0,1,1-3.09,3.93,3.93,0,0,1,5.27-.28,3.16,3.16,0,0,1,1,2.31h-1.79a1.72,1.72,0,0,0-.49-1.19,1.58,1.58,0,0,0-1.19-.47,1.66,1.66,0,0,0-1.42.67,3.44,3.44,0,0,0-.51,2v.31a3.48,3.48,0,0,0,.5,2A1.66,1.66,0,0,0,747,177.08Z"/><path class="cls-6" d="M751.5,174.14a5,5,0,0,1,.49-2.24,3.62,3.62,0,0,1,1.39-1.53,3.84,3.84,0,0,1,2-.54,3.68,3.68,0,0,1,2.78,1.11,4.32,4.32,0,0,1,1.15,2.92v.44a5,5,0,0,1-.48,2.24,3.57,3.57,0,0,1-1.38,1.52,3.88,3.88,0,0,1-2.06.54,3.69,3.69,0,0,1-2.87-1.19,4.6,4.6,0,0,1-1.07-3.18Zm1.9.16a3.44,3.44,0,0,0,.54,2,1.75,1.75,0,0,0,1.5.73,1.72,1.72,0,0,0,1.49-.75,3.73,3.73,0,0,0,.54-2.19,3.33,3.33,0,0,0-.55-2,1.77,1.77,0,0,0-1.5-.75,1.71,1.71,0,0,0-1.47.74A3.62,3.62,0,0,0,753.4,174.3Z"/><path class="cls-6" d="M763.83,176l1.79-6h2l-2.93,8.45H763l-3-8.45h2Z"/><path class="cls-6" d="M772.38,178.6a3.9,3.9,0,0,1-2.92-1.14,4.08,4.08,0,0,1-1.12-3v-.24a5.14,5.14,0,0,1,.48-2.26,3.78,3.78,0,0,1,1.38-1.55,3.59,3.59,0,0,1,2-.56,3.31,3.31,0,0,1,2.67,1.11,4.62,4.62,0,0,1,.94,3.11v.77h-5.52a2.51,2.51,0,0,0,.7,1.65,2.08,2.08,0,0,0,1.54.61,2.59,2.59,0,0,0,2.13-1.05l1,1a3.49,3.49,0,0,1-1.35,1.17A4.25,4.25,0,0,1,772.38,178.6Zm-.22-7.24a1.61,1.61,0,0,0-1.27.54,2.89,2.89,0,0,0-.61,1.53h3.62v-.14a2.25,2.25,0,0,0-.51-1.44A1.58,1.58,0,0,0,772.16,171.36Z"/><path class="cls-6" d="M781.67,171.72a4.9,4.9,0,0,0-.77-.06,1.75,1.75,0,0,0-1.76,1v5.78h-1.9V170h1.81l.05.95a2.15,2.15,0,0,1,1.91-1.11,1.84,1.84,0,0,1,.67.11Z"/><path class="cls-6" d="M786.45,178.6a3.92,3.92,0,0,1-2.93-1.14,4.08,4.08,0,0,1-1.12-3v-.24a5,5,0,0,1,.49-2.26,3.69,3.69,0,0,1,1.37-1.55,3.62,3.62,0,0,1,2-.56,3.28,3.28,0,0,1,2.66,1.11,4.63,4.63,0,0,1,1,3.11v.77h-5.53a2.51,2.51,0,0,0,.7,1.65,2.08,2.08,0,0,0,1.54.61,2.59,2.59,0,0,0,2.13-1.05l1,1a3.49,3.49,0,0,1-1.35,1.17A4.24,4.24,0,0,1,786.45,178.6Zm-.23-7.24a1.61,1.61,0,0,0-1.26.54,2.9,2.9,0,0,0-.62,1.53H788v-.14a2.25,2.25,0,0,0-.51-1.44A1.56,1.56,0,0,0,786.22,171.36Z"/><path class="cls-6" d="M791,174.15a5,5,0,0,1,.91-3.13,2.9,2.9,0,0,1,2.43-1.19,2.78,2.78,0,0,1,2.17.94v-4.33h1.9v12h-1.72l-.09-.87a2.8,2.8,0,0,1-2.28,1,2.88,2.88,0,0,1-2.4-1.2A5.21,5.21,0,0,1,791,174.15Zm1.9.17a3.51,3.51,0,0,0,.5,2,1.61,1.61,0,0,0,1.41.72,1.78,1.78,0,0,0,1.7-1V172.4a1.77,1.77,0,0,0-1.69-1,1.61,1.61,0,0,0-1.42.73A4,4,0,0,0,792.85,174.32Z"/><path class="cls-6" d="M809.06,176.15a.87.87,0,0,0-.42-.78,4.68,4.68,0,0,0-1.38-.47,6.74,6.74,0,0,1-1.62-.51,2.15,2.15,0,0,1-1.42-2,2.26,2.26,0,0,1,.92-1.83,3.64,3.64,0,0,1,2.34-.74,3.79,3.79,0,0,1,2.45.75,2.37,2.37,0,0,1,.94,1.95H809a1.18,1.18,0,0,0-.41-.91,1.57,1.57,0,0,0-1.08-.36,1.73,1.73,0,0,0-1,.28.94.94,0,0,0-.39.78.76.76,0,0,0,.37.68,5.23,5.23,0,0,0,1.48.49,7.22,7.22,0,0,1,1.76.58,2.47,2.47,0,0,1,.94.82,2,2,0,0,1,.31,1.15,2.2,2.2,0,0,1-.95,1.85,4,4,0,0,1-2.47.71,4.34,4.34,0,0,1-1.85-.38,3,3,0,0,1-1.27-1,2.44,2.44,0,0,1-.45-1.41h1.84a1.34,1.34,0,0,0,.51,1,2.32,2.32,0,0,0,2.38.08A.88.88,0,0,0,809.06,176.15Z"/><path class="cls-6" d="M816.3,178.6a3.92,3.92,0,0,1-2.92-1.14,4.08,4.08,0,0,1-1.12-3v-.24a5,5,0,0,1,.49-2.26,3.69,3.69,0,0,1,1.37-1.55,3.62,3.62,0,0,1,2-.56,3.28,3.28,0,0,1,2.66,1.11,4.63,4.63,0,0,1,1,3.11v.77h-5.53a2.51,2.51,0,0,0,.7,1.65,2.08,2.08,0,0,0,1.54.61,2.59,2.59,0,0,0,2.13-1.05l1,1a3.49,3.49,0,0,1-1.35,1.17A4.25,4.25,0,0,1,816.3,178.6Zm-.22-7.24a1.61,1.61,0,0,0-1.26.54,2.9,2.9,0,0,0-.62,1.53h3.62v-.14a2.25,2.25,0,0,0-.51-1.44A1.56,1.56,0,0,0,816.08,171.36Z"/><path class="cls-6" d="M825.59,171.72a4.81,4.81,0,0,0-.77-.06,1.75,1.75,0,0,0-1.76,1v5.78h-1.9V170H823l0,.95a2.15,2.15,0,0,1,1.91-1.11,1.84,1.84,0,0,1,.67.11Z"/><path class="cls-6" d="M829.91,176l1.79-6h2l-2.93,8.45h-1.64l-3-8.45h2Z"/><path class="cls-6" d="M834.85,167.79a1,1,0,0,1,.28-.72,1,1,0,0,1,.79-.29,1.07,1.07,0,0,1,.8.29,1.07,1.07,0,0,1,0,1.44,1.07,1.07,0,0,1-.8.28,1,1,0,0,1-.79-.28A1,1,0,0,1,834.85,167.79Zm2,10.65H835V170h1.9Z"/><path class="cls-6" d="M842.41,177.08a1.72,1.72,0,0,0,1.18-.41,1.47,1.47,0,0,0,.5-1h1.79a2.88,2.88,0,0,1-.5,1.47,3.07,3.07,0,0,1-1.25,1.08,3.64,3.64,0,0,1-1.7.4,3.58,3.58,0,0,1-2.81-1.15,4.5,4.5,0,0,1-1-3.17v-.2a4.49,4.49,0,0,1,1-3.09,3.58,3.58,0,0,1,2.81-1.16,3.49,3.49,0,0,1,2.46.88,3.21,3.21,0,0,1,1,2.31h-1.79a1.77,1.77,0,0,0-.5-1.19,1.57,1.57,0,0,0-1.18-.47A1.68,1.68,0,0,0,841,172a3.38,3.38,0,0,0-.5,2v.31a3.48,3.48,0,0,0,.49,2A1.67,1.67,0,0,0,842.41,177.08Z"/><path class="cls-6" d="M851,178.6a3.9,3.9,0,0,1-2.92-1.14,4.09,4.09,0,0,1-1.13-3v-.24a5.14,5.14,0,0,1,.49-2.26,3.76,3.76,0,0,1,1.37-1.55,3.64,3.64,0,0,1,2-.56,3.31,3.31,0,0,1,2.67,1.11,4.62,4.62,0,0,1,.94,3.11v.77H848.9a2.51,2.51,0,0,0,.7,1.65,2.08,2.08,0,0,0,1.54.61,2.59,2.59,0,0,0,2.13-1.05l1,1a3.45,3.45,0,0,1-1.36,1.17A4.21,4.21,0,0,1,851,178.6Zm-.23-7.24a1.61,1.61,0,0,0-1.26.54,2.89,2.89,0,0,0-.61,1.53h3.62v-.14a2.31,2.31,0,0,0-.51-1.44A1.58,1.58,0,0,0,850.8,171.36Z"/><path class="cls-6" d="M860.63,176.15a.87.87,0,0,0-.42-.78,4.68,4.68,0,0,0-1.38-.47,6.74,6.74,0,0,1-1.62-.51,2.15,2.15,0,0,1-1.42-2,2.26,2.26,0,0,1,.92-1.83,3.66,3.66,0,0,1,2.34-.74,3.79,3.79,0,0,1,2.45.75,2.37,2.37,0,0,1,.94,1.95h-1.9a1.18,1.18,0,0,0-.41-.91,1.57,1.57,0,0,0-1.08-.36,1.68,1.68,0,0,0-1,.28.92.92,0,0,0-.4.78.76.76,0,0,0,.37.68,5.23,5.23,0,0,0,1.48.49,7.22,7.22,0,0,1,1.76.58,2.47,2.47,0,0,1,.94.82,2,2,0,0,1,.31,1.15,2.2,2.2,0,0,1-1,1.85,4,4,0,0,1-2.47.71,4.34,4.34,0,0,1-1.85-.38,3,3,0,0,1-1.27-1,2.44,2.44,0,0,1-.45-1.41h1.84a1.34,1.34,0,0,0,.51,1,2.32,2.32,0,0,0,2.38.08A.88.88,0,0,0,860.63,176.15Z"/></g></g><g id="DEDUCTIBLE_MET" data-name="DEDUCTIBLE MET" class="cls-5"><g class="cls-5"><path class="cls-9" d="M270.14,308.66V298h3a4.83,4.83,0,0,1,2.46.61,4.22,4.22,0,0,1,1.65,1.75,5.64,5.64,0,0,1,.59,2.61v.68a5.65,5.65,0,0,1-.58,2.64,4.13,4.13,0,0,1-1.66,1.75,5.22,5.22,0,0,1-2.52.62Zm1.4-9.51v8.36H273a3.26,3.26,0,0,0,2.54-1,4.21,4.21,0,0,0,.9-2.88V303a4.28,4.28,0,0,0-.85-2.82,3,3,0,0,0-2.42-1Z"/><path class="cls-9" d="M286,303.73h-4.62v3.78h5.37v1.15H280V298h6.7v1.15h-5.3v3.43H286Z"/><path class="cls-9" d="M288.5,308.66V298h3a4.83,4.83,0,0,1,2.46.61,4.16,4.16,0,0,1,1.65,1.75,5.64,5.64,0,0,1,.59,2.61v.68a5.65,5.65,0,0,1-.58,2.64A4.13,4.13,0,0,1,294,308a5.22,5.22,0,0,1-2.52.62Zm1.41-9.51v8.36h1.48a3.25,3.25,0,0,0,2.53-1,4.21,4.21,0,0,0,.9-2.88V303a4.22,4.22,0,0,0-.85-2.82,3,3,0,0,0-2.42-1Z"/><path class="cls-9" d="M305.84,298v7.25a3.38,3.38,0,0,1-.94,2.46,3.8,3.8,0,0,1-2.56,1.08l-.37,0a4,4,0,0,1-2.79-.95,3.39,3.39,0,0,1-1.06-2.6V298h1.4v7.22a2.21,2.21,0,0,0,2.45,2.44,2.5,2.5,0,0,0,1.83-.64,2.45,2.45,0,0,0,.63-1.8V298Z"/><path class="cls-9" d="M315.91,305.28a4,4,0,0,1-1.25,2.61,4.11,4.11,0,0,1-2.8.92,3.73,3.73,0,0,1-3-1.36,5.43,5.43,0,0,1-1.14-3.62v-1a6,6,0,0,1,.53-2.61,3.94,3.94,0,0,1,1.5-1.74,4.22,4.22,0,0,1,2.26-.6,3.85,3.85,0,0,1,2.72.95,3.93,3.93,0,0,1,1.2,2.62h-1.42a3,3,0,0,0-.79-1.85A2.42,2.42,0,0,0,312,299a2.5,2.5,0,0,0-2.11,1,4.56,4.56,0,0,0-.77,2.83v1a4.63,4.63,0,0,0,.73,2.76,2.35,2.35,0,0,0,2,1,2.7,2.7,0,0,0,1.8-.53,2.91,2.91,0,0,0,.83-1.85Z"/><path class="cls-9" d="M325,299.15h-3.43v9.51h-1.39v-9.51h-3.42V298H325Z"/><path class="cls-9" d="M328.07,308.66h-1.4V298h1.4Z"/><path class="cls-9" d="M330.64,308.66V298h3.49a4.08,4.08,0,0,1,2.61.71,2.61,2.61,0,0,1,.88,2.13,2.11,2.11,0,0,1-.43,1.32,2.76,2.76,0,0,1-1.16.89,2.46,2.46,0,0,1,1.37.92,2.66,2.66,0,0,1,.5,1.61,2.86,2.86,0,0,1-.93,2.26,3.82,3.82,0,0,1-2.63.82Zm1.41-6.12h2.12a2.22,2.22,0,0,0,1.48-.46,1.53,1.53,0,0,0,.55-1.25,1.51,1.51,0,0,0-.51-1.28,2.49,2.49,0,0,0-1.56-.4h-2.08Zm0,1.13v3.84h2.32a2.23,2.23,0,0,0,1.55-.51,1.79,1.79,0,0,0,.57-1.4c0-1.29-.7-1.93-2.1-1.93Z"/><path class="cls-9" d="M341.4,307.51h5.05v1.15H340V298h1.42Z"/><path class="cls-9" d="M354.08,303.73h-4.62v3.78h5.37v1.15h-6.78V298h6.71v1.15h-5.3v3.43h4.62Z"/><path class="cls-9" d="M362.11,298l3.49,8.7,3.48-8.7h1.83v10.66H369.5v-4.15l.13-4.48-3.5,8.63h-1.08l-3.49-8.61.14,4.46v4.15h-1.41V298Z"/><path class="cls-9" d="M379.42,303.73h-4.63v3.78h5.37v1.15h-6.77V298h6.7v1.15h-5.3v3.43h4.63Z"/><path class="cls-9" d="M389.43,299.15H386v9.51h-1.4v-9.51h-3.42V298h8.25Z"/></g></g><g id="OUT-OF-POCKET_MAXIMUM_MET" data-name="OUT-OF-POCKET MAXIMUM MET" class="cls-5"><g class="cls-5"><path class="cls-9" d="M569.69,303.67a6.63,6.63,0,0,1-.53,2.74,4,4,0,0,1-1.49,1.78,4.14,4.14,0,0,1-2.26.62,4.09,4.09,0,0,1-2.23-.62,4,4,0,0,1-1.51-1.77,6.3,6.3,0,0,1-.56-2.65V303a6.47,6.47,0,0,1,.54-2.72,4,4,0,0,1,3.75-2.43,4.19,4.19,0,0,1,2.26.62,4,4,0,0,1,1.5,1.79,6.7,6.7,0,0,1,.53,2.74Zm-1.4-.69a4.78,4.78,0,0,0-.76-2.91,2.53,2.53,0,0,0-2.13-1,2.5,2.5,0,0,0-2.1,1,4.75,4.75,0,0,0-.79,2.82v.78a4.82,4.82,0,0,0,.77,2.89,2.71,2.71,0,0,0,4.24.06,4.71,4.71,0,0,0,.77-2.84Z"/><path class="cls-9" d="M579.31,298v7.25a3.43,3.43,0,0,1-.95,2.46,3.8,3.8,0,0,1-2.56,1.08l-.37,0a4,4,0,0,1-2.79-.95,3.38,3.38,0,0,1-1-2.6V298H573v7.22a2.46,2.46,0,1,0,4.91,0V298Z"/><path class="cls-9" d="M588.89,299.15h-3.43v9.51h-1.39v-9.51h-3.42V298h8.24Z"/><path class="cls-9" d="M591.38,304.68h-3.57v-1.1h3.57Z"/><path class="cls-9" d="M601.12,303.67a6.63,6.63,0,0,1-.53,2.74,4,4,0,0,1-1.49,1.78,4.14,4.14,0,0,1-2.26.62,4,4,0,0,1-3.75-2.39,6.3,6.3,0,0,1-.55-2.65V303a6.47,6.47,0,0,1,.54-2.72,4,4,0,0,1,3.75-2.43,4.13,4.13,0,0,1,2.25.62,3.93,3.93,0,0,1,1.51,1.79,6.7,6.7,0,0,1,.53,2.74Zm-1.4-.69a4.85,4.85,0,0,0-.76-2.91,2.53,2.53,0,0,0-2.13-1,2.5,2.5,0,0,0-2.1,1,4.68,4.68,0,0,0-.79,2.82v.78a4.82,4.82,0,0,0,.77,2.89,2.71,2.71,0,0,0,4.24.06,4.77,4.77,0,0,0,.77-2.84Z"/><path class="cls-9" d="M609.11,304h-4.48v4.71h-1.4V298h6.6v1.15h-5.2v3.65h4.48Z"/><path class="cls-9" d="M614.12,304.68h-3.57v-1.1h3.57Z"/><path class="cls-9" d="M617.06,304.49v4.17h-1.4V298h3.93a3.91,3.91,0,0,1,2.74.89,3,3,0,0,1,1,2.37,3,3,0,0,1-1,2.39,4.11,4.11,0,0,1-2.78.84Zm0-1.15h2.53a2.51,2.51,0,0,0,1.73-.54,1.92,1.92,0,0,0,.6-1.53,2,2,0,0,0-.6-1.53,2.35,2.35,0,0,0-1.65-.59h-2.61Z"/><path class="cls-9" d="M633.32,303.67a6.47,6.47,0,0,1-.53,2.74,4,4,0,0,1-1.49,1.78,4.37,4.37,0,0,1-4.49,0,4.05,4.05,0,0,1-1.51-1.77,6.15,6.15,0,0,1-.55-2.65V303a6.47,6.47,0,0,1,.53-2.72,4,4,0,0,1,3.75-2.43,4.16,4.16,0,0,1,2.26.62,4,4,0,0,1,1.5,1.79,6.54,6.54,0,0,1,.53,2.74Zm-1.4-.69a4.78,4.78,0,0,0-.76-2.91,2.53,2.53,0,0,0-2.13-1,2.5,2.5,0,0,0-2.1,1,4.75,4.75,0,0,0-.79,2.82v.78a4.75,4.75,0,0,0,.78,2.89,2.7,2.7,0,0,0,4.23.06,4.71,4.71,0,0,0,.77-2.84Z"/><path class="cls-9" d="M643.28,305.28a4,4,0,0,1-1.25,2.61,4.13,4.13,0,0,1-2.8.92,3.75,3.75,0,0,1-3-1.36,5.43,5.43,0,0,1-1.14-3.62v-1a6,6,0,0,1,.54-2.61,3.94,3.94,0,0,1,1.5-1.74,4.22,4.22,0,0,1,2.26-.6,3.85,3.85,0,0,1,2.72.95,4,4,0,0,1,1.2,2.62h-1.42a3.09,3.09,0,0,0-.79-1.85,2.42,2.42,0,0,0-1.71-.57,2.52,2.52,0,0,0-2.12,1,4.56,4.56,0,0,0-.76,2.83v1a4.7,4.7,0,0,0,.72,2.76,2.36,2.36,0,0,0,2,1,2.74,2.74,0,0,0,1.8-.53,3,3,0,0,0,.83-1.85Z"/><path class="cls-9" d="M647.9,303.7l-1.3,1.36v3.6h-1.41V298h1.41v5.27l4.74-5.27H653l-4.2,4.71,4.53,6h-1.69Z"/><path class="cls-9" d="M660.63,303.73H656v3.78h5.37v1.15H654.6V298h6.7v1.15H656v3.43h4.63Z"/><path class="cls-9" d="M670.64,299.15h-3.43v9.51h-1.4v-9.51h-3.42V298h8.25Z"/><path class="cls-9" d="M677.46,298l3.48,8.7,3.49-8.7h1.82v10.66h-1.4v-4.15L685,300l-3.5,8.63H680.4l-3.49-8.61.14,4.46v4.15h-1.41V298Z"/><path class="cls-9" d="M694.76,305.87h-4.47l-1,2.79h-1.45L691.91,298h1.23l4.08,10.66h-1.44Zm-4-1.15h3.63l-1.82-5Z"/><path class="cls-9" d="M702.13,302.08l2.56-4.08h1.65L703,303.28l3.45,5.38h-1.67l-2.62-4.16-2.63,4.16h-1.67l3.46-5.38L697.91,298h1.65Z"/><path class="cls-9" d="M709.57,308.66h-1.41V298h1.41Z"/><path class="cls-9" d="M714,298l3.49,8.7,3.49-8.7h1.82v10.66h-1.41v-4.15l.14-4.48L718,308.66H716.9l-3.5-8.61.14,4.46v4.15h-1.4V298Z"/><path class="cls-9" d="M732.74,298v7.25a3.35,3.35,0,0,1-1,2.46,3.79,3.79,0,0,1-2.55,1.08l-.37,0a4,4,0,0,1-2.79-.95,3.35,3.35,0,0,1-1.06-2.6V298h1.39v7.22a2.43,2.43,0,0,0,.64,1.8,2.91,2.91,0,0,0,3.64,0,2.42,2.42,0,0,0,.64-1.8V298Z"/><path class="cls-9" d="M736.78,298l3.48,8.7,3.49-8.7h1.82v10.66h-1.4v-4.15l.13-4.48-3.5,8.63h-1.08l-3.49-8.61.14,4.46v4.15H735V298Z"/><path class="cls-9" d="M753.58,298l3.49,8.7,3.49-8.7h1.82v10.66H761v-4.15l.13-4.48-3.5,8.63h-1.08L753,300.05l.13,4.46v4.15h-1.4V298Z"/><path class="cls-9" d="M770.89,303.73h-4.62v3.78h5.37v1.15h-6.78V298h6.71v1.15h-5.3v3.43h4.62Z"/><path class="cls-9" d="M780.9,299.15h-3.42v9.51h-1.4v-9.51h-3.42V298h8.24Z"/></g></g><g id="YOU_PAY_0" data-name="YOU PAY 0" class="cls-5"><g class="cls-5"><path class="cls-9" d="M820.8,258l2.22-4.81h2.4l-3.5,6.8v3.87h-2.24V260l-3.5-6.8h2.41Z"/><path class="cls-9" d="M834.94,258.74a6.44,6.44,0,0,1-.56,2.76,4.19,4.19,0,0,1-1.59,1.83,4.71,4.71,0,0,1-4.74,0,4.15,4.15,0,0,1-1.61-1.82,6.15,6.15,0,0,1-.58-2.72v-.52a6.42,6.42,0,0,1,.57-2.78,4.15,4.15,0,0,1,1.6-1.83,4.65,4.65,0,0,1,4.74,0,4.22,4.22,0,0,1,1.6,1.83,6.38,6.38,0,0,1,.57,2.77Zm-2.23-.49a4.49,4.49,0,0,0-.6-2.55,2.12,2.12,0,0,0-3.42,0,4.5,4.5,0,0,0-.61,2.52v.53a4.55,4.55,0,0,0,.61,2.53,2.09,2.09,0,0,0,3.42,0,4.44,4.44,0,0,0,.6-2.53Z"/><path class="cls-9" d="M844.61,253.16v7a3.59,3.59,0,0,1-1.1,2.77,4.2,4.2,0,0,1-3,1,4.3,4.3,0,0,1-3-1,3.55,3.55,0,0,1-1.12-2.71v-7.11h2.2v7a2.05,2.05,0,0,0,.5,1.53,1.94,1.94,0,0,0,1.39.48c1.24,0,1.86-.65,1.88-1.95v-7.1Z"/><path class="cls-9" d="M852.34,260.07v3.76h-2.19V253.16h4.16a4.85,4.85,0,0,1,2.11.44,3.22,3.22,0,0,1,1.4,1.25,3.45,3.45,0,0,1,.49,1.84,3.06,3.06,0,0,1-1.07,2.47,4.45,4.45,0,0,1-3,.91Zm0-1.78h2a1.91,1.91,0,0,0,1.32-.41,1.49,1.49,0,0,0,.46-1.17,1.65,1.65,0,0,0-1.73-1.77h-2Z"/><path class="cls-9" d="M864.54,261.63h-3.86l-.73,2.2h-2.33l4-10.67h2l4,10.67h-2.33Zm-3.26-1.78h2.66l-1.34-4Z"/><path class="cls-9" d="M871.19,258l2.22-4.81h2.4l-3.5,6.8v3.87h-2.24V260l-3.5-6.8H869Z"/><path class="cls-9" d="M885.35,261a1.37,1.37,0,0,0-.33-1,3.11,3.11,0,0,0-1.13-.65,13.48,13.48,0,0,1-1.38-.6,4.11,4.11,0,0,1-1-.68,2.88,2.88,0,0,1-.65-.9,3.12,3.12,0,0,1-.23-1.24,2.77,2.77,0,0,1,.79-2,3.29,3.29,0,0,1,2.11-.92v-1.57h1.17v1.59a3.06,3.06,0,0,1,2,1.08,3.54,3.54,0,0,1,.73,2.32h-2.12a2,2,0,0,0-.36-1.31,1.21,1.21,0,0,0-1-.44,1.26,1.26,0,0,0-.93.34,1.32,1.32,0,0,0-.33.95,1.24,1.24,0,0,0,.32.89,3.85,3.85,0,0,0,1.2.69,12.75,12.75,0,0,1,1.44.66,4.41,4.41,0,0,1,.95.7,2.65,2.65,0,0,1,.59.9,3,3,0,0,1,.21,1.16,2.74,2.74,0,0,1-.78,2,3.41,3.41,0,0,1-2.14.91v1.46h-1.16V264a3.52,3.52,0,0,1-2.33-1.07,3.41,3.41,0,0,1-.82-2.4h2.12a2,2,0,0,0,.41,1.33,1.51,1.51,0,0,0,1.19.47,1.45,1.45,0,0,0,1-.34A1.18,1.18,0,0,0,885.35,261Z"/><path class="cls-9" d="M896.08,259.42a5.4,5.4,0,0,1-.92,3.38,3.19,3.19,0,0,1-2.68,1.17,3.23,3.23,0,0,1-2.67-1.15,5.22,5.22,0,0,1-.94-3.29v-2a5.37,5.37,0,0,1,.92-3.39,3.66,3.66,0,0,1,5.34,0,5.22,5.22,0,0,1,1,3.29ZM894,257.26a3.9,3.9,0,0,0-.36-1.93,1.23,1.23,0,0,0-1.14-.61,1.2,1.2,0,0,0-1.1.58,3.56,3.56,0,0,0-.37,1.8v2.59a4.07,4.07,0,0,0,.35,1.94,1.22,1.22,0,0,0,1.14.63,1.19,1.19,0,0,0,1.12-.6,4,4,0,0,0,.36-1.87Z"/></g></g><line id="Line_254" data-name="Line 254" class="cls-10" x1="335.5" y1="237.5" x2="335.6" y2="289.3"/><line id="Line_255" data-name="Line 255" class="cls-10" x1="671" y1="238.5" x2="671" y2="289.3"/><line id="Line_256" data-name="Line 256" class="cls-4" y1="110.6" x2="937.9" y2="110.6"/><g id="Group_1732" data-name="Group 1732"><path id="Path_573" data-name="Path 573" class="cls-8" d="M335.6,240.8a2.4,2.4,0,1,0-2.4-2.4h0a2.43,2.43,0,0,0,2.4,2.4"/><path id="Path_574" data-name="Path 574" class="cls-11" d="M335.6,240.8a2.4,2.4,0,1,0-2.4-2.4h0A2.43,2.43,0,0,0,335.6,240.8Z"/><path id="Path_575" data-name="Path 575" class="cls-8" d="M671,240.8a2.4,2.4,0,1,0-2.4-2.4,2.43,2.43,0,0,0,2.4,2.4"/><path id="Path_576" data-name="Path 576" class="cls-11" d="M671,240.8a2.4,2.4,0,1,0-2.4-2.4A2.43,2.43,0,0,0,671,240.8Z"/></g></svg>