<svg id="Layer_1" data-name="Layer 1" xmlns="http://www.w3.org/2000/svg" xmlns:xlink="http://www.w3.org/1999/xlink" viewBox="0 0 279 256.88"><defs><style>.cls-1{fill:url(#linear-gradient);}.cls-10,.cls-2,.cls-9{fill:none;}.cls-2{stroke:#fff;stroke-width:4px;}.cls-3{fill:url(#linear-gradient-2);}.cls-4{isolation:isolate;}.cls-5{fill:#fff;}.cls-6{fill:#484c56;}.cls-7{fill:url(#linear-gradient-3);}.cls-8{fill:#4d4d4f;}.cls-10,.cls-9{stroke:#484c56;}.cls-9{stroke-width:0.5px;}</style><linearGradient id="linear-gradient" x1="-541.05" y1="509.98" x2="-540.05" y2="509.98" gradientTransform="matrix(279, 0, 0, -101, 150954, 51558)" gradientUnits="userSpaceOnUse"><stop offset="0" stop-color="#c8c9c9"/><stop offset="1" stop-color="#f2f4f4"/></linearGradient><linearGradient id="linear-gradient-2" x1="-541.05" y1="510.3" x2="-540.05" y2="510.3" gradientTransform="matrix(279, 0, 0, -116.01, 150954, 59337.28)" gradientUnits="userSpaceOnUse"><stop offset="0" stop-color="#0099d8"/><stop offset="1" stop-color="#04b6c8"/></linearGradient><linearGradient id="linear-gradient-3" x1="-541.05" y1="503.61" x2="-540.05" y2="503.61" gradientTransform="matrix(279, 0, 0, -28.7, 150954, 14669.5)" xlink:href="#linear-gradient"/></defs><title>Group 1965</title><g id="Group_1965" data-name="Group 1965"><path id="Path_686" data-name="Path 686" class="cls-1" d="M250.5,0V9.6H0V93.4H250.5V101L279,50.9Z"/><line id="Line_261" data-name="Line 261" class="cls-2" y1="86.8" x2="253.5" y2="86.8"/><path id="Path_688" data-name="Path 688" class="cls-3" d="M250.5,77.1v11H0v96.25H250.5v8.73L279,135.57Z"/><line id="Line_262" data-name="Line 262" class="cls-2" x1="184.9" y1="193.11" x2="184.9" y2="84.8"/><g id="WE_PAY" data-name="WE PAY" class="cls-4"><g class="cls-4"><path class="cls-5" d="M16.74,54.06l.66,3.31.8-3.16,4.63-15.72h1.63L29,54.21l.79,3.19.7-3.34,3.86-15.57h1.84L30.76,59.82H29L24.19,43.13,23.65,41l-.53,2.11L18.17,59.82H16.45L11,38.49h1.84Z"/><path class="cls-5" d="M51.47,49.59h-10v8.7H53v1.53H39.69V38.49h13.2V40H41.49v8.06h10Z"/><path class="cls-5" d="M65.85,51.13v8.69h-1.8V38.49h7.27a7.66,7.66,0,0,1,5.25,1.7,5.92,5.92,0,0,1,1.93,4.67,5.85,5.85,0,0,1-1.86,4.64,7.86,7.86,0,0,1-5.37,1.63Zm0-1.52h5.47a5.78,5.78,0,0,0,4-1.25,4.44,4.44,0,0,0,1.37-3.48,4.66,4.66,0,0,0-1.37-3.53A5.49,5.49,0,0,0,71.44,40H65.85Z"/><path class="cls-5" d="M92,53.83H82.33l-2.19,6H78.25l8.07-21.33H88L96.1,59.82H94.23ZM82.89,52.3h8.56L87.17,40.69Z"/><path class="cls-5" d="M104.12,50.12l6.51-11.63h2.08L105,51.79v8h-1.8v-8l-7.69-13.3h2.14Z"/></g></g><g id="WE_PAY-2" data-name="WE PAY-2" class="cls-4"><g class="cls-4"><path class="cls-5" d="M200,106.18l.3,1.55.38-1.48,2.16-7.33h.76l2.13,7.33.37,1.49.33-1.56,1.8-7.26H209l-2.55,10h-.81l-2.26-7.79-.25-1-.24,1-2.31,7.79h-.81l-2.54-10h.86Z"/><path class="cls-5" d="M216.15,104.1H211.5v4.06h5.35v.71h-6.19v-10h6.16v.71H211.5v3.76h4.65Z"/><path class="cls-5" d="M222.87,104.81v4.06H222v-10h3.39a3.57,3.57,0,0,1,2.45.79,3.1,3.1,0,0,1,0,4.34,3.66,3.66,0,0,1-2.5.76Zm0-.71h2.55a2.68,2.68,0,0,0,1.86-.58,2.07,2.07,0,0,0,.64-1.62,2.2,2.2,0,0,0-.63-1.65,2.54,2.54,0,0,0-1.82-.62h-2.6Z"/><path class="cls-5" d="M235.08,106.07h-4.52l-1,2.8h-.88l3.77-10h.8l3.76,10h-.87Zm-4.26-.71h4l-2-5.42Z"/><path class="cls-5" d="M240.72,104.34l3-5.42h1l-3.59,6.2v3.75h-.84v-3.75l-3.59-6.2h1Z"/></g></g><g id="_100_covered_services" data-name=" 100 covered services" class="cls-4"><g class="cls-4"><path class="cls-5" d="M199.62,125.73H199v-6.41l-1.93.72v-.55l2.42-.89h.1Z"/><path class="cls-5" d="M206.73,122.77a3.91,3.91,0,0,1-.56,2.28,1.84,1.84,0,0,1-1.62.78,1.9,1.9,0,0,1-1.62-.77,3.82,3.82,0,0,1-.57-2.22v-1.28a3.88,3.88,0,0,1,.55-2.27,2.11,2.11,0,0,1,3.24,0,3.74,3.74,0,0,1,.58,2.19Zm-.59-1.28a3.4,3.4,0,0,0-.4-1.84,1.46,1.46,0,0,0-2.39,0,3.28,3.28,0,0,0-.41,1.8v1.4a3.51,3.51,0,0,0,.41,1.86,1.33,1.33,0,0,0,1.2.64,1.31,1.31,0,0,0,1.18-.63,3.41,3.41,0,0,0,.41-1.84Z"/><path class="cls-5" d="M212.27,122.77a4,4,0,0,1-.55,2.28,1.87,1.87,0,0,1-1.63.78,1.9,1.9,0,0,1-1.62-.77,3.82,3.82,0,0,1-.57-2.22v-1.28a3.8,3.8,0,0,1,.56-2.27,2.1,2.1,0,0,1,3.23,0,3.67,3.67,0,0,1,.58,2.19Zm-.59-1.28a3.5,3.5,0,0,0-.39-1.84,1.34,1.34,0,0,0-1.21-.63,1.32,1.32,0,0,0-1.19.61,3.37,3.37,0,0,0-.41,1.8v1.4a3.51,3.51,0,0,0,.41,1.86,1.34,1.34,0,0,0,1.2.64,1.33,1.33,0,0,0,1.19-.63,3.51,3.51,0,0,0,.4-1.84Z"/><path class="cls-5" d="M213.39,120a1.49,1.49,0,0,1,.39-1.06,1.34,1.34,0,0,1,1-.41,1.36,1.36,0,0,1,1,.41,1.53,1.53,0,0,1,.39,1.09v.34a1.44,1.44,0,0,1-.39,1,1.29,1.29,0,0,1-1,.42,1.31,1.31,0,0,1-1-.41,1.46,1.46,0,0,1-.4-1.08Zm.47.37a1.11,1.11,0,0,0,.25.75.92.92,0,0,0,1.34,0,1.21,1.21,0,0,0,.25-.77V120a1.12,1.12,0,0,0-.26-.75.85.85,0,0,0-.66-.29.82.82,0,0,0-.66.29,1.17,1.17,0,0,0-.26.78Zm1.11,4.78-.36-.24,3.47-5.55.37.23Zm2-1.15a1.45,1.45,0,0,1,.39-1,1.29,1.29,0,0,1,1-.42,1.34,1.34,0,0,1,1,.41,1.5,1.5,0,0,1,.4,1.09v.35a1.48,1.48,0,0,1-.39,1,1.42,1.42,0,0,1-2,0,1.52,1.52,0,0,1-.39-1.08Zm.46.37a1.13,1.13,0,0,0,.26.76.84.84,0,0,0,.67.29.86.86,0,0,0,.67-.29,1.21,1.21,0,0,0,.25-.78V124a1.09,1.09,0,0,0-.26-.75.91.91,0,0,0-1.33,0,1.12,1.12,0,0,0-.26.77Z"/><path class="cls-5" d="M225.39,125.33a1.53,1.53,0,0,0,1-.34,1.2,1.2,0,0,0,.45-.89h.56a1.75,1.75,0,0,1-.3.88,2,2,0,0,1-.74.62,2.25,2.25,0,0,1-1,.23,2,2,0,0,1-1.65-.73,2.94,2.94,0,0,1-.61-1.94V123a3.18,3.18,0,0,1,.28-1.38,2,2,0,0,1,.78-.92,2.15,2.15,0,0,1,1.19-.33,2,2,0,0,1,1.44.52,1.9,1.9,0,0,1,.6,1.36h-.56a1.44,1.44,0,0,0-.45-1,1.41,1.41,0,0,0-1-.38,1.45,1.45,0,0,0-1.22.57,2.52,2.52,0,0,0-.44,1.6v.17a2.49,2.49,0,0,0,.44,1.58A1.45,1.45,0,0,0,225.39,125.33Z"/><path class="cls-5" d="M228.26,123a3,3,0,0,1,.3-1.37,2.27,2.27,0,0,1,.83-1,2.23,2.23,0,0,1,1.23-.34,2.16,2.16,0,0,1,1.71.74,2.86,2.86,0,0,1,.65,2v.12a3.25,3.25,0,0,1-.29,1.38,2.2,2.2,0,0,1-.84.94,2.35,2.35,0,0,1-2.93-.4,2.85,2.85,0,0,1-.66-2Zm.59.16a2.41,2.41,0,0,0,.49,1.56,1.59,1.59,0,0,0,1.29.6,1.57,1.57,0,0,0,1.28-.6,2.47,2.47,0,0,0,.49-1.61V123a2.72,2.72,0,0,0-.22-1.11,1.88,1.88,0,0,0-.63-.78,1.64,1.64,0,0,0-.93-.27,1.57,1.57,0,0,0-1.28.61,2.52,2.52,0,0,0-.49,1.6Z"/><path class="cls-5" d="M235.76,124.92l1.61-4.47h.6l-2,5.28h-.47l-2-5.28h.6Z"/><path class="cls-5" d="M240.91,125.83a2.31,2.31,0,0,1-2.07-1.26,2.92,2.92,0,0,1-.3-1.33V123a3.17,3.17,0,0,1,.29-1.37,2.29,2.29,0,0,1,.83-1,2,2,0,0,1,1.14-.35,1.91,1.91,0,0,1,1.52.65,2.66,2.66,0,0,1,.57,1.8v.33h-3.77v.11a2.19,2.19,0,0,0,.51,1.49,1.65,1.65,0,0,0,1.3.6,1.84,1.84,0,0,0,.83-.17,1.81,1.81,0,0,0,.65-.54l.37.27A2.13,2.13,0,0,1,240.91,125.83Zm-.11-5a1.46,1.46,0,0,0-1.11.48,2.19,2.19,0,0,0-.55,1.3h3.17v-.07a1.94,1.94,0,0,0-.44-1.24A1.36,1.36,0,0,0,240.8,120.85Z"/><path class="cls-5" d="M246.47,120.94a2.6,2.6,0,0,0-.4,0,1.38,1.38,0,0,0-.92.31,1.55,1.55,0,0,0-.54.88v3.63H244v-5.28h.57v.84a1.54,1.54,0,0,1,1.49-.94,1,1,0,0,1,.38.06Z"/><path class="cls-5" d="M249.34,125.83a2.25,2.25,0,0,1-1.22-.34,2.2,2.2,0,0,1-.84-.92,2.92,2.92,0,0,1-.3-1.33V123a3,3,0,0,1,.29-1.37,2.34,2.34,0,0,1,.82-1,2,2,0,0,1,1.15-.35,1.91,1.91,0,0,1,1.52.65,2.66,2.66,0,0,1,.57,1.8v.33h-3.77v.11a2.19,2.19,0,0,0,.51,1.49,1.65,1.65,0,0,0,1.3.6,1.84,1.84,0,0,0,.83-.17,1.81,1.81,0,0,0,.65-.54l.36.27A2.12,2.12,0,0,1,249.34,125.83Zm-.1-5a1.5,1.5,0,0,0-1.12.48,2.18,2.18,0,0,0-.54,1.3h3.17v-.07a2,2,0,0,0-.44-1.24A1.36,1.36,0,0,0,249.24,120.85Z"/><path class="cls-5" d="M252.23,123a3.15,3.15,0,0,1,.55-2,1.75,1.75,0,0,1,1.49-.73,1.84,1.84,0,0,1,1.63.84v-3h.58v7.5h-.54l0-.7a1.88,1.88,0,0,1-1.65.8,1.76,1.76,0,0,1-1.47-.74,3.21,3.21,0,0,1-.56-2Zm.59.1a2.73,2.73,0,0,0,.41,1.59,1.31,1.31,0,0,0,1.14.59,1.57,1.57,0,0,0,1.53-.95v-2.48a1.55,1.55,0,0,0-1.52-1,1.34,1.34,0,0,0-1.15.57A3,3,0,0,0,252.82,123.14Z"/></g><g class="cls-4"><path class="cls-5" d="M200.15,136a.81.81,0,0,0-.35-.7,2.47,2.47,0,0,0-1.05-.41,4.65,4.65,0,0,1-1.09-.35,1.29,1.29,0,0,1-.57-.47,1.13,1.13,0,0,1-.19-.67,1.24,1.24,0,0,1,.52-1,2.06,2.06,0,0,1,1.34-.41,2.14,2.14,0,0,1,1.42.44,1.41,1.41,0,0,1,.53,1.14h-.59a1,1,0,0,0-.38-.78,1.8,1.8,0,0,0-1.91-.05.81.81,0,0,0-.35.67.72.72,0,0,0,.29.61,3,3,0,0,0,1.06.4,4.82,4.82,0,0,1,1.16.39,1.43,1.43,0,0,1,.56.49,1.2,1.2,0,0,1,.19.7,1.28,1.28,0,0,1-.54,1.07,2.36,2.36,0,0,1-1.41.4,2.39,2.39,0,0,1-1.5-.45,1.37,1.37,0,0,1-.57-1.13h.59a1,1,0,0,0,.43.8,1.76,1.76,0,0,0,1,.28,1.73,1.73,0,0,0,1-.26A.81.81,0,0,0,200.15,136Z"/><path class="cls-5" d="M204.1,137.43a2.22,2.22,0,0,1-1.22-.34,2.29,2.29,0,0,1-.85-.92,2.92,2.92,0,0,1-.3-1.33v-.21a3,3,0,0,1,.3-1.37,2.27,2.27,0,0,1,.82-1A2,2,0,0,1,204,132a1.94,1.94,0,0,1,1.53.65,2.71,2.71,0,0,1,.56,1.8v.33h-3.77v.11a2.15,2.15,0,0,0,.52,1.49,1.62,1.62,0,0,0,1.29.6,1.81,1.81,0,0,0,.83-.17,1.73,1.73,0,0,0,.65-.54l.37.27A2.12,2.12,0,0,1,204.1,137.43Zm-.11-5a1.46,1.46,0,0,0-1.11.48,2.25,2.25,0,0,0-.55,1.3h3.17v-.06a2,2,0,0,0-.43-1.25A1.38,1.38,0,0,0,204,132.45Z"/><path class="cls-5" d="M209.66,132.54a2.38,2.38,0,0,0-.39,0,1.39,1.39,0,0,0-.93.31,1.66,1.66,0,0,0-.54.88v3.63h-.58v-5.28h.57v.84a1.55,1.55,0,0,1,1.49-.94,1.07,1.07,0,0,1,.39.06Z"/><path class="cls-5" d="M212.32,136.52l1.6-4.47h.6l-2,5.28h-.47l-2-5.28h.6Z"/><path class="cls-5" d="M215.45,130.52a.4.4,0,0,1,.1-.28.42.42,0,0,1,.3-.11.4.4,0,0,1,.29.11.41.41,0,0,1,0,.56.4.4,0,0,1-.29.11.42.42,0,0,1-.3-.11A.4.4,0,0,1,215.45,130.52Zm.69,6.81h-.59v-5.28h.59Z"/><path class="cls-5" d="M219.68,136.93a1.55,1.55,0,0,0,1-.34,1.27,1.27,0,0,0,.45-.89h.56a1.67,1.67,0,0,1-.31.88,1.88,1.88,0,0,1-.74.62,2.17,2.17,0,0,1-1,.23,2,2,0,0,1-1.65-.73,2.89,2.89,0,0,1-.61-1.94v-.18a3.33,3.33,0,0,1,.27-1.38,2.1,2.1,0,0,1,2-1.25,2,2,0,0,1,1.43.52,1.87,1.87,0,0,1,.61,1.36h-.56a1.46,1.46,0,0,0-.45-1,1.43,1.43,0,0,0-1-.38,1.46,1.46,0,0,0-1.23.57,2.58,2.58,0,0,0-.43,1.6v.17a2.56,2.56,0,0,0,.43,1.58A1.46,1.46,0,0,0,219.68,136.93Z"/><path class="cls-5" d="M224.92,137.43a2.22,2.22,0,0,1-1.22-.34,2.29,2.29,0,0,1-.85-.92,2.92,2.92,0,0,1-.3-1.33v-.21a3,3,0,0,1,.3-1.37,2.27,2.27,0,0,1,.82-1,2,2,0,0,1,1.14-.35,1.94,1.94,0,0,1,1.53.65,2.71,2.71,0,0,1,.56,1.8v.33h-3.77v.11a2.15,2.15,0,0,0,.52,1.49,1.62,1.62,0,0,0,1.29.6,1.81,1.81,0,0,0,.83-.17,1.73,1.73,0,0,0,.65-.54l.37.27A2.12,2.12,0,0,1,224.92,137.43Zm-.11-5a1.46,1.46,0,0,0-1.11.48,2.25,2.25,0,0,0-.55,1.3h3.17v-.06a2,2,0,0,0-.43-1.25A1.38,1.38,0,0,0,224.81,132.45Z"/><path class="cls-5" d="M231.2,136a.83.83,0,0,0-.34-.7,2.57,2.57,0,0,0-1.06-.41,4.65,4.65,0,0,1-1.09-.35,1.38,1.38,0,0,1-.58-.47,1.2,1.2,0,0,1-.18-.67,1.24,1.24,0,0,1,.52-1,2.06,2.06,0,0,1,1.34-.41,2.14,2.14,0,0,1,1.42.44,1.41,1.41,0,0,1,.53,1.14h-.59a1,1,0,0,0-.38-.78,1.8,1.8,0,0,0-1.91-.05.81.81,0,0,0-.35.67.72.72,0,0,0,.29.61,3,3,0,0,0,1.06.4,4.82,4.82,0,0,1,1.16.39,1.43,1.43,0,0,1,.56.49,1.2,1.2,0,0,1,.19.7,1.28,1.28,0,0,1-.54,1.07,2.69,2.69,0,0,1-2.9-.05,1.36,1.36,0,0,1-.58-1.13h.59a1,1,0,0,0,.43.8,1.76,1.76,0,0,0,1.05.28,1.73,1.73,0,0,0,1-.26A.81.81,0,0,0,231.2,136Z"/></g></g><g id="_100_preventive_exams_screenings_specialty_Rx_covered_in_full" data-name=" 100 preventive exams screenings specialty Rx covered in full" class="cls-4"><g class="cls-4"><path class="cls-6" d="M128.82,37.19h-.71V29.5l-2.32.86V29.7l2.91-1.07h.12Z"/><path class="cls-6" d="M137.35,33.63a4.74,4.74,0,0,1-.66,2.74,2.52,2.52,0,0,1-3.89,0,4.6,4.6,0,0,1-.7-2.67V32.19a4.7,4.7,0,0,1,.67-2.73,2.54,2.54,0,0,1,3.89,0,4.57,4.57,0,0,1,.69,2.64Zm-.7-1.53a4.12,4.12,0,0,0-.48-2.21,1.77,1.77,0,0,0-2.88,0A4.06,4.06,0,0,0,132.8,32v1.68a4.16,4.16,0,0,0,.5,2.23,1.61,1.61,0,0,0,1.44.77,1.6,1.6,0,0,0,1.42-.75,4.3,4.3,0,0,0,.49-2.22Z"/><path class="cls-6" d="M144,33.63a4.74,4.74,0,0,1-.66,2.74,2.52,2.52,0,0,1-3.89,0,4.6,4.6,0,0,1-.7-2.67V32.19a4.7,4.7,0,0,1,.67-2.73,2.54,2.54,0,0,1,3.89,0,4.57,4.57,0,0,1,.69,2.64Zm-.7-1.53a4.12,4.12,0,0,0-.48-2.21,1.77,1.77,0,0,0-2.88,0,4.06,4.06,0,0,0-.49,2.16v1.68a4.16,4.16,0,0,0,.5,2.23,1.61,1.61,0,0,0,1.44.77,1.6,1.6,0,0,0,1.42-.75,4.3,4.3,0,0,0,.49-2.22Z"/><path class="cls-6" d="M145.34,30.3a1.81,1.81,0,0,1,.47-1.27,1.69,1.69,0,0,1,2.4,0,1.85,1.85,0,0,1,.47,1.3v.42a1.74,1.74,0,0,1-.47,1.25,1.55,1.55,0,0,1-1.19.5,1.6,1.6,0,0,1-1.2-.49,1.78,1.78,0,0,1-.48-1.3Zm.57.44a1.32,1.32,0,0,0,.3.9,1.08,1.08,0,0,0,1.61,0,1.43,1.43,0,0,0,.29-.92v-.43a1.36,1.36,0,0,0-.3-.9A1,1,0,0,0,147,29a1,1,0,0,0-.79.35,1.35,1.35,0,0,0-.31.94Zm1.34,5.74-.44-.28L151,29.53l.44.28Zm2.39-1.38a1.73,1.73,0,0,1,.47-1.26,1.54,1.54,0,0,1,1.19-.5,1.6,1.6,0,0,1,1.2.49,1.81,1.81,0,0,1,.48,1.31v.41a1.74,1.74,0,0,1-.48,1.26,1.68,1.68,0,0,1-2.39,0,1.77,1.77,0,0,1-.47-1.29Zm.56.45a1.32,1.32,0,0,0,.3.9,1,1,0,0,0,.81.36,1,1,0,0,0,.8-.36,1.4,1.4,0,0,0,.3-.93v-.43a1.3,1.3,0,0,0-.3-.9,1.1,1.1,0,0,0-1.61,0,1.37,1.37,0,0,0-.3.93Z"/><path class="cls-6" d="M162.5,34.08a3.79,3.79,0,0,1-.66,2.35,2.09,2.09,0,0,1-1.76.87,2.35,2.35,0,0,1-2-.91v3.23h-.7V30.85H158l0,.89a2.27,2.27,0,0,1,2-1,2.12,2.12,0,0,1,1.78.86A3.92,3.92,0,0,1,162.5,34Zm-.71-.12A3.29,3.29,0,0,0,161.3,32a1.62,1.62,0,0,0-1.39-.7,1.93,1.93,0,0,0-1.11.31,2,2,0,0,0-.71.9v3a1.92,1.92,0,0,0,.72.84,2.08,2.08,0,0,0,1.11.28,1.59,1.59,0,0,0,1.38-.7A3.57,3.57,0,0,0,161.79,34Z"/><path class="cls-6" d="M167,31.44a3.58,3.58,0,0,0-.48,0,1.77,1.77,0,0,0-1.11.37,2,2,0,0,0-.64,1.06v4.36h-.7V30.85h.69v1a1.85,1.85,0,0,1,1.78-1.12,1.21,1.21,0,0,1,.47.08Z"/><path class="cls-6" d="M170.43,37.3a2.77,2.77,0,0,1-1.46-.39,2.73,2.73,0,0,1-1-1.11,3.52,3.52,0,0,1-.36-1.6V34a3.84,3.84,0,0,1,.35-1.65,2.86,2.86,0,0,1,1-1.15,2.43,2.43,0,0,1,1.37-.42,2.27,2.27,0,0,1,1.83.79,3.19,3.19,0,0,1,.68,2.15v.39h-4.52v.14A2.63,2.63,0,0,0,168.9,36a2,2,0,0,0,1.56.72,2.36,2.36,0,0,0,1-.2,2.31,2.31,0,0,0,.79-.66l.43.34A2.55,2.55,0,0,1,170.43,37.3Zm-.13-6a1.73,1.73,0,0,0-1.33.58,2.66,2.66,0,0,0-.66,1.56h3.8v-.08a2.32,2.32,0,0,0-.52-1.49A1.63,1.63,0,0,0,170.3,31.33Z"/><path class="cls-6" d="M176.07,36.22,178,30.85h.72l-2.37,6.34h-.56l-2.38-6.34h.72Z"/><path class="cls-6" d="M182.25,37.3a2.77,2.77,0,0,1-1.46-.39,2.73,2.73,0,0,1-1-1.11,3.52,3.52,0,0,1-.36-1.6V34a3.84,3.84,0,0,1,.35-1.65,2.86,2.86,0,0,1,1-1.15,2.43,2.43,0,0,1,1.37-.42,2.27,2.27,0,0,1,1.83.79,3.19,3.19,0,0,1,.68,2.15v.39H180.1v.14a2.63,2.63,0,0,0,.62,1.79,2,2,0,0,0,1.56.72,2.4,2.4,0,0,0,1-.2,2.19,2.19,0,0,0,.78-.66l.44.34A2.55,2.55,0,0,1,182.25,37.3Zm-.13-6a1.73,1.73,0,0,0-1.33.58,2.66,2.66,0,0,0-.66,1.56h3.8v-.08a2.32,2.32,0,0,0-.52-1.49A1.63,1.63,0,0,0,182.12,31.33Z"/><path class="cls-6" d="M186.66,30.85l0,1.08a2.47,2.47,0,0,1,.9-.89,2.23,2.23,0,0,1,1.17-.31,1.91,1.91,0,0,1,1.52.57,2.61,2.61,0,0,1,.5,1.73v4.16h-.69V33a2,2,0,0,0-.36-1.26,1.42,1.42,0,0,0-1.14-.42,1.8,1.8,0,0,0-1.15.41,2.36,2.36,0,0,0-.74,1.1v4.34H186V30.85Z"/><path class="cls-6" d="M193.67,29.22v1.63H195v.57h-1.32v4.23a1.31,1.31,0,0,0,.2.79.72.72,0,0,0,.63.25,3.82,3.82,0,0,0,.57,0l0,.57a2.47,2.47,0,0,1-.75.09,1.28,1.28,0,0,1-1-.41,2,2,0,0,1-.33-1.24V31.42h-1.16v-.57H193V29.22Z"/><path class="cls-6" d="M196.4,29a.49.49,0,0,1,.83-.34.46.46,0,0,1,.14.34.45.45,0,0,1-.14.33.48.48,0,0,1-.83-.33Zm.83,8.17h-.71V30.85h.71Z"/><path class="cls-6" d="M201.1,36.22,203,30.85h.72l-2.36,6.34h-.57l-2.38-6.34h.72Z"/><path class="cls-6" d="M207.28,37.3a2.77,2.77,0,0,1-1.46-.39,2.73,2.73,0,0,1-1-1.11,3.52,3.52,0,0,1-.36-1.6V34a3.84,3.84,0,0,1,.35-1.65,2.86,2.86,0,0,1,1-1.15,2.43,2.43,0,0,1,1.37-.42,2.27,2.27,0,0,1,1.83.79,3.19,3.19,0,0,1,.68,2.15v.39h-4.52v.14a2.63,2.63,0,0,0,.61,1.79,2,2,0,0,0,1.56.72,2.36,2.36,0,0,0,1-.2,2.19,2.19,0,0,0,.78-.66l.44.34A2.55,2.55,0,0,1,207.28,37.3Zm-.13-6a1.73,1.73,0,0,0-1.33.58,2.66,2.66,0,0,0-.66,1.56H209v-.08a2.32,2.32,0,0,0-.52-1.49A1.63,1.63,0,0,0,207.15,31.33Z"/><path class="cls-6" d="M216.4,37.3a2.77,2.77,0,0,1-1.46-.39,2.73,2.73,0,0,1-1-1.11,3.52,3.52,0,0,1-.36-1.6V34a3.7,3.7,0,0,1,.35-1.65,2.86,2.86,0,0,1,1-1.15,2.43,2.43,0,0,1,1.37-.42,2.27,2.27,0,0,1,1.83.79,3.19,3.19,0,0,1,.68,2.15v.39h-4.53v.14a2.63,2.63,0,0,0,.62,1.79,2,2,0,0,0,1.56.72,2.4,2.4,0,0,0,1-.2,2.19,2.19,0,0,0,.78-.66l.44.34A2.55,2.55,0,0,1,216.4,37.3Zm-.13-6a1.73,1.73,0,0,0-1.33.58,2.54,2.54,0,0,0-.66,1.56h3.8v-.08a2.32,2.32,0,0,0-.52-1.49A1.63,1.63,0,0,0,216.27,31.33Z"/><path class="cls-6" d="M222.13,33.42l1.71-2.57h.84L222.53,34l2.24,3.23h-.83l-1.8-2.69-1.81,2.69h-.82L221.75,34l-2.15-3.11h.82Z"/><path class="cls-6" d="M230,37.19a3.37,3.37,0,0,1-.14-.89,2.3,2.3,0,0,1-.94.74,2.77,2.77,0,0,1-1.21.26,2.13,2.13,0,0,1-1.48-.51,1.67,1.67,0,0,1-.56-1.28,1.71,1.71,0,0,1,.77-1.47,3.69,3.69,0,0,1,2.15-.54h1.27v-.72a1.39,1.39,0,0,0-.42-1.07,1.74,1.74,0,0,0-1.22-.39,1.9,1.9,0,0,0-1.21.38,1.12,1.12,0,0,0-.49.9h-.7a1.66,1.66,0,0,1,.7-1.31,2.71,2.71,0,0,1,1.73-.55,2.51,2.51,0,0,1,1.68.53,2,2,0,0,1,.63,1.48v3a3.76,3.76,0,0,0,.19,1.38v.07Zm-2.2-.51a2.3,2.3,0,0,0,1.25-.34,2,2,0,0,0,.81-.9V34h-1.26a3.28,3.28,0,0,0-1.64.38,1.17,1.17,0,0,0-.59,1,1.11,1.11,0,0,0,.4.88A1.45,1.45,0,0,0,227.78,36.68Z"/><path class="cls-6" d="M233,30.85l0,1A2.27,2.27,0,0,1,234,31a2.42,2.42,0,0,1,1.17-.29A1.77,1.77,0,0,1,237,32a2.41,2.41,0,0,1,.91-.91,2.55,2.55,0,0,1,1.25-.32c1.36,0,2.06.74,2.08,2.23v4.23h-.7V33a1.86,1.86,0,0,0-.36-1.26,1.52,1.52,0,0,0-1.18-.41,1.89,1.89,0,0,0-1.28.49,1.76,1.76,0,0,0-.58,1.16v4.2h-.7V33a1.73,1.73,0,0,0-.38-1.22,1.54,1.54,0,0,0-1.17-.4,1.75,1.75,0,0,0-1.13.38,2.22,2.22,0,0,0-.71,1.12v4.35h-.7V30.85Z"/><path class="cls-6" d="M246.84,35.58a1,1,0,0,0-.42-.84,3.26,3.26,0,0,0-1.26-.5,5.35,5.35,0,0,1-1.31-.41,1.75,1.75,0,0,1-.7-.56,1.45,1.45,0,0,1-.22-.81,1.51,1.51,0,0,1,.63-1.24,2.48,2.48,0,0,1,1.6-.49,2.58,2.58,0,0,1,1.7.52,1.68,1.68,0,0,1,.64,1.37h-.7a1.11,1.11,0,0,0-.46-.92,1.83,1.83,0,0,0-1.18-.37,1.8,1.8,0,0,0-1.11.31.94.94,0,0,0-.42.8.87.87,0,0,0,.35.73,3.9,3.9,0,0,0,1.27.48,5.76,5.76,0,0,1,1.38.46,1.77,1.77,0,0,1,.69.59,1.63,1.63,0,0,1-.43,2.12,2.75,2.75,0,0,1-1.69.48,2.8,2.8,0,0,1-1.79-.53,1.65,1.65,0,0,1-.69-1.36h.7a1.23,1.23,0,0,0,.52,1,2.11,2.11,0,0,0,1.26.34,2.06,2.06,0,0,0,1.19-.32A1,1,0,0,0,246.84,35.58Z"/><path class="cls-6" d="M249,38.78l-.42-.3A2.52,2.52,0,0,0,249.1,37v-.9h.69v.73A2.52,2.52,0,0,1,249,38.78Z"/></g><g class="cls-4"><path class="cls-6" d="M129.46,51.18a1,1,0,0,0-.42-.84,3.26,3.26,0,0,0-1.26-.5,5.5,5.5,0,0,1-1.31-.41,1.72,1.72,0,0,1-.69-.56,1.43,1.43,0,0,1-.23-.81,1.51,1.51,0,0,1,.63-1.24,2.51,2.51,0,0,1,1.61-.49,2.61,2.61,0,0,1,1.7.52,1.68,1.68,0,0,1,.64,1.37h-.7a1.12,1.12,0,0,0-.47-.92,2.09,2.09,0,0,0-2.28-.06.94.94,0,0,0-.42.8.84.84,0,0,0,.35.73,3.8,3.8,0,0,0,1.27.48,6.09,6.09,0,0,1,1.38.46,1.82,1.82,0,0,1,.68.59,1.61,1.61,0,0,1-.42,2.12,2.77,2.77,0,0,1-1.69.48,2.83,2.83,0,0,1-1.8-.53,1.65,1.65,0,0,1-.69-1.36h.71a1.22,1.22,0,0,0,.51,1,2.12,2.12,0,0,0,1.27.34A1.94,1.94,0,0,0,129,52,1,1,0,0,0,129.46,51.18Z"/><path class="cls-6" d="M134.08,52.31a1.88,1.88,0,0,0,1.23-.41,1.47,1.47,0,0,0,.54-1.07h.67a2,2,0,0,1-.36,1.06,2.15,2.15,0,0,1-.89.74,2.66,2.66,0,0,1-1.19.27,2.42,2.42,0,0,1-2-.86,3.5,3.5,0,0,1-.73-2.33v-.22a3.92,3.92,0,0,1,.33-1.65,2.47,2.47,0,0,1,.94-1.12,2.57,2.57,0,0,1,1.43-.39,2.47,2.47,0,0,1,1.72.62,2.28,2.28,0,0,1,.72,1.64h-.67a1.69,1.69,0,0,0-1.77-1.66,1.76,1.76,0,0,0-1.47.68,3.12,3.12,0,0,0-.53,1.93v.2a3,3,0,0,0,.53,1.89A1.73,1.73,0,0,0,134.08,52.31Z"/><path class="cls-6" d="M140.85,47a3.43,3.43,0,0,0-.47,0,1.73,1.73,0,0,0-1.11.37,2,2,0,0,0-.65,1.06v4.36h-.7V46.45h.69v1a1.87,1.87,0,0,1,1.79-1.13,1.15,1.15,0,0,1,.46.08Z"/><path class="cls-6" d="M144.3,52.9a2.67,2.67,0,0,1-2.47-1.5,3.4,3.4,0,0,1-.37-1.6v-.25a3.7,3.7,0,0,1,.36-1.65,2.76,2.76,0,0,1,1-1.15,2.45,2.45,0,0,1,1.37-.42,2.31,2.31,0,0,1,1.84.79,3.18,3.18,0,0,1,.67,2.15v.39h-4.52v.14a2.63,2.63,0,0,0,.62,1.79,2,2,0,0,0,1.55.72,2.41,2.41,0,0,0,1-.2,2.37,2.37,0,0,0,.78-.66l.44.34A2.58,2.58,0,0,1,144.3,52.9Zm-.13-6a1.74,1.74,0,0,0-1.33.58,2.66,2.66,0,0,0-.66,1.56H146V49a2.32,2.32,0,0,0-.53-1.49A1.6,1.6,0,0,0,144.17,46.93Z"/><path class="cls-6" d="M150.5,52.9a2.8,2.8,0,0,1-1.46-.39,2.88,2.88,0,0,1-1-1.11,3.52,3.52,0,0,1-.36-1.6v-.25A3.7,3.7,0,0,1,148,47.9a2.76,2.76,0,0,1,1-1.15,2.43,2.43,0,0,1,1.37-.42,2.31,2.31,0,0,1,1.84.79,3.18,3.18,0,0,1,.67,2.15v.39h-4.52v.14a2.59,2.59,0,0,0,.62,1.79,2,2,0,0,0,1.55.72,2.41,2.41,0,0,0,1-.2,2.37,2.37,0,0,0,.78-.66l.44.34A2.58,2.58,0,0,1,150.5,52.9Zm-.13-6a1.74,1.74,0,0,0-1.33.58,2.66,2.66,0,0,0-.66,1.56h3.8V49a2.26,2.26,0,0,0-.52-1.49A1.61,1.61,0,0,0,150.37,46.93Z"/><path class="cls-6" d="M154.92,46.45l0,1.08a2.45,2.45,0,0,1,.89-.89,2.26,2.26,0,0,1,1.18-.31,1.89,1.89,0,0,1,1.51.57,2.61,2.61,0,0,1,.51,1.73v4.16h-.7V48.62a1.86,1.86,0,0,0-.36-1.26,1.4,1.4,0,0,0-1.13-.42,1.76,1.76,0,0,0-1.15.41,2.31,2.31,0,0,0-.75,1.1v4.34h-.69V46.45Z"/><path class="cls-6" d="M160.8,44.62a.46.46,0,0,1,.48-.48.47.47,0,0,1,.35.14.45.45,0,0,1,.13.34.44.44,0,0,1-.13.33.46.46,0,0,1-.35.13.45.45,0,0,1-.48-.46Zm.82,8.17h-.7V46.45h.7Z"/><path class="cls-6" d="M164.2,46.45l0,1.08a2.45,2.45,0,0,1,.89-.89,2.29,2.29,0,0,1,1.18-.31,1.93,1.93,0,0,1,1.52.57,2.61,2.61,0,0,1,.5,1.73v4.16h-.7V48.62a1.86,1.86,0,0,0-.36-1.26,1.39,1.39,0,0,0-1.13-.42,1.76,1.76,0,0,0-1.15.41,2.29,2.29,0,0,0-.74,1.1v4.34h-.7V46.45Z"/><path class="cls-6" d="M169.84,49.56a3.82,3.82,0,0,1,.66-2.36,2.12,2.12,0,0,1,1.79-.87,2.21,2.21,0,0,1,2,1l0-.91H175v6.21a2.69,2.69,0,0,1-.69,1.94,2.45,2.45,0,0,1-1.85.71,2.92,2.92,0,0,1-1.27-.29,2.44,2.44,0,0,1-.94-.79l.39-.42a2.2,2.2,0,0,0,1.77.91,1.79,1.79,0,0,0,1.37-.52,2,2,0,0,0,.51-1.44V52a2.27,2.27,0,0,1-2,.93,2.11,2.11,0,0,1-1.77-.87,3.82,3.82,0,0,1-.67-2.38Zm.71.12a3.31,3.31,0,0,0,.48,1.91,1.59,1.59,0,0,0,1.38.7,1.86,1.86,0,0,0,1.83-1.16V48.19a1.85,1.85,0,0,0-1.82-1.25,1.6,1.6,0,0,0-1.38.69A3.55,3.55,0,0,0,170.55,49.68Z"/><path class="cls-6" d="M180.57,51.18a1,1,0,0,0-.42-.84,3.2,3.2,0,0,0-1.26-.5,5.5,5.5,0,0,1-1.31-.41,1.72,1.72,0,0,1-.69-.56,1.42,1.42,0,0,1-.22-.81,1.5,1.5,0,0,1,.62-1.24,2.53,2.53,0,0,1,1.61-.49,2.61,2.61,0,0,1,1.7.52,1.68,1.68,0,0,1,.64,1.37h-.7a1.12,1.12,0,0,0-.47-.92,2.09,2.09,0,0,0-2.28-.06.94.94,0,0,0-.42.8.84.84,0,0,0,.35.73,3.8,3.8,0,0,0,1.27.48,6.09,6.09,0,0,1,1.38.46,1.74,1.74,0,0,1,.68.59,1.61,1.61,0,0,1-.42,2.12,2.77,2.77,0,0,1-1.69.48,2.83,2.83,0,0,1-1.8-.53,1.65,1.65,0,0,1-.69-1.36h.71a1.2,1.2,0,0,0,.52,1,2.09,2.09,0,0,0,1.26.34,1.94,1.94,0,0,0,1.18-.32A1,1,0,0,0,180.57,51.18Z"/><path class="cls-6" d="M182.71,54.38l-.42-.3a2.52,2.52,0,0,0,.55-1.49v-.9h.69v.73A2.55,2.55,0,0,1,182.71,54.38Z"/><path class="cls-6" d="M191.86,51.18a1,1,0,0,0-.41-.84,3.25,3.25,0,0,0-1.27-.5,5.5,5.5,0,0,1-1.31-.41,1.72,1.72,0,0,1-.69-.56,1.42,1.42,0,0,1-.22-.81,1.53,1.53,0,0,1,.62-1.24,2.53,2.53,0,0,1,1.61-.49,2.6,2.6,0,0,1,1.7.52,1.68,1.68,0,0,1,.64,1.37h-.7a1.12,1.12,0,0,0-.47-.92,2.09,2.09,0,0,0-2.28-.06.94.94,0,0,0-.42.8.87.87,0,0,0,.35.73,3.8,3.8,0,0,0,1.27.48,5.92,5.92,0,0,1,1.38.46,1.74,1.74,0,0,1,.68.59,1.61,1.61,0,0,1-.42,2.12,2.77,2.77,0,0,1-1.69.48,2.83,2.83,0,0,1-1.8-.53,1.65,1.65,0,0,1-.68-1.36h.7a1.23,1.23,0,0,0,.52,1,2.11,2.11,0,0,0,1.26.34,1.94,1.94,0,0,0,1.18-.32A1,1,0,0,0,191.86,51.18Z"/><path class="cls-6" d="M199.24,49.68a3.79,3.79,0,0,1-.66,2.35,2.07,2.07,0,0,1-1.75.87,2.36,2.36,0,0,1-2-.91v3.23h-.69V46.45h.65l0,.89a2.27,2.27,0,0,1,2-1,2.11,2.11,0,0,1,1.78.86,3.86,3.86,0,0,1,.65,2.39Zm-.7-.12a3.29,3.29,0,0,0-.5-1.92,1.59,1.59,0,0,0-1.39-.7,1.93,1.93,0,0,0-1.11.31,2.09,2.09,0,0,0-.71.9v3a1.88,1.88,0,0,0,.73.84,2.07,2.07,0,0,0,1.1.28,1.59,1.59,0,0,0,1.38-.7A3.57,3.57,0,0,0,198.54,49.56Z"/><path class="cls-6" d="M203.25,52.9a2.77,2.77,0,0,1-1.46-.39,2.73,2.73,0,0,1-1-1.11,3.52,3.52,0,0,1-.36-1.6v-.25a3.84,3.84,0,0,1,.35-1.65,2.86,2.86,0,0,1,1-1.15,2.43,2.43,0,0,1,1.37-.42,2.27,2.27,0,0,1,1.83.79,3.19,3.19,0,0,1,.68,2.15v.39H201.1v.14a2.63,2.63,0,0,0,.62,1.79,2,2,0,0,0,1.56.72,2.4,2.4,0,0,0,1-.2,2.19,2.19,0,0,0,.78-.66l.44.34A2.55,2.55,0,0,1,203.25,52.9Zm-.13-6a1.73,1.73,0,0,0-1.33.58,2.66,2.66,0,0,0-.66,1.56h3.8V49a2.32,2.32,0,0,0-.52-1.49A1.63,1.63,0,0,0,203.12,46.93Z"/><path class="cls-6" d="M209.34,52.31a1.85,1.85,0,0,0,1.22-.41,1.47,1.47,0,0,0,.54-1.07h.67a2,2,0,0,1-.36,1.06,2.15,2.15,0,0,1-.89.74,2.65,2.65,0,0,1-1.18.27,2.44,2.44,0,0,1-2-.86,3.5,3.5,0,0,1-.73-2.33v-.22a3.92,3.92,0,0,1,.33-1.65,2.54,2.54,0,0,1,.94-1.12,2.6,2.6,0,0,1,1.43-.39,2.45,2.45,0,0,1,1.72.62,2.28,2.28,0,0,1,.72,1.64h-.67a1.69,1.69,0,0,0-1.77-1.66,1.76,1.76,0,0,0-1.47.68,3.12,3.12,0,0,0-.53,1.93v.2a3,3,0,0,0,.53,1.89A1.74,1.74,0,0,0,209.34,52.31Z"/><path class="cls-6" d="M213.13,44.62a.49.49,0,0,1,.13-.34.48.48,0,0,1,.35-.14.49.49,0,0,1,.36.14.45.45,0,0,1,.13.34A.44.44,0,0,1,214,45a.48.48,0,0,1-.36.13.48.48,0,0,1-.35-.13A.49.49,0,0,1,213.13,44.62Zm.83,8.17h-.7V46.45h.7Z"/><path class="cls-6" d="M219.87,52.79a3.37,3.37,0,0,1-.14-.89,2.37,2.37,0,0,1-.94.74,2.77,2.77,0,0,1-1.21.26,2.13,2.13,0,0,1-1.48-.51,1.64,1.64,0,0,1-.56-1.28,1.69,1.69,0,0,1,.77-1.47,3.68,3.68,0,0,1,2.14-.54h1.28v-.72a1.39,1.39,0,0,0-.42-1.07,1.75,1.75,0,0,0-1.23-.39,1.92,1.92,0,0,0-1.21.38,1.11,1.11,0,0,0-.48.9h-.7a1.63,1.63,0,0,1,.7-1.31,2.71,2.71,0,0,1,1.73-.55,2.48,2.48,0,0,1,1.67.53,1.89,1.89,0,0,1,.63,1.48v3a3.72,3.72,0,0,0,.2,1.38v.07Zm-2.21-.51a2.33,2.33,0,0,0,1.26-.34,2,2,0,0,0,.81-.9v-1.4h-1.26a3.26,3.26,0,0,0-1.64.38,1.17,1.17,0,0,0-.59,1,1.13,1.13,0,0,0,.39.88A1.48,1.48,0,0,0,217.66,52.28Z"/><path class="cls-6" d="M223.08,52.79h-.71v-9h.71Z"/><path class="cls-6" d="M226.07,44.82v1.63h1.31V47h-1.31v4.23a1.32,1.32,0,0,0,.19.79.75.75,0,0,0,.64.25,4,4,0,0,0,.57,0l0,.57a2.56,2.56,0,0,1-.75.09,1.27,1.27,0,0,1-1.05-.41,2,2,0,0,1-.33-1.24V47H224.2v-.57h1.17V44.82Z"/><path class="cls-6" d="M230.85,51.78l1.85-5.33h.75l-2.7,7.42-.14.32A1.71,1.71,0,0,1,229,55.35a2.14,2.14,0,0,1-.54-.08v-.58l.36,0a1.29,1.29,0,0,0,.84-.25,2,2,0,0,0,.54-.88l.31-.86-2.39-6.28h.77Z"/><path class="cls-6" d="M240.81,49.23h-2.48v3.56h-.73V44.26h2.77a3.19,3.19,0,0,1,2.14.66,2.53,2.53,0,0,1,.28,3.29,2.45,2.45,0,0,1-1.29.87l2.14,3.63v.08h-.77Zm-2.48-.61h2.21A2,2,0,0,0,242,48.1a1.94,1.94,0,0,0,0-2.74,2.38,2.38,0,0,0-1.61-.49h-2Z"/><path class="cls-6" d="M247.07,49l1.71-2.57h.83l-2.15,3.11,2.24,3.23h-.82l-1.81-2.69-1.8,2.69h-.83l2.24-3.23-2.15-3.11h.82Z"/></g><g class="cls-4"><path class="cls-6" d="M128,67.91a1.88,1.88,0,0,0,1.23-.41,1.43,1.43,0,0,0,.53-1.07h.68a1.94,1.94,0,0,1-.37,1.06,2.19,2.19,0,0,1-.88.74,2.69,2.69,0,0,1-1.19.27,2.45,2.45,0,0,1-2-.86,3.5,3.5,0,0,1-.73-2.33v-.22a3.92,3.92,0,0,1,.33-1.65,2.54,2.54,0,0,1,.94-1.12,2.62,2.62,0,0,1,1.43-.39,2.45,2.45,0,0,1,1.72.62,2.28,2.28,0,0,1,.73,1.64h-.68a1.83,1.83,0,0,0-3.24-1,3.12,3.12,0,0,0-.53,1.93v.2a3,3,0,0,0,.53,1.89A1.74,1.74,0,0,0,128,67.91Z"/><path class="cls-6" d="M131.46,65.12a3.79,3.79,0,0,1,.35-1.64,2.67,2.67,0,0,1,1-1.14,2.7,2.7,0,0,1,1.46-.41,2.6,2.6,0,0,1,2.05.89,3.38,3.38,0,0,1,.79,2.35v.15a3.84,3.84,0,0,1-.35,1.65,2.72,2.72,0,0,1-1,1.14,2.78,2.78,0,0,1-1.47.39,2.61,2.61,0,0,1-2.05-.88,3.42,3.42,0,0,1-.79-2.36Zm.7.2a2.88,2.88,0,0,0,.59,1.86,1.88,1.88,0,0,0,1.55.73,1.86,1.86,0,0,0,1.53-.73,2.9,2.9,0,0,0,.59-1.92v-.14a3.26,3.26,0,0,0-.27-1.33,2.18,2.18,0,0,0-.75-.93,2,2,0,0,0-1.12-.33,1.88,1.88,0,0,0-1.53.73,3,3,0,0,0-.59,1.93Z"/><path class="cls-6" d="M140.45,67.42l1.93-5.37h.72l-2.36,6.34h-.57l-2.38-6.34h.72Z"/><path class="cls-6" d="M146.63,68.5a2.77,2.77,0,0,1-1.46-.39,2.73,2.73,0,0,1-1-1.11,3.52,3.52,0,0,1-.36-1.6v-.25a3.84,3.84,0,0,1,.35-1.65,2.86,2.86,0,0,1,1-1.15,2.43,2.43,0,0,1,1.37-.42,2.27,2.27,0,0,1,1.83.79,3.19,3.19,0,0,1,.68,2.15v.39h-4.52v.14a2.63,2.63,0,0,0,.61,1.79,2,2,0,0,0,1.56.72,2.36,2.36,0,0,0,1-.2,2.19,2.19,0,0,0,.78-.66l.44.34A2.55,2.55,0,0,1,146.63,68.5Zm-.13-6a1.73,1.73,0,0,0-1.33.58,2.66,2.66,0,0,0-.66,1.56h3.8v-.08a2.32,2.32,0,0,0-.52-1.49A1.63,1.63,0,0,0,146.5,62.53Z"/><path class="cls-6" d="M153.3,62.65a2.26,2.26,0,0,0-.47,0,1.73,1.73,0,0,0-1.11.37,2,2,0,0,0-.65,1.06v4.36h-.7V62.05h.69v1a1.87,1.87,0,0,1,1.79-1.13,1.15,1.15,0,0,1,.46.08Z"/><path class="cls-6" d="M156.75,68.5a2.83,2.83,0,0,1-1.46-.39,2.78,2.78,0,0,1-1-1.11,3.4,3.4,0,0,1-.37-1.6v-.25a3.7,3.7,0,0,1,.36-1.65,2.76,2.76,0,0,1,1-1.15,2.46,2.46,0,0,1,1.38-.42,2.27,2.27,0,0,1,1.83.79,3.18,3.18,0,0,1,.67,2.15v.39h-4.52v.14a2.63,2.63,0,0,0,.62,1.79,2,2,0,0,0,1.55.72,2.41,2.41,0,0,0,1-.2,2.28,2.28,0,0,0,.78-.66l.44.34A2.57,2.57,0,0,1,156.75,68.5Zm-.12-6a1.75,1.75,0,0,0-1.34.58,2.66,2.66,0,0,0-.66,1.56h3.81v-.08a2.37,2.37,0,0,0-.52-1.49A1.63,1.63,0,0,0,156.63,62.53Z"/><path class="cls-6" d="M160.22,65.16a3.79,3.79,0,0,1,.66-2.35,2.1,2.1,0,0,1,1.79-.88,2.21,2.21,0,0,1,2,1V59.39h.7v9h-.65l0-.85a2.27,2.27,0,0,1-2,1,2.1,2.1,0,0,1-1.77-.88,3.82,3.82,0,0,1-.67-2.38Zm.71.12a3.31,3.31,0,0,0,.48,1.91,1.58,1.58,0,0,0,1.37.71,1.89,1.89,0,0,0,1.84-1.15v-3a1.86,1.86,0,0,0-1.82-1.24,1.6,1.6,0,0,0-1.38.69A3.55,3.55,0,0,0,160.93,65.28Z"/><path class="cls-6" d="M170,60.22a.49.49,0,0,1,.13-.34.48.48,0,0,1,.35-.14.49.49,0,0,1,.36.14.45.45,0,0,1,.13.34.44.44,0,0,1-.13.33.48.48,0,0,1-.36.13.48.48,0,0,1-.35-.13A.49.49,0,0,1,170,60.22Zm.83,8.17h-.7V62.05h.7Z"/><path class="cls-6" d="M173.44,62.05l0,1.08a2.37,2.37,0,0,1,.89-.89,2.23,2.23,0,0,1,1.17-.31,1.91,1.91,0,0,1,1.52.57,2.66,2.66,0,0,1,.51,1.73v4.16h-.7V64.22A2,2,0,0,0,176.5,63a1.42,1.42,0,0,0-1.14-.42,1.8,1.8,0,0,0-1.15.41,2.36,2.36,0,0,0-.74,1.1v4.34h-.7V62.05Z"/><path class="cls-6" d="M182.79,68.39V62.62h-1v-.57h1v-.77a2.06,2.06,0,0,1,.49-1.49,1.81,1.81,0,0,1,1.38-.53,3,3,0,0,1,.75.1l-.06.58a3,3,0,0,0-.63-.07,1.17,1.17,0,0,0-.91.36,1.55,1.55,0,0,0-.32,1v.79H185v.57h-1.51v5.77Z"/><path class="cls-6" d="M190.33,67.58a2.25,2.25,0,0,1-2,.92,2,2,0,0,1-1.54-.58,2.63,2.63,0,0,1-.54-1.75V62.05h.7v4c0,1.21.49,1.82,1.47,1.82a1.79,1.79,0,0,0,1.92-1.26V62.05H191v6.34h-.68Z"/><path class="cls-6" d="M193.63,68.39h-.7v-9h.7Z"/><path class="cls-6" d="M196.32,68.39h-.7v-9h.7Z"/></g></g><line id="Line_263" data-name="Line 263" class="cls-2" x1="89.1" y1="193.11" x2="89.1" y2="84.8"/><g id="YOU_PAY" data-name="YOU PAY" class="cls-4"><g class="cls-4"><path class="cls-5" d="M14.66,104.34l3-5.42h1l-3.59,6.2v3.75h-.85v-3.75l-3.58-6.2h1Z"/><path class="cls-5" d="M27.28,104.43a5.66,5.66,0,0,1-.48,2.41,3.56,3.56,0,0,1-1.35,1.6,3.68,3.68,0,0,1-2,.56,3.55,3.55,0,0,1-2.82-1.24,5,5,0,0,1-1.07-3.37v-1A5.73,5.73,0,0,1,20,101a3.55,3.55,0,0,1,3.39-2.18,3.7,3.7,0,0,1,2,.55,3.61,3.61,0,0,1,1.36,1.57,5.68,5.68,0,0,1,.5,2.34Zm-.84-1.08a4.32,4.32,0,0,0-.82-2.81,2.93,2.93,0,0,0-4.44,0,4.42,4.42,0,0,0-.82,2.85v1a4.39,4.39,0,0,0,.82,2.81,2.94,2.94,0,0,0,4.46,0,4.54,4.54,0,0,0,.8-2.85Z"/><path class="cls-5" d="M36.25,98.92v6.79a3.42,3.42,0,0,1-.44,1.75,2.8,2.8,0,0,1-1.24,1.14,4,4,0,0,1-1.82.4,3.61,3.61,0,0,1-2.52-.85,3.15,3.15,0,0,1-1-2.38V98.92h.83v6.73a2.57,2.57,0,0,0,.72,1.95,3.09,3.09,0,0,0,3.89,0,2.6,2.6,0,0,0,.72-1.94V98.92Z"/><path class="cls-5" d="M42.84,104.81v4.06H42v-10h3.39a3.56,3.56,0,0,1,2.45.79,3.12,3.12,0,0,1,0,4.34,3.68,3.68,0,0,1-2.51.76Zm0-.71h2.55a2.69,2.69,0,0,0,1.87-.58,2.07,2.07,0,0,0,.64-1.62,2.17,2.17,0,0,0-.64-1.65,2.5,2.5,0,0,0-1.81-.62H42.84Z"/><path class="cls-5" d="M55.05,106.07H50.53l-1,2.8h-.88l3.76-10h.8l3.77,10h-.88Zm-4.26-.71h4l-2-5.42Z"/><path class="cls-5" d="M60.7,104.34l3-5.42h1l-3.59,6.2v3.75h-.85v-3.75l-3.58-6.2h1Z"/></g></g><g id="non-preventive_care_and_prescriptions_until_you_reach_deductible" data-name="non-preventive care and prescriptions until you reach deductible" class="cls-4"><g class="cls-4"><path class="cls-5" d="M11,120.45l0,.9a2.21,2.21,0,0,1,.74-.75,2,2,0,0,1,1-.25,1.59,1.59,0,0,1,1.26.48,2.11,2.11,0,0,1,.42,1.43v3.47h-.58v-3.47a1.6,1.6,0,0,0-.3-1.06,1.18,1.18,0,0,0-.95-.34,1.47,1.47,0,0,0-1,.34,2,2,0,0,0-.61.91v3.62h-.58v-5.28Z"/><path class="cls-5" d="M15.66,123a3,3,0,0,1,.29-1.37,2.23,2.23,0,0,1,.84-1,2.2,2.2,0,0,1,1.22-.34,2.16,2.16,0,0,1,1.71.74,2.86,2.86,0,0,1,.65,2v.12a3.25,3.25,0,0,1-.29,1.38A2.22,2.22,0,0,1,18,125.83a2.2,2.2,0,0,1-1.71-.74,2.9,2.9,0,0,1-.65-2Zm.58.16a2.46,2.46,0,0,0,.49,1.56,1.59,1.59,0,0,0,1.29.6,1.57,1.57,0,0,0,1.28-.6,2.47,2.47,0,0,0,.49-1.61V123a2.72,2.72,0,0,0-.22-1.11,1.88,1.88,0,0,0-.63-.78,1.64,1.64,0,0,0-.93-.27,1.54,1.54,0,0,0-1.27.61,2.47,2.47,0,0,0-.5,1.6Z"/><path class="cls-5" d="M22.14,120.45l0,.9a2,2,0,0,1,.74-.75,1.91,1.91,0,0,1,1-.25,1.56,1.56,0,0,1,1.26.48,2.11,2.11,0,0,1,.42,1.43v3.47H25v-3.47a1.6,1.6,0,0,0-.3-1.06,1.16,1.16,0,0,0-.94-.34,1.47,1.47,0,0,0-1,.34,1.93,1.93,0,0,0-.62.91v3.62h-.58v-5.28Z"/><path class="cls-5" d="M28.89,122.84H26.55v-.49h2.34Z"/><path class="cls-5" d="M34.18,123.14a3.15,3.15,0,0,1-.55,2,1.74,1.74,0,0,1-1.46.73,2,2,0,0,1-1.66-.77v2.7h-.58v-7.31h.54l0,.74a1.88,1.88,0,0,1,1.66-.84,1.75,1.75,0,0,1,1.48.72,3.23,3.23,0,0,1,.54,2Zm-.58-.1a2.69,2.69,0,0,0-.42-1.6,1.34,1.34,0,0,0-1.16-.58,1.65,1.65,0,0,0-.92.25,1.69,1.69,0,0,0-.59.76v2.53a1.51,1.51,0,0,0,.6.69,1.73,1.73,0,0,0,.92.24,1.31,1.31,0,0,0,1.15-.59A2.9,2.9,0,0,0,33.6,123Z"/><path class="cls-5" d="M37.92,120.94a2.6,2.6,0,0,0-.4,0,1.38,1.38,0,0,0-.92.31,1.55,1.55,0,0,0-.54.88v3.63h-.58v-5.28h.57v.84a1.54,1.54,0,0,1,1.49-.94,1,1,0,0,1,.38.06Z"/><path class="cls-5" d="M40.79,125.83a2.25,2.25,0,0,1-1.22-.34,2.2,2.2,0,0,1-.84-.92,2.93,2.93,0,0,1-.31-1.33V123a3,3,0,0,1,.3-1.37,2.34,2.34,0,0,1,.82-1,2,2,0,0,1,1.15-.35,1.91,1.91,0,0,1,1.52.65,2.66,2.66,0,0,1,.57,1.8v.33H39v.11a2.19,2.19,0,0,0,.51,1.49,1.64,1.64,0,0,0,1.3.6,1.84,1.84,0,0,0,.83-.17,1.89,1.89,0,0,0,.65-.54l.36.27A2.12,2.12,0,0,1,40.79,125.83Zm-.1-5a1.5,1.5,0,0,0-1.12.48,2.18,2.18,0,0,0-.54,1.3h3.16v-.07a1.94,1.94,0,0,0-.43-1.24A1.36,1.36,0,0,0,40.69,120.85Z"/><path class="cls-5" d="M45.5,124.92l1.6-4.47h.6l-2,5.28h-.47l-2-5.28h.6Z"/><path class="cls-5" d="M50.64,125.83a2.25,2.25,0,0,1-1.22-.34,2.2,2.2,0,0,1-.84-.92,2.8,2.8,0,0,1-.31-1.33V123a3,3,0,0,1,.3-1.37,2.34,2.34,0,0,1,.82-1,2,2,0,0,1,1.14-.35,1.93,1.93,0,0,1,1.53.65,2.66,2.66,0,0,1,.56,1.8v.33H48.85v.11a2.2,2.2,0,0,0,.52,1.49,1.64,1.64,0,0,0,1.3.6,1.8,1.8,0,0,0,.82-.17,1.83,1.83,0,0,0,.66-.54l.36.27A2.12,2.12,0,0,1,50.64,125.83Zm-.11-5a1.46,1.46,0,0,0-1.11.48,2.25,2.25,0,0,0-.55,1.3H52v-.07a1.94,1.94,0,0,0-.43-1.24A1.38,1.38,0,0,0,50.53,120.85Z"/><path class="cls-5" d="M54.32,120.45l0,.9a2.13,2.13,0,0,1,.74-.75,1.93,1.93,0,0,1,1-.25,1.59,1.59,0,0,1,1.27.48,2.22,2.22,0,0,1,.42,1.43v3.47h-.58v-3.47a1.65,1.65,0,0,0-.31-1.06,1.16,1.16,0,0,0-.94-.34,1.47,1.47,0,0,0-1,.34,2,2,0,0,0-.62.91v3.62h-.58v-5.28Z"/><path class="cls-5" d="M60.16,119.09v1.36h1.1v.47h-1.1v3.53a1.13,1.13,0,0,0,.16.65.6.6,0,0,0,.53.22,4.3,4.3,0,0,0,.48,0l0,.47a1.75,1.75,0,0,1-.63.09,1,1,0,0,1-.87-.35,1.69,1.69,0,0,1-.27-1v-3.53h-1v-.47h1v-1.36Z"/><path class="cls-5" d="M62.43,118.92a.41.41,0,0,1,.11-.28.36.36,0,0,1,.29-.11.37.37,0,0,1,.3.11.39.39,0,0,1-.3.67.4.4,0,0,1-.29-.11A.41.41,0,0,1,62.43,118.92Zm.69,6.81h-.58v-5.28h.58Z"/><path class="cls-5" d="M66.35,124.92,68,120.45h.6l-2,5.28h-.47l-2-5.28h.6Z"/><path class="cls-5" d="M71.5,125.83a2.25,2.25,0,0,1-1.22-.34,2.2,2.2,0,0,1-.84-.92,2.8,2.8,0,0,1-.31-1.33V123a3,3,0,0,1,.3-1.37,2.27,2.27,0,0,1,.82-1,2,2,0,0,1,1.14-.35,1.94,1.94,0,0,1,1.53.65,2.66,2.66,0,0,1,.56,1.8v.33H69.71v.11a2.2,2.2,0,0,0,.52,1.49,1.63,1.63,0,0,0,1.3.6,1.8,1.8,0,0,0,.82-.17,1.73,1.73,0,0,0,.65-.54l.37.27A2.12,2.12,0,0,1,71.5,125.83Zm-.11-5a1.46,1.46,0,0,0-1.11.48,2.25,2.25,0,0,0-.55,1.3H72.9v-.07a1.94,1.94,0,0,0-.43-1.24A1.38,1.38,0,0,0,71.39,120.85Z"/></g><g class="cls-4"><path class="cls-5" d="M12.44,136.93a1.51,1.51,0,0,0,1-.34,1.2,1.2,0,0,0,.45-.89h.56a1.75,1.75,0,0,1-.3.88,2,2,0,0,1-.74.62,2.25,2.25,0,0,1-1,.23,2,2,0,0,1-1.65-.73,2.94,2.94,0,0,1-.61-1.94v-.18a3.18,3.18,0,0,1,.28-1.38,2,2,0,0,1,.78-.92,2.15,2.15,0,0,1,1.19-.33,2,2,0,0,1,1.44.52,1.9,1.9,0,0,1,.6,1.36h-.56a1.46,1.46,0,0,0-.45-1,1.41,1.41,0,0,0-1-.38,1.45,1.45,0,0,0-1.22.57,2.52,2.52,0,0,0-.44,1.6v.17a2.49,2.49,0,0,0,.44,1.58A1.45,1.45,0,0,0,12.44,136.93Z"/><path class="cls-5" d="M19,137.33a2.9,2.9,0,0,1-.11-.74,2.15,2.15,0,0,1-.78.62,2.51,2.51,0,0,1-1,.22,1.77,1.77,0,0,1-1.24-.43,1.39,1.39,0,0,1-.47-1.07,1.41,1.41,0,0,1,.65-1.22,3,3,0,0,1,1.78-.45h1.06v-.6a1.15,1.15,0,0,0-.34-.89,1.46,1.46,0,0,0-1-.33,1.62,1.62,0,0,0-1,.31.93.93,0,0,0-.4.76h-.59a1.37,1.37,0,0,1,.59-1.09,2.24,2.24,0,0,1,1.44-.46,2.07,2.07,0,0,1,1.39.44,1.59,1.59,0,0,1,.53,1.23v2.5a3.06,3.06,0,0,0,.16,1.15v.06Zm-1.83-.42a2,2,0,0,0,1-.28,1.69,1.69,0,0,0,.67-.76v-1.16h-1a2.55,2.55,0,0,0-1.37.32,1,1,0,0,0-.49.85,1,1,0,0,0,.33.74A1.26,1.26,0,0,0,17.14,136.91Z"/><path class="cls-5" d="M23.43,132.54a2.38,2.38,0,0,0-.39,0,1.41,1.41,0,0,0-.93.31,1.66,1.66,0,0,0-.54.88v3.63H21v-5.28h.57v.84a1.55,1.55,0,0,1,1.49-.94,1,1,0,0,1,.39.06Z"/><path class="cls-5" d="M26.31,137.43a2.25,2.25,0,0,1-1.22-.34,2.2,2.2,0,0,1-.84-.92,2.8,2.8,0,0,1-.31-1.33v-.21a3,3,0,0,1,.3-1.37,2.27,2.27,0,0,1,.82-1A2,2,0,0,1,26.2,132a1.94,1.94,0,0,1,1.53.65,2.71,2.71,0,0,1,.56,1.8v.33H24.52v.11a2.2,2.2,0,0,0,.52,1.49,1.62,1.62,0,0,0,1.29.6,1.81,1.81,0,0,0,.83-.17,1.73,1.73,0,0,0,.65-.54l.37.27A2.12,2.12,0,0,1,26.31,137.43Zm-.11-5a1.46,1.46,0,0,0-1.11.48,2.25,2.25,0,0,0-.55,1.3h3.17v-.06a2,2,0,0,0-.43-1.25A1.38,1.38,0,0,0,26.2,132.45Z"/><path class="cls-5" d="M35.2,137.33a2.82,2.82,0,0,1-.12-.74,2,2,0,0,1-.78.62,2.48,2.48,0,0,1-1,.22,1.74,1.74,0,0,1-1.23-.43,1.47,1.47,0,0,1,.17-2.29,3.1,3.1,0,0,1,1.79-.45h1.06v-.6a1.15,1.15,0,0,0-.35-.89,1.42,1.42,0,0,0-1-.33,1.66,1.66,0,0,0-1,.31,1,1,0,0,0-.4.76h-.58a1.35,1.35,0,0,1,.58-1.09,2.24,2.24,0,0,1,1.44-.46,2.1,2.1,0,0,1,1.4.44,1.58,1.58,0,0,1,.52,1.23v2.5a3.06,3.06,0,0,0,.16,1.15v.06Zm-1.84-.42a2.06,2.06,0,0,0,1-.28,1.69,1.69,0,0,0,.67-.76v-1.16H34a2.52,2.52,0,0,0-1.37.32,1,1,0,0,0-.5.85,1,1,0,0,0,.33.74A1.28,1.28,0,0,0,33.36,136.91Z"/><path class="cls-5" d="M37.78,132.05v.9a2.15,2.15,0,0,1,.75-.75,1.91,1.91,0,0,1,1-.25,1.57,1.57,0,0,1,1.26.48,2.11,2.11,0,0,1,.42,1.43v3.47h-.58v-3.47a1.6,1.6,0,0,0-.3-1.06,1.18,1.18,0,0,0-.94-.34,1.47,1.47,0,0,0-1,.34,1.93,1.93,0,0,0-.62.91v3.62h-.58v-5.28Z"/><path class="cls-5" d="M42.48,134.64a3.17,3.17,0,0,1,.55-2,1.75,1.75,0,0,1,1.49-.73,1.85,1.85,0,0,1,1.63.84v-3h.58v7.5h-.55l0-.7a1.91,1.91,0,0,1-1.65.8,1.76,1.76,0,0,1-1.47-.74,3.15,3.15,0,0,1-.56-2Zm.59.1a2.71,2.71,0,0,0,.4,1.59,1.32,1.32,0,0,0,1.15.59,1.57,1.57,0,0,0,1.53-.95v-2.48a1.55,1.55,0,0,0-1.52-1,1.32,1.32,0,0,0-1.15.57A3,3,0,0,0,43.07,134.74Z"/></g><g class="cls-4"><path class="cls-5" d="M14.73,146.34a3.21,3.21,0,0,1-.54,2,1.77,1.77,0,0,1-1.47.73,2,2,0,0,1-1.66-.77V151h-.58v-7.31H11l0,.74a1.88,1.88,0,0,1,1.66-.84,1.75,1.75,0,0,1,1.48.72,3.23,3.23,0,0,1,.54,2Zm-.58-.1a2.69,2.69,0,0,0-.42-1.6,1.32,1.32,0,0,0-1.15-.58,1.66,1.66,0,0,0-.93.25,1.76,1.76,0,0,0-.59.76v2.53a1.56,1.56,0,0,0,.6.69,1.73,1.73,0,0,0,.92.24,1.29,1.29,0,0,0,1.15-.59A2.9,2.9,0,0,0,14.15,146.24Z"/><path class="cls-5" d="M18.47,144.14a2.5,2.5,0,0,0-.4,0,1.38,1.38,0,0,0-.92.31,1.66,1.66,0,0,0-.54.88v3.63H16v-5.28h.57v.84a1.54,1.54,0,0,1,1.49-.94,1,1,0,0,1,.38.06Z"/><path class="cls-5" d="M21.34,149a2.21,2.21,0,0,1-1.21-.34,2.16,2.16,0,0,1-.85-.92,2.92,2.92,0,0,1-.3-1.33v-.21a3.17,3.17,0,0,1,.29-1.37,2.34,2.34,0,0,1,.82-1,2,2,0,0,1,1.15-.35,1.91,1.91,0,0,1,1.52.65,2.66,2.66,0,0,1,.57,1.8v.33H19.56v.11a2.19,2.19,0,0,0,.51,1.49,1.65,1.65,0,0,0,1.3.6,1.84,1.84,0,0,0,.83-.17,1.81,1.81,0,0,0,.65-.54l.36.27A2.1,2.1,0,0,1,21.34,149Zm-.1-5a1.46,1.46,0,0,0-1.11.48,2.19,2.19,0,0,0-.55,1.3h3.17v-.07a2,2,0,0,0-.44-1.24A1.36,1.36,0,0,0,21.24,144.05Z"/><path class="cls-5" d="M27.63,147.59a.84.84,0,0,0-.35-.7,2.47,2.47,0,0,0-1.05-.41,4.65,4.65,0,0,1-1.09-.35,1.46,1.46,0,0,1-.58-.47,1.13,1.13,0,0,1-.19-.67,1.27,1.27,0,0,1,.52-1,2.08,2.08,0,0,1,1.34-.41,2.14,2.14,0,0,1,1.42.44,1.39,1.39,0,0,1,.54,1.13H27.6a1,1,0,0,0-.39-.77,1.55,1.55,0,0,0-1-.3,1.52,1.52,0,0,0-.92.25A.78.78,0,0,0,25,145a.7.7,0,0,0,.29.61,3,3,0,0,0,1.06.4,4.71,4.71,0,0,1,1.15.39,1.4,1.4,0,0,1,.57.49,1.38,1.38,0,0,1-.35,1.77,2.71,2.71,0,0,1-2.91,0,1.37,1.37,0,0,1-.57-1.13h.58a1.06,1.06,0,0,0,.43.8,1.8,1.8,0,0,0,1.06.28,1.65,1.65,0,0,0,1-.27A.79.79,0,0,0,27.63,147.59Z"/><path class="cls-5" d="M31.48,148.53a1.51,1.51,0,0,0,1-.34,1.2,1.2,0,0,0,.45-.89h.56a1.58,1.58,0,0,1-.3.88,2,2,0,0,1-.74.62,2.25,2.25,0,0,1-1,.23,2,2,0,0,1-1.65-.73,2.94,2.94,0,0,1-.6-1.94v-.18a3.33,3.33,0,0,1,.27-1.38,2,2,0,0,1,.78-.92,2.16,2.16,0,0,1,1.2-.33,2,2,0,0,1,1.43.52,1.82,1.82,0,0,1,.6,1.36H33a1.36,1.36,0,0,0-.45-1,1.4,1.4,0,0,0-1-.38,1.46,1.46,0,0,0-1.23.57,2.58,2.58,0,0,0-.44,1.6v.17a2.56,2.56,0,0,0,.44,1.58A1.48,1.48,0,0,0,31.48,148.53Z"/><path class="cls-5" d="M37.12,144.14a2.38,2.38,0,0,0-.39,0,1.39,1.39,0,0,0-.93.31,1.66,1.66,0,0,0-.54.88v3.63h-.58v-5.28h.57v.84a1.55,1.55,0,0,1,1.49-.94,1.07,1.07,0,0,1,.39.06Z"/><path class="cls-5" d="M38,142.12a.41.41,0,0,1,.11-.28.36.36,0,0,1,.29-.11.4.4,0,0,1,.3.11.41.41,0,0,1,0,.56.44.44,0,0,1-.3.11.4.4,0,0,1-.29-.11A.41.41,0,0,1,38,142.12Zm.69,6.81h-.59v-5.28h.59Z"/><path class="cls-5" d="M44.53,146.34a3.21,3.21,0,0,1-.54,2,1.77,1.77,0,0,1-1.47.73,2,2,0,0,1-1.66-.77V151h-.58v-7.31h.54l0,.74a1.88,1.88,0,0,1,1.66-.84,1.75,1.75,0,0,1,1.48.72,3.23,3.23,0,0,1,.54,2Zm-.58-.1a2.69,2.69,0,0,0-.42-1.6,1.32,1.32,0,0,0-1.15-.58,1.66,1.66,0,0,0-.93.25,1.69,1.69,0,0,0-.59.76v2.53a1.56,1.56,0,0,0,.6.69,1.73,1.73,0,0,0,.92.24,1.29,1.29,0,0,0,1.15-.59A2.9,2.9,0,0,0,44,146.24Z"/><path class="cls-5" d="M46.74,142.29v1.36h1.09v.47H46.74v3.53a1.13,1.13,0,0,0,.15.65.61.61,0,0,0,.53.22,4.3,4.3,0,0,0,.48-.05l0,.47a1.73,1.73,0,0,1-.62.09,1.06,1.06,0,0,1-.88-.35,1.69,1.69,0,0,1-.27-1v-3.53h-1v-.47h1v-1.36Z"/><path class="cls-5" d="M49,142.12a.4.4,0,0,1,.1-.28.39.39,0,0,1,.3-.11.36.36,0,0,1,.29.11.41.41,0,0,1,0,.56.4.4,0,0,1-.29.11.42.42,0,0,1-.3-.11A.4.4,0,0,1,49,142.12Zm.68,6.81h-.58v-5.28h.58Z"/><path class="cls-5" d="M51,146.21a3.17,3.17,0,0,1,.29-1.37,2.23,2.23,0,0,1,2.06-1.29,2.14,2.14,0,0,1,1.71.74,2.82,2.82,0,0,1,.66,2v.12a3.11,3.11,0,0,1-.3,1.38,2.18,2.18,0,0,1-.83.94,2.23,2.23,0,0,1-1.23.34,2.16,2.16,0,0,1-1.7-.74,2.85,2.85,0,0,1-.66-2Zm.58.16a2.36,2.36,0,0,0,.5,1.55,1.65,1.65,0,0,0,2.56,0,2.43,2.43,0,0,0,.49-1.6v-.11a2.72,2.72,0,0,0-.22-1.11,1.88,1.88,0,0,0-.63-.78,1.64,1.64,0,0,0-.93-.27,1.55,1.55,0,0,0-1.27.61,2.47,2.47,0,0,0-.5,1.6Z"/><path class="cls-5" d="M57.44,143.65l0,.9a2.13,2.13,0,0,1,.74-.75,1.93,1.93,0,0,1,1-.25,1.59,1.59,0,0,1,1.27.48,2.22,2.22,0,0,1,.42,1.43v3.47h-.58v-3.47A1.65,1.65,0,0,0,60,144.4a1.16,1.16,0,0,0-.94-.34,1.47,1.47,0,0,0-1,.34,2,2,0,0,0-.62.91v3.62h-.58v-5.28Z"/><path class="cls-5" d="M65.54,147.59a.84.84,0,0,0-.35-.7,2.47,2.47,0,0,0-1-.41,4.65,4.65,0,0,1-1.09-.35,1.46,1.46,0,0,1-.58-.47,1.13,1.13,0,0,1-.19-.67,1.27,1.27,0,0,1,.52-1,2.08,2.08,0,0,1,1.34-.41,2.14,2.14,0,0,1,1.42.44,1.39,1.39,0,0,1,.54,1.13h-.59a1,1,0,0,0-.39-.77,1.55,1.55,0,0,0-1-.3,1.52,1.52,0,0,0-.92.25.78.78,0,0,0-.35.67.7.7,0,0,0,.29.61,3,3,0,0,0,1.06.4,4.71,4.71,0,0,1,1.15.39,1.4,1.4,0,0,1,.57.49,1.38,1.38,0,0,1-.35,1.77,2.71,2.71,0,0,1-2.91,0,1.37,1.37,0,0,1-.57-1.13h.58a1.06,1.06,0,0,0,.43.8,1.8,1.8,0,0,0,1.06.28,1.65,1.65,0,0,0,1-.27A.79.79,0,0,0,65.54,147.59Z"/></g><g class="cls-4"><path class="cls-5" d="M13.88,159.86a1.9,1.9,0,0,1-1.68.77,1.65,1.65,0,0,1-1.28-.49,2.09,2.09,0,0,1-.45-1.46v-3.43h.58v3.36c0,1,.4,1.51,1.22,1.51a1.49,1.49,0,0,0,1.6-1.05v-3.82h.59v5.28h-.57Z"/><path class="cls-5" d="M16.54,155.25v.9a2.15,2.15,0,0,1,.75-.75,1.91,1.91,0,0,1,1-.25,1.57,1.57,0,0,1,1.26.48,2.11,2.11,0,0,1,.42,1.43v3.47h-.58v-3.47a1.6,1.6,0,0,0-.3-1.06,1.18,1.18,0,0,0-.94-.34,1.47,1.47,0,0,0-1,.34,1.93,1.93,0,0,0-.62.91v3.62H16v-5.28Z"/><path class="cls-5" d="M22.38,153.89v1.36h1.09v.47H22.38v3.53a1.06,1.06,0,0,0,.16.65.59.59,0,0,0,.53.22,4.18,4.18,0,0,0,.47-.05l0,.47a1.79,1.79,0,0,1-.63.09,1,1,0,0,1-.87-.35,1.68,1.68,0,0,1-.28-1v-3.53h-1v-.47h1v-1.36Z"/><path class="cls-5" d="M24.65,153.72a.41.41,0,0,1,.11-.28.4.4,0,0,1,.29-.11.44.44,0,0,1,.3.11.41.41,0,0,1,0,.56.44.44,0,0,1-.3.11.4.4,0,0,1-.29-.11A.41.41,0,0,1,24.65,153.72Zm.69,6.81h-.59v-5.28h.59Z"/><path class="cls-5" d="M27.58,160.53H27V153h.59Z"/><path class="cls-5" d="M33.27,159.69l1.55-4.44h.63l-2.26,6.18-.12.27a1.41,1.41,0,0,1-1.34,1,1.5,1.5,0,0,1-.45-.07v-.48l.3,0a1.05,1.05,0,0,0,.69-.21,1.67,1.67,0,0,0,.46-.73l.26-.71-2-5.24h.64Z"/><path class="cls-5" d="M36,157.81a3,3,0,0,1,.3-1.37,2.21,2.21,0,0,1,.83-.95,2.23,2.23,0,0,1,1.23-.34,2.16,2.16,0,0,1,1.71.74,2.88,2.88,0,0,1,.65,2V158a3.25,3.25,0,0,1-.29,1.38,2.2,2.2,0,0,1-.84.94,2.35,2.35,0,0,1-2.93-.4,2.85,2.85,0,0,1-.66-2Zm.59.16a2.41,2.41,0,0,0,.49,1.56,1.68,1.68,0,0,0,2.57,0,2.47,2.47,0,0,0,.49-1.61v-.11a2.72,2.72,0,0,0-.22-1.11,1.88,1.88,0,0,0-.63-.78,1.64,1.64,0,0,0-.93-.27,1.57,1.57,0,0,0-1.28.61,2.46,2.46,0,0,0-.49,1.6Z"/><path class="cls-5" d="M45.28,159.86a1.93,1.93,0,0,1-1.69.77,1.65,1.65,0,0,1-1.28-.49,2.09,2.09,0,0,1-.45-1.46v-3.43h.58v3.36c0,1,.41,1.51,1.22,1.51a1.5,1.5,0,0,0,1.61-1.05v-3.82h.58v5.28h-.56Z"/><path class="cls-5" d="M52.24,155.74a2.38,2.38,0,0,0-.39,0,1.39,1.39,0,0,0-.93.31,1.66,1.66,0,0,0-.54.88v3.63H49.8v-5.28h.57v.84a1.55,1.55,0,0,1,1.49-.94,1.07,1.07,0,0,1,.39.06Z"/><path class="cls-5" d="M55.12,160.63a2.22,2.22,0,0,1-1.22-.34,2.29,2.29,0,0,1-.85-.92,2.92,2.92,0,0,1-.3-1.33v-.21a3,3,0,0,1,.3-1.37,2.27,2.27,0,0,1,.82-1,2,2,0,0,1,1.14-.35,1.94,1.94,0,0,1,1.53.65,2.71,2.71,0,0,1,.56,1.8v.33H53.33V158a2.19,2.19,0,0,0,.52,1.5,1.64,1.64,0,0,0,1.29.59A1.81,1.81,0,0,0,56,160a1.73,1.73,0,0,0,.65-.54l.37.27A2.12,2.12,0,0,1,55.12,160.63Zm-.11-5a1.46,1.46,0,0,0-1.11.48,2.25,2.25,0,0,0-.55,1.3h3.17v-.06a2,2,0,0,0-.43-1.25A1.39,1.39,0,0,0,55,155.65Z"/><path class="cls-5" d="M61.57,160.53a3.43,3.43,0,0,1-.11-.74,2,2,0,0,1-.78.62,2.51,2.51,0,0,1-1,.22,1.72,1.72,0,0,1-1.23-.43,1.35,1.35,0,0,1-.47-1.07,1.4,1.4,0,0,1,.64-1.22,3.08,3.08,0,0,1,1.79-.45h1.06v-.6a1.15,1.15,0,0,0-.35-.89,1.42,1.42,0,0,0-1-.33,1.64,1.64,0,0,0-1,.31.93.93,0,0,0-.4.76h-.59a1.37,1.37,0,0,1,.59-1.09,2.24,2.24,0,0,1,1.44-.46,2.07,2.07,0,0,1,1.39.44,1.59,1.59,0,0,1,.53,1.23v2.5a3.06,3.06,0,0,0,.16,1.15v.06Zm-1.83-.42a2.06,2.06,0,0,0,1-.28,1.75,1.75,0,0,0,.67-.76v-1.16H60.41a2.55,2.55,0,0,0-1.37.32,1,1,0,0,0-.49.85,1,1,0,0,0,.33.74A1.28,1.28,0,0,0,59.74,160.11Z"/><path class="cls-5" d="M65.55,160.13a1.51,1.51,0,0,0,1-.34,1.2,1.2,0,0,0,.45-.89h.56a1.75,1.75,0,0,1-.3.88,2,2,0,0,1-.74.62,2.25,2.25,0,0,1-1,.23,2,2,0,0,1-1.65-.73,2.94,2.94,0,0,1-.61-1.94v-.17a3.19,3.19,0,0,1,.28-1.39,2,2,0,0,1,.78-.92,2.15,2.15,0,0,1,1.19-.33,2,2,0,0,1,1.44.52,1.9,1.9,0,0,1,.6,1.36H67a1.46,1.46,0,0,0-.45-1,1.41,1.41,0,0,0-1-.38,1.45,1.45,0,0,0-1.22.57,2.52,2.52,0,0,0-.44,1.6V158a2.49,2.49,0,0,0,.44,1.58A1.45,1.45,0,0,0,65.55,160.13Z"/><path class="cls-5" d="M69.33,156.14a2,2,0,0,1,.74-.73,1.82,1.82,0,0,1,1-.26,1.59,1.59,0,0,1,1.26.48,2.11,2.11,0,0,1,.42,1.43v3.47h-.58v-3.47a1.6,1.6,0,0,0-.3-1.06,1.18,1.18,0,0,0-.94-.34,1.43,1.43,0,0,0-1,.34,1.93,1.93,0,0,0-.62.91v3.62h-.58V153h.58Z"/></g><g class="cls-4"><path class="cls-5" d="M10.25,169.44a3.15,3.15,0,0,1,.55-2,1.76,1.76,0,0,1,1.49-.73,1.84,1.84,0,0,1,1.63.84v-3h.58v7.5H14l0-.7a1.88,1.88,0,0,1-1.65.8,1.76,1.76,0,0,1-1.47-.74,3.21,3.21,0,0,1-.56-2Zm.59.1a2.73,2.73,0,0,0,.41,1.59,1.31,1.31,0,0,0,1.14.59,1.57,1.57,0,0,0,1.53-.95v-2.48a1.55,1.55,0,0,0-1.52-1,1.35,1.35,0,0,0-1.15.57A3,3,0,0,0,10.84,169.54Z"/><path class="cls-5" d="M18.09,172.23A2.31,2.31,0,0,1,16,171a2.92,2.92,0,0,1-.3-1.33v-.21a3,3,0,0,1,.3-1.37,2.27,2.27,0,0,1,.82-1,2,2,0,0,1,1.14-.35,1.94,1.94,0,0,1,1.53.65,2.71,2.71,0,0,1,.56,1.8v.33H16.3v.11a2.15,2.15,0,0,0,.52,1.49,1.62,1.62,0,0,0,1.29.6,1.84,1.84,0,0,0,.83-.17,1.73,1.73,0,0,0,.65-.54l.37.27A2.13,2.13,0,0,1,18.09,172.23Zm-.11-5a1.46,1.46,0,0,0-1.11.48,2.25,2.25,0,0,0-.55,1.3h3.17V169a1.94,1.94,0,0,0-.44-1.24A1.36,1.36,0,0,0,18,167.25Z"/><path class="cls-5" d="M21,169.44a3.21,3.21,0,0,1,.55-2,1.77,1.77,0,0,1,1.49-.73,1.85,1.85,0,0,1,1.64.84v-3h.58v7.5h-.55l0-.7a1.91,1.91,0,0,1-1.66.8,1.78,1.78,0,0,1-1.47-.74,3.21,3.21,0,0,1-.56-2Zm.59.1a2.73,2.73,0,0,0,.41,1.59,1.31,1.31,0,0,0,1.14.59,1.59,1.59,0,0,0,1.54-.95v-2.48a1.57,1.57,0,0,0-1.53-1,1.35,1.35,0,0,0-1.15.57A3,3,0,0,0,21.56,169.54Z"/><path class="cls-5" d="M30.16,171.46a1.9,1.9,0,0,1-1.68.77,1.69,1.69,0,0,1-1.29-.49,2.16,2.16,0,0,1-.44-1.46v-3.43h.58v3.36c0,1,.4,1.51,1.22,1.51a1.49,1.49,0,0,0,1.6-1.05v-3.82h.59v5.28h-.57Z"/><path class="cls-5" d="M34.21,171.73a1.51,1.51,0,0,0,1-.34,1.2,1.2,0,0,0,.45-.89h.56a1.66,1.66,0,0,1-.3.88,2,2,0,0,1-.74.62,2.25,2.25,0,0,1-1,.23,2,2,0,0,1-1.65-.73,2.94,2.94,0,0,1-.6-1.94v-.18a3.33,3.33,0,0,1,.27-1.38,2,2,0,0,1,.78-.92,2.16,2.16,0,0,1,1.2-.33,2,2,0,0,1,1.43.52,1.82,1.82,0,0,1,.6,1.36h-.56a1.42,1.42,0,0,0-1.47-1.38,1.46,1.46,0,0,0-1.23.57,2.58,2.58,0,0,0-.44,1.6v.17a2.56,2.56,0,0,0,.44,1.58A1.48,1.48,0,0,0,34.21,171.73Z"/><path class="cls-5" d="M38.32,165.49v1.36h1.09v.47H38.32v3.53a1.06,1.06,0,0,0,.16.65.59.59,0,0,0,.53.22l.47-.05,0,.47a1.73,1.73,0,0,1-.62.09,1.07,1.07,0,0,1-.88-.35,1.69,1.69,0,0,1-.27-1v-3.53h-1v-.47h1v-1.36Z"/><path class="cls-5" d="M40.59,165.32a.37.37,0,0,1,.11-.28.35.35,0,0,1,.29-.11.36.36,0,0,1,.29.11.41.41,0,0,1,0,.56.4.4,0,0,1-.29.11.38.38,0,0,1-.29-.11A.37.37,0,0,1,40.59,165.32Zm.69,6.81h-.59v-5.28h.59Z"/><path class="cls-5" d="M47.12,169.54a3.21,3.21,0,0,1-.55,2,1.77,1.77,0,0,1-1.47.73,1.91,1.91,0,0,1-1.67-.82l0,.72h-.55v-7.5h.58v3a1.84,1.84,0,0,1,1.65-.86,1.78,1.78,0,0,1,1.48.71,3.25,3.25,0,0,1,.55,2Zm-.59-.1a2.7,2.7,0,0,0-.41-1.62,1.33,1.33,0,0,0-1.14-.56,1.64,1.64,0,0,0-.95.27,1.71,1.71,0,0,0-.59.81v2.38a1.56,1.56,0,0,0,1.55,1,1.31,1.31,0,0,0,1.13-.57A3,3,0,0,0,46.53,169.44Z"/><path class="cls-5" d="M49.06,172.13h-.59v-7.5h.59Z"/><path class="cls-5" d="M52.69,172.23a2.25,2.25,0,0,1-1.22-.34,2.2,2.2,0,0,1-.84-.92,2.93,2.93,0,0,1-.31-1.33v-.21a3,3,0,0,1,.3-1.37,2.34,2.34,0,0,1,.82-1,2,2,0,0,1,1.14-.35,1.93,1.93,0,0,1,1.53.65,2.66,2.66,0,0,1,.56,1.8v.33H50.91v.11a2.19,2.19,0,0,0,.51,1.49,1.64,1.64,0,0,0,1.3.6,1.77,1.77,0,0,0,.82-.17,1.83,1.83,0,0,0,.66-.54l.36.27A2.12,2.12,0,0,1,52.69,172.23Zm-.11-5a1.49,1.49,0,0,0-1.11.48,2.25,2.25,0,0,0-.55,1.3h3.17V169a1.94,1.94,0,0,0-.43-1.24A1.36,1.36,0,0,0,52.58,167.25Z"/></g></g><g id="WE_BOTH_PAY" data-name="WE BOTH PAY" class="cls-4"><g class="cls-4"><path class="cls-5" d="M104.33,106.18l.31,1.55.37-1.48,2.16-7.33h.76l2.14,7.33.37,1.49.32-1.56,1.8-7.26h.86l-2.55,10h-.8l-2.26-7.79-.25-1-.25,1L105,108.87h-.81l-2.54-10h.86Z"/><path class="cls-5" d="M120.54,104.1h-4.66v4.06h5.36v.71H115v-10h6.16v.71h-5.32v3.76h4.66Z"/><path class="cls-5" d="M126.41,108.87v-10h2.94a3.77,3.77,0,0,1,2.43.66,2.32,2.32,0,0,1,.82,1.94,2.19,2.19,0,0,1-1.57,2.16,2.36,2.36,0,0,1,1.4.86,2.39,2.39,0,0,1,.53,1.53,2.59,2.59,0,0,1-.85,2.06,3.52,3.52,0,0,1-2.37.74Zm.84-5.49h2.3a2.56,2.56,0,0,0,1.63-.5,1.7,1.7,0,0,0,.58-1.38,1.67,1.67,0,0,0-.6-1.42,3,3,0,0,0-1.81-.45h-2.1Zm0,.71v4.07h2.52a2.57,2.57,0,0,0,1.72-.55,1.93,1.93,0,0,0,.63-1.53,1.81,1.81,0,0,0-.61-1.45,2.41,2.41,0,0,0-1.67-.54Z"/><path class="cls-5" d="M142.35,104.43a5.66,5.66,0,0,1-.48,2.41,3.58,3.58,0,0,1-1.36,1.6,3.62,3.62,0,0,1-2,.56,3.54,3.54,0,0,1-2.82-1.24,5,5,0,0,1-1.07-3.37v-1a5.73,5.73,0,0,1,.48-2.41,3.69,3.69,0,0,1,1.36-1.62,4,4,0,0,1,4.06,0,3.61,3.61,0,0,1,1.36,1.57,5.68,5.68,0,0,1,.5,2.34Zm-.85-1.08a4.37,4.37,0,0,0-.81-2.81,2.93,2.93,0,0,0-4.44,0,4.42,4.42,0,0,0-.82,2.85v1a4.39,4.39,0,0,0,.82,2.81,2.94,2.94,0,0,0,4.46,0,4.54,4.54,0,0,0,.79-2.85Z"/><path class="cls-5" d="M151,99.63h-3.41v9.24h-.84V99.63h-3.4v-.71H151Z"/><path class="cls-5" d="M160,108.87h-.85V104.1h-5.69v4.77h-.84v-10h.84v4.47h5.69V98.92H160Z"/></g><g class="cls-4"><path class="cls-5" d="M103.33,120.81v4.06h-.84v-10h3.39a3.56,3.56,0,0,1,2.45.79,3.12,3.12,0,0,1,0,4.34,3.68,3.68,0,0,1-2.51.76Zm0-.71h2.55a2.69,2.69,0,0,0,1.87-.58,2.07,2.07,0,0,0,.64-1.62,2.17,2.17,0,0,0-.64-1.65,2.5,2.5,0,0,0-1.81-.62h-2.61Z"/><path class="cls-5" d="M115.54,122.07H111l-1,2.8h-.88l3.76-10h.8l3.77,10h-.88Zm-4.26-.71h4l-2-5.42Z"/><path class="cls-5" d="M121.19,120.34l3-5.42h1l-3.59,6.2v3.75h-.85v-3.75l-3.58-6.2h1Z"/></g></g><g id="coinsurance_for_covered_services" data-name="coinsurance for covered services" class="cls-4"><g class="cls-4"><path class="cls-5" d="M103.67,138.33a1.55,1.55,0,0,0,1-.34,1.22,1.22,0,0,0,.44-.89h.57a1.67,1.67,0,0,1-.31.88,1.88,1.88,0,0,1-.74.62,2.17,2.17,0,0,1-1,.23,2,2,0,0,1-1.65-.73,2.89,2.89,0,0,1-.61-1.94V136a3.33,3.33,0,0,1,.27-1.38,2,2,0,0,1,.79-.92,2.13,2.13,0,0,1,1.19-.33,2,2,0,0,1,1.43.52,1.87,1.87,0,0,1,.61,1.36h-.57a1.39,1.39,0,0,0-.44-1,1.43,1.43,0,0,0-1-.38,1.46,1.46,0,0,0-1.23.57A2.58,2.58,0,0,0,102,136v.17a2.56,2.56,0,0,0,.43,1.58A1.48,1.48,0,0,0,103.67,138.33Z"/><path class="cls-5" d="M106.54,136a3,3,0,0,1,.3-1.37,2.14,2.14,0,0,1,.83-.95,2.22,2.22,0,0,1,1.22-.34,2.14,2.14,0,0,1,1.71.74,2.82,2.82,0,0,1,.66,2v.12a3.11,3.11,0,0,1-.3,1.38,2.12,2.12,0,0,1-.83.94,2.23,2.23,0,0,1-1.23.34,2.18,2.18,0,0,1-1.7-.74,2.85,2.85,0,0,1-.66-2Zm.59.16a2.36,2.36,0,0,0,.49,1.55,1.54,1.54,0,0,0,1.28.61,1.57,1.57,0,0,0,1.29-.61,2.48,2.48,0,0,0,.49-1.6V136a2.72,2.72,0,0,0-.23-1.11,1.88,1.88,0,0,0-.63-.78,1.64,1.64,0,0,0-.93-.27,1.55,1.55,0,0,0-1.27.61,2.46,2.46,0,0,0-.49,1.6Z"/><path class="cls-5" d="M112.43,131.92a.41.41,0,0,1,.11-.28.36.36,0,0,1,.29-.11.4.4,0,0,1,.3.11.41.41,0,0,1,0,.56.44.44,0,0,1-.3.11.4.4,0,0,1-.29-.11A.41.41,0,0,1,112.43,131.92Zm.69,6.81h-.59v-5.28h.59Z"/><path class="cls-5" d="M115.26,133.45l0,.9a2.21,2.21,0,0,1,.74-.75,2,2,0,0,1,1-.25,1.59,1.59,0,0,1,1.27.48,2.11,2.11,0,0,1,.42,1.43v3.47h-.58v-3.47a1.72,1.72,0,0,0-.3-1.06,1.18,1.18,0,0,0-1-.34,1.47,1.47,0,0,0-1,.34,2,2,0,0,0-.61.91v3.62h-.58v-5.28Z"/><path class="cls-5" d="M123.36,137.39a.81.81,0,0,0-.35-.7,2.6,2.6,0,0,0-1.05-.41,4.65,4.65,0,0,1-1.09-.35,1.46,1.46,0,0,1-.58-.47,1.2,1.2,0,0,1-.18-.67,1.24,1.24,0,0,1,.52-1,2.06,2.06,0,0,1,1.34-.41,2.09,2.09,0,0,1,1.41.44,1.39,1.39,0,0,1,.54,1.14h-.59a1,1,0,0,0-.39-.78,1.78,1.78,0,0,0-1.9-.05.81.81,0,0,0-.35.67.72.72,0,0,0,.29.61,3,3,0,0,0,1.06.4,4.71,4.71,0,0,1,1.15.39,1.4,1.4,0,0,1,.57.49,1.2,1.2,0,0,1,.19.7,1.28,1.28,0,0,1-.54,1.07,2.71,2.71,0,0,1-2.91-.05,1.37,1.37,0,0,1-.57-1.13h.59a1,1,0,0,0,.43.8,1.74,1.74,0,0,0,1,.28,1.66,1.66,0,0,0,1-.27A.78.78,0,0,0,123.36,137.39Z"/><path class="cls-5" d="M128.66,138.06a1.9,1.9,0,0,1-1.68.77,1.66,1.66,0,0,1-1.29-.49,2.19,2.19,0,0,1-.45-1.46v-3.43h.58v3.36c0,1,.41,1.51,1.22,1.51a1.49,1.49,0,0,0,1.61-1v-3.82h.59v5.28h-.57Z"/><path class="cls-5" d="M133.2,133.94a2.6,2.6,0,0,0-.4,0,1.43,1.43,0,0,0-.92.3,1.61,1.61,0,0,0-.54.89v3.63h-.59v-5.28h.58v.84a1.54,1.54,0,0,1,1.49-.94,1,1,0,0,1,.38.06Z"/><path class="cls-5" d="M137.26,138.73a2.51,2.51,0,0,1-.11-.74,2.1,2.1,0,0,1-.79.62,2.44,2.44,0,0,1-1,.22,1.76,1.76,0,0,1-1.23-.43,1.47,1.47,0,0,1,.17-2.29,3.1,3.1,0,0,1,1.79-.45h1.06v-.6a1.12,1.12,0,0,0-.35-.89,1.42,1.42,0,0,0-1-.33,1.66,1.66,0,0,0-1,.31,1,1,0,0,0-.4.76h-.58a1.35,1.35,0,0,1,.58-1.09,2.24,2.24,0,0,1,1.44-.46,2.1,2.1,0,0,1,1.4.44,1.58,1.58,0,0,1,.52,1.23v2.5a3.28,3.28,0,0,0,.16,1.15v.06Zm-1.84-.42a2.06,2.06,0,0,0,1.05-.28,1.69,1.69,0,0,0,.67-.76v-1.16h-1a2.52,2.52,0,0,0-1.37.32,1,1,0,0,0-.49.85,1,1,0,0,0,.33.74A1.25,1.25,0,0,0,135.42,138.31Z"/><path class="cls-5" d="M139.84,133.45l0,.9a2,2,0,0,1,.74-.75,1.91,1.91,0,0,1,1-.25,1.56,1.56,0,0,1,1.26.48,2.11,2.11,0,0,1,.42,1.43v3.47h-.58v-3.47a1.6,1.6,0,0,0-.3-1.06,1.16,1.16,0,0,0-.94-.34,1.47,1.47,0,0,0-1,.34,1.93,1.93,0,0,0-.62.91v3.62h-.58v-5.28Z"/><path class="cls-5" d="M146.73,138.33a1.55,1.55,0,0,0,1-.34,1.27,1.27,0,0,0,.45-.89h.56a1.75,1.75,0,0,1-.3.88,2,2,0,0,1-.75.62,2.17,2.17,0,0,1-1,.23,2,2,0,0,1-1.65-.73,2.89,2.89,0,0,1-.61-1.94V136a3.33,3.33,0,0,1,.27-1.38,2.11,2.11,0,0,1,.79-.92,2.15,2.15,0,0,1,1.19-.33,2,2,0,0,1,1.43.52,1.87,1.87,0,0,1,.61,1.36h-.56a1.42,1.42,0,0,0-1.48-1.38,1.47,1.47,0,0,0-1.23.57,2.58,2.58,0,0,0-.43,1.6v.17a2.56,2.56,0,0,0,.43,1.58A1.51,1.51,0,0,0,146.73,138.33Z"/><path class="cls-5" d="M152,138.83a2.28,2.28,0,0,1-2.06-1.26,2.8,2.8,0,0,1-.31-1.33V136a3,3,0,0,1,.3-1.37,2.27,2.27,0,0,1,.82-1,2,2,0,0,1,1.14-.35,1.94,1.94,0,0,1,1.53.65,2.66,2.66,0,0,1,.56,1.8v.33h-3.77v.11a2.2,2.2,0,0,0,.52,1.49,1.63,1.63,0,0,0,1.3.6,1.8,1.8,0,0,0,.82-.17,1.73,1.73,0,0,0,.65-.54l.37.27A2.12,2.12,0,0,1,152,138.83Zm-.11-5a1.46,1.46,0,0,0-1.11.48,2.25,2.25,0,0,0-.55,1.3h3.17v-.07a1.94,1.94,0,0,0-.43-1.24A1.38,1.38,0,0,0,151.86,133.85Z"/><path class="cls-5" d="M157.94,138.73v-4.81h-.87v-.47h.87v-.64a1.73,1.73,0,0,1,.42-1.25,1.48,1.48,0,0,1,1.14-.43,2,2,0,0,1,.62.08l0,.48a2.2,2.2,0,0,0-.53-.06.93.93,0,0,0-.75.31,1.22,1.22,0,0,0-.27.85v.66h1.26v.47h-1.26v4.81Z"/><path class="cls-5" d="M160.51,136a3,3,0,0,1,.3-1.37,2.14,2.14,0,0,1,.83-.95,2.22,2.22,0,0,1,1.22-.34,2.14,2.14,0,0,1,1.71.74,2.82,2.82,0,0,1,.66,2v.12a3.11,3.11,0,0,1-.3,1.38,2.12,2.12,0,0,1-.83.94,2.23,2.23,0,0,1-1.23.34,2.18,2.18,0,0,1-1.7-.74,2.85,2.85,0,0,1-.66-2Zm.59.16a2.36,2.36,0,0,0,.49,1.55,1.54,1.54,0,0,0,1.28.61,1.57,1.57,0,0,0,1.29-.61,2.48,2.48,0,0,0,.49-1.6V136a2.72,2.72,0,0,0-.23-1.11,1.88,1.88,0,0,0-.63-.78,1.64,1.64,0,0,0-.93-.27,1.55,1.55,0,0,0-1.27.61,2.46,2.46,0,0,0-.49,1.6Z"/><path class="cls-5" d="M168.88,133.94a2.6,2.6,0,0,0-.4,0,1.48,1.48,0,0,0-.93.3,1.73,1.73,0,0,0-.54.89v3.63h-.58v-5.28H167v.84a1.55,1.55,0,0,1,1.49-.94,1,1,0,0,1,.39.06Z"/></g><g class="cls-4"><path class="cls-5" d="M103.67,149.93a1.55,1.55,0,0,0,1-.34,1.22,1.22,0,0,0,.44-.89h.57a1.67,1.67,0,0,1-.31.88,1.88,1.88,0,0,1-.74.62,2.17,2.17,0,0,1-1,.23,2,2,0,0,1-1.65-.73,2.89,2.89,0,0,1-.61-1.94v-.18a3.33,3.33,0,0,1,.27-1.38,2,2,0,0,1,.79-.92,2.13,2.13,0,0,1,1.19-.33,2,2,0,0,1,1.43.52,1.87,1.87,0,0,1,.61,1.36h-.57a1.41,1.41,0,0,0-.44-1,1.43,1.43,0,0,0-1-.38,1.46,1.46,0,0,0-1.23.57,2.58,2.58,0,0,0-.43,1.6v.17a2.56,2.56,0,0,0,.43,1.58A1.46,1.46,0,0,0,103.67,149.93Z"/><path class="cls-5" d="M106.54,147.61a3,3,0,0,1,.3-1.37,2.14,2.14,0,0,1,.83-1,2.22,2.22,0,0,1,1.22-.34,2.14,2.14,0,0,1,1.71.74,2.82,2.82,0,0,1,.66,2v.12a3.11,3.11,0,0,1-.3,1.38,2.12,2.12,0,0,1-.83.94,2.23,2.23,0,0,1-1.23.34,2.18,2.18,0,0,1-1.7-.74,2.85,2.85,0,0,1-.66-2Zm.59.16a2.41,2.41,0,0,0,.49,1.56,1.56,1.56,0,0,0,1.28.6,1.59,1.59,0,0,0,1.29-.6,2.53,2.53,0,0,0,.49-1.61v-.11a2.72,2.72,0,0,0-.23-1.11,1.88,1.88,0,0,0-.63-.78,1.64,1.64,0,0,0-.93-.27,1.55,1.55,0,0,0-1.27.61,2.46,2.46,0,0,0-.49,1.6Z"/><path class="cls-5" d="M114,149.52l1.6-4.47h.6l-2,5.28h-.47l-2-5.28h.61Z"/><path class="cls-5" d="M119.18,150.43a2.25,2.25,0,0,1-1.22-.34,2.2,2.2,0,0,1-.84-.92,2.93,2.93,0,0,1-.31-1.33v-.21a3,3,0,0,1,.3-1.37,2.34,2.34,0,0,1,.82-1,2,2,0,0,1,1.15-.35,1.91,1.91,0,0,1,1.52.65,2.66,2.66,0,0,1,.57,1.8v.33H117.4v.11a2.19,2.19,0,0,0,.51,1.49,1.64,1.64,0,0,0,1.3.6,1.77,1.77,0,0,0,.82-.17,1.83,1.83,0,0,0,.66-.54l.36.27A2.12,2.12,0,0,1,119.18,150.43Zm-.1-5a1.5,1.5,0,0,0-1.12.48,2.18,2.18,0,0,0-.54,1.3h3.16v-.06a2,2,0,0,0-.43-1.25A1.36,1.36,0,0,0,119.08,145.45Z"/><path class="cls-5" d="M124.74,145.54a2.38,2.38,0,0,0-.39,0,1.41,1.41,0,0,0-.93.31,1.66,1.66,0,0,0-.54.88v3.63h-.58v-5.28h.57v.84a1.55,1.55,0,0,1,1.49-.94,1,1,0,0,1,.39.06Z"/><path class="cls-5" d="M127.62,150.43a2.22,2.22,0,0,1-1.22-.34,2.29,2.29,0,0,1-.85-.92,2.92,2.92,0,0,1-.3-1.33v-.21a3,3,0,0,1,.3-1.37,2.27,2.27,0,0,1,.82-1,2,2,0,0,1,1.14-.35,1.94,1.94,0,0,1,1.53.65,2.71,2.71,0,0,1,.56,1.8v.33h-3.77v.11a2.15,2.15,0,0,0,.52,1.49,1.62,1.62,0,0,0,1.29.6,1.81,1.81,0,0,0,.83-.17,1.73,1.73,0,0,0,.65-.54l.37.27A2.12,2.12,0,0,1,127.62,150.43Zm-.11-5a1.46,1.46,0,0,0-1.11.48,2.25,2.25,0,0,0-.55,1.3H129v-.06a2,2,0,0,0-.43-1.25A1.38,1.38,0,0,0,127.51,145.45Z"/><path class="cls-5" d="M130.51,147.64a3.17,3.17,0,0,1,.55-2,1.75,1.75,0,0,1,1.49-.73,1.85,1.85,0,0,1,1.63.84v-3h.58v7.5h-.55l0-.7a1.91,1.91,0,0,1-1.65.8,1.79,1.79,0,0,1-1.48-.74,3.21,3.21,0,0,1-.55-2Zm.59.1a2.71,2.71,0,0,0,.4,1.59,1.31,1.31,0,0,0,1.14.59,1.58,1.58,0,0,0,1.54-.95v-2.48a1.56,1.56,0,0,0-1.53-1,1.32,1.32,0,0,0-1.14.57A2.92,2.92,0,0,0,131.1,147.74Z"/><path class="cls-5" d="M141.89,149a.81.81,0,0,0-.35-.7,2.47,2.47,0,0,0-1-.41,4.65,4.65,0,0,1-1.09-.35,1.38,1.38,0,0,1-.58-.47,1.2,1.2,0,0,1-.18-.67,1.24,1.24,0,0,1,.52-1,2.06,2.06,0,0,1,1.34-.41,2.09,2.09,0,0,1,1.41.44,1.39,1.39,0,0,1,.54,1.14h-.59a1,1,0,0,0-.39-.78,1.78,1.78,0,0,0-1.9-.05.81.81,0,0,0-.35.67.72.72,0,0,0,.29.61,3,3,0,0,0,1.06.4,4.71,4.71,0,0,1,1.15.39,1.4,1.4,0,0,1,.57.49,1.2,1.2,0,0,1,.19.7,1.28,1.28,0,0,1-.54,1.07,2.36,2.36,0,0,1-1.41.4A2.39,2.39,0,0,1,139,150a1.37,1.37,0,0,1-.57-1.13h.59a1,1,0,0,0,.43.8,2.06,2.06,0,0,0,2,0A.81.81,0,0,0,141.89,149Z"/><path class="cls-5" d="M145.84,150.43a2.31,2.31,0,0,1-2.07-1.26,2.92,2.92,0,0,1-.3-1.33v-.21a3,3,0,0,1,.3-1.37,2.27,2.27,0,0,1,.82-1,2,2,0,0,1,1.14-.35,1.94,1.94,0,0,1,1.53.65,2.71,2.71,0,0,1,.56,1.8v.33h-3.77v.11a2.15,2.15,0,0,0,.52,1.49,1.62,1.62,0,0,0,1.29.6,1.84,1.84,0,0,0,.83-.17,1.73,1.73,0,0,0,.65-.54l.37.27A2.13,2.13,0,0,1,145.84,150.43Zm-.11-5a1.46,1.46,0,0,0-1.11.48,2.19,2.19,0,0,0-.55,1.3h3.17v-.06a2,2,0,0,0-.44-1.25A1.36,1.36,0,0,0,145.73,145.45Z"/><path class="cls-5" d="M151.4,145.54a2.5,2.5,0,0,0-.4,0,1.38,1.38,0,0,0-.92.31,1.66,1.66,0,0,0-.54.88v3.63H149v-5.28h.57v.84A1.54,1.54,0,0,1,151,145a1,1,0,0,1,.38.06Z"/><path class="cls-5" d="M154.06,149.52l1.6-4.47h.6l-2,5.28h-.47l-2-5.28h.6Z"/><path class="cls-5" d="M157.19,143.52a.4.4,0,0,1,.1-.28.42.42,0,0,1,.3-.11.4.4,0,0,1,.29.11.41.41,0,0,1,0,.56.4.4,0,0,1-.29.11.42.42,0,0,1-.3-.11A.4.4,0,0,1,157.19,143.52Zm.68,6.81h-.58v-5.28h.58Z"/><path class="cls-5" d="M161.41,149.93a1.56,1.56,0,0,0,1-.34,1.22,1.22,0,0,0,.44-.89h.57a1.67,1.67,0,0,1-.31.88,1.88,1.88,0,0,1-.74.62,2.19,2.19,0,0,1-1,.23,2,2,0,0,1-1.64-.73,2.89,2.89,0,0,1-.61-1.94v-.18a3.33,3.33,0,0,1,.27-1.38,2.09,2.09,0,0,1,.78-.92,2.18,2.18,0,0,1,1.2-.33,2,2,0,0,1,1.43.52,1.87,1.87,0,0,1,.61,1.36h-.57a1.41,1.41,0,0,0-.44-1,1.43,1.43,0,0,0-1-.38,1.46,1.46,0,0,0-1.23.57,2.58,2.58,0,0,0-.44,1.6v.17a2.56,2.56,0,0,0,.44,1.58A1.45,1.45,0,0,0,161.41,149.93Z"/><path class="cls-5" d="M166.66,150.43a2.31,2.31,0,0,1-2.07-1.26,2.92,2.92,0,0,1-.3-1.33v-.21a3,3,0,0,1,.3-1.37,2.27,2.27,0,0,1,.82-1,2,2,0,0,1,1.14-.35,1.94,1.94,0,0,1,1.53.65,2.71,2.71,0,0,1,.56,1.8v.33h-3.77v.11a2.15,2.15,0,0,0,.52,1.49,1.62,1.62,0,0,0,1.29.6,1.81,1.81,0,0,0,.83-.17,1.73,1.73,0,0,0,.65-.54l.37.27A2.13,2.13,0,0,1,166.66,150.43Zm-.11-5a1.46,1.46,0,0,0-1.11.48,2.25,2.25,0,0,0-.55,1.3h3.17v-.06a2,2,0,0,0-.44-1.25A1.36,1.36,0,0,0,166.55,145.45Z"/><path class="cls-5" d="M172.94,149a.81.81,0,0,0-.35-.7,2.47,2.47,0,0,0-1.05-.41,4.65,4.65,0,0,1-1.09-.35,1.38,1.38,0,0,1-.58-.47,1.2,1.2,0,0,1-.18-.67,1.24,1.24,0,0,1,.52-1,2.06,2.06,0,0,1,1.34-.41,2.11,2.11,0,0,1,1.41.44,1.39,1.39,0,0,1,.54,1.14h-.59a1,1,0,0,0-.38-.78,1.57,1.57,0,0,0-1-.3,1.53,1.53,0,0,0-.93.25.81.81,0,0,0-.35.67.72.72,0,0,0,.29.61,3,3,0,0,0,1.06.4,4.71,4.71,0,0,1,1.15.39,1.4,1.4,0,0,1,.57.49,1.2,1.2,0,0,1,.19.7A1.28,1.28,0,0,1,173,150a2.71,2.71,0,0,1-2.91-.05,1.37,1.37,0,0,1-.57-1.13h.59a1,1,0,0,0,.43.8,2.06,2.06,0,0,0,2,0A.81.81,0,0,0,172.94,149Z"/></g></g><path id="Path_687" data-name="Path 687" class="cls-7" d="M279,215.8l-10.7-14.4v5.5H0v17.9H268.3v5.3Z"/><g id="Start_plan_year" data-name="Start plan year" class="cls-4"><g class="cls-4"><path class="cls-5" d="M14.16,217.44a.86.86,0,0,0-.33-.73,4.08,4.08,0,0,0-1.19-.51,5.17,5.17,0,0,1-1.36-.58,1.81,1.81,0,0,1-1-1.59,1.72,1.72,0,0,1,.71-1.41,2.81,2.81,0,0,1,1.81-.56,3.13,3.13,0,0,1,1.33.27,2.31,2.31,0,0,1,.91.78,2,2,0,0,1,.33,1.12H14.16a1.09,1.09,0,0,0-.35-.87,1.43,1.43,0,0,0-1-.31,1.48,1.48,0,0,0-.94.26.86.86,0,0,0-.33.72.77.77,0,0,0,.36.65,4.17,4.17,0,0,0,1.19.51,5.35,5.35,0,0,1,1.34.56,2.1,2.1,0,0,1,.73.72,1.85,1.85,0,0,1,.24,1,1.7,1.7,0,0,1-.68,1.41,3,3,0,0,1-1.85.53,3.47,3.47,0,0,1-1.42-.29,2.37,2.37,0,0,1-1-.79,1.94,1.94,0,0,1-.36-1.17h1.24a1.15,1.15,0,0,0,.4.94,1.77,1.77,0,0,0,1.15.33,1.56,1.56,0,0,0,1-.26A.87.87,0,0,0,14.16,217.44Z"/><path class="cls-5" d="M17.85,212.7V214h.94v.88h-.94v2.95a.64.64,0,0,0,.12.44.57.57,0,0,0,.43.13,2,2,0,0,0,.42,0v.91a2.81,2.81,0,0,1-.79.12c-.91,0-1.36-.51-1.36-1.51v-3H15.8V214h.87V212.7Z"/><path class="cls-5" d="M22.85,219.27a2,2,0,0,1-.14-.49,2,2,0,0,1-2.68.13,1.44,1.44,0,0,1-.51-1.12,1.5,1.5,0,0,1,.63-1.3A3.07,3.07,0,0,1,22,216h.72v-.35a.83.83,0,0,0-.92-.9,1.09,1.09,0,0,0-.67.2.65.65,0,0,0-.26.52H19.64a1.31,1.31,0,0,1,.28-.81,2,2,0,0,1,.79-.6,2.8,2.8,0,0,1,1.1-.21,2.2,2.2,0,0,1,1.48.46,1.66,1.66,0,0,1,.57,1.31v2.39a2.81,2.81,0,0,0,.2,1.14v.08Zm-1.31-.86a1.31,1.31,0,0,0,.67-.17,1.08,1.08,0,0,0,.46-.46v-1H22a1.69,1.69,0,0,0-1,.23.74.74,0,0,0-.33.65.69.69,0,0,0,.23.54A.84.84,0,0,0,21.54,218.41Z"/><path class="cls-5" d="M27.87,215.07a2.63,2.63,0,0,0-.49,0,1.09,1.09,0,0,0-1.09.62v3.62H25.1V214h1.13l0,.6a1.35,1.35,0,0,1,1.19-.69,1,1,0,0,1,.42.07Z"/><path class="cls-5" d="M30.35,212.7V214h.93v.88h-.93v2.95a.64.64,0,0,0,.12.44.55.55,0,0,0,.43.13,2,2,0,0,0,.41,0v.91a2.74,2.74,0,0,1-.78.12c-.91,0-1.37-.51-1.37-1.51v-3h-.87V214h.87V212.7Z"/><path class="cls-5" d="M39.3,216.68a3.12,3.12,0,0,1-.55,1.95,1.92,1.92,0,0,1-2.89.16v2.51H34.67V214h1.1l0,.54a1.75,1.75,0,0,1,1.42-.63,1.79,1.79,0,0,1,1.51.72,3.19,3.19,0,0,1,.55,2Zm-1.18-.1a2.22,2.22,0,0,0-.31-1.26,1,1,0,0,0-.9-.46,1.09,1.09,0,0,0-1,.6v2.34a1.12,1.12,0,0,0,1.06.62,1,1,0,0,0,.88-.46A2.34,2.34,0,0,0,38.12,216.58Z"/><path class="cls-5" d="M41.57,219.27H40.38v-7.5h1.19Z"/><path class="cls-5" d="M46,219.27a2,2,0,0,1-.14-.49,2,2,0,0,1-2.68.13,1.44,1.44,0,0,1-.51-1.12,1.5,1.5,0,0,1,.63-1.3,3.05,3.05,0,0,1,1.79-.45h.73v-.35a.83.83,0,0,0-.93-.9,1.06,1.06,0,0,0-.66.2.65.65,0,0,0-.26.52H42.8a1.32,1.32,0,0,1,.29-.81,1.93,1.93,0,0,1,.79-.6,2.8,2.8,0,0,1,1.1-.21,2.22,2.22,0,0,1,1.48.46,1.66,1.66,0,0,1,.57,1.31v2.39a2.81,2.81,0,0,0,.2,1.14v.08Zm-1.31-.86a1.31,1.31,0,0,0,.67-.17,1.08,1.08,0,0,0,.46-.46v-1H45.2a1.69,1.69,0,0,0-1,.23.74.74,0,0,0-.33.65.66.66,0,0,0,.23.54A.84.84,0,0,0,44.71,218.41Z"/><path class="cls-5" d="M49.37,214l0,.62a1.87,1.87,0,0,1,1.53-.71q1.65,0,1.68,1.89v3.49H51.44v-3.42a1.07,1.07,0,0,0-.22-.75.91.91,0,0,0-.71-.24,1.14,1.14,0,0,0-1.07.65v3.76H48.25V214Z"/><path class="cls-5" d="M58.17,217.57,59.25,214h1.26l-2.1,6.09a1.7,1.7,0,0,1-1.64,1.33,2.09,2.09,0,0,1-.57-.09v-.92l.22,0a1.15,1.15,0,0,0,.68-.17,1.1,1.1,0,0,0,.36-.55l.17-.45L55.77,214h1.28Z"/><path class="cls-5" d="M63.45,219.37a2.41,2.41,0,0,1-1.82-.72,2.56,2.56,0,0,1-.71-1.89v-.14a3.25,3.25,0,0,1,.31-1.42,2.32,2.32,0,0,1,.86-1,2.23,2.23,0,0,1,1.23-.34,2.05,2.05,0,0,1,1.66.69,2.85,2.85,0,0,1,.59,1.94V217H62.12a1.61,1.61,0,0,0,.44,1,1.32,1.32,0,0,0,1,.38,1.6,1.6,0,0,0,1.33-.66l.64.61a2,2,0,0,1-.85.73A2.57,2.57,0,0,1,63.45,219.37Zm-.14-4.53a1,1,0,0,0-.79.34,1.83,1.83,0,0,0-.38.95H64.4V216a1.41,1.41,0,0,0-.32-.9A1,1,0,0,0,63.31,214.84Z"/><path class="cls-5" d="M69.65,219.27a2,2,0,0,1-.14-.49,1.84,1.84,0,0,1-1.38.59,1.88,1.88,0,0,1-1.3-.46,1.43,1.43,0,0,1-.5-1.12,1.49,1.49,0,0,1,.62-1.3,3.07,3.07,0,0,1,1.8-.45h.72v-.35a.82.82,0,0,0-.92-.9,1.11,1.11,0,0,0-.67.2.65.65,0,0,0-.26.52H66.44a1.26,1.26,0,0,1,.29-.81,1.9,1.9,0,0,1,.78-.6,2.82,2.82,0,0,1,1.11-.21,2.19,2.19,0,0,1,1.47.46,1.66,1.66,0,0,1,.57,1.31v2.39a2.81,2.81,0,0,0,.2,1.14v.08Zm-1.3-.86a1.3,1.3,0,0,0,.66-.17,1.08,1.08,0,0,0,.46-.46v-1h-.64a1.71,1.71,0,0,0-1,.23.74.74,0,0,0-.33.65.69.69,0,0,0,.23.54A.85.85,0,0,0,68.35,218.41Z"/><path class="cls-5" d="M74.67,215.07a2.59,2.59,0,0,0-.48,0,1.09,1.09,0,0,0-1.1.62v3.62H71.9V214H73l0,.6a1.35,1.35,0,0,1,1.19-.69,1,1,0,0,1,.42.07Z"/></g></g><g id="OUT-OF-POCKET_MAXIMUM_MET" data-name="OUT-OF-POCKET MAXIMUM MET" class="cls-4"><g class="cls-4"><path class="cls-8" d="M154.38,240.55a4.44,4.44,0,0,1-.35,1.82,2.61,2.61,0,0,1-2.5,1.6,2.65,2.65,0,0,1-2.5-1.59,4.27,4.27,0,0,1-.37-1.77v-.51a4.3,4.3,0,0,1,.36-1.81,2.62,2.62,0,0,1,1-1.2,2.68,2.68,0,0,1,1.49-.42,2.76,2.76,0,0,1,1.5.41,2.67,2.67,0,0,1,1,1.2,4.48,4.48,0,0,1,.35,1.82Zm-.93-.46a3.18,3.18,0,0,0-.51-1.94,1.8,1.8,0,0,0-2.82,0,3.13,3.13,0,0,0-.53,1.88v.52a3.23,3.23,0,0,0,.52,1.93,1.68,1.68,0,0,0,1.42.7,1.65,1.65,0,0,0,1.4-.66,3.16,3.16,0,0,0,.52-1.9Z"/><path class="cls-8" d="M160.79,236.77v4.83a2.26,2.26,0,0,1-.63,1.65,2.58,2.58,0,0,1-1.7.71h-.25a2.65,2.65,0,0,1-1.86-.63,2.24,2.24,0,0,1-.71-1.73v-4.84h.93v4.81a1.62,1.62,0,0,0,.43,1.2,1.64,1.64,0,0,0,1.21.43,1.68,1.68,0,0,0,1.22-.43,1.62,1.62,0,0,0,.42-1.2v-4.81Z"/><path class="cls-8" d="M167.18,237.53H164.9v6.35H164v-6.35h-2.28v-.76h5.5Z"/><path class="cls-8" d="M168.84,241.22h-2.38v-.73h2.38Z"/><path class="cls-8" d="M175.33,240.55a4.44,4.44,0,0,1-.35,1.82,2.62,2.62,0,0,1-1,1.19,2.68,2.68,0,0,1-1.5.41,2.65,2.65,0,0,1-2.5-1.59,4.27,4.27,0,0,1-.37-1.77v-.51a4.3,4.3,0,0,1,.36-1.81,2.62,2.62,0,0,1,1-1.2,2.68,2.68,0,0,1,1.49-.42,2.82,2.82,0,0,1,1.51.41,2.65,2.65,0,0,1,1,1.2,4.48,4.48,0,0,1,.35,1.82Zm-.93-.46a3.18,3.18,0,0,0-.51-1.94,1.8,1.8,0,0,0-2.82,0,3.13,3.13,0,0,0-.52,1.88v.52a3.23,3.23,0,0,0,.51,1.93,1.81,1.81,0,0,0,2.83,0,3.23,3.23,0,0,0,.51-1.9Z"/><path class="cls-8" d="M180.66,240.74h-3v3.14h-.93v-7.11h4.4v.76h-3.47V240h3Z"/><path class="cls-8" d="M184,241.22h-2.38v-.73H184Z"/><path class="cls-8" d="M186,241.09v2.79H185v-7.11h2.63a2.61,2.61,0,0,1,1.82.59,2.23,2.23,0,0,1,0,3.17,2.71,2.71,0,0,1-1.85.56Zm0-.76h1.69a1.67,1.67,0,0,0,1.15-.36,1.29,1.29,0,0,0,.4-1,1.32,1.32,0,0,0-.4-1,1.56,1.56,0,0,0-1.1-.4H186Z"/><path class="cls-8" d="M196.8,240.55a4.44,4.44,0,0,1-.35,1.82A2.61,2.61,0,0,1,194,244a2.65,2.65,0,0,1-2.5-1.59,4.27,4.27,0,0,1-.37-1.77v-.51a4.3,4.3,0,0,1,.36-1.81,2.62,2.62,0,0,1,1-1.2,2.68,2.68,0,0,1,1.49-.42,2.82,2.82,0,0,1,1.51.41,2.71,2.71,0,0,1,1,1.2,4.48,4.48,0,0,1,.35,1.82Zm-.93-.46a3.18,3.18,0,0,0-.51-1.94,1.8,1.8,0,0,0-2.82,0A3.13,3.13,0,0,0,192,240v.52a3.23,3.23,0,0,0,.51,1.93,1.81,1.81,0,0,0,2.83,0,3.23,3.23,0,0,0,.51-1.9Z"/><path class="cls-8" d="M203.44,241.62a2.62,2.62,0,0,1-.84,1.74,2.69,2.69,0,0,1-1.86.61,2.52,2.52,0,0,1-2-.9,3.67,3.67,0,0,1-.76-2.42V240a4,4,0,0,1,.36-1.74,2.59,2.59,0,0,1,1-1.16,2.76,2.76,0,0,1,1.5-.4,2.57,2.57,0,0,1,1.82.63,2.66,2.66,0,0,1,.8,1.75h-.95a2,2,0,0,0-.53-1.23,1.58,1.58,0,0,0-1.14-.39,1.68,1.68,0,0,0-1.4.67,3,3,0,0,0-.51,1.89v.69a3.14,3.14,0,0,0,.48,1.84,1.55,1.55,0,0,0,1.35.69,1.79,1.79,0,0,0,1.2-.36,1.91,1.91,0,0,0,.55-1.23Z"/><path class="cls-8" d="M206.52,240.57l-.87.9v2.41h-.93v-7.11h.93v3.51l3.16-3.51H210l-2.8,3.14,3,4H209Z"/><path class="cls-8" d="M215,240.59h-3.08v2.52h3.58v.77H211v-7.11h4.46v.76h-3.53v2.29H215Z"/><path class="cls-8" d="M221.68,237.53h-2.29v6.35h-.93v-6.35h-2.28v-.76h5.5Z"/></g><g class="cls-4"><path class="cls-8" d="M151.42,247.77l2.32,5.8,2.33-5.8h1.21v7.11h-.94v-2.77l.09-3-2.33,5.76h-.72l-2.33-5.75.09,3v2.77h-.93v-7.11Z"/><path class="cls-8" d="M163,253h-3l-.67,1.87h-1l2.71-7.11h.82l2.72,7.11h-1Zm-2.69-.76h2.41l-1.21-3.33Z"/><path class="cls-8" d="M167.87,250.49l1.7-2.72h1.11l-2.25,3.52,2.3,3.59h-1.11l-1.75-2.78-1.76,2.78H165l2.31-3.59-2.25-3.52h1.09Z"/><path class="cls-8" d="M172.82,254.88h-.93v-7.11h.93Z"/><path class="cls-8" d="M175.75,247.77l2.32,5.8,2.33-5.8h1.21v7.11h-.93v-2.77l.08-3-2.33,5.76h-.72l-2.33-5.75.1,3v2.77h-.94v-7.11Z"/><path class="cls-8" d="M188.27,247.77v4.83a2.26,2.26,0,0,1-.63,1.65,2.55,2.55,0,0,1-1.7.71h-.25a2.65,2.65,0,0,1-1.86-.63,2.24,2.24,0,0,1-.7-1.73v-4.84h.92v4.81a1.72,1.72,0,0,0,2.86,1.2,1.62,1.62,0,0,0,.42-1.2v-4.81Z"/><path class="cls-8" d="M191,247.77l2.33,5.8,2.32-5.8h1.22v7.11h-.94v-2.77l.09-3-2.34,5.76h-.71l-2.33-5.75.09,3v2.77h-.94v-7.11Z"/><path class="cls-8" d="M202.17,247.77l2.32,5.8,2.33-5.8H208v7.11h-.93v-2.77l.08-3-2.33,5.76h-.72l-2.33-5.75.1,3v2.77H201v-7.11Z"/><path class="cls-8" d="M213.71,251.59h-3.08v2.52h3.58v.77h-4.52v-7.11h4.47v.76h-3.53v2.29h3.08Z"/><path class="cls-8" d="M220.38,248.53H218.1v6.35h-.93v-6.35h-2.29v-.76h5.5Z"/></g></g><g id="DEDUCTIBLE_MET" data-name="DEDUCTIBLE MET" class="cls-4"><g class="cls-4"><path class="cls-8" d="M61,243.88v-7.11h2a3.2,3.2,0,0,1,1.64.41,2.8,2.8,0,0,1,1.1,1.16,3.78,3.78,0,0,1,.39,1.74v.46a3.8,3.8,0,0,1-.39,1.76,2.76,2.76,0,0,1-1.11,1.16,3.44,3.44,0,0,1-1.67.42Zm.94-6.35v5.58h1a2.14,2.14,0,0,0,1.69-.68,2.8,2.8,0,0,0,.6-1.92v-.41a2.84,2.84,0,0,0-.57-1.89,2,2,0,0,0-1.61-.68Z"/><path class="cls-8" d="M71.59,240.59H68.5v2.52h3.58v.77H67.57v-7.11H72v.76H68.5v2.29h3.09Z"/><path class="cls-8" d="M73.25,243.88v-7.11h2a3.17,3.17,0,0,1,1.64.41,2.8,2.8,0,0,1,1.1,1.16,3.78,3.78,0,0,1,.39,1.74v.46A3.8,3.8,0,0,1,78,242.3a2.68,2.68,0,0,1-1.1,1.16,3.48,3.48,0,0,1-1.68.42Zm.94-6.35v5.58h1a2.14,2.14,0,0,0,1.69-.68,2.8,2.8,0,0,0,.6-1.92v-.41a2.9,2.9,0,0,0-.56-1.89,2.07,2.07,0,0,0-1.62-.68Z"/><path class="cls-8" d="M84.81,236.77v4.83a2.26,2.26,0,0,1-.63,1.65,2.55,2.55,0,0,1-1.7.71h-.25a2.65,2.65,0,0,1-1.86-.63,2.24,2.24,0,0,1-.7-1.73v-4.84h.92v4.81a1.72,1.72,0,0,0,2.86,1.2,1.62,1.62,0,0,0,.42-1.2v-4.81Z"/><path class="cls-8" d="M91.52,241.62a2.62,2.62,0,0,1-.83,1.74,2.73,2.73,0,0,1-1.86.61,2.5,2.5,0,0,1-2-.9,3.62,3.62,0,0,1-.76-2.42V240a4.12,4.12,0,0,1,.35-1.74,2.61,2.61,0,0,1,1-1.16,2.76,2.76,0,0,1,1.5-.4,2.58,2.58,0,0,1,1.82.63,2.65,2.65,0,0,1,.79,1.75h-.94a2,2,0,0,0-.53-1.23,1.58,1.58,0,0,0-1.14-.39,1.69,1.69,0,0,0-1.41.67A3,3,0,0,0,87,240v.69a3.14,3.14,0,0,0,.48,1.84,1.58,1.58,0,0,0,1.36.69,1.79,1.79,0,0,0,1.2-.36,2,2,0,0,0,.55-1.23Z"/><path class="cls-8" d="M97.57,237.53H95.29v6.35h-.94v-6.35H92.07v-.76h5.5Z"/><path class="cls-8" d="M99.63,243.88h-.94v-7.11h.94Z"/><path class="cls-8" d="M101.35,243.88v-7.11h2.32a2.7,2.7,0,0,1,1.74.47,1.74,1.74,0,0,1,.58,1.42,1.42,1.42,0,0,1-.28.88,1.7,1.7,0,0,1-.77.59,1.68,1.68,0,0,1,.91.62,1.77,1.77,0,0,1,.34,1.07,1.9,1.9,0,0,1-.63,1.51,2.57,2.57,0,0,1-1.75.55Zm.93-4.08h1.42a1.44,1.44,0,0,0,1-.31,1,1,0,0,0,.37-.84,1,1,0,0,0-.34-.85,1.66,1.66,0,0,0-1-.27h-1.39Zm0,.75v2.56h1.55a1.46,1.46,0,0,0,1-.34,1.18,1.18,0,0,0,.38-.94c0-.85-.46-1.28-1.39-1.28Z"/><path class="cls-8" d="M108.51,243.11h3.37v.77h-4.31v-7.11h.94Z"/><path class="cls-8" d="M117,240.59h-3.08v2.52h3.58v.77H113v-7.11h4.47v.76h-3.53v2.29H117Z"/></g><g class="cls-4"><path class="cls-8" d="M80.79,247.77l2.33,5.8,2.32-5.8h1.22v7.11h-.94v-2.77l.09-3-2.34,5.76h-.71l-2.33-5.75.09,3v2.77h-.94v-7.11Z"/><path class="cls-8" d="M92.33,251.59H89.25v2.52h3.58v.77H88.31v-7.11h4.47v.76H89.25v2.29h3.08Z"/><path class="cls-8" d="M99,248.53H96.72v6.35h-.93v-6.35H93.51v-.76H99Z"/></g></g><g id="You_pay_0" data-name="You pay 0" class="cls-4"><g class="cls-4"><path class="cls-8" d="M199.27,215.53l1.64-3.37h1.36l-2.38,4.49v2.62h-1.24v-2.62l-2.39-4.49h1.37Z"/><path class="cls-8" d="M202.39,216.58a3,3,0,0,1,.31-1.4,2.23,2.23,0,0,1,.86-1,2.46,2.46,0,0,1,1.28-.33,2.33,2.33,0,0,1,1.74.69,2.73,2.73,0,0,1,.72,1.82v.28a3.16,3.16,0,0,1-.3,1.4,2.2,2.2,0,0,1-.86.95,2.48,2.48,0,0,1-1.29.34,2.3,2.3,0,0,1-1.79-.75,2.84,2.84,0,0,1-.67-2Zm1.19.1a2.19,2.19,0,0,0,.33,1.28,1.12,1.12,0,0,0,.94.46,1.11,1.11,0,0,0,.94-.47,2.37,2.37,0,0,0,.33-1.37,2.08,2.08,0,0,0-.34-1.27,1.11,1.11,0,0,0-.94-.47,1.09,1.09,0,0,0-.92.46A2.3,2.3,0,0,0,203.58,216.68Z"/><path class="cls-8" d="M211.51,218.75a1.86,1.86,0,0,1-1.49.62,1.64,1.64,0,0,1-1.3-.51,2.15,2.15,0,0,1-.44-1.45V214h1.19v3.41c0,.67.27,1,.83,1a1.18,1.18,0,0,0,1.17-.62V214h1.18v5.29h-1.11Z"/><path class="cls-8" d="M221,216.68a3.12,3.12,0,0,1-.56,1.95,1.78,1.78,0,0,1-1.49.74,1.75,1.75,0,0,1-1.39-.58v2.51h-1.19V214h1.09l.05.54a1.75,1.75,0,0,1,1.42-.63,1.81,1.81,0,0,1,1.52.72,3.19,3.19,0,0,1,.55,2Zm-1.18-.1a2.22,2.22,0,0,0-.32-1.26,1,1,0,0,0-.9-.46,1.09,1.09,0,0,0-1,.6v2.34a1.09,1.09,0,0,0,1.05.62,1,1,0,0,0,.89-.46A2.42,2.42,0,0,0,219.8,216.58Z"/><path class="cls-8" d="M225.14,219.27a2,2,0,0,1-.14-.49,2,2,0,0,1-2.68.13,1.44,1.44,0,0,1-.51-1.12,1.5,1.5,0,0,1,.63-1.3,3.07,3.07,0,0,1,1.8-.45H225v-.35a.83.83,0,0,0-.92-.9,1.09,1.09,0,0,0-.67.2.65.65,0,0,0-.26.52h-1.18a1.31,1.31,0,0,1,.28-.81,2,2,0,0,1,.79-.6,2.8,2.8,0,0,1,1.1-.21,2.2,2.2,0,0,1,1.48.46,1.66,1.66,0,0,1,.57,1.31v2.39a2.81,2.81,0,0,0,.2,1.14v.08Zm-1.3-.86a1.3,1.3,0,0,0,.66-.17,1.08,1.08,0,0,0,.46-.46v-1h-.64a1.69,1.69,0,0,0-1,.23.74.74,0,0,0-.33.65.69.69,0,0,0,.23.54A.85.85,0,0,0,223.84,218.41Z"/><path class="cls-8" d="M229.17,217.57l1.07-3.59h1.27l-2.1,6.09a1.71,1.71,0,0,1-1.64,1.33,2,2,0,0,1-.57-.09v-.92l.22,0a1.15,1.15,0,0,0,.68-.17,1.1,1.1,0,0,0,.36-.55l.17-.45L226.77,214h1.28Z"/><path class="cls-8" d="M238.07,217.41a1,1,0,0,0-.26-.68,2.17,2.17,0,0,0-.88-.49,8.55,8.55,0,0,1-1-.4,2,2,0,0,1-1.14-1.81,1.84,1.84,0,0,1,.5-1.33,2,2,0,0,1,1.33-.62V211h.78v1.08a2,2,0,0,1,1.32.71,2.49,2.49,0,0,1,.46,1.56H238a1.51,1.51,0,0,0-.28-1A.9.9,0,0,0,237,213a1,1,0,0,0-.73.25,1,1,0,0,0-.26.73.93.93,0,0,0,.26.68,2.62,2.62,0,0,0,.89.49,7.71,7.71,0,0,1,1,.42,2.55,2.55,0,0,1,.6.45,1.6,1.6,0,0,1,.37.58,1.94,1.94,0,0,1,.14.76,1.82,1.82,0,0,1-.51,1.34,2.24,2.24,0,0,1-1.41.61v1h-.77v-1a2.07,2.07,0,0,1-2-2.24h1.19a1.39,1.39,0,0,0,.3.95,1.15,1.15,0,0,0,.88.33,1.22,1.22,0,0,0,.85-.27A.91.91,0,0,0,238.07,217.41Z"/><path class="cls-8" d="M244.92,216.28a3.9,3.9,0,0,1-.57,2.31,2.35,2.35,0,0,1-3.48,0,3.73,3.73,0,0,1-.6-2.25v-1.23a3.84,3.84,0,0,1,.57-2.3,2.38,2.38,0,0,1,3.49,0,3.71,3.71,0,0,1,.59,2.23ZM243.73,215a3,3,0,0,0-.27-1.47.93.93,0,0,0-.87-.47.92.92,0,0,0-.85.45,2.66,2.66,0,0,0-.29,1.37v1.62a3,3,0,0,0,.28,1.48.91.91,0,0,0,.87.49.94.94,0,0,0,.85-.45,3,3,0,0,0,.28-1.42Z"/></g></g><line id="Line_264" data-name="Line 264" class="cls-9" x1="89.1" y1="196.2" x2="89.1" y2="224.6"/><path id="Path_689" data-name="Path 689" class="cls-10" d="M89.1,198.1a.8.8,0,1,0-.8-.8.79.79,0,0,0,.78.8Z"/><line id="Line_265" data-name="Line 265" class="cls-9" x1="184.9" y1="196.2" x2="184.9" y2="224.6"/><path id="Path_690" data-name="Path 690" class="cls-10" d="M184.9,198.1a.8.8,0,1,0-.8-.8A.86.86,0,0,0,184.9,198.1Z"/></g></svg>