<?xml version="1.0" encoding="utf-8"?>
<!-- Generator: Adobe Illustrator 23.0.1, SVG Export Plug-In . SVG Version: 6.00 Build 0)  -->
<svg version="1.1" id="Layer_1" xmlns="http://www.w3.org/2000/svg" xmlns:xlink="http://www.w3.org/1999/xlink" x="0px" y="0px"
	 viewBox="0 0 347.1 27.8" style="enable-background:new 0 0 347.1 27.8;" xml:space="preserve">
<style type="text/css">
	.st0{fill:#FFE400;}
</style>
<path class="st0" d="M82.6,0.8c-4-0.8-6.2,0.5-10.9,2.8c-3.2,1.5-48.3,1.3-52.4,0c-3.3-1-8.3-6.1-14.6-2C2.9,3,1.8,5.1,1.8,7.4
	c0,4.5,2,4.2,2.1,7.4c0,1.7-1.9,2.1-1.8,6c0,3.7,3,6.6,6.6,6.7c6.1,0.4,7.4-1.4,11-2.9c4-1.6,46.3-1.2,51,0.1
	c4.5,1.3,5.2,2.5,10.7,2.6c3,0,5.6-2,6.5-4.9c1.1-4.3-1.9-5.7-2-7.6s2-3.7,2.1-6.8C88.2,4.6,85.9,1.6,82.6,0.8z"/>
<path class="st0" d="M159.2,0.8c-4-0.8-6.2,0.5-10.9,2.8c-3.2,1.5-9.9,1.3-14,0c-3.3-1-8.2-6.1-14.6-2c-1.8,1.4-2.9,3.5-2.9,5.8
	c0,4.5,2,4.2,2.1,7.4c0,1.7-1.9,2.1-1.8,6c0,3.7,3,6.6,6.6,6.7c6.1,0.4,7.4-1.4,11-2.9c4-1.6,7.9-1.2,12.7,0.1
	c4.5,1.3,5.2,2.5,10.7,2.6c3,0,5.7-2,6.5-4.9c1.1-4.3-1.9-5.7-2-7.6s2-3.7,2.1-6.8C164.9,4.6,162.5,1.6,159.2,0.8z"/>
<path class="st0" d="M113.2,11.7c0.7-1.7,1-4.9-0.1-6.5c-1.1-1.7-3-2.6-5-2.4c-1.9,0-3.6,0.9-4.6,2.5c-0.8,1-1.8,1-2.7,0
	c-1.1-1.4-2.8-2.1-4.5-1.9c-3,0.1-5.4,2.7-5.2,5.8v0.1c0.2,1.4,0.7,2.8,1.4,4.1c0.9,2.2-0.8,3.9-0.8,6c0.1,3.1,2.7,5.5,5.8,5.4
	c1.4,0,2.7-0.6,3.6-1.7c0.5-0.9,1.7-1.2,2.6-0.7c0.3,0.2,0.5,0.4,0.7,0.7c1,1.2,2.4,1.8,3.9,1.7c3.1,0,5.6-2.4,5.7-5.5
	C114,16.1,111.3,16,113.2,11.7z"/>
<path class="st0" d="M237.4,0.8c-4-0.8-6.2,0.5-10.9,2.8c-3.2,1.5-37.2,1.3-41.3,0c-3.3-1-8.2-6.1-14.6-2c-1.8,1.4-2.9,3.6-2.9,5.9
	c0,4.5,2,4.2,2.1,7.4c0,1.7-1.9,2.1-1.7,6c0,3.7,3,6.6,6.6,6.7c6.1,0.4,7.4-1.4,11-2.9c4-1.6,35.2-1.2,40,0.1
	c4.5,1.3,5.2,2.5,10.7,2.6c3,0,5.6-2,6.5-4.9c1.1-4.3-1.9-5.7-2-7.6s2-3.7,2.1-6.8C243.1,4.6,240.7,1.6,237.4,0.8z"/>
<path class="st0" d="M268,11.7c0.7-1.7,1-4.9-0.1-6.5c-1.1-1.7-3-2.6-5-2.4c-1.9,0-3.6,0.9-4.6,2.5c-0.8,1-1.8,1-2.7,0
	c-1.1-1.4-2.8-2.1-4.5-1.9c-3,0.2-5.3,2.8-5.2,5.8l0,0c0.2,1.4,0.7,2.8,1.4,4.1c1,2.2-0.8,3.9-0.8,6c0.1,3.1,2.7,5.5,5.8,5.4
	c1.4,0,2.7-0.6,3.6-1.7c0.5-0.9,1.7-1.2,2.6-0.7c0.3,0.2,0.5,0.4,0.7,0.7c1,1.2,2.4,1.8,3.9,1.7c3.1,0,5.6-2.4,5.7-5.5
	C268.8,16.1,266.1,16,268,11.7z"/>
<path class="st0" d="M344.6,11.7c0.7-1.7,1-4.9-0.1-6.5c-1.1-1.7-3-2.6-5-2.4c-1.9,0-3.6,0.9-4.6,2.5c-0.8,1-1.8,1-2.7,0
	c-1.1-1.4-2.8-2.1-4.5-1.9c-3,0.1-5.4,2.7-5.2,5.8v0.1c0.2,1.4,0.7,2.8,1.4,4.1c1,2.2-0.8,3.9-0.8,6c0.1,3.1,2.7,5.5,5.8,5.4
	c1.4,0,2.7-0.6,3.6-1.7c0.5-0.9,1.7-1.2,2.6-0.7c0.3,0.2,0.5,0.4,0.7,0.7c1,1.1,2.4,1.8,3.9,1.7c3.1,0,5.6-2.4,5.7-5.5
	C345.4,16.1,342.8,16,344.6,11.7z"/>
<path class="st0" d="M318.9,6.5c-0.4-2.7-3.3-5.6-6.9-6c-5.5-0.6-7.3,1.6-10.3,3.4c-4.1,2.3-9.2,2.3-13.3,0c-3.2-2.1-6.7-4.3-11-3
	c-3.8,1.2-5.9,3.6-5.9,7.3c0,3.3,1.7,3.2,1.7,6.4s-1.4,2.7-1.4,6.3s2.7,5.9,6.6,6.7c3.7,0.7,6.7-0.3,10-2.4c4.1-2.3,9.2-2.3,13.3,0
	c3,1.8,6.4,2.7,9.9,2.6c3.2-0.2,5.9-2.2,6.9-5.3c1.1-4.3-1.6-5.5-1.6-7.9S319.6,11,318.9,6.5z"/>
</svg>
