<?xml version="1.0" encoding="utf-8"?>
<!-- Generator: Adobe Illustrator 23.0.1, SVG Export Plug-In . SVG Version: 6.00 Build 0)  -->
<svg version="1.1" id="Layer_1" xmlns="http://www.w3.org/2000/svg" xmlns:xlink="http://www.w3.org/1999/xlink" x="0px" y="0px"
	 viewBox="0 0 46 46" style="enable-background:new 0 0 46 46;" xml:space="preserve">
<style type="text/css">
	.st0{fill:#EF4923;}
</style>
<title>bg-circs</title>
<path class="st0" d="M50.3,32.6c-1.8-1.9-4.5-2.7-7.1-2.1l-0.1,0c0.9-4.2-1.9-8.3-6.1-9.2c-1-0.2-2.1-0.2-3.1,0
	c0.9-4.2-1.9-8.3-6.1-9.2c-1-0.2-2.1-0.2-3.1,0C25.6,8,22.9,3.8,18.7,3c-1-0.2-2.1-0.2-3.1,0c0.9-4.2-1.9-8.3-6.1-9.2
	c-1-0.2-2.1-0.2-3.2,0L0.2-0.1c-0.9,4.2,1.9,8.3,6.1,9.2c1,0.2,2.1,0.2,3.1,0c-0.9,4.2,1.9,8.3,6.1,9.2c1,0.2,2.1,0.2,3.1,0
	c-0.9,4.2,1.9,8.3,6.1,9.2c1,0.2,2.1,0.2,3.1,0c-0.9,4.2,1.9,8.3,6.1,9.2c1,0.2,2.1,0.2,3.1,0h0.1c-0.8,4.2,2,8.3,6.2,9.1
	c1,0.2,2,0.2,3,0l6.1-6.1C52.9,37.1,52.1,34.5,50.3,32.6z"/>
<path class="st0" d="M0.1,45.9h15.4c-0.6-3-2.9-5.6-6.1-6.2c-1-0.2-2.1-0.2-3.1,0c0.9-4.2-1.9-8.3-6.1-9.2c-0.1,0-0.1,0-0.2,0v15.4
	C0.1,45.9,0.1,45.9,0.1,45.9C0.2,45.9,0.2,45.9,0.1,45.9z"/>
</svg>
