<svg id="Layer_1" data-name="Layer 1" xmlns="http://www.w3.org/2000/svg" xmlns:xlink="http://www.w3.org/1999/xlink" viewBox="0 0 46 46"><defs><style>.cls-1{fill:none;}.cls-2{fill:#ffd602;}.cls-3{fill:url(#New_Pattern_2);}</style><pattern id="New_Pattern_2" data-name="New Pattern 2" width="46" height="46" patternUnits="userSpaceOnUse" viewBox="0 0 46 46"><rect class="cls-1" width="46" height="46"/><path class="cls-2" d="M93,81.85a7.78,7.78,0,0,0-7.06-2.13l-.09,0a7.8,7.8,0,0,0-9.2-9.19l0,0a7.8,7.8,0,0,0-9.19-9.19h0a7.79,7.79,0,0,0-9.2-9.19A7.78,7.78,0,0,0,49,43.05l-6.09,6.09a7.79,7.79,0,0,0,9.19,9.19,7.8,7.8,0,0,0,9.19,9.19h0a7.8,7.8,0,0,0,9.2,9.2l0,0a7.8,7.8,0,0,0,9.19,9.2l.1-.05A7.79,7.79,0,0,0,89,95l6.09-6.1A7.78,7.78,0,0,0,93,81.85Z"/><path class="cls-2" d="M47,81.85a7.78,7.78,0,0,0-7.06-2.13l-.09,0a7.8,7.8,0,0,0-9.2-9.19l-.05,0a7.8,7.8,0,0,0-9.19-9.19h0a7.79,7.79,0,0,0-9.2-9.19A7.78,7.78,0,0,0,3,43.05l-6.09,6.09a7.79,7.79,0,0,0,9.19,9.19,7.8,7.8,0,0,0,9.19,9.19h0a7.8,7.8,0,0,0,9.2,9.2l.05,0a7.8,7.8,0,0,0,9.19,9.2l.1-.05A7.79,7.79,0,0,0,43,95l6.09-6.1A7.78,7.78,0,0,0,47,81.85Z"/><path class="cls-2" d="M1,81.85a7.78,7.78,0,0,0-7.06-2.13l-.09,0a7.78,7.78,0,0,0-2.13-7.06,7.8,7.8,0,0,0-7.07-2.13l-.05,0a7.78,7.78,0,0,0-2.13-7.06,7.78,7.78,0,0,0-7.06-2.13h0a7.82,7.82,0,0,0-2.13-7.07,7.79,7.79,0,0,0-7.07-2.12,7.82,7.82,0,0,0-2.12-7.07A7.82,7.82,0,0,0-43,43.05l-6.09,6.09a7.8,7.8,0,0,0,2.13,7.07,7.79,7.79,0,0,0,7.06,2.12,7.77,7.77,0,0,0,2.13,7.06,7.78,7.78,0,0,0,7.06,2.13h0a7.8,7.8,0,0,0,2.13,7.07,7.8,7.8,0,0,0,7.07,2.13l.05,0a7.8,7.8,0,0,0,2.13,7.07,7.81,7.81,0,0,0,7.06,2.13l.1-.05A7.78,7.78,0,0,0-10,92.88,7.8,7.8,0,0,0-3,95l6.09-6.1A7.78,7.78,0,0,0,1,81.85Z"/><path class="cls-2" d="M93,35.85a7.78,7.78,0,0,0-7.06-2.13l-.09.05a7.8,7.8,0,0,0-9.2-9.19l0,0a7.8,7.8,0,0,0-9.19-9.19h0a7.79,7.79,0,0,0-9.2-9.19A7.78,7.78,0,0,0,49-2.95L42.92,3.14a7.79,7.79,0,0,0,9.19,9.19,7.8,7.8,0,0,0,9.19,9.19h0a7.8,7.8,0,0,0,9.2,9.2l0,0a7.8,7.8,0,0,0,9.19,9.2l.1,0A7.79,7.79,0,0,0,89,49l6.09-6.1A7.78,7.78,0,0,0,93,35.85Z"/><path class="cls-2" d="M47,35.85a7.78,7.78,0,0,0-7.06-2.13l-.09.05a7.8,7.8,0,0,0-9.2-9.19l-.05,0a7.8,7.8,0,0,0-9.19-9.19h0a7.79,7.79,0,0,0-9.2-9.19A7.78,7.78,0,0,0,3-2.95L-3.08,3.14a7.79,7.79,0,0,0,9.19,9.19,7.8,7.8,0,0,0,9.19,9.19h0a7.8,7.8,0,0,0,9.2,9.2l.05,0a7.8,7.8,0,0,0,9.19,9.2l.1,0A7.79,7.79,0,0,0,43,49l6.09-6.1A7.78,7.78,0,0,0,47,35.85Z"/><path class="cls-2" d="M1,35.85a7.78,7.78,0,0,0-7.06-2.13l-.09.05a7.78,7.78,0,0,0-2.13-7.06,7.8,7.8,0,0,0-7.07-2.13l-.05,0a7.78,7.78,0,0,0-2.13-7.06,7.78,7.78,0,0,0-7.06-2.13h0a7.82,7.82,0,0,0-2.13-7.07A7.79,7.79,0,0,0-33.8,6.24,7.82,7.82,0,0,0-35.92-.83,7.82,7.82,0,0,0-43-2.95l-6.09,6.09a7.8,7.8,0,0,0,2.13,7.07,7.79,7.79,0,0,0,7.06,2.12,7.77,7.77,0,0,0,2.13,7.06,7.78,7.78,0,0,0,7.06,2.13h0a7.8,7.8,0,0,0,2.13,7.07,7.8,7.8,0,0,0,7.07,2.13l.05,0a7.8,7.8,0,0,0,2.13,7.07,7.81,7.81,0,0,0,7.06,2.13l.1,0A7.78,7.78,0,0,0-10,46.88,7.8,7.8,0,0,0-3,49l6.09-6.1A7.78,7.78,0,0,0,1,35.85Z"/><path class="cls-2" d="M93-10.15a7.78,7.78,0,0,0-7.06-2.13l-.09,0a7.78,7.78,0,0,0-2.13-7.06,7.8,7.8,0,0,0-7.07-2.13l0,0a7.78,7.78,0,0,0-2.13-7.06,7.78,7.78,0,0,0-7.06-2.13h0a7.82,7.82,0,0,0-2.13-7.07,7.79,7.79,0,0,0-7.07-2.12,7.82,7.82,0,0,0-2.12-7.07A7.82,7.82,0,0,0,49-48.95l-6.09,6.09a7.8,7.8,0,0,0,2.13,7.07,7.79,7.79,0,0,0,7.06,2.12,7.77,7.77,0,0,0,2.13,7.06,7.78,7.78,0,0,0,7.06,2.13h0a7.8,7.8,0,0,0,2.13,7.07,7.8,7.8,0,0,0,7.07,2.13l0-.05a7.8,7.8,0,0,0,2.13,7.07,7.81,7.81,0,0,0,7.06,2.13l.1,0A7.78,7.78,0,0,0,82,.88,7.8,7.8,0,0,0,89,3l6.09-6.1A7.78,7.78,0,0,0,93-10.15Z"/><path class="cls-2" d="M47-10.15a7.78,7.78,0,0,0-7.06-2.13l-.09,0a7.78,7.78,0,0,0-2.13-7.06,7.8,7.8,0,0,0-7.07-2.13l-.05,0a7.78,7.78,0,0,0-2.13-7.06,7.78,7.78,0,0,0-7.06-2.13h0a7.82,7.82,0,0,0-2.13-7.07,7.79,7.79,0,0,0-7.07-2.12,7.82,7.82,0,0,0-2.12-7.07A7.82,7.82,0,0,0,3-48.95l-6.09,6.09A7.8,7.8,0,0,0-.95-35.79a7.79,7.79,0,0,0,7.06,2.12,7.77,7.77,0,0,0,2.13,7.06,7.78,7.78,0,0,0,7.06,2.13h0a7.8,7.8,0,0,0,2.13,7.07,7.8,7.8,0,0,0,7.07,2.13l.05-.05a7.8,7.8,0,0,0,2.13,7.07,7.81,7.81,0,0,0,7.06,2.13l.1,0A7.78,7.78,0,0,0,36,.88,7.8,7.8,0,0,0,43,3l6.09-6.1A7.78,7.78,0,0,0,47-10.15Z"/><path class="cls-2" d="M1-10.15a7.78,7.78,0,0,0-7.06-2.13l-.09,0a7.78,7.78,0,0,0-2.13-7.06,7.8,7.8,0,0,0-7.07-2.13l-.05,0a7.78,7.78,0,0,0-2.13-7.06,7.78,7.78,0,0,0-7.06-2.13h0a7.82,7.82,0,0,0-2.13-7.07,7.79,7.79,0,0,0-7.07-2.12,7.82,7.82,0,0,0-2.12-7.07A7.82,7.82,0,0,0-43-48.95l-6.09,6.09a7.8,7.8,0,0,0,2.13,7.07,7.79,7.79,0,0,0,7.06,2.12,7.77,7.77,0,0,0,2.13,7.06,7.78,7.78,0,0,0,7.06,2.13h0a7.8,7.8,0,0,0,2.13,7.07,7.8,7.8,0,0,0,7.07,2.13l.05-.05a7.8,7.8,0,0,0,2.13,7.07,7.81,7.81,0,0,0,7.06,2.13l.1,0A7.78,7.78,0,0,0-10,.88,7.8,7.8,0,0,0-3,3l6.09-6.1A7.78,7.78,0,0,0,1-10.15Z"/></pattern></defs><title>bg-circs</title><rect class="cls-3" width="46" height="46"/></svg>